<svg id="pc_attou-txt.svg_pc_png_attou-txt.png" data-name="pc/attou-txt.svg,pc/png/attou-txt.png" xmlns="http://www.w3.org/2000/svg" width="429.969" height="243.72"><defs><style>.cls-1{fill-rule:evenodd}</style></defs><path id="圧倒的なうるおい" class="cls-1" d="M306.178 5714.36c2.073 0 2.073.18 2.073 7.46 0 1.25-.06 11.31-.237 11.97a1.713 1.713 0 0 1-1.895.88H299.9c-2.784 0-5.212-.06-8.113-.17-.356 0-2.191-.24-2.606-.24a.208.208 0 0 0-.237.18.794.794 0 0 0 .3.35l1.125 1.36a.717.717 0 0 0 .533.42 8.88 8.88 0 0 0 1.244-.18c.592 0 2.25-.12 7.462-.12h32.1c2.014 0 3.2 0 3.2-.83 0-.77-5.211-3.91-5.566-3.91-.533 0-.711.18-2.369 2.2-.829.94-1.125.94-3.79.94h-8.765c-.592 0-1.6-.06-1.717-.94-.118-.48-.178-15.28-.178-17.12 0-1.6.237-2.25 1.895-2.25h14.1c2.013 0 3.2 0 3.2-.83 0-.71-5.152-3.91-5.566-3.91-.533 0-.711.24-2.369 2.19-.829 1.01-1.125 1.01-3.79 1.01h-5.567a1.557 1.557 0 0 1-1.895-1.36c-.059-.53-.059-5.75-.059-6.75 0-2.01 0-2.96.474-3.5 1.244-1.36 1.421-1.54 1.421-1.95 0-1.01-6.573-2.84-6.81-2.84-.3 0-.592.06-.592.35 0 .18.414.95.474 1.19.533 1.66.592 9.89.592 12.43 0 1.54 0 2.43-1.895 2.43h-1.6c-2.783 0-5.271-.12-8.113-.23-.356 0-2.191-.18-2.606-.18-.118 0-.237 0-.237.12a.877.877 0 0 0 .3.41l1.125 1.36a.634.634 0 0 0 .533.36c.178 0 1.066-.12 1.244-.12.592-.06 2.31-.18 7.462-.18h1.954zm25.583-22.03c2.842 0 3.138 0 3.138-.71 0-1-4.145-4.74-4.974-4.74-.651 0-2.132 2.9-2.547 3.38-.355.41-.71.53-3.02.53h-32.689a5.762 5.762 0 0 1-2.783-.53c-2.724-1.07-3.139-1.24-3.731-1.24a.643.643 0 0 0-.711.47 15.152 15.152 0 0 0 .356 1.72c.651 4.5.651 5.27.651 13.56 0 10.66 0 23.09-3.612 31.27a26.728 26.728 0 0 0-1.3 2.78.325.325 0 0 0 .3.35c.355 0 2.606-2.36 3.968-5.33 4.441-9.47 4.678-16.64 5.033-38.78.06-2.02.06-2.73 1.955-2.73h39.973zm18.647 8.29c-.118-.41.06-.65 1.185-2.72 2.665-4.74 2.961-5.27 3.671-6.04.237-.24 1.955-1.3 1.955-1.78 0-.3-.119-.35-1.362-1.12-3.494-2.08-3.85-2.31-4.205-2.31s-.355.17-.533 1.48c-.711 6.39-8.942 21.73-10.422 24.4a9.723 9.723 0 0 0-.889 1.65.158.158 0 0 0 .178.18c1.007 0 6.218-7.64 6.514-7.64.237 0 .237.3.237.42.059 1.12.059 3.79.059 5.09 0 9 0 13.86-.178 18.48-.059 1.3-.414 7.1-.414 8.17a1.454 1.454 0 0 0 1.54 1.72 4.15 4.15 0 0 0 2.487-1.07 2.693 2.693 0 0 0 .592-2.19c0-4.68-.415-27.72-.415-32.93a1.6 1.6 0 0 1 .77-1.66c.592-.29.652-.41.652-.71a.909.909 0 0 0-.592-.71 1.264 1.264 0 0 1-.83-.71zm33.163 8.94c0-1.42.237-8.52.237-10.18 0-1.72.3-1.96.711-2.31.651-.47.829-.65.829-1.01 0-.59-.711-.89-1.836-1.3-.355-.12-3.612-1.19-3.731-1.19a.348.348 0 0 0-.414.3c0 .3.473 1.54.533 1.84a39.266 39.266 0 0 1 .237 6.33c0 5.69-.06 15.4-.415 20.85-.059.59-.414 3.61-.414 4.32a1.45 1.45 0 0 0 1.539 1.72 3.594 3.594 0 0 0 1.836-.59c.711-.42.948-.77.948-2.02 0-2.36-.06-14.09-.06-16.76zm-26.293-16.22a.641.641 0 0 0 .533.35c.474 0 3.257-.23 3.849-.23 1.481 0 1.481.71 1.481 1.54 0 2.9-.77 8.7-2.251 11.37-.3.59-.651.59-1.836.59a19.912 19.912 0 0 1-3.73-.24 9.955 9.955 0 0 0-1.422-.29.385.385 0 0 0-.414.35 36.572 36.572 0 0 0 1.3 3.85c.533 1.48.592 1.6 1.066 1.6a2.74 2.74 0 0 0 1.243-.71 4.179 4.179 0 0 1 1.777-1.13c1.243-.29 14.094-3.2 14.686-3.2a.837.837 0 0 1 .829.48c.889 1.66 1.244 2.25 2.073 2.25.711 0 1.481-.89 1.481-2.25 0-4.8-7.462-7.52-8.114-7.52-.118 0-.355 0-.355.18a9.508 9.508 0 0 0 .829.82c1.3 1.19 3.257 3.86 3.257 4.74 0 .3-.177.42-.592.48-.474.06-9.593.47-9.593.47-.948.06-1.007-.24-1.007-.47a.462.462 0 0 1 .118-.3c.237-.71 1.481-3.26 3.317-6.99 1.184-2.37 1.3-2.6 1.776-2.78 1.125-.42 1.3-.47 1.3-.83 0-.41-1.777-1.78-1.777-1.9 0-.17.178-.17.415-.17h7.521c2.013 0 3.2 0 3.2-.83a30.523 30.523 0 0 0-4.205-4.09c-.592 0-.77.24-2.428 2.37-.77 1.01-1.066 1.01-3.79 1.01h-1.48c-2.429 0-5.153-.12-7.64-.24-.355 0-2.191-.18-2.605-.18-.178 0-.237 0-.237.12a1.013 1.013 0 0 0 .237.42zm31.149-6.22c-.177 0-.651-.06-.651.18 0 .29.533 1.66.592 2.01a27.028 27.028 0 0 1 .355 4.15c0 6.33-.118 36.65-.592 39.61-.237 1.78-.829 1.96-2.072 1.96-1.007 0-5.863-.53-6.337-.53-.237 0-.711.06-.711.29 0 .06 2.665 1.78 3.021 2.07a10.267 10.267 0 0 1 2.132 2.08c.947 1.24 1.065 1.42 1.835 1.42 2.606 0 5.034-2.07 5.8-5.27.592-2.43.592-4.74.592-25.29v-16.94a3.781 3.781 0 0 1 .3-1.77 10.941 10.941 0 0 0 1.481-1.9c0-1-4.738-1.89-5.745-2.07zm-13.561 36.84c2.073 0 3.139 0 3.139-.84 0-1-3.968-3.49-4.264-3.49-.474 0-.592.18-1.658 1.78-.533.77-.948 1.01-2.843 1.01-1.776 0-1.776-.66-1.776-3.03 0-2.84 0-3.13.355-3.61a8.89 8.89 0 0 0 1.362-1.24.942.942 0 0 0-.474-.65c-.118-.06-5.329-2.08-5.507-2.08a.457.457 0 0 0-.415.48 12.888 12.888 0 0 0 .652 1.6 20.211 20.211 0 0 1 .414 4.74c0 3.19 0 3.79-1.717 3.79-1.244 0-6.751-.42-7.876-.42a.14.14 0 0 0-.178.12.544.544 0 0 0 .237.41l1.125 1.37a.844.844 0 0 0 .533.35c.119 0 .711-.06.829-.06 1.007-.06 3.849-.23 5.33-.23 1.658 0 1.658.82 1.658 2.42 0 1.13 0 6.52-.355 6.93-.356.53-3.317.65-3.909.65-.829 0-4.737 0-5.389-.17-.177 0-1.006-.3-1.125-.3a.41.41 0 0 0-.474.47c0 .3 2.073 6.22 2.9 6.22a2.485 2.485 0 0 0 1.6-1.18c.474-.65.77-.77 3.376-1.37.947-.23 17.232-4.32 17.232-5.27a.194.194 0 0 0-.236-.17c-.711 0-3.672.53-4.323.59-.178.06-4.027.41-4.383.41a1.061 1.061 0 0 1-1.3-1.24v-6.46c0-1.3.77-1.53 1.836-1.53h5.626zm41.72 6.33c1.717 0 2.191.3 2.191 2.31 0 1.07 0 2.07 1.717 2.07.77 0 2.9-.53 2.843-2.13 0 0 0-1.78-.06-2.49-.177-2.66-.177-12.08-.177-16.1 0-4.21 0-10.78.237-11.25.177-.42 1.717-1.72 1.717-2.14 0-.83-4.145-3.14-4.441-3.14a4.85 4.85 0 0 0-1.6 1.55 1.788 1.788 0 0 1-1.6.65h-6.751c-.356 0-.889 0-.889-.42 0-.53 2.725-4.62 6.041-7.87.3-.24 1.658-1.07 1.658-1.37 0-.77-5.33-2.78-5.685-2.84a13.99 13.99 0 0 1-.178 1.9c-.414 2.54-1.362 5.09-3.079 9.17a1.153 1.153 0 0 1-.829.89c-.3 0-2.9-1.24-3.435-1.24a.551.551 0 0 0-.592.65c0 .24.059 1.13.059 1.3.178 3.62.237 6.93.237 11.08 0 3.91-.474 21.08-.474 24.57a1.411 1.411 0 0 0 1.658 1.66c2.9 0 2.9-3.43 2.9-4.85 0-1.13.178-1.96 1.836-1.96h6.692zm-6.692-16.82c-.652 0-1.6 0-1.836-1.06-.059-.24-.059-8.41-.059-9.6 0-1.66 1.184-1.66 1.895-1.66H417a1.528 1.528 0 0 1 1.836 1.13c.059.24.059 8.41.059 9.59 0 1.6-1.184 1.6-1.895 1.6h-7.106zm7.106 1.6a1.511 1.511 0 0 1 1.6.77 48.572 48.572 0 0 1 .237 6.04c0 6.69 0 6.87-1.836 6.87h-7.225a1.6 1.6 0 0 1-1.6-.83 47.529 47.529 0 0 1-.237-6.04c0-6.69 0-6.81 1.835-6.81H417zm28.84-14.39c.651 0 1.836 0 1.836 1.6 0 1.78.177 9.65.177 11.25 0 6.87-1.362 17-3.671 19.96a3.427 3.427 0 0 1-2.961 1.36c-.77 0-4.145-.53-4.856-.59-.355-.06-1.836-.42-2.132-.42a.319.319 0 0 0-.3.3c0 .42 2.961 1.54 3.494 1.9 1.54.88 1.6 1.18 2.25 3.31a1.177 1.177 0 0 0 1.3.83 8.341 8.341 0 0 0 6.4-3.91c1.421-2.48 4.323-7.87 4.323-27.53 0-5.1 0-5.69.237-6.28.236-.42 1.776-1.78 1.776-2.19 0-1.01-4.5-3.38-4.8-3.38-.414 0-1.243 1.48-1.48 1.72a2.446 2.446 0 0 1-1.421.53h-11.43c-.71 0-1.3 0-1.3-.71 0-.24 2.309-6.34 3.375-7.52.3-.29 2.013-1.36 2.013-1.78 0-1-5.744-2.19-5.921-2.19-.237 0-.237.12-.474 1.37a82.907 82.907 0 0 1-5.745 18c-.177.47-1.243 2.84-1.243 3.02a.149.149 0 0 0 .178.12c.71 0 2.013-1.78 4.619-5.81 1.717-2.66 1.895-2.96 3.316-2.96h12.44zm-13.44 9.42a.265.265 0 0 0-.3.23 3.752 3.752 0 0 0 .652 1.19 16.219 16.219 0 0 1 2.427 6.81c.415 3.02.593 4.09 2.369 4.09a2.912 2.912 0 0 0 2.9-2.91c.003-4.97-7.399-9.41-8.048-9.41zm41.856-13.68a7.486 7.486 0 0 1-2.606.35 8.826 8.826 0 0 1-4.56-1.24 3.553 3.553 0 0 0-1.6-.77c-.355 0-.414.47-.414.71 0 .06 0 4.2 6.987 4.8.889.06 1.3.12 1.3.65a52.98 52.98 0 0 1-8.172 19.3c-1.777 2.55-1.954 2.85-1.954 3.68a1.58 1.58 0 0 0 1.836 1.65c5.448 0 10.541-20.01 11.251-22.97.533-2.08.592-2.25 1.125-2.43 4.8-1.42 8.113-2.49 8.113-4.74 0-1.66-2.25-2.31-3.375-2.6-1.777-.48-2.369-.72-2.665-1.13-.947-1.3-1.9-2.6-4.264-2.6-1.184 0-2.428.53-2.428 1.24a11.861 11.861 0 0 0 1.125 1.66 4.815 4.815 0 0 1 .83 2.6 2.832 2.832 0 0 1-.532 1.84zm3.73-.54a.591.591 0 0 1-.118-.35c0-.18.414-2.6 1.421-2.6.356 0 2.428 1.06 2.428 1.47-.003.89-3.556 1.66-3.734 1.48zm14.213 34.83c.829-.36 3.553 1.48 5.152 2.9a2.583 2.583 0 0 0 1.836.95c1.184 0 1.6-1.07 1.6-2.08 0-2.19-3.435-4.08-4.678-4.74-.533-.29-3.317-1.24-3.85-1.65-1.776-1.25-2.369-10.43-2.369-11.91s.06-3.61 1.422-4.91a7.075 7.075 0 0 1 4.323-1.78c.71 0 .947.12 3.2.95a4.042 4.042 0 0 0 1.362.24 2.813 2.813 0 0 0 2.783-3.08 6.354 6.354 0 0 0-4.323-6.04 18.44 18.44 0 0 0-3.494-1.01.357.357 0 0 0-.415.3 1.754 1.754 0 0 0 .77.94c.356.36 1.658 1.72 1.658 3.02 0 1.54-.414 1.72-4.086 3.85-4.974 2.84-5.329 5.98-5.329 12.5 0 .83.237 4.8.237 5.68 0 .59-.3.65-.83.65-.414 0-2.6-.11-3.079-.11-5.33 0-9.534 2.01-9.534 5.86 0 2.96 3.316 6.87 8.942 6.87 3.079 0 7.58-1.3 8.35-6.46a1.168 1.168 0 0 1 .353-.94zm-4.027-1.54c.355.94-.474 5.44-6.218 5.44-3.553 0-5.33-1.77-5.33-3.19 0-3.14 5.33-3.14 6.692-3.14s4.557 0 4.853.89zm37.123-39.5c-.118 0-.592 0-.592.29s2.488 2.02 4.264 2.9c1.125.54 1.244.66 1.244 1.01 0 1.13-4.086 5.57-4.086 5.8a.218.218 0 0 0 .236.24c.119 0 1.659-.89 1.955-1.06 3.849-2.14 5.211-2.85 7.165-2.85.415 0 2.487.24 2.961.24 1.125 0 2.724-.36 2.724-1.84 0-.53-.355-1.89-2.783-2.9-1.184-.53-1.836-.53-4.678-.53a15.767 15.767 0 0 1-2.724-.18c-.892-.12-5.511-1.12-5.689-1.12zm10.542 13.38c-2.961 0-4.5.65-7.817 2.07-3.672 1.6-4.087 1.78-5.449 1.78-.414 0-2.309-.41-2.724-.41a.57.57 0 0 0-.592.47c0 .77 2.9 4.5 5.448 4.5.948 0 1.125-.24 2.724-2.19a11.214 11.214 0 0 1 7.936-3.5c5.626 0 5.981 6.58 5.981 8.47 0 9.54-5.567 17.29-13.621 22.98a20.8 20.8 0 0 0-2.605 1.95.14.14 0 0 0 .177.12c1.6 0 20.431-6.33 20.431-24.75-.003-7.94-4.8-11.49-9.892-11.49zm50.619 28.07c-.829 0-1.185-.53-2.014-1.6a8.748 8.748 0 0 0-6.751-3.79c-3.375 0-5.863 2.67-5.863 4.8 0 2.96 4.2 6.1 10.068 6.1 7.521 0 14.8-5.27 14.8-12.79 0-6.7-5.745-12.32-13.325-12.32a14.344 14.344 0 0 0-5.211.95c-.355.12-1.125.41-1.481.53a.446.446 0 0 1-.355-.41c0-1.01 5.211-9.13 9.475-12.14 2.843-1.96 4.2-2.91 4.2-4.62 0-2.61-3.849-4.09-6.218-4.09-1.3 0-1.718.18-5.389 1.78a28.739 28.739 0 0 1-9.179 2.13c-1.244 0-1.421 0-1.421.18 0 .29 1.835 4.08 4.619 4.08 1.006 0 1.835-.18 4.2-2.13 1.007-.83 4.5-3.79 6.692-3.79a.981.981 0 0 1 1.125.83c0 .65-.829 1.89-2.783 4.68-8.942 12.55-9.534 13.32-13.384 17.82-4.2 4.92-4.678 6.22-4.678 7.7a1.635 1.635 0 0 0 1.717 1.66c1.6 0 2.191-1.13 3.376-3.14 1.066-1.84 6.1-9.95 13.916-9.95 5.922 0 10.008 4.15 10.008 9 .011 4.92-4.134 8.53-6.147 8.53zm-5.449.59a.984.984 0 0 1-1.006 1.07c-2.547 0-5.093-1.25-5.093-2.78a2.424 2.424 0 0 1 2.487-2.08c2.188 0 3.605 2.37 3.605 3.79zm70.47-28.48c-3.908 0-6.4 3.31-6.4 3.73a.191.191 0 0 0 .237.23 1.284 1.284 0 0 0 .592-.17 5.079 5.079 0 0 1 2.309-.59c2.014 0 4.975.83 4.975 3.19a3.146 3.146 0 0 1-.237 1.07 3.938 3.938 0 0 0-.178.47.278.278 0 0 0 .3.3c.237 0 1.481-.36 1.777-.42.3 0 1.658.12 2.013.12 1.244 0 1.955-1.6 1.955-2.84-.002-2.72-2.786-5.09-7.346-5.09zm-21.733-1.72a.449.449 0 0 0-.237.24c0 .12.3.71.3.83 0 .83-1.658 1.48-2.072 1.48a.589.589 0 0 1-.474-.65 31.426 31.426 0 0 1 .592-3.85 24.445 24.445 0 0 0 1.244-3.08c0-1.13-2.132-4.03-6.1-4.03-.355 0-1.3.12-1.3.65a5.964 5.964 0 0 0 .829.95 5.817 5.817 0 0 1 1.954 4.74c0 .65-.3 6.04-.592 6.45a25.694 25.694 0 0 1-7.521 1.78 17 17 0 0 1-2.724-.3c-.177 0-.888-.23-1.066-.23a.413.413 0 0 0-.473.41c0 .41 2.25 4.5 4.263 4.5.889 0 1.185-.12 4.205-1.12a13.68 13.68 0 0 1 2.724-.54c.651 0 .829.89.829 1.3.059 1.01.119 6.04.119 7.41 0 1.66-.356 1.83-3.376 3.31-3.494 1.72-4.56 2.02-6.159 2.02-.355 0-2.072-.3-2.428-.3-1.066 0-1.717 1.24-1.717 2.31 0 1.95 3.02 3.73 3.671 3.73a11.559 11.559 0 0 0 2.251-1.18 4.879 4.879 0 0 1 1.48-.36c.77 0 1.066 0 2.961 3.67.474.95 1.125 2.19 2.724 2.19 2.132 0 3.021-3.9 3.021-6.63 0-.59-.178-3.25-.178-3.91 0-1 .355-1.18 3.671-2.96 6.929-3.67 10.6-4.44 12.259-4.44 2.546 0 5.685 2.31 5.685 6.52 0 4.73-4.975 7.34-8.883 7.34-.592 0-3.849 0-3.849-2.84a2.43 2.43 0 0 1 .533-1.6.918.918 0 0 0 .237-.48.311.311 0 0 0-.3-.29c-.533 0-2.961 1.89-2.961 4.68 0 3.08 2.724 4.79 6.1 4.79 4.856 0 13.088-3.55 13.088-11.37a9.063 9.063 0 0 0-9.12-8.94c-1.54 0-4.205.18-10.067 2.37-.948.35-5.8 2.37-5.982 2.37-.533 0-.533-.71-.533-1.07 0-.3 0-5.09.119-6.39.118-2.08.178-2.31 1.007-2.61 1.421-.59 5.922-2.37 5.922-4.32-.007-1.84-2.85-2.67-3.679-2.55zm-5.863 22.5a1.611 1.611 0 0 1 .178.95c0 2.9-.829 4.56-1.658 4.56-.889 0-2.487-1.89-2.487-2.78-.003-.83 3.786-2.73 3.964-2.73zm47.079-26.64a.318.318 0 0 0-.356.23 8 8 0 0 0 .474 2.02 16.4 16.4 0 0 1 .415 3.43c0 1.54-.829 8.82-.829 10.48 0 11.31 7.461 17.53 11.251 17.53a2.1 2.1 0 0 0 2.251-1.83 14.653 14.653 0 0 0-.474-1.96 7.962 7.962 0 0 1-.355-2.37 16.613 16.613 0 0 1 .769-4.5 7.116 7.116 0 0 0 .178-1.18.428.428 0 0 0-.3-.48c-.474 0-1.48 1.42-1.836 2.02-1.776 2.96-2.013 3.25-3.02 3.25-1.836 0-4.915-4.32-4.915-10.3a20.918 20.918 0 0 1 1.421-7.64 8.1 8.1 0 0 0 .711-2.37c.001-1.6-2.664-6.33-5.388-6.33zm28.247 5.44a.456.456 0 0 0-.533.3c0 .35 2.369 2.19 2.843 2.66 3.139 3.14 3.139 5.63 3.139 10.55 0 .76 0 3.96 2.9 3.96 2.843 0 2.961-2.78 2.961-3.9a14.759 14.759 0 0 0-5.27-11.32 11.552 11.552 0 0 0-6.047-2.25z" transform="translate(-280.531 -5686.66)"/><path id="まさか_と_思うほどに_朝_私の肌はうるおって_滑らかでした_" data-name="まさか…と、思うほどに 朝、私の肌はうるおって 滑らかでした。" class="cls-1" d="M297.266 5791.05a23.45 23.45 0 0 1-.2 3c-.068.34-.408.51-1.122.51a5.991 5.991 0 0 1-3.3-.92c-.1-.07-.918-.55-.952-.55a.229.229 0 0 0-.136.24c0 1.33 2.142 3.06 4.556 3.23.544.04.714.04.714.21 0 .03-.272 4.48-.306 4.59-.238.64-2.516.64-3.332.64a13.219 13.219 0 0 1-4.114-.61 8.189 8.189 0 0 0-1.292-.48c-.1 0-.1.07-.1.14a3.782 3.782 0 0 0 .985 1.56c1.53 1.43 3.91 1.4 4.692 1.4.442 0 2.482-.17 2.958-.17.34 0 .34.2.34.51.034.92.068 3.19.068 3.87 0 1.16 0 1.26-.374 1.26-.238 0-1.5-.1-1.8-.1-4.046 0-6.12 1.56-6.12 3.6 0 1.4 1.156 3.67 4.352 3.67a6.578 6.578 0 0 0 5.779-3.43c.17-.37.238-.54.442-.54a6.041 6.041 0 0 1 2.38 1.83c1.224 1.46 1.36 1.63 1.836 1.63a1.311 1.311 0 0 0 1.156-1.42c0-1.6-2.176-3.4-4.828-4.49-.714-.27-.714-.41-.85-1.53-.034-.34-.408-4.25-.408-4.9 0-.34.1-.37 1.156-.74 1.564-.51 5.338-2.08 5.338-3.27 0-.75-.884-.81-2.278-.92-.17 0-.884-.17-1.054-.17-.068 0-.17 0-.17.11s.136.51.136.61c0 1.09-2.448 1.77-2.822 1.77-.442 0-.442-.21-.442-.99 0-1.39.136-3.2.17-3.3.034-.51.1-.54.374-.61.952-.31 3.264-.99 3.264-2.24a.84.84 0 0 0-.986-.65 4.131 4.131 0 0 0-1.224.27 4.3 4.3 0 0 1-.952.31.165.165 0 0 1-.136-.21 8.041 8.041 0 0 1 .51-2.21 9.51 9.51 0 0 0 .85-1.8c0-.71-1.836-1.56-2.753-1.56a.952.952 0 0 0-.85.24c0 .06.2.4.238.51a6.381 6.381 0 0 1 .607 2.1zm-.816 20.54a1.978 1.978 0 0 1-.782 1.66 5.574 5.574 0 0 1-3.366 1.26c-.952 0-2.72-.41-2.72-1.7 0-1.94 3.57-1.94 3.638-1.94.612 0 2.992.14 3.23.72zm24.919-12.61c.713-.17 4.113-1.43 4.317-1.43.986 0 5.508 5.06 5.508 7.27a1.091 1.091 0 0 1-1.19 1.09 10.664 10.664 0 0 1-2.788-.68 12.242 12.242 0 0 0-3.672-.61c-3.773 0-7.241 2.04-7.241 5.41a4.988 4.988 0 0 0 2.924 4.21 11.4 11.4 0 0 0 5.473 1.05c.612 0 3.876 0 3.876-1.8a1.434 1.434 0 0 0-1.666-1.32c-.068 0-2.958.3-3.536.3-2.889 0-5.031-.85-5.031-3.02a4.586 4.586 0 0 1 4.759-3.95 12.534 12.534 0 0 1 5.78 1.77c2.04 1.12 2.277 1.26 2.889 1.26a2.12 2.12 0 0 0 2.244-2.28c0-3.47-4.453-7.41-6.221-8.97a.972.972 0 0 1-.408-.65c0-.24.1-.31 1.02-.88.476-.28 2.074-1.5 2.074-2.38a1.179 1.179 0 0 0-1.156-1.23c-.374-.03-2.108 0-2.516 0a5.691 5.691 0 0 1-3.2-.78c-1.564-.92-1.9-1.12-2.617-1.12a1.638 1.638 0 0 0-1.7 1.63c0 .99 1.258 2.14 2.175 2.79a4.957 4.957 0 0 1 1.564 1.39c0 .55-2.311 1.16-3.6 1.16a8.594 8.594 0 0 1-3.5-.92 9.124 9.124 0 0 0-1.394-.65.249.249 0 0 0-.272.31c0 .65 1.5 3.26 5 3.26a10.167 10.167 0 0 0 2.105-.23zm1.9-4.93c-.272-.21-1.5-1.19-1.5-2.01a.63.63 0 0 1 .646-.61c.374 0 .646.13 2.89 1.49 1.088.65 1.19.75 1.19 1.19a1.425 1.425 0 0 1-1.258 1.09 5.771 5.771 0 0 1-1.965-1.15zm20.6 7.51c.68 0 3.842-1.36 4.59-1.36a.236.236 0 0 1 .238.27 9.107 9.107 0 0 1-.476 1.6c-1.836 5.1-3.264 6.66-4.182 7.68-2.039 2.25-2.277 2.52-2.277 3.23a1 1 0 0 0 1.087 1.09c2.754 0 6.052-8.36 7.412-12.99a4.73 4.73 0 0 1 .51-1.46 7.481 7.481 0 0 1 3.263-.81c.986 0 2.346.17 2.346 2.55a27 27 0 0 1-1.054 5.91c-.986 3.67-2.244 4.15-3.229 4.15a10.378 10.378 0 0 1-1.734-.24 6.827 6.827 0 0 0-.85-.24.162.162 0 0 0-.17.17c0 .07.374.95.442 1.13.374 1.08.714 2.34 2.006 2.34a5.274 5.274 0 0 0 3.467-2.07c1.972-2.38 2.924-8.23 2.924-10.92 0-3.12-1.972-4.35-4.522-4.35-.272 0-1.835.17-2 .17a.307.307 0 0 1-.374-.3c0-.65 1.291-4.97 1.291-5.04 0-.88-1.325-2.17-3.6-2.17-.136 0-.544.03-.544.27a2.1 2.1 0 0 0 .578.78 4.315 4.315 0 0 1 .85 2.89c0 .17-.034 3.61-.612 4.01a55.19 55.19 0 0 1-5.712 1.02c-.374 0-2.141-.47-2.243-.47a.3.3 0 0 0-.306.27c-.007.75 1.556 2.89 2.882 2.89zm22.778 1.39c0-1.73-1.6-6.01-5.949-6.01a.187.187 0 0 0-.238.2 2.1 2.1 0 0 0 .816.51 4.368 4.368 0 0 1 2.753 3.91c0 .92-.136 1.02-1.394 1.97a6.184 6.184 0 0 0-1.325.95 5.4 5.4 0 0 0 1.088.24c.407.1 1.971 1.02 2.311 1.02 1.429 0 1.939-2.38 1.939-2.79zm8.7 2.04a2.14 2.14 0 1 0-2.142-2.14 2.151 2.151 0 0 0 2.146 2.14zm11.321 0a2.14 2.14 0 1 0-2.142-2.14 2.151 2.151 0 0 0 2.146 2.14zm11.321 0a2.14 2.14 0 1 0-2.108-2.14 2.129 2.129 0 0 0 2.112 2.14zm10.144 5.71c0 5.34 4.929 5.34 6.493 5.34 1.8 0 8.737-.17 8.737-1.9 0-.85-1.088-1.63-2.243-1.63a9.172 9.172 0 0 0-2.55.51 15.3 15.3 0 0 1-4.08.61c-2.753 0-4.725-.85-4.725-3.16 0-2.21 1.156-4.7 9.247-7.96 1.224-.47 2.618-1.02 2.618-2.04a1.306 1.306 0 0 0-1.292-1.26c-.986 0-3.128 1.36-3.5 1.6-1.836 1.16-2.04 1.29-2.516 1.29-.884 0-.884-2.75-.884-4.04a32.037 32.037 0 0 1 .306-4.49c.068-.34.476-1.87.476-2.18 0-.98-1.734-2.55-3.671-2.55a2 2 0 0 0-.918.17 2.825 2.825 0 0 0 .816.96 3.163 3.163 0 0 1 1.02 2.75c0 .88-.17 4.83-.17 5.61a10.987 10.987 0 0 0 .578 3.98 8.7 8.7 0 0 1 .306 1.05c0 .44-.442.89-1.462 1.84a7.7 7.7 0 0 0-2.582 5.5zm29.825 5.41c0-3.16-5.78-4.93-6.969-4.93a.312.312 0 0 0-.375.24 1.494 1.494 0 0 0 .476.41 9.545 9.545 0 0 1 3.57 3.63c1.122 2.04 1.258 2.28 1.972 2.28a1.637 1.637 0 0 0 1.33-1.63zm37.748-13.7c1.02 0 1.02.54 1.02 1.12a.666.666 0 0 0 .68.72 2.029 2.029 0 0 0 2.006-1.81c0-.98-.1-5.91-.1-7.03 0-.62 0-3.44.068-3.85.034-.23.714-1.15.714-1.42a3.331 3.331 0 0 0-1.972-1.7 1.476 1.476 0 0 0-1.054.61 1.689 1.689 0 0 1-1.461.61h-14.141a3.232 3.232 0 0 1-1.87-.48 16.93 16.93 0 0 0-2.244-.95c-.1 0-.1.14-.1.17 0 .24.238 1.29.272 1.53a55.048 55.048 0 0 1 .374 6.7c0 2.35-.1 3.88-.136 4.52-.034.31-.136 1.63-.136 1.87 0 1.26.646 1.26 1.02 1.26 1.5 0 1.666-.72 1.8-1.33a.677.677 0 0 1 .85-.54h14.414zm-9.485-11.87c1.19 0 1.224.07 1.224 4.02 0 .85-.442.98-1.19.98h-5.031c-1.088 0-1.088-.34-1.088-1.9 0-3.06.034-3.1 1.088-3.1h5zm-5 10.99c-1.088 0-1.088-.21-1.088-3.37 0-1.36 0-1.73 1.122-1.73h5c.816 0 1.19.13 1.19 1.08 0 .51 0 3.23-.068 3.5a.852.852 0 0 1-.884.52h-5.269zm9.451 0a.9.9 0 0 1-.952-1.13c0-.51 0-3.36.1-3.53a1.036 1.036 0 0 1 1.02-.44h5.133c.952 0 .986.47.986 1.42 0 3.68-.136 3.68-1.02 3.68h-5.269zm5.541-10.99c.85 0 .85.65.85 1.64 0 3.26 0 3.36-1.088 3.36h-5.1c-1.122 0-1.156-.54-1.156-1.05 0-3.81 0-3.95.952-3.95h5.541zm-17.712 16.73a.259.259 0 0 0-.2.24 9.7 9.7 0 0 1-2.923 4.11c-1.768 1.53-1.972 1.7-1.972 2.38a1.253 1.253 0 0 0 1.156 1.33c1.767 0 4.181-3.3 4.181-6.8.003-.38.003-1.26-.235-1.26zm2.89-2.79a1.3 1.3 0 0 0 .068.68c.1.44.17 2.72.17 3.33 0 .55-.1 3.37-.1 4.02 0 3.12 0 4.62 5.847 4.62 2.448 0 6.562-.14 8.7-1.33a3.082 3.082 0 0 0 1.9-2.14.969.969 0 0 0-.34-.68 5.464 5.464 0 0 1-1.02-1.8c-.068-.2-.272-1.49-.51-1.49a13.066 13.066 0 0 0-.781 2.58c-.408 1.22-.85 2.62-6.8 2.62-4.113 0-4.555-.48-4.657-1.64-.1-.84 0-5.03 0-5.98a1.174 1.174 0 0 1 .408-1.05.959.959 0 0 0 .408-.65c0-.34-.2-.37-2.142-.92a4.855 4.855 0 0 0-1.142-.17zm17.372 2.42a.3.3 0 0 0 .1.3 10.025 10.025 0 0 1 2.006 4.35c.238 1.5.442 2.79 1.53 2.79a1.71 1.71 0 0 0 1.428-1.8c0-3.3-4.522-5.81-4.794-5.81a.377.377 0 0 0-.263.17zm-11.627-2.82a.213.213 0 0 0 .068.23 9.5 9.5 0 0 1 2.38 3.95c.714 2 .85 2.38 1.7 2.38a1.441 1.441 0 0 0 1.224-1.67c0-2.99-4.318-4.96-5.2-4.96-.063 0-.165 0-.165.07zm25.926-15.07c-.068 0-.34 0-.34.17a9.339 9.339 0 0 0 2.448 1.67c.645.31.713.37.713.58 0 .64-2.345 3.19-2.345 3.33a.129.129 0 0 0 .136.14 11.476 11.476 0 0 0 1.121-.62c2.21-1.22 2.992-1.63 4.114-1.63.238 0 1.428.14 1.7.14.646 0 1.564-.21 1.564-1.06 0-.3-.2-1.08-1.6-1.66a5.559 5.559 0 0 0-2.686-.31 9.356 9.356 0 0 1-1.564-.1c-.501-.07-3.152-.65-3.254-.65zm6.051 7.69a9.8 9.8 0 0 0-4.487 1.19c-2.108.92-2.346 1.02-3.128 1.02-.238 0-1.326-.24-1.564-.24a.329.329 0 0 0-.34.27c0 .44 1.666 2.59 3.128 2.59.544 0 .646-.14 1.564-1.26a6.43 6.43 0 0 1 4.555-2.01c3.23 0 3.434 3.78 3.434 4.86 0 5.48-3.2 9.93-7.819 13.19a12.378 12.378 0 0 0-1.5 1.12.081.081 0 0 0 .1.07c.918 0 11.728-3.63 11.728-14.21.016-4.55-2.74-6.59-5.664-6.59zm25.154 2.51a2.521 2.521 0 0 0 .816 1.46 5.234 5.234 0 0 0 4.181 1.5c.272 0 1.53-.13 1.836-.13a.518.518 0 0 1 .612.54c.238 2.28.374 4.73.374 5.13 0 .75-.2.78-1.122.82-4.08.13-6.221 1.7-6.221 3.84 0 1.22.986 3.6 4.759 3.6 4.25 0 4.76-3.02 4.794-4.01 0-.41 0-.61.34-.61a4.287 4.287 0 0 1 2.039.89 9.809 9.809 0 0 0 2.006 1.39 1.519 1.519 0 0 0 1.258-1.39c0-1.06-1.972-2.55-5.1-3.3-.68-.17-.714-.24-.884-1.29a37.911 37.911 0 0 1-.68-5.48c0-.47.17-.58.646-.68 1.428-.34 4.623-1.63 4.623-3.23 0-.92-.748-1.19-3.263-1.19a.466.466 0 0 0-.408.07.861.861 0 0 0 .136.24 1.4 1.4 0 0 1 .34.68c0 .92-1.53 1.39-1.768 1.39a.266.266 0 0 1-.272-.3c0-.34.51-3.13.51-3.4 0-1.19-1.734-1.81-2.584-1.81a.786.786 0 0 0-.714.28 10.805 10.805 0 0 0 .544 1.02c.238.51.442.95.442 4.21 0 .48-.068.82-1.972.82a8.676 8.676 0 0 1-4.487-.99 4.6 4.6 0 0 0-.612-.41c-.162 0-.162.28-.162.34zm5.745 10.92c2.176 0 2.176.44 2.176.88 0 1.91-1.7 2.62-3.23 2.62-1.122 0-2.822-.34-2.822-1.53.007-.92 1.333-1.97 3.883-1.97zm-13.565-20.27a.122.122 0 0 0-.1.14 6.493 6.493 0 0 0 .306.65 9.177 9.177 0 0 1 .34 2.61c0 1.4-.1 1.84-.986 6.06a34.638 34.638 0 0 0-.917 7.24c0 4.18 1.292 8.84 3.229 8.84a1.4 1.4 0 0 0 1.224-1.5 6.735 6.735 0 0 0-.442-1.36 4.021 4.021 0 0 1-.374-1.9 27.911 27.911 0 0 1 .884-6.02 25.621 25.621 0 0 0 .408-2.58q0-.21-.1-.21c-.442 0-2.38 6.97-2.754 6.97-.442 0-.476-2.41-.476-2.89a27.152 27.152 0 0 1 2.346-9.89 17.663 17.663 0 0 0 .782-2.11c.003-.88-1.867-4.35-3.363-4.05zm9.621 1.02a.2.2 0 0 0-.1.17 2.034 2.034 0 0 0 .509.68 5.6 5.6 0 0 0 3.978 1.16c3.468 0 5.711-.88 5.711-2.18a.968.968 0 0 0-1.087-.85 2.255 2.255 0 0 0-1.292.34 16.909 16.909 0 0 1-5.3.96 8.452 8.452 0 0 1-1.938-.17 2.048 2.048 0 0 0-.474-.11zm23.206 19.96c0 5.34 4.93 5.34 6.528 5.34 1.767 0 8.7-.17 8.7-1.91 0-.85-1.088-1.63-2.244-1.63a8.728 8.728 0 0 0-2.55.48 14.631 14.631 0 0 1-4.113.61c-2.618 0-4.862-.71-4.862-3.13 0-2.17 1.156-4.69 9.383-7.95 1.292-.51 2.618-1.06 2.618-2.04a1.279 1.279 0 0 0-1.258-1.26c-1.02 0-3.162 1.36-3.536 1.6-1.8 1.12-2 1.26-2.481 1.26a.977.977 0 0 1-.68-.75 20.962 20.962 0 0 1-.2-4.05 24.117 24.117 0 0 1 .306-3.7c.068-.34.476-1.87.476-2.18 0-.95-1.666-2.55-3.706-2.55a1.746 1.746 0 0 0-.884.17 3.012 3.012 0 0 0 .816.95 3.3 3.3 0 0 1 1.02 2.76c0 .88-.17 4.82-.17 5.61a10.89 10.89 0 0 0 .578 3.97c.034.14.306.95.306 1.06 0 .44-.442.85-1.462 1.83a7.571 7.571 0 0 0-2.578 5.51zm15.3-21.25c-.952 0-1.292.24-1.292.38a.556.556 0 0 0 .442.4 8.24 8.24 0 0 1 2.889 2.01c.578.75 1.02 1.33 1.734 1.33a.972.972 0 0 0 .884-1.02c.006-1.81-2.51-3.1-4.651-3.1zm-3.842 3.27a.537.537 0 0 0-.578.27 1.368 1.368 0 0 0 .476.51 10.794 10.794 0 0 1 2.278 2.14c.986 1.33 1.224 1.6 1.734 1.6a1.3 1.3 0 0 0 1.02-1.29c.006-1.26-2-3.23-4.924-3.23zm17.5 13.12c0-3.06 2.244-8.06 2.618-8.77.646-1.16.646-1.19.646-1.57 0-1.22-1.428-4.31-2.992-4.31a.236.236 0 0 0-.272.17 4.412 4.412 0 0 0 .2.61 8.3 8.3 0 0 1 .34 2.41 11.612 11.612 0 0 1-.577 3.54c-1.156 4.25-1.428 5.23-1.428 7.41 0 3.26 1.564 9.04 3.671 9.04a1.134 1.134 0 0 0 1.122-1.15 3.708 3.708 0 0 0-.408-1.5 6.06 6.06 0 0 1-.544-1.77c0-.81.782-4.79.782-5.16 0-.07 0-.41-.17-.41a1.11 1.11 0 0 0-.476.85c-.748 2.11-1.054 2.65-1.632 2.65-.53 0-.87-1.02-.87-2.04zm17.611-12.58a3 3 0 0 0-1.462.37 13.733 13.733 0 0 1-3.74.51 11.575 11.575 0 0 1-2.311-.2c-.442-.1-.85-.24-.952-.24-.2 0-.238.1-.238.17 0 .44 2.107 2.52 5.949 2.52.408 0 4.182 0 4.182-1.67a1.693 1.693 0 0 0-1.418-1.46zm1.462 16.86c-.136 0-2.516.24-2.992.27a26.287 26.287 0 0 1-2.958.11 8.362 8.362 0 0 1-3.637-.58 4.959 4.959 0 0 0-.816-.48c-.17 0-.17.28-.17.34a3.385 3.385 0 0 0 1.054 1.7c.713.68 1.971 1.53 5.3 1.53 4.76 0 5.779-.4 5.779-1.73.013-.41-.259-1.16-1.55-1.16zm-310.656 42.13a2.191 2.191 0 0 1-1.326-.3 3.1 3.1 0 0 0-1.564-.72c-.238 0-.408.04-.408.21s.238 1.02.272 1.19c.034.64.068 1.29.068 4.45 0 .68-.238 4.01-.238 4.76 0 .27 0 1.05.646 1.05a1.638 1.638 0 0 0 1.53-.95.955.955 0 0 1 .952-.47h1.393c1.02 0 1.02.27 1.02 2.75 0 1.09 0 1.66-1.088 1.66h-1.869c-.986 0-2.278-.06-3.264-.1-.2-.03-1.292-.13-1.564-.13a.084.084 0 0 0-.1.06.321.321 0 0 0 .136.24l.646.79a.491.491 0 0 0 .306.2c.1 0 .612-.07.714-.07.714-.07 2.006-.1 2.958-.1h2.142c.747 0 .985.27.985 1.09 0 .57-.238 4.86-.238 5.47a.82.82 0 0 0 .918.99 1.4 1.4 0 0 0 1.53-1.64c0-.27-.1-.98-.1-1.32-.034-.92-.034-2.79-.034-3.78a.816.816 0 0 1 .986-.81h3.842c1.19 0 1.836 0 1.836-.48a3.909 3.909 0 0 0-2.006-1.97 2.007 2.007 0 0 0-1.02.99 1.056 1.056 0 0 1-1.19.57h-1.462c-.986 0-1.02-.44-1.02-2.1 0-1.94 0-2.31 1.088-2.31h1.19a.776.776 0 0 1 .85.4c.408.78.442.85.918.85a1.345 1.345 0 0 0 1.258-1.53c0-.61-.136-3.6-.136-4.28a10.588 10.588 0 0 1 .136-2.48 13.277 13.277 0 0 0 .782-1.53c0-.51-1.632-1.57-2.244-1.57-.238 0-.272.07-.612.55a1.094 1.094 0 0 1-.952.37h-1.258c-1.054 0-1.054-.27-1.054-2 0-1.16 0-1.67 1.02-1.67h3.676c1.156 0 1.8 0 1.8-.51a3.9 3.9 0 0 0-2.006-1.97 2.268 2.268 0 0 0-.986.98 1.094 1.094 0 0 1-1.224.58h-1.254a.839.839 0 0 1-.986-.98 1.994 1.994 0 0 1 .578-1.53.884.884 0 0 0 .51-.65c0-.65-2.686-1.19-2.958-1.19a.325.325 0 0 0-.408.31 4.8 4.8 0 0 0 .136.57 4.851 4.851 0 0 1 .068.99c0 2.24 0 2.48-.986 2.48H286.8c-.952 0-2.278-.03-3.23-.1-.238 0-1.326-.14-1.564-.14-.1 0-.136.04-.136.11a.69.69 0 0 0 .136.2l.68.78a.4.4 0 0 0 .306.24 6.926 6.926 0 0 0 .714-.1c1.02-.07 2.312-.07 2.924-.07h1.359c.986 0 .986.24.986 2.38 0 .65 0 1.29-1.019 1.29h-1.292zm6.527.92c.986 0 .986.37.986 1.66 0 1.09 0 1.54-.986 1.54h-6.493c-.986 0-.986-.31-.986-1.94 0-.78 0-1.26.986-1.26h6.493zm-6.459 7.38c-1.02 0-1.02-.45-1.02-1.33 0-1.67 0-1.97 1.02-1.97h6.391a.855.855 0 0 1 1.054 1.02c0 2 0 2.28-1.054 2.28h-6.391zm20.33.17c1.053 0 1.053.34 1.053 1.49 0 5.07 0 7.82-.238 8.33-.305.61-1.359.65-1.869.65-.306 0-1.836-.1-2.176-.1a.2.2 0 0 0-.238.17c0 .1.068.13.408.34a8.767 8.767 0 0 1 2.414 1.73c.476.78.51.88.986.88a3.147 3.147 0 0 0 2-.81c.986-.99.986-2.55.986-4.42 0-.31 0-1.6-.068-3.37-.068-2.38-.068-10.57-.068-13.73a28.02 28.02 0 0 1 .2-4.66 5.982 5.982 0 0 0 .714-.88c0-.55-1.564-1.7-2.142-1.7a9.043 9.043 0 0 0-.952.54 2.3 2.3 0 0 1-1.291.24h-4.08a3.733 3.733 0 0 1-1.768-.38 3.7 3.7 0 0 0-1.7-.61.356.356 0 0 0-.442.34c0 .31.306 1.74.374 2.08.17 1.12.374 2.51.374 9.11 0 7.17-.136 12.2-3.3 16.45l-.884 1.19c.51 0 .85 0 3.059-2.48 2.21-2.45 3.026-6.93 3.06-8.91.034-.91.034-1.49 1.122-1.49h4.454zm.034-14.38c1.053 0 1.053.37 1.053 1.93a32.6 32.6 0 0 1-.136 3.78.984.984 0 0 1-.917.41h-4.454a.86.86 0 0 1-1.02-1.06c0-.61-.068-3.43-.068-4.01a.843.843 0 0 1 1.02-1.05h4.522zm.034 7c.985 0 1.019.41 1.019 1.05v4.8a.818.818 0 0 1-1.019.61h-4.454c-1.054 0-1.054-.24-1.054-1.73 0-.86 0-3.27.034-3.98a.8.8 0 0 1 1.02-.75h4.454zm16.213 18.63c0-3.16-5.78-4.93-6.97-4.93a.31.31 0 0 0-.374.24 1.483 1.483 0 0 0 .476.41 9.614 9.614 0 0 1 3.57 3.63c1.122 2.04 1.258 2.28 1.972 2.28a1.628 1.628 0 0 0 1.336-1.63zm28.97-18.02c1.122 0 1.8 0 1.8-.44 0-.61-2.754-2.45-2.89-2.45a2.269 2.269 0 0 0-.952.95c-.713.89-.849 1.06-1.767 1.06a2.3 2.3 0 0 1-1.19-.14c-.374-.24-.374-.41-.374-2.17 0-1.6 0-3.1.476-3.44a15.53 15.53 0 0 1 3.467-1.02c.17 0 .884.07.952.07a.406.406 0 0 0 .476-.31 12.182 12.182 0 0 0-2.991-2.55 20.124 20.124 0 0 0-1.87 1.26 30.124 30.124 0 0 1-8.329 2.93.642.642 0 0 0-.374.23 1.975 1.975 0 0 0 1.088.17c.645 0 3.841-.3 4.011-.3.884 0 1.054.54 1.054 1.6a24.813 24.813 0 0 1-.136 3.26c-.136.31-.306.41-.952.41h-.748c-1.258 0-2.822-.07-4.079-.1-.238-.04-1.326-.14-1.53-.14-.034 0-.136 0-.136.07a.466.466 0 0 0 .17.24l.646.78a.428.428 0 0 0 .306.24c.1 0 1.258-.14 1.427-.14 1.36-.03 2.516-.07 3.332-.07a.666.666 0 0 1 .748.71 37.4 37.4 0 0 1-4.521 9.08c-.238.34-2.142 2.79-2.142 2.93a.138.138 0 0 0 .136.17c.85 0 5.167-5.1 6.085-6.46.612-.89.68-.99.918-.99.374 0 .374.37.374.61 0 .17-.068 4.35-.1 6.8 0 .99-.17 5.37-.17 6.26 0 .54.068.95.612.95a1.944 1.944 0 0 0 2.108-2.18c0-1.49-.374-12.27-.374-13.29a.4.4 0 0 1 .374-.47 6.18 6.18 0 0 1 2.957 3.36c.646 1.63.714 1.8 1.224 1.8.85 0 1.326-1.15 1.326-1.93 0-2.66-4.011-3.64-5.235-3.95-.34-.07-.646-.24-.646-1.12 0-2.01.068-2.28 1.19-2.28h4.249zm-.714 19.04a.411.411 0 0 0 .34-.27 2.137 2.137 0 0 1 1.122-.99c.544-.24 10.607-2.99 10.913-2.99.884 0 1.088 1.09 1.19 2.07.17 1.6.238 2.49 1.258 2.49.51 0 1.734-.48 1.734-2.32 0-2.41-2.686-5.47-4.862-7.51a16.267 16.267 0 0 0-2.176-1.77.122.122 0 0 0-.1.14 1.924 1.924 0 0 0 .476.71 16.652 16.652 0 0 1 2.516 4.76.712.712 0 0 1-.714.68c-.884.17-5.881.82-6.357.82a.613.613 0 0 1-.646-.58c0-.14 1.53-5.98 1.666-6.63.544-2.24 3.467-14.48 3.841-15.13a7.563 7.563 0 0 0 .85-1.02c0-.34-.1-.37-.952-.71-.306-.1-2.549-.92-2.685-.92-.306 0-.306.2-.306.88 0 1.4-.374 5.21-.51 6.29-.544 5.1-1.734 11.73-2.856 17a1.23 1.23 0 0 1-.408.78c-.272.28-1.156.48-3.876.48-.17 0-.951-.1-1.122-.1a.169.169 0 0 0-.2.17c.004.41 1.398 3.67 1.874 3.67zm34.286-24.48c9.281 0 9.417 8.09 9.417 9.42 0 8.47-7.377 11.39-10.913 12.78-.85.34-.918.38-.918.48a.284.284 0 0 0 .34.24 20.927 20.927 0 0 0 5.643-1.26 12.684 12.684 0 0 0 8.568-11.97 10.653 10.653 0 0 0-5.916-9.89 11.021 11.021 0 0 0-5.473-1.09 14.064 14.064 0 0 0-10.845 4.42 11.974 11.974 0 0 0-3.774 8.67c0 4.15 2.006 7.65 4.25 7.65 1.36 0 3.093-.82 5.813-4.97 2.992-4.52 3.5-7.68 3.5-9.96a26.149 26.149 0 0 0-.34-3.67c0-.13-.068-.27-.068-.37.012-.21.046-.48.726-.48zm-1.9.1c.442 0 .578.17.578 2.21a19.475 19.475 0 0 1-3.332 9.9c-2.346 3.53-3.161 3.94-4.147 3.94-2.074 0-2.958-3.02-2.958-5.24.006-6.42 6.635-10.81 9.865-10.81zm26.945 12.92a.875.875 0 0 1 1.02.99c0 .99-.136 7.1-.238 7.72a.928.928 0 0 1-1.019.85c-.442 0-2.516-.45-2.754-.45-.034 0-.17 0-.17.11a3.872 3.872 0 0 0 1.19.68 4 4 0 0 1 1.5 1.49c.782 1.19.85 1.33 1.087 1.33a3.556 3.556 0 0 0 1.836-1.46c.85-1.12.816-2.96.816-3.81 0-1.63-.034-8.84-.034-10.3.034-1.57.17-8.54.17-9.93 0-.99 0-1.33.272-1.56.714-.51.714-.51.714-.79 0-.44-2.074-2.24-2.312-2.24a3.963 3.963 0 0 0-.748.75 1.942 1.942 0 0 1-1.122.27H408.1a2.872 2.872 0 0 1-1.632-.37 4.408 4.408 0 0 0-1.836-.82c-.238 0-.306.07-.306.24 0 .34.34 1.8.374 2.07.272 1.91.272 6.67.272 7.65 0 10.74-.408 13.6-1.87 17.17-.17.44-1.19 2.65-1.19 2.69a.069.069 0 0 0 .068.06c.408 0 4.046-3.4 4.76-10.43.17-1.5.2-1.91 1.462-1.91h2.719zm.035-15.43c1.019 0 1.019.61 1.019 1.19 0 .64.068 3.91.068 4.66a.872.872 0 0 1-1.019.98H408.2c-1.02 0-1.02-.37-1.02-2.28 0-.51.034-3.02.034-3.6a.864.864 0 0 1 1.02-.95h2.72zm.068 7.72a.856.856 0 0 1 1.053.91c0 .72-.068 4.19-.068 4.97a.854.854 0 0 1-1.02.95H408.1c-1.054 0-1.054-.41-1.054-1.94 0-.58.068-3.33.068-3.94a.876.876 0 0 1 1.054-.95h2.856zm10.606-8.5a2.579 2.579 0 0 1-1.359-.31 12.818 12.818 0 0 0-2.414-1.33.275.275 0 0 0-.306.31c0 .14.238.82.272.99.51 2.17.51 8.36.51 9.45 0 8.09-.238 12.98-3.264 17.51a13.387 13.387 0 0 0-1.088 1.73c.306 0 3.23-2.28 4.76-5.78 1.666-3.87 1.9-8.57 1.9-20.64a.9.9 0 0 1 1.019-1.02h2.618c1.054 0 1.088.17 1.088 4.22 0 2.75-.34 17.07-.34 17.85 0 2.96 0 3.3.476 4.08.646 1.02 2.142 1.19 3.2 1.19 1.8 0 4.929-.55 4.929-2.14a.836.836 0 0 0-.476-.72c-.442-.37-.646-2.68-.85-4.89a5.84 5.84 0 0 0-.272-1.77 20.8 20.8 0 0 0-.578 3.47c-.34 2.95-.442 3.63-2.277 3.63-1.632 0-1.768-.78-1.768-2.34 0-1.63.306-18.87.34-20.03a1.313 1.313 0 0 1 .68-1.42c.51-.28.612-.41.612-.62a8.489 8.489 0 0 0-2.38-2.17 3.928 3.928 0 0 0-.782.54 1.688 1.688 0 0 1-.952.21h-3.3zm36.247 21.14c.612-.3 2.38 1.12 3.366 2.31.816 1.02.918 1.16 1.326 1.16a1.338 1.338 0 0 0 1.224-1.36c0-2-3.57-3.6-5.236-4.32-.849-.37-.952-.61-1.087-1.87-.1-.91-.34-4.76-.34-5.5 0-1.47 0-1.5 1.257-2.05s3.536-1.52 3.536-3.12c0-1.43-1.122-1.46-2.618-1.53-.2 0-1.971-.07-1.971-1.09a1.465 1.465 0 0 1 .2-.71 1.433 1.433 0 0 0 .373-.85c0-1.3-2.277-1.77-2.957-1.77a1.1 1.1 0 0 0-1.156.58 5.784 5.784 0 0 0 1.054 1.15c.646.78.646 1.74.646 3.88 0 2.24 0 2.24-1.87 2.24a10.135 10.135 0 0 1-3.808-.68 5.7 5.7 0 0 0-.918-.47.193.193 0 0 0-.17.23c0 .34 1.19 3.03 5.032 3.03a10.957 10.957 0 0 1 1.564.07 1.117 1.117 0 0 1 .272.81c.034.95.136 4.56.136 4.76 0 2.11 0 2.35-.85 2.35-6.969.1-6.969 3.7-6.969 4.18 0 2.01 1.971 3.4 4.249 3.4a5.607 5.607 0 0 0 5.066-3.23 5.735 5.735 0 0 1 .655-1.6zm-.475-15.74a.726.726 0 0 1 .407-.13c.476 0 1.6.44 1.6 1.05 0 .78-1.292 1.19-1.767 1.19-.238 0-.51 0-.51-1.29a1.041 1.041 0 0 1 .274-.82zm-4.454 14.76c2.176 0 2.652.27 2.652.85 0 1.15-2.074 2.79-4.08 2.79-1.19 0-2.244-.58-2.244-1.5.006-.99 1.74-2.14 3.678-2.14zm-9.689 1.26c0-.99.952-5.89.952-6.98 0-.06 0-.3-.136-.3-.238 0-1.258 2.96-1.394 3.4-.612 1.87-.646 2-.952 2-.816 0-.816-2.17-.816-2.38a22.737 22.737 0 0 1 1.224-6.83c.272-.85 1.768-5.03 1.768-5.3 0-.61-1.7-4.01-3.6-4.01-.2 0-.612.06-.612.27a7.209 7.209 0 0 0 .646 1.19 4.8 4.8 0 0 1 .782 2.82c0 1.05-.068 1.22-1.02 5.41a25.891 25.891 0 0 0-.884 6.66c0 5.27 1.7 8.67 3.4 8.67a1.2 1.2 0 0 0 1.122-1.4c.002-.47-.474-2.72-.474-3.22zm31.266-21.87c-.068 0-.34 0-.34.17a9.339 9.339 0 0 0 2.448 1.67c.646.31.714.37.714.58 0 .64-2.346 3.19-2.346 3.33a.129.129 0 0 0 .136.14 11.6 11.6 0 0 0 1.122-.62c2.21-1.22 2.992-1.63 4.114-1.63.237 0 1.427.14 1.7.14.646 0 1.564-.21 1.564-1.06 0-.3-.2-1.08-1.6-1.66a5.556 5.556 0 0 0-2.685-.31 9.356 9.356 0 0 1-1.564-.1c-.503-.07-3.155-.65-3.257-.65zm6.052 7.69a9.8 9.8 0 0 0-4.488 1.19c-2.108.91-2.346 1.02-3.128 1.02-.238 0-1.326-.24-1.564-.24a.329.329 0 0 0-.34.27c0 .44 1.666 2.58 3.128 2.58.544 0 .646-.13 1.564-1.25a6.433 6.433 0 0 1 4.556-2.01c3.229 0 3.433 3.78 3.433 4.86 0 5.48-3.2 9.93-7.819 13.19a11.42 11.42 0 0 0-1.5 1.13c0 .06.068.06.1.06.918 0 11.729-3.63 11.729-14.21.012-4.55-2.742-6.59-5.665-6.59zm29.654 16.11c-.476 0-.68-.3-1.156-.92a5.024 5.024 0 0 0-3.875-2.17 3.273 3.273 0 0 0-3.366 2.75c0 1.7 2.414 3.5 5.779 3.5 4.318 0 8.5-3.02 8.5-7.34a7.339 7.339 0 0 0-7.65-7.07 8.165 8.165 0 0 0-2.991.54c-.2.07-.646.24-.85.31a.259.259 0 0 1-.2-.24c0-.58 2.991-5.23 5.439-6.97 1.632-1.12 2.414-1.66 2.414-2.65 0-1.5-2.21-2.35-3.57-2.35-.748 0-.986.11-3.093 1.02a16.419 16.419 0 0 1-5.27 1.23c-.714 0-.816 0-.816.1 0 .17 1.054 2.35 2.652 2.35.578 0 1.054-.11 2.414-1.23.578-.47 2.583-2.17 3.841-2.17a.561.561 0 0 1 .646.47c0 .38-.476 1.09-1.6 2.69-5.133 7.2-5.473 7.65-7.683 10.23-2.414 2.82-2.686 3.57-2.686 4.42a.937.937 0 0 0 .986.95c.918 0 1.258-.64 1.938-1.8.612-1.05 3.5-5.71 7.989-5.71 3.4 0 5.746 2.38 5.746 5.17.004 2.82-2.376 4.89-3.532 4.89zm-3.128.34a.558.558 0 0 1-.578.61c-1.461 0-2.923-.71-2.923-1.59a1.385 1.385 0 0 1 1.428-1.19 2.312 2.312 0 0 1 2.076 2.17zm40.905-16.35a4.344 4.344 0 0 0-3.672 2.14.116.116 0 0 0 .136.14.759.759 0 0 0 .34-.11 3 3 0 0 1 1.326-.34c1.156 0 2.856.48 2.856 1.84a1.747 1.747 0 0 1-.136.61c0 .04-.1.21-.1.27a.156.156 0 0 0 .17.17c.136 0 .85-.2 1.02-.23.17 0 .952.06 1.155.06.714 0 1.122-.91 1.122-1.63.004-1.56-1.593-2.92-4.211-2.92zm-12.477-.99a.3.3 0 0 0-.136.14c0 .07.17.41.17.48a1.464 1.464 0 0 1-1.19.85.341.341 0 0 1-.272-.38 18.291 18.291 0 0 1 .34-2.21 13.618 13.618 0 0 0 .714-1.77c0-.64-1.224-2.31-3.5-2.31-.2 0-.747.07-.747.38a3.887 3.887 0 0 0 .476.54 3.35 3.35 0 0 1 1.121 2.72 25.56 25.56 0 0 1-.34 3.71 15.031 15.031 0 0 1-4.317 1.01 9.017 9.017 0 0 1-1.564-.17c-.1 0-.51-.13-.612-.13a.242.242 0 0 0-.272.24c0 .24 1.292 2.58 2.448 2.58a7.426 7.426 0 0 0 2.414-.64 7.772 7.772 0 0 1 1.563-.31.675.675 0 0 1 .476.75c.034.57.068 3.47.068 4.25 0 .95-.2 1.05-1.937 1.9-2.006.99-2.618 1.16-3.536 1.16-.2 0-1.19-.17-1.394-.17a1.216 1.216 0 0 0-.986 1.32c0 1.13 1.734 2.14 2.108 2.14a6.3 6.3 0 0 0 1.292-.68 3.107 3.107 0 0 1 .85-.2c.442 0 .612 0 1.7 2.11a1.777 1.777 0 0 0 1.563 1.26c1.224 0 1.734-2.25 1.734-3.81 0-.34-.1-1.87-.1-2.24 0-.58.2-.68 2.108-1.71 3.978-2.1 6.085-2.55 7.037-2.55a3.528 3.528 0 0 1 3.264 3.75c0 2.72-2.856 4.21-5.1 4.21-.34 0-2.21 0-2.21-1.63a1.423 1.423 0 0 1 .306-.92.51.51 0 0 0 .136-.27.181.181 0 0 0-.17-.17 3.03 3.03 0 0 0-1.7 2.68c0 1.77 1.564 2.76 3.5 2.76 2.787 0 7.513-2.04 7.513-6.53a5.206 5.206 0 0 0-5.236-5.13 15.928 15.928 0 0 0-5.779 1.36c-.544.2-3.332 1.36-3.434 1.36-.306 0-.306-.41-.306-.61 0-.17 0-2.93.068-3.68.068-1.19.1-1.32.578-1.49.816-.34 3.4-1.36 3.4-2.48.005-1.06-1.627-1.53-2.103-1.47zm-3.366 12.92a.94.94 0 0 1 .1.55c0 1.66-.476 2.61-.951 2.61a2.247 2.247 0 0 1-1.428-1.59c.008-.48 2.183-1.57 2.285-1.57zm29.424-2.28c.748 0 .986-.13 2.958-1.46 3.332-2.21 6.153-3.57 8.295-3.57a4.417 4.417 0 0 1 4.25 4.63c0 2.85-1.972 7.17-8.194 8.02-1.054.14-1.189.17-1.189.48 0 .4.51.4.85.4 5.235 0 10.776-2.65 10.776-7.88a6.793 6.793 0 0 0-6.935-6.73c-2.618 0-6.221 1.46-7.547 2-3.3 1.36-3.672 1.53-4.318 1.53-.238 0-1.394-.34-1.666-.34a.453.453 0 0 0-.476.54c.006.82 1.57 2.38 3.202 2.38zm22.794-10.81c-.408.48 1.19 2.76 2.89 2.76a2.474 2.474 0 0 0 1.19-.44c1.088-.62 8.159-3.64 10.1-3.64.068 0 .2 0 .2.07a6.558 6.558 0 0 1-.816.71c-4.93 4.39-4.964 11.59-4.964 13.09 0 1.6 0 7.27 6.97 7.27.2 0 3.943 0 3.943-1.8 0-.81-.646-1.26-1.7-1.26-.272 0-2.719.21-3.229.21-2.006 0-4.148-.38-4.148-6.09 0-8.77 4.828-12.75 9.145-12.75.408 0 2.346.38 2.788.38a1.355 1.355 0 0 0 1.36-1.26c0-1.16-1.53-1.63-2.72-1.63-2.278 0-10.029 2.21-13.055 3.06-4.657 1.32-5.167 1.46-6.629 1.46a3.609 3.609 0 0 0-1.319-.14zm-286.03 49.24a3.1 3.1 0 0 1-1.427-.38 6.058 6.058 0 0 0-1.87-.67.47.47 0 0 0-.51.4c0 .31.34 1.8.374 2.14.034.99.034 4.76.034 6.91a.842.842 0 0 1-.952.95h-.646a.839.839 0 0 1-.85-.55 4.981 4.981 0 0 0-.986-1.73c-.136 0-.136.24-.136.41a6.652 6.652 0 0 1-.544 2.11 14.1 14.1 0 0 0-1.36 2.58 1.291 1.291 0 0 0 1.394 1.22c1.564 0 1.734-1.66 1.8-2.27a.813.813 0 0 1 .918-.89H308c.714 0 .714.44.714.48 0 .17-.578 2.07-.578 2.31a.11.11 0 0 0 .1.1 1.159 1.159 0 0 0 .476-.27c1.292-1.29 1.938-1.36 2.516-1.39 1.122-.11 1.36-.14 1.36-.69a.946.946 0 0 0-.408-.71 11.674 11.674 0 0 0-2.482-1.9c-.272 0-.34.24-.51.71a1.2 1.2 0 0 1-1.224.48.788.788 0 0 1-.883-.95v-4.02c0-2.34.068-2.38.612-2.72.441-.27.509-.3.509-.51a.847.847 0 0 0-.408-.71 7.317 7.317 0 0 0-2.175-1.39 1.167 1.167 0 0 0-.68.54 1.423 1.423 0 0 1-1.088.41h-5.508zm-.34 9.35a.718.718 0 0 1-.883-.78v-6.77a.884.884 0 0 1 1.087-.88h5.746a.725.725 0 0 1 .884.78c0 1.26 0 1.7-.85 1.7h-1.564a2.6 2.6 0 0 1-.782-.1 15.062 15.062 0 0 0-1.5-.51c-.34 0-.408.17-.408.51 0 .3.17 1.73.17 2 0 .21.034 2.96.034 3.27a.745.745 0 0 1-.884.78h-1.054zm5.95-5.03a.725.725 0 0 1 .884.74v3.51a.735.735 0 0 1-.884.78h-1.054a.727.727 0 0 1-.884-.75v-3.5a.735.735 0 0 1 .884-.78h1.054zm-6.052 9.38a3.441 3.441 0 0 1-1.291-.31 17.76 17.76 0 0 0-2.21-.91.388.388 0 0 0-.408.4c0 .14.1.78.1.92.034.48.136 3.06.136 4.08 0 1.6-.17 6.7-.2 7.31 0 .51-.272 2.75-.272 3.2 0 .64.1 1.12.782 1.12a1.829 1.829 0 0 0 2.006-1.84v-3.98a.886.886 0 0 1 1.02-.74h6.8a.88.88 0 0 1 1.088.91 6.364 6.364 0 0 1-.1 2.04c-.17.45-.34.62-2.686.62a1.522 1.522 0 0 0-.68.06c0 .04 1.088.96 1.292 1.13a12.608 12.608 0 0 1 1.054 1.39.754.754 0 0 0 .714.41 3.626 3.626 0 0 0 1.938-.85c.442-.41.985-1.16.985-3.16 0-1.33-.2-7.25-.2-8.43 0-1.47 0-1.64.271-1.84.51-.41.578-.44.578-.71 0-.75-2.209-2.28-2.515-2.28a6.443 6.443 0 0 0-1.19 1.19 2.367 2.367 0 0 1-1.224.27h-5.78zm6.6.88c.952 0 .952.44.952 2.25a.85.85 0 0 1-.952.98h-6.969c-.952 0-.952-.44-.952-2.24a.857.857 0 0 1 .952-.99h6.969zm-.034 4.15c.986 0 .986.34.986 2.31a.835.835 0 0 1-.986.99h-6.935c-.952 0-.952-.38-.952-2.31a.824.824 0 0 1 .952-.99h6.935zm-21.214-12.24a11.03 11.03 0 0 0-2.074-.34c-.034 0-.238 0-.238.1a1.511 1.511 0 0 0 .476.51 8.692 8.692 0 0 1 1.734 2.35c.748 1.63.918 2.01 1.734 2.01a1.554 1.554 0 0 0 1.53-1.57c.002-2.17-2.446-2.85-3.16-3.06zm3.2-6.93a11.911 11.911 0 0 0-2.958-.89.134.134 0 0 0-.17.14.732.732 0 0 0 .306.44 13.881 13.881 0 0 1 1.836 2.41c1.156 2.04 1.326 2.28 2.074 2.28a1.358 1.358 0 0 0 1.359-1.43c-.004-1.7-1.735-2.61-2.449-2.95zm1.8 9.21a86.951 86.951 0 0 1-3.7 9.25c-.68 1.08-.918 1.08-2.754 1.08a.744.744 0 0 0-.68.14 10.7 10.7 0 0 0 1.8.99c1.564.91 1.564 1.39 1.564 4.93 0 1.39 0 3.74 1.666 3.74a1.945 1.945 0 0 0 1.7-2.18c0-.54-.136-.82-.917-3.33a13.385 13.385 0 0 1-.442-3.16c0-2.15 2.787-13.13 2.787-13.13 0-.03 0-.23-.136-.23-.175 0-.245.17-.889 1.9zm38.09-8.64a.45.45 0 0 0 .068.45 2.5 2.5 0 0 1 .578 1.53c0 .98-.816 1.32-2.72 2.1-2.856 1.16-2.992 2.89-3.093 4.08-.1 1.26-.918 7.52-.918 8.95 0 2.61 1.155 4.24 2.583 4.24 1.156 0 1.53-.57 3.094-2.78a5.154 5.154 0 0 1 4.42-2.55 3.542 3.542 0 0 1 3.773 3.77c0 3.2-3.2 5.88-7.445 6.83a2.071 2.071 0 0 0-.986.41c0 .27.476.27.918.27 4.929 0 10.335-2.75 10.335-6.9 0-2.79-2.584-5.34-6.221-5.34-2.176 0-3.468.82-5.542 2.18a5.063 5.063 0 0 1-1.972.82c-.85 0-.884-1.06-.884-1.57 0-.85.272-3.74.442-4.99.068-.48.408-2.49.408-2.79s-.238-1.77-.238-2.08a2.263 2.263 0 0 1 2.414-2.24 4.749 4.749 0 0 1 1.6.34 6.34 6.34 0 0 0 2.006.58 1.67 1.67 0 0 0 1.734-1.63c-.001-1.91-4.117-3.88-4.355-3.68zm21.829 12.55c.68 0 3.841-1.36 4.589-1.36a.236.236 0 0 1 .238.27 9.107 9.107 0 0 1-.476 1.6c-1.835 5.1-3.263 6.66-4.181 7.68-2.04 2.25-2.278 2.52-2.278 3.23a1 1 0 0 0 1.088 1.09c2.754 0 6.051-8.36 7.411-12.99a4.73 4.73 0 0 1 .51-1.46 7.348 7.348 0 0 1 3.264-.81c.986 0 2.346.16 2.346 2.55a27 27 0 0 1-1.054 5.91c-.986 3.67-2.244 4.15-3.23 4.15a10.378 10.378 0 0 1-1.734-.24 6.827 6.827 0 0 0-.85-.24.162.162 0 0 0-.17.17c0 .07.374.95.442 1.12.374 1.09.714 2.35 2.006 2.35a5.273 5.273 0 0 0 3.468-2.07c1.971-2.38 2.923-8.23 2.923-10.92 0-3.12-1.972-4.35-4.521-4.35-.272 0-1.836.17-2.006.17a.309.309 0 0 1-.374-.31c0-.64 1.292-4.96 1.292-5.03 0-.88-1.326-2.17-3.6-2.17-.136 0-.544.03-.544.27a2.1 2.1 0 0 0 .578.78 4.315 4.315 0 0 1 .85 2.89c0 .17-.034 3.61-.612 4.01a55.163 55.163 0 0 1-5.711 1.02c-.374 0-2.142-.47-2.244-.47a.3.3 0 0 0-.306.27c-.005.75 1.559 2.89 2.885 2.89zm22.778 1.39c0-1.73-1.6-6.02-5.95-6.02a.19.19 0 0 0-.238.21 2.1 2.1 0 0 0 .816.51 4.368 4.368 0 0 1 2.754 3.91c0 .92-.136 1.02-1.394 1.97a.816.816 0 1 0-.238 1.19c.408.1 1.972 1.02 2.312 1.02 1.426 0 1.937-2.38 1.937-2.79zm5.272-7.31c-.442.48 1.19 2.76 2.89 2.76a2.689 2.689 0 0 0 1.156-.44c1.122-.65 8.159-3.64 10.131-3.64.068 0 .2 0 .2.07a7.193 7.193 0 0 1-.85.71c-4.9 4.38-4.93 11.59-4.93 13.09 0 1.6 0 7.27 6.935 7.27.2 0 3.944 0 3.944-1.8 0-.81-.612-1.26-1.666-1.26-.306 0-2.719.21-3.229.21-2.006 0-4.148-.38-4.148-6.09 0-8.77 4.828-12.75 9.145-12.75.374 0 2.312.38 2.754.38a1.363 1.363 0 0 0 1.394-1.26c0-1.16-1.53-1.63-2.754-1.63-2.244 0-10.029 2.21-13.055 3.06-4.657 1.32-5.167 1.46-6.6 1.46a3.682 3.682 0 0 0-1.318-.14zm23.424 2.28a3.064 3.064 0 0 0-.85-.17c-.1 0-.476 0-.476.21a.635.635 0 0 0 .306.44 8.7 8.7 0 0 1 2.244 2.72c.34.81.714 1.8 1.529 1.8a1.1 1.1 0 0 0 .986-1.26c-.001-1.63-1.734-3.09-3.74-3.74zm-4.386 1.39c-.306-.06-.68-.03-.68.14a1.744 1.744 0 0 0 .34.61 8.889 8.889 0 0 1 1.7 2.66c.544 1.32.85 1.97 1.462 1.97a1.387 1.387 0 0 0 1.19-1.4c-.001-1.09-1.123-3.19-4.013-3.98zm17.933-9.85a.422.422 0 0 0-.476.34c0 .03.34.81.374.91a4.323 4.323 0 0 1 .306 1.67c0 .95-.306 3.74-.442 4.86-.714 6.66-.782 7.34-.782 9.45 0 6.84 2.108 9.39 6.527 9.39 6.392 0 11.423-5.48 11.423-5.85a.158.158 0 0 0-.17-.17c-.136 0-2.719 1.43-3.229 1.66a16.726 16.726 0 0 1-7.14 1.77c-4.555 0-5.2-3.06-5.2-6.49a81.531 81.531 0 0 1 1.428-12.1 16.215 16.215 0 0 0 .646-1.91c-.002-.78-1.498-3.53-3.262-3.53zm24.62 23.96c0 .38.1 1.5.918 1.5.646 0 1.87 0 4.215-7.07.714-2.21.748-2.24 2.482-9.66.136-.61.272-.64 1.428-.95 2.244-.61 5.134-1.6 5.134-3.5a.972.972 0 0 0-1.122-1.05c-.17 0-.918.06-1.054.06-.34 0-3.06-.57-3.06-1.22 0-.17.374-.85.374-1.02a3.063 3.063 0 0 0-2.72-1.8 1.441 1.441 0 0 0-1.53.78 5.543 5.543 0 0 0 .952 1.26 4.679 4.679 0 0 1 .408 2.11 9.779 9.779 0 0 1-.374 2.78 7.373 7.373 0 0 1-2.413.31 12.529 12.529 0 0 1-3.026-.37 6.349 6.349 0 0 0-.782-.31.141.141 0 0 0-.136.14 3.256 3.256 0 0 0 1.768 1.83 6.5 6.5 0 0 0 3.026.61c1.088 0 1.223 0 1.223.34a45.689 45.689 0 0 1-4.487 12.51c-1.055 1.98-1.225 2.32-1.225 2.72zm8.261-18.69c.17-.82.17-.92.306-1.6.068-.34.17-.41.374-.41.374 0 2.21.75 2.21 1.09 0 .44-2.584 1.36-2.754 1.36-.205 0-.171-.21-.137-.44zm3.876 4.82a.493.493 0 0 0 .306.07c.136 0 .918-.1 1.122-.14a20.428 20.428 0 0 1 2.447-.13c.51 0 2.924.03 2.924.54 0 .38-1.768 1.67-1.768 1.91 0 .1.1.1.17.1a6.216 6.216 0 0 0 1.428-.44 5.656 5.656 0 0 1 2.516-.55c.272 0 1.6.11 1.9.11a.818.818 0 0 0 .986-.82c0-1.5-2.448-2.45-5.678-2.45-3.634 0-6.592 1.36-6.354 1.8zm-1.53 9.08c-.272 0-.476.71-.476 1.5 0 4.28 4.59 5.67 10.1 5.67 2.89 0 4.148-.17 4.148-1.15 0-1.12-1.564-1.7-2.72-1.7-.544 0-3.128.24-3.706.24-2.583 0-6.255-.65-6.969-3.61a2.662 2.662 0 0 0-.378-.95zm23.818 1.56a3.775 3.775 0 1 0 3.774 3.78 3.756 3.756 0 0 0-3.775-3.78zm-.034.96a2.85 2.85 0 0 1 2.89 2.85 2.81 2.81 0 0 1-2.822 2.79 2.851 2.851 0 0 1-2.856-2.86 2.748 2.748 0 0 1 2.787-2.78z" transform="translate(-280.531 -5686.66)"/></svg>