<svg data-name="pc/breakthrough-title.svg,pc/png/breakthrough-title.png" xmlns="http://www.w3.org/2000/svg" width="669.934" height="144.5"><path data-name="2,400,000本突破！" d="M29.096 134.56c1.361 0 4.337 0 5.1-3.06.425-1.79 3.147-12.75 3.147-13.43a1.029 1.029 0 0 0-.851-1.19c-.51 0-.51.08-1.871 3.23-2.381 5.61-7.314 7.99-15.9 7.99H9.96c-.34 0-3.061 0-3.061-1.28 0-1.61 4.592-9.52 17.435-20.23 7.229-6.03 12.587-10.88 12.587-19.63 0-10.04-7.824-15.99-17.01-15.99-10.8 0-18.285 8.16-18.285 15.39 0 3.23 1.956 5.78 4.847 5.78a4.624 4.624 0 0 0 4.593-4.59c0-1.53-.68-2.47-1.786-4.08a4.352 4.352 0 0 1-.85-2.55c0-3.66 4.422-7.14 9.525-7.14 5.784 0 11.312 4.42 11.312 11.99 0 8.07-1.786 10.28-21.858 34.17-1.956 2.29-7.4 8.84-7.4 13.34 0 1.19 1.956 1.28 2.466 1.28h26.621zm20.052 9.01a.9.9 0 0 0 1.02.93c2.212 0 9.611-6.2 9.611-13.68a5.658 5.658 0 1 0-11.312-.26 5 5 0 0 0 3.4 4.76c1.616.85 2.467 1.28 2.467 1.96 0 1.53-1.786 3.4-3.317 4.42-1.784 1.27-1.873 1.44-1.873 1.87zm50.586-28.05c-2.381 0-2.381-.85-2.381-8.5 0-3.57.255-19.47.255-22.7 0-1.87 0-11.56-.51-12.5a2.073 2.073 0 0 0-1.616-.85c-1.361 0-1.616.51-4.168 4.68-.51.93-20.582 34.43-22.453 37.57-1.531 2.47-1.7 2.72-1.7 3.57 0 1.53 1.021 1.53 2.041 1.53h19.136c2.3 0 2.3 1.62 2.3 5.1 0 5.36 0 8.42-5.784 8.42-1.786 0-2.891 0-2.891 1.44 0 1.19 1.361 1.28 2.041 1.28h19.136c.766 0 2.3 0 2.3-1.28s-.68-1.27-3.487-1.53c-4.507-.34-4.507-3.23-4.507-8.41 0-3.66 0-5.02 2.466-5.02h5.869c.765 0 2.041 0 2.041-1.44 0-1.28-1.531-1.36-2.041-1.36h-6.047zm-26.45 0c-1.191 0-1.7-.34-1.7-.85 0-.68 14.118-23.89 15.9-26.95.51-.85 1.871-2.98 2.3-2.98.511 0 .681.94.681 1.2 0 .17.17 11.39.17 12.57 0 5.02 0 14.37-.085 15.14a2.091 2.091 0 0 1-2.212 1.87H73.284zm81.628-11.9c0-14.96-5.358-32.56-19.136-32.65-13.353 0-19.137 16.83-19.137 32.65 0 15.64 5.7 32.55 19.137 32.55 13.693 0 19.136-17.51 19.136-32.55zm-7.655 0c0 4.42-.17 29.75-11.481 29.75-11.482.08-11.482-26.27-11.482-29.75 0-4.34.17-29.84 11.482-29.84 11.481 0 11.481 26.27 11.481 29.84zm56.981 0c0-14.96-5.358-32.56-19.136-32.65-13.353 0-19.136 16.83-19.136 32.65 0 15.64 5.7 32.55 19.136 32.55 13.693 0 19.136-17.51 19.136-32.55zm-7.654 0c0 4.42-.171 29.75-11.482 29.75-11.482.08-11.482-26.27-11.482-29.75 0-4.34.17-29.84 11.482-29.84 11.482 0 11.482 26.27 11.482 29.84zm17.271 39.95a.9.9 0 0 0 1.02.93c2.211 0 9.611-6.2 9.611-13.68a5.658 5.658 0 1 0-11.312-.26 5 5 0 0 0 3.4 4.76c1.616.85 2.467 1.28 2.467 1.96 0 1.53-1.786 3.4-3.317 4.42-1.78 1.27-1.869 1.44-1.869 1.87zm57.756-39.95c0-14.96-5.359-32.56-19.137-32.65-13.352 0-19.136 16.83-19.136 32.65 0 15.64 5.7 32.55 19.136 32.55 13.693 0 19.137-17.51 19.137-32.55zm-7.655 0c0 4.42-.17 29.75-11.482 29.75-11.481.08-11.481-26.27-11.481-29.75 0-4.34.17-29.84 11.481-29.84 11.482 0 11.482 26.27 11.482 29.84zm56.981 0c0-14.96-5.358-32.56-19.136-32.65-13.353 0-19.137 16.83-19.137 32.65 0 15.64 5.7 32.55 19.137 32.55 13.693 0 19.136-17.51 19.136-32.55zm-7.655 0c0 4.42-.17 29.75-11.481 29.75-11.482.08-11.482-26.27-11.482-29.75 0-4.34.17-29.84 11.482-29.84 11.481 0 11.481 26.27 11.481 29.84zm56.981 0c0-14.96-5.358-32.56-19.136-32.65-13.353 0-19.136 16.83-19.136 32.65 0 15.64 5.7 32.55 19.136 32.55 13.693 0 19.136-17.51 19.136-32.55zm-7.655 0c0 4.42-.17 29.75-11.481 29.75-11.482.08-11.482-26.27-11.482-29.75 0-4.34.17-29.84 11.482-29.84 11.481 0 11.481 26.27 11.481 29.84zm69.611 17.51c3.147 0 4.593 0 4.593-1.36 0-1.02-4.678-5.44-5.783-5.44-.766 0-1.616 1.44-1.957 2.12-.935 2.3-1.445 2.47-4.082 2.47h-1.531c-2.381 0-2.381-1.53-2.381-2.47 0-7.48-.085-19.38-.085-26.77 0-.94 0-2.13 1.02-2.13.766 0 .936.42 1.361 1.53a76.037 76.037 0 0 0 12.843 22.02c5.358 6.37 12.247 11.13 12.587 11.13.255 0 .425-.17 1.106-.85a7.059 7.059 0 0 1 3.572-1.95c.935-.26 5.868-1.02 5.868-1.28s-.255-.25-2.126-1.02c-18.116-7.31-31.979-25.75-31.979-28.82 0-.76.6-.76 1.7-.76h24.409c2.977 0 4.593 0 4.593-1.27 0-1.2-7.654-6.81-8.675-6.81-.68 0-1.191.26-2.722 3.83-.935 2.04-1.53 2.04-5.443 2.04h-15.9c-2.211 0-2.211-1.61-2.211-4.59 0-2.47.085-9.69.935-11.56.17-.43 1.956-1.96 1.956-2.47 0-1.53-8.249-2.63-8.5-2.63a.655.655 0 0 0-.765.76c0 .43.68 5.19.765 5.78.17 1.87.17 4.68.17 11.99 0 1.45 0 2.72-2.806 2.72h-16.933c-3.487 0-6.634-.09-11.482-.34-.595 0-3.317-.26-3.912-.26-.085 0-.34 0-.34.17a2.2 2.2 0 0 0 .34.51l1.7 2.05a1.008 1.008 0 0 0 .85.5c.511 0 2.977-.25 3.487-.25 3.147-.17 6.549-.17 8.931-.17h11.482c.936 0 2.127 0 2.127 1.28 0 2.8-10.461 20.99-22.113 31.53-.851.77-5.273 4.51-5.273 4.76a.461.461 0 0 0 .51.34c1.106 0 6.124-3.31 6.208-3.4 13.694-9.18 20.242-20.48 23.9-26.78 1.786-3.05 1.871-3.31 2.551-3.31.765 0 .765.77.765 1.62 0 3.22-.17 19.12-.17 22.69 0 1.53-.17 2.64-2.636 2.64h-2.552c-1.531 0-9.1-.6-10.8-.6-.085 0-.34 0-.34.17a.752.752 0 0 0 .255.43l1.871 2.12c.425.51.425.51.765.51s2.042-.17 2.467-.17c1.021-.08 3.4-.25 5.528-.25h2.977c1.106 0 2.466 0 2.466 2.72 0 .59-.17 5.69-.255 8.67 0 .34-.34 4.33-.34 5.1 0 .85 0 2.89 2.126 2.89 2.637 0 4.338-2.21 4.338-5.27 0-1.45-.17-8.93-.17-10.54 0-2.55.425-3.57 2.721-3.57h8.42zm77.79-44.21c2.127 0 2.127.85 2.127 3.15 0 8.93 0 11.31 1.871 12.67 2.381 1.87 9.355 1.87 10.971 1.87 1.7 0 15.816 0 15.816-5.87 0-.6-1.78-2.89-2.04-3.4-.17-.43-1.02-2.98-1.27-2.98s-1.45 3.49-1.79 4.09c-1.7 2.97-6.888 2.97-11.992 2.97-6.463 0-6.548-1.11-6.548-5.86 0-.86 0-5.02.085-5.28.34-1.36 1.446-1.36 2.3-1.36h11.737c.6 0 1.191 0 1.191.68s-1.7 3.4-1.7 4a.187.187 0 0 0 .17.17 18.784 18.784 0 0 0 3.147-1.61 16.313 16.313 0 0 1 4.935-1.11c.59 0 3.4.42 3.91.42a1.328 1.328 0 0 0 1.53-1.27c0-1.02-.34-1.28-3.57-3.57-1.7-1.19-4.34-3.06-4.93-3.06-.51 0-1.875 2.12-2.216 2.46a2.53 2.53 0 0 1-1.956.6h-20.672c-1.02 0-1.956 0-1.956-1.62a5.136 5.136 0 0 1 .68-2.97c.936-1.02 1.957-2.13 1.957-2.72 0-1.19-.6-1.36-4.848-2.21-.766-.17-4.168-1.02-4.933-1.02a.423.423 0 0 0-.511.42c0 .6.681 2.47.851 3.32a27.1 27.1 0 0 1 .425 4.59c0 1.78-.425 2.21-2.3 2.21h-20.408a2.105 2.105 0 0 1-2.382-1.53c-.51-1.28-1.105-2.38-1.445-2.38-.255 0-1.191 3.06-1.531 3.65-.766 1.53-1.191 1.96-5.188 5.87a3.042 3.042 0 0 0-1.361 2.38c0 2.12 2.211 3.32 3.827 3.32 1.446 0 6.294-1.71 6.8-6.47.255-2.38.255-2.55 1.786-2.55h11.826c.936 0 1.7 0 1.7 1.02 0 .51-1.02 4.68-5.188 8.85-5.868 5.78-14.033 8.92-17.435 10.19-.766.35-1.786.69-1.786 1.03a.659.659 0 0 0 .6.25c3.487 0 17.435-3.65 25.685-11.56.851-.85 2.807-2.72 4.338-4.17 1.19-.51 1.616-.85 1.616-1.44 0-.68-.34-.93-3.062-2.72-.936-.6-1.191-.77-1.191-1.11s.511-.34.766-.34h11.566zm-11.311 34.43c.85 0 2.3 0 2.3 1.62a25.248 25.248 0 0 1-5.1 11.13c-5.188 6.8-13.012 10.88-25.26 14.28a19.715 19.715 0 0 0-2.721.94c0 .34.425.34.85.34a54.489 54.489 0 0 0 16.075-2.81c7.059-2.29 18.2-8.24 22.028-23.12.425-1.7.6-2.38 1.445-2.38s1.021.34 1.616 1.96c6.975 18.19 23.389 25.5 25.86 25.5.42 0 1.27-1.53 1.61-1.87a18.636 18.636 0 0 1 4.59-3.15c.68-.34 4.6-1.87 4.6-2.04 0-.25-1.36-.34-1.62-.34a53.024 53.024 0 0 1-16.754-3.74c-11.482-4.33-16.585-14.79-16.585-15.64 0-.68.681-.68 1.446-.68h25.093c2.72 0 4.5 0 4.5-1.19 0-.85-6.71-5.61-7.65-5.61-.765 0-1.106.26-3.487 3.15-1.191 1.36-1.616 1.36-5.358 1.36h-15.571c-1.021 0-2.382 0-2.467-1.62 0-.93.6-8.08 1.191-8.76a9.949 9.949 0 0 0 1.531-2.12c0-1.36-8.08-3.99-8.675-3.99-.51 0-.936.25-.851.68s.341 1.19.511 1.86a17.676 17.676 0 0 1 .425 4.77c0 9.18-.51 9.18-2.977 9.18h-14.458c-4 0-7.825 0-11.652-.26-.6 0-3.232-.34-3.827-.34a.23.23 0 0 0-.256.26 1.006 1.006 0 0 0 .341.51l1.616 1.95a1.442 1.442 0 0 0 .765.6 12.208 12.208 0 0 0 1.786-.26c2.977-.17 8.845-.17 10.8-.17h14.288zm99.316-33.41a5.281 5.281 0 0 1-2.72-.59c-1.19-.6-4.85-2.38-5.61-2.38a.8.8 0 0 0-.94.76c0 .51.51 3.74.6 4.51.17 2.98.51 12.16.51 14.7 0 28.06-8 36.81-12.68 42-.34.42-2.46 2.12-2.46 2.72 0 .25.17.25.34.25 1.36 0 5.44-2.72 8.76-6.46 2.55-2.89 9.52-10.96 10.8-29.58.17-2.29.76-2.29 2.8-2.29 1.96 0 2.22 1.01 2.64 2.38 2.55 8.07 2.89 9.01 4.17 11.81.59 1.28 3.83 6.8 3.83 7.57 0 1.53-9.27 10.11-19.65 14.53-2.72 1.11-3.06 1.28-3.06 1.62s.76.34 1.02.34c2.72 0 13.69-3.23 22.62-10.46a10.533 10.533 0 0 1 2.21-1.53c.68 0 4.26 4.08 5.02 4.85 2.3 2.12 8.34 6.88 10.21 6.88.59 0 1.02-1.02 1.19-1.53a5.22 5.22 0 0 1 2.12-2.8c.68-.43 4.51-1.7 4.51-1.96 0-.34-5.19-1.61-6.12-1.95-4-1.53-12.59-6.29-12.59-7.99 0-.34 3.66-5.78 4.25-6.63a57.254 57.254 0 0 0 4.34-9.01c1.19-3.23 1.36-3.57 2.64-4.17 2.55-1.28 2.8-1.36 2.8-2.21 0-1.44-6.63-5.53-7.06-5.53-.51 0-.68.17-2.12 2.39-.6.84-1.02 1.1-3.32 1.1h-2.12c-.77 0-2.56 0-2.56-2.12 0-1.96.17-11.74.17-13.86 0-2.3.68-3.06 2.81-3.06h4.93c.51 0 1.45 0 1.45.85 0 .68-2.13 4.68-2.13 5.44a.216.216 0 0 0 .26.17c.42 0 1.95-1.53 2.38-1.79 4.59-3.14 5.44-3.31 7.82-3.57 1.79-.25 2.81-.68 2.81-2.04 0-1.95-8.25-5.78-8.33-5.78-.43 0-.85 0-1.79 2.89a1.8 1.8 0 0 1-2.13 1.53h-5.52c-2.47 0-2.47-1.44-2.47-3.57 0-3.99.17-4.25 1.1-5.27 1.03-1.19 1.45-1.87 1.45-2.38 0-1.02-1.19-1.36-3.15-1.78-.34-.09-4.67-1.11-5.1-1.11a.9.9 0 0 0-.94.94c0 .34.35 2.04.43 2.38a51.19 51.19 0 0 1 .6 7.65c0 2.55-.51 3.14-2.73 3.14h-6.29zm6.21 2.3c1.19 0 2.64 0 2.64 2.72 0 2.04-.09 14.2-.43 15.13-.51 1.19-1.36 1.19-2.38 1.19h-6.29c-2.47 0-2.56-1.36-2.56-2.21 0-1.87.34-10.03.34-11.65a30.882 30.882 0 0 1 .17-4.25c.51-.93 1.7-.93 2.56-.93h5.95zm12.5 21.34c.77 0 2.21 0 2.21 1.44 0 1.19-4.16 15.39-7.48 15.39-1.28 0-1.7-.68-5.53-6.72-1.45-2.21-4.59-8.07-4.59-9.1 0-1.01 1.02-1.01 1.87-1.01h13.52zm-59.62-27.63a1.186 1.186 0 0 0 .77.51c.51 0 4.42-.26 5.18-.26 1.96 0 2.73 0 2.73 1.02 0 .43-.94 4.59-1.02 5.02-.43 2.38-2.22 10.29-6.55 23.04-.34 1.1-2.72 6.71-2.72 6.88a.4.4 0 0 0 .34.51c.93 0 4.59-6.71 5.18-7.9 1.36-2.55 1.53-2.81 2.13-2.81.68 0 .68.51.68 4.93 0 3.15-.25 18.79-.25 22.36 0 2.29.08 3.23 2.12 3.23.77 0 3.32-.34 3.66-2.38.08-.77 0-4.25 0-5.1 0-1.45.34-2.47 2.55-2.47h2.21c.94 0 1.87.26 2.04 1.11.26 1.95.43 2.8 2.3 2.8 4.08 0 4.08-3.48 4.08-7.9 0-2.47-.25-14.62-.25-17.43 0-1.7.08-2.3 1.1-3.06.77-.6 1.19-.94 1.19-1.61 0-1.62-5.7-4.93-6.29-4.93-.43 0-1.96 1.95-2.38 2.29a2.965 2.965 0 0 1-2.3.6h-3.06c-2.38 0-3.57-.34-3.57-1.62 0-1.1 3.4-8.67 3.99-10.37 2.3-6.38 2.47-6.38 4.51-6.38h6.64c4.08 0 4.5 0 4.5-1.19 0-1.1-5.35-6.63-6.8-6.63-.94 0-1.7 1.28-2.21 2.3-1.62 3.06-1.7 3.31-5.1 3.31-4.51 0-10.38-.17-14.04-.34-.42 0-2.55-.25-3.06-.25a.2.2 0 0 0-.25.17.791.791 0 0 0 .34.59zm16.93 20.74c2.21 0 2.72.85 2.72 2.72v17.85c0 1.7 0 3.06-2.64 3.06h-2.21c-1.79 0-2.81-.42-2.81-2.63 0-2.81.17-15.3.09-17.85 0-2.05.08-3.15 2.8-3.15h2.05zm91.3 41.48a4.622 4.622 0 0 0 4.59-4.59 4.59 4.59 0 1 0-9.18 0 4.622 4.622 0 0 0 4.59 4.59zm0-65.11a4.516 4.516 0 0 0-4.42 4.5c0 1.53 1.27 9.52 1.45 11.23 1.02 8.07 1.44 19.04 1.44 32.64 0 2.12.09 3.31 1.53 3.31s1.53-1.27 1.53-3.48a296.064 296.064 0 0 1 1.36-32.39c.26-2.3 1.53-9.35 1.53-11.31a4.571 4.571 0 0 0-4.42-4.5z" fill-rule="evenodd" fill="#a40808"/><path d="M270.96 27.91c-.323 0-.691 0-.691-.37a1.89 1.89 0 0 1 1.289-1.29 1.275 1.275 0 0 0 1.012-.73c0-.28-1.426-.74-1.426-1.01a.209.209 0 0 1 .23-.19c.552 0 2.945.05 3.452.05 5.89 0 8.606-1.84 8.606-3.27 0-.41-.184-.64-1.427-2.34a4.638 4.638 0 0 1-.552-1.71c0-.32-.184-.32-.23-.32-.092 0-.138 0-.23.6-.184 1.38-.783 2.94-1.979 3.54-1.013.55-5.063.65-6.351.65-4.6 0-4.6-.6-4.6-1.29 0-.19 0-2.67.046-2.72.046-.18.875-.87.875-1.05 0-.88-3.728-1.75-3.866-1.75a.326.326 0 0 0-.414.27 3.723 3.723 0 0 0 .368.6 8.882 8.882 0 0 1 .092 2.03c0 .46 0 4.23.046 4.36a2.6 2.6 0 0 0 2.3 1.94c.506.09 1.012.18 1.012.69 0 1.1-4.6 8.74-13.3 11.82a4.332 4.332 0 0 1-.782.28.171.171 0 0 0-.093.18.225.225 0 0 0 .277.23c3.221 0 9.572-3.54 12.426-6.26a3.443 3.443 0 0 1 1.15-.87c.322 0 .415.09 1.243 1.19a25.95 25.95 0 0 0 2.577 2.76c.829.74.921.79.921 1.06 0 .74-6.029 3.22-6.582 3.45a76.061 76.061 0 0 1-9.618 3.04 1.861 1.861 0 0 0-.783.32c0 .14.184.14.23.14 3.5 0 12.2-1.75 18.225-4.88a1.979 1.979 0 0 1 1.013-.32 1.807 1.807 0 0 1 .966.37 29.584 29.584 0 0 0 8.238 3.04 40.469 40.469 0 0 0 5.569.91c.46 0 .506-.09 1.2-1.19.552-.92.782-1.01 2.807-2.49a.391.391 0 0 0 .23-.32.116.116 0 0 0-.138-.13c-.046 0-.322.09-.368.09a21.738 21.738 0 0 1-3.544.27c-6.259 0-12.288-1.65-12.288-2.3 0-.23.092-.27.829-.87.92-.69 1.1-.88 3.958-3.86a2.217 2.217 0 0 1 1.61-.74.665.665 0 0 0 .737-.51 1.2 1.2 0 0 0-.276-.46c-.277-.14-1.565-.82-1.841-.96-.184-.1-1.7-.97-1.795-.97a1.412 1.412 0 0 0-.875.69 1.583 1.583 0 0 1-1.334.6h-8.146zm7.639 1.2c.507 0 .829 0 .829.46s-3.36 4.14-4.326 4.14c-1.151 0-5.477-3.59-5.477-4.14a.521.521 0 0 1 .644-.46h8.33zm9.435-16.01c.276 0 .644 0 .644.41 0 .37-1.656 2.67-1.656 2.99 0 .09 0 .19.092.19a3.218 3.218 0 0 0 .552-.33c.414-.23 2.669-1.79 4.326-1.79 1.105 0 2.577-.05 2.577-.83 0-.46-.138-.6-1.565-1.84a14.807 14.807 0 0 0-2.577-1.98c-.138 0-.184.14-.736 1.11a1.511 1.511 0 0 1-1.657.87h-7.364c-.138 0-.322 0-.322-.18 0-.42 2.624-2.3 3.636-2.81.276-.14 2.117-.64 2.117-1.01s-.184-.51-1.749-1.7a4.473 4.473 0 0 1-1.334-1.34.29.29 0 0 1 .276-.27c.138-.05 4.142-.42 4.464-.42.276 0 1.611.1 1.933.1.414 0 1.289 0 1.289-.51a.534.534 0 0 0-.277-.41 61.58 61.58 0 0 0-5.338-3.36 4.407 4.407 0 0 0-.829.55c-1.472.87-6.535 2.25-11.828 2.9-4.97.6-17.12 1.7-17.258 1.7-.414 0-.552.18-.552.32 0 .37 4 .37 4.372.37.414 0 2.347-.09 2.761-.09 1.243 0 1.933 1.7 2.486 3.13 1.012 2.48 1.1 2.76 1.84 2.76a2.027 2.027 0 0 0 1.289-1.94c0-2.11-2.393-3.26-3.084-3.54a.5.5 0 0 1-.368-.27c0-.1 0-.19.23-.19 1.335-.09 6.4-.23 6.444-.23a.929.929 0 0 1 1.012.42 9.884 9.884 0 0 1 .552 2.53c.046 1.33.138 2.89 1.427 2.89a1.781 1.781 0 0 0 1.611-1.65 4.273 4.273 0 0 0-1.519-2.81 5.549 5.549 0 0 1-1.288-1.29c0-.18.276-.18.368-.18.782 0 2.669-.18 4.464-.28.506-.04 2.945-.27 3.5-.27.46 0 .92.04.92.69a14.235 14.235 0 0 1-.966 3.22c-1.243 2.85-1.381 3.17-2.256 3.17h-19.285c-.782 0-.874-.18-1.381-1.19a4.027 4.027 0 0 0-1.058-1.61c-.23 0-.23.27-.23.69a7.4 7.4 0 0 1-1.933 5.1c-.921 1.06-1.2 1.47-1.2 2.21a1.639 1.639 0 0 0 1.657 1.66c.322 0 2.807-.1 3.314-4.51.138-1.15.276-1.15 1.334-1.15h28.12zm-26.417 2.62a11.374 11.374 0 0 0-.6 1.7 5.464 5.464 0 0 1-1.473 2.03c-2.025 2.02-2.209 2.2-2.209 2.98a1.524 1.524 0 0 0 1.473 1.61c.276 0 3.451 0 3.451-5.7.002-.37-.09-3.17-.642-2.62zm9.8-1.43a.777.777 0 0 0 .23.33c.6.69 1.841 2.48 2.761 3.72.691.97.783 1.11 1.151 1.11a1.564 1.564 0 0 0 1.105-1.66 2.238 2.238 0 0 0-1.335-2.02 13.871 13.871 0 0 0-3.728-1.66c-.089 0-.227.05-.181.18zm11.6.56a1.162 1.162 0 0 0 .322.64c2.669 3.63 2.991 4.05 3.866 6.48.69 1.85.92 2.4 1.749 2.4.69 0 1.564-.88 1.564-2.35 0-3.95-7.225-7.27-7.317-7.27s-.183 0-.183.1zm30.942 1.1c.967-.23 5.569-1.93 5.845-1.93 1.335 0 7.456 6.85 7.456 9.84a1.475 1.475 0 0 1-1.611 1.47c-.644 0-.92-.09-3.774-.92a16.538 16.538 0 0 0-4.97-.82c-5.109 0-9.8 2.75-9.8 7.31a6.749 6.749 0 0 0 3.958 5.7 15.483 15.483 0 0 0 7.41 1.43c.828 0 5.246 0 5.246-2.44a1.943 1.943 0 0 0-2.255-1.79c-.092 0-4 .41-4.786.41-3.912 0-6.812-1.15-6.812-4.09 0-1.71 1.979-5.34 6.444-5.34a16.975 16.975 0 0 1 7.823 2.39c2.762 1.52 3.084 1.71 3.912 1.71a2.872 2.872 0 0 0 3.038-3.09c0-4.69-6.029-10.02-8.422-12.14a1.309 1.309 0 0 1-.553-.87c0-.33.138-.42 1.381-1.2.644-.37 2.807-2.02 2.807-3.22a1.6 1.6 0 0 0-1.564-1.66c-.507-.04-2.854 0-3.406 0A7.765 7.765 0 0 1 317 5.65c-2.117-1.25-2.577-1.52-3.544-1.52a2.217 2.217 0 0 0-2.3 2.21c0 1.33 1.7 2.89 2.945 3.77.6.41 2.117 1.47 2.117 1.88 0 .74-3.129 1.57-4.878 1.57a11.5 11.5 0 0 1-4.74-1.25 13.025 13.025 0 0 0-1.887-.87.337.337 0 0 0-.368.42c0 .87 2.025 4.41 6.765 4.41a13.4 13.4 0 0 0 2.85-.32zm2.578-6.67c-.369-.28-2.025-1.61-2.025-2.71a.854.854 0 0 1 .874-.83c.506 0 .874.18 3.912 2.02 1.473.88 1.611 1.01 1.611 1.61 0 1.01-1.427 1.47-1.7 1.47a7.677 7.677 0 0 1-2.671-1.56zm32.484-6.21c-.322 0-1.058.05-1.058.46a18.158 18.158 0 0 0 1.38 2.3 15.456 15.456 0 0 1 1.2 6.72c0 .82-.046 1.15-.322 1.33-.553.41-2.3.92-5.477 1.89a3.69 3.69 0 0 0-2.3 3.58c0 .78.046 1.11 1.058 3.68a24.672 24.672 0 0 1 1.059 3.45 4.394 4.394 0 0 1-.6 1.52c-.461.83-2.026 3.54-2.026 5.15a1.692 1.692 0 0 0 1.657 1.71c1.381 0 2.117-1.2 2.532-2.58.322-1.11.368-1.24.552-1.24.46 0 1.7 4.46 1.795 5.06.46 2.43.644 3.49 2.071 3.49s1.795-1.06 1.795-2.57a28.032 28.032 0 0 0-.553-4.28 42.005 42.005 0 0 1-.368-5.93c0-4.65.46-6.54 3.544-9.43 3.037-2.86 6.949-6.12 10.217-6.12 2.853 0 2.853 2.34 2.853 3.17a76.248 76.248 0 0 1-1.242 9.61 19.646 19.646 0 0 0-.553 4.33c0 1.24 0 6.71 5.431 6.71 4.879 0 7.41-5.33 7.41-5.97a.351.351 0 0 0-.276-.37 2.206 2.206 0 0 0-.967.78 6.14 6.14 0 0 1-4.832 2.3c-3.13 0-3.406-2.48-3.406-4.28a39.636 39.636 0 0 1 .737-6.9 40.6 40.6 0 0 0 .552-5.89c0-3.26-1.381-5.47-4.51-5.47-4.281 0-9.849 5.24-12.242 7.54a3.55 3.55 0 0 1-1.151.97.124.124 0 0 1-.138-.14 6.268 6.268 0 0 1 1.1-1.65 2.227 2.227 0 0 0 .415-1.2 1.027 1.027 0 0 0-.691-.92 1.369 1.369 0 0 1-.966-1.61 31.823 31.823 0 0 1 .23-3.31c.046-.42.46-2.44.46-2.81.003-.83-2.847-3.08-4.369-3.08zm.736 13.94a6.34 6.34 0 0 1-.828 2.07c-.23.46-2.715 5.29-2.807 5.52a.835.835 0 0 1-.507.46c-.414 0-1.518-3.45-1.518-5.06 0-2.3 4.786-3.27 5.154-3.27a.5.5 0 0 1 .507.28zm-.828 15.22a7.512 7.512 0 0 1-1.611-3.31c0-.51 1.335-3.54 1.795-3.54.23 0 .23.28.23.41 0 .1-.092 1.38-.092 1.61.001 4.51.001 4.83-.321 4.83zm34.2-20.79c-.552.65 1.611 3.73 3.912 3.73a3.311 3.311 0 0 0 1.611-.6c1.473-.83 11.046-4.92 13.669-4.92.092 0 .276 0 .276.09a8.549 8.549 0 0 1-1.105.97c-6.673 5.93-6.719 15.68-6.719 17.7 0 2.17 0 9.85 9.435 9.85.276 0 5.338 0 5.338-2.44 0-1.1-.874-1.7-2.3-1.7-.368 0-3.682.27-4.372.27-2.715 0-5.615-.5-5.615-8.23 0-11.87 6.536-17.25 12.38-17.25.553 0 3.176.51 3.774.51a1.83 1.83 0 0 0 1.841-1.7c0-1.57-2.071-2.21-3.682-2.21-3.083 0-13.576 2.99-17.672 4.14-6.305 1.79-7 1.98-8.975 1.98-.234 0-1.615-.42-1.799-.19z" fill="#060606" fill-rule="evenodd"/></svg>