<svg id="pc_find-title.svg_pc_png_find-title.png" data-name="pc/find-title.svg,pc/png/find-title.png" xmlns="http://www.w3.org/2000/svg" width="771.72" height="225.41"><defs><style>.cls-1{fill-rule:evenodd}</style></defs><g id="グループ_27" data-name="グループ 27"><path id="たった1本でいい_" data-name="たった1本でいい、" class="cls-1" d="M283.613 3875.58c0 .46.126 1.85 1.131 1.85.8 0 2.3 0 5.195-8.72.88-2.72.922-2.76 3.058-11.9.168-.75.335-.79 1.76-1.17 2.765-.75 6.326-1.97 6.326-4.31a1.2 1.2 0 0 0-1.383-1.3c-.209 0-1.131.08-1.3.08-.418 0-3.77-.71-3.77-1.51 0-.21.461-1.04.461-1.25a3.767 3.767 0 0 0-3.352-2.22c-1.089 0-1.885.54-1.885.96a6.974 6.974 0 0 0 1.173 1.55 5.778 5.778 0 0 1 .5 2.6c0 .29-.126 3.14-.461 3.43a9.25 9.25 0 0 1-2.974.38 15.381 15.381 0 0 1-3.729-.46 9.608 9.608 0 0 0-.963-.38.175.175 0 0 0-.168.17 4.027 4.027 0 0 0 2.179 2.26 8.093 8.093 0 0 0 3.728.76c1.341 0 1.508 0 1.508.41a56.33 56.33 0 0 1-5.53 15.42c-1.294 2.43-1.504 2.85-1.504 3.35zm10.18-23.04c.21-1 .21-1.13.377-1.97.084-.42.21-.5.461-.5.461 0 2.723.92 2.723 1.34 0 .54-3.184 1.68-3.393 1.68-.252 0-.21-.26-.168-.55zm4.776 5.95a.647.647 0 0 0 .377.08c.168 0 1.131-.12 1.383-.16a23.88 23.88 0 0 1 3.016-.17c.628 0 3.6.04 3.6.67 0 .46-2.179 2.05-2.179 2.35 0 .12.126.12.21.12a7.579 7.579 0 0 0 1.759-.54 7.039 7.039 0 0 1 3.1-.67c.335 0 1.969.12 2.346.12a1.006 1.006 0 0 0 1.215-1c0-1.85-3.016-3.02-7-3.02-4.476 0-8.12 1.68-7.827 2.22zm-1.885 11.19c-.335 0-.587.88-.587 1.84 0 5.28 5.656 6.99 12.443 6.99 3.561 0 5.111-.2 5.111-1.42 0-1.38-1.928-2.09-3.352-2.09-.67 0-3.854.29-4.566.29-3.184 0-7.709-.8-8.588-4.44a3.24 3.24 0 0 0-.461-1.17zm27.151-2.69c.922 0 1.215-.16 3.645-1.8 4.1-2.72 7.582-4.4 10.222-4.4a5.44 5.44 0 0 1 5.236 5.7c0 3.52-2.43 8.84-10.1 9.89-1.3.17-1.466.21-1.466.58 0 .51.628.51 1.047.51 6.452 0 13.28-3.27 13.28-9.72a8.371 8.371 0 0 0-8.546-8.3c-3.226 0-7.666 1.81-9.3 2.48-4.064 1.67-4.525 1.88-5.321 1.88-.293 0-1.717-.42-2.052-.42a.559.559 0 0 0-.587.67c.007 1.01 1.931 2.93 3.942 2.93zm28.781 8.59c0 .46.126 1.85 1.131 1.85.8 0 2.3 0 5.195-8.72.879-2.72.921-2.76 3.058-11.9.167-.75.335-.79 1.759-1.17 2.765-.75 6.326-1.97 6.326-4.31a1.2 1.2 0 0 0-1.382-1.3c-.21 0-1.131.08-1.3.08-.419 0-3.77-.71-3.77-1.51 0-.21.461-1.04.461-1.25a3.768 3.768 0 0 0-3.352-2.22c-1.089 0-1.885.54-1.885.96a6.944 6.944 0 0 0 1.173 1.55 5.778 5.778 0 0 1 .5 2.6c0 .29-.126 3.14-.461 3.43a9.252 9.252 0 0 1-2.975.38 15.371 15.371 0 0 1-3.728-.46 9.623 9.623 0 0 0-.964-.38.174.174 0 0 0-.167.17 4.027 4.027 0 0 0 2.178 2.26 8.1 8.1 0 0 0 3.729.76c1.34 0 1.508 0 1.508.41a56.33 56.33 0 0 1-5.53 15.42c-1.295 2.43-1.504 2.85-1.504 3.35zm10.18-23.04c.209-1 .209-1.13.377-1.97.084-.42.209-.5.461-.5.461 0 2.723.92 2.723 1.34 0 .54-3.184 1.68-3.394 1.68-.251 0-.209-.26-.163-.55zm4.776 5.95a.647.647 0 0 0 .377.08c.167 0 1.131-.12 1.382-.16a23.9 23.9 0 0 1 3.016-.17c.629 0 3.6.04 3.6.67 0 .46-2.178 2.05-2.178 2.35 0 .12.126.12.209.12a7.581 7.581 0 0 0 1.76-.54 7.037 7.037 0 0 1 3.1-.67c.335 0 1.969.12 2.346.12a1.006 1.006 0 0 0 1.215-1c0-1.85-3.016-3.02-7-3.02-4.476 0-8.121 1.68-7.827 2.22zm-1.885 11.19c-.336 0-.587.88-.587 1.84 0 5.28 5.656 6.99 12.442 6.99 3.561 0 5.111-.2 5.111-1.42 0-1.38-1.927-2.09-3.351-2.09-.671 0-3.854.29-4.567.29-3.183 0-7.708-.8-8.588-4.44a3.239 3.239 0 0 0-.46-1.17zm36.3 8.79c.377 0 1.047 0 1.047-.58a.788.788 0 0 0-1-.76c-3.1 0-3.687-.5-3.98-1.71-.126-.47-.168-16.55-.168-18.48 0-1.26.084-6.66.084-7.79 0-1.89 0-2.01-.461-2.01a18.709 18.709 0 0 0-2.052.92 19.865 19.865 0 0 1-4.734 1.05c-1.3.08-1.718.12-1.718.67s.419.54 1.424.54c3.519 0 4.106 0 4.106 1.97 0 2.22.084 11.98.084 13.99 0 1.47 0 8.84-.294 9.55-.5 1.18-1.592 1.3-3.854 1.3-1.508 0-2.136 0-2.136.67 0 .13.042.67.963.67h12.694zm28.812-6.62c1.55 0 2.262 0 2.262-.67a7.051 7.051 0 0 0-2.849-2.68 1.826 1.826 0 0 0-.963 1.05c-.461 1.13-.712 1.22-2.011 1.22h-.754a1.017 1.017 0 0 1-1.173-1.22c0-3.69-.042-9.55-.042-13.2 0-.46 0-1.04.5-1.04.377 0 .461.21.67.75a37.418 37.418 0 0 0 6.326 10.85 28.2 28.2 0 0 0 6.2 5.49.966.966 0 0 0 .545-.42 3.47 3.47 0 0 1 1.759-.96c.461-.13 2.891-.51 2.891-.63s-.126-.13-1.047-.51c-8.924-3.6-15.752-12.69-15.752-14.2 0-.37.293-.37.837-.37h12.024c1.466 0 2.262 0 2.262-.63 0-.59-3.77-3.35-4.273-3.35-.335 0-.586.12-1.341 1.88-.46 1.01-.754 1.01-2.681 1.01h-7.834c-1.089 0-1.089-.8-1.089-2.27 0-1.21.042-4.77.461-5.69a8.893 8.893 0 0 0 .963-1.22c0-.75-4.063-1.3-4.189-1.3a.324.324 0 0 0-.377.38c0 .21.335 2.56.377 2.85.084.92.084 2.3.084 5.91 0 .71 0 1.34-1.383 1.34h-8.336c-1.718 0-3.268-.05-5.656-.17-.293 0-1.634-.13-1.927-.13-.042 0-.168 0-.168.09a1.412 1.412 0 0 0 .168.25l.838 1a.489.489 0 0 0 .419.26c.251 0 1.466-.13 1.717-.13 1.55-.08 3.226-.08 4.4-.08h5.656c.461 0 1.047 0 1.047.62 0 1.39-5.153 10.35-10.892 15.55-.419.37-2.6 2.22-2.6 2.34a.228.228 0 0 0 .252.17 14.609 14.609 0 0 0 3.058-1.67 37.332 37.332 0 0 0 11.772-13.2c.88-1.51.922-1.64 1.257-1.64.377 0 .377.38.377.8 0 1.59-.084 9.43-.084 11.19a1.063 1.063 0 0 1-1.3 1.3h-1.256c-.754 0-4.483-.3-5.321-.3-.042 0-.167 0-.167.09a.4.4 0 0 0 .125.21l.922 1.04c.209.25.209.25.377.25s1-.08 1.215-.08c.5-.04 1.676-.13 2.723-.13h1.466c.545 0 1.215 0 1.215 1.35 0 .29-.084 2.8-.126 4.27 0 .16-.167 2.13-.167 2.51a1.154 1.154 0 0 0 1.047 1.43c1.3 0 2.137-1.09 2.137-2.6 0-.71-.084-4.4-.084-5.2 0-1.25.209-1.76 1.34-1.76h4.154zm16.941-18.18c-.544.59 1.466 3.4 3.561 3.4a3.256 3.256 0 0 0 1.425-.55c1.382-.8 10.054-4.48 12.484-4.48.083 0 .251 0 .251.08a7.348 7.348 0 0 1-1.047.88c-6.033 5.41-6.075 14.29-6.075 16.13 0 1.97 0 8.97 8.546 8.97.252 0 4.86 0 4.86-2.22 0-1.01-.754-1.55-2.053-1.55-.377 0-3.351.25-3.98.25-2.471 0-5.111-.46-5.111-7.5 0-10.81 5.949-15.71 11.27-15.71.46 0 2.848.46 3.393.46a1.674 1.674 0 0 0 1.718-1.55c0-1.42-1.886-2.01-3.394-2.01-2.765 0-12.358 2.72-16.087 3.77-5.739 1.63-6.367 1.8-8.127 1.8-.247 0-1.462-.38-1.63-.17zm28.865 2.81a4.028 4.028 0 0 0-1.048-.21c-.125 0-.586 0-.586.25a.787.787 0 0 0 .377.55 10.739 10.739 0 0 1 2.765 3.35c.419 1 .879 2.22 1.885 2.22a1.349 1.349 0 0 0 1.215-1.55c.004-2.01-2.133-3.81-4.604-4.61zm-5.4 1.72c-.377-.09-.838-.05-.838.16a2.308 2.308 0 0 0 .419.76 10.91 10.91 0 0 1 2.095 3.27c.67 1.63 1.047 2.43 1.8 2.43a1.7 1.7 0 0 0 1.467-1.72c0-1.34-1.383-3.94-4.948-4.9zm16.611-7.25a.227.227 0 0 0-.251.17 5.643 5.643 0 0 0 .335 1.42 11.662 11.662 0 0 1 .293 2.43c0 1.09-.587 6.24-.587 7.42 0 8 5.279 12.4 7.96 12.4a1.485 1.485 0 0 0 1.592-1.3 10.836 10.836 0 0 0-.335-1.39 5.562 5.562 0 0 1-.252-1.67 11.8 11.8 0 0 1 .545-3.19 4.794 4.794 0 0 0 .126-.83.3.3 0 0 0-.21-.34 3.64 3.64 0 0 0-1.3 1.43c-1.257 2.09-1.425 2.3-2.137 2.3-1.3 0-3.477-3.06-3.477-7.29a14.77 14.77 0 0 1 1-5.4 5.752 5.752 0 0 0 .5-1.68c.009-1.13-1.876-4.48-3.803-4.48zm19.983 3.85a.328.328 0 0 0-.377.21 15.419 15.419 0 0 0 2.011 1.89c2.22 2.22 2.22 3.98 2.22 7.45 0 .55 0 2.81 2.053 2.81 2.011 0 2.094-1.97 2.094-2.76a10.408 10.408 0 0 0-3.728-8 8.162 8.162 0 0 0-4.272-1.6zm16.1-3.85a.228.228 0 0 0-.251.17 5.7 5.7 0 0 0 .335 1.42 11.586 11.586 0 0 1 .294 2.43c0 1.09-.587 6.24-.587 7.42 0 8 5.279 12.4 7.96 12.4a1.485 1.485 0 0 0 1.592-1.3 11.01 11.01 0 0 0-.335-1.39 5.562 5.562 0 0 1-.252-1.67 11.8 11.8 0 0 1 .545-3.19 4.8 4.8 0 0 0 .125-.83.3.3 0 0 0-.209-.34 3.648 3.648 0 0 0-1.3 1.43c-1.257 2.09-1.424 2.3-2.136 2.3-1.3 0-3.477-3.06-3.477-7.29a14.77 14.77 0 0 1 1-5.4 5.752 5.752 0 0 0 .5-1.68c.007-1.13-1.878-4.48-3.803-4.48zm19.983 3.85a.329.329 0 0 0-.377.21 15.419 15.419 0 0 0 2.011 1.89c2.221 2.22 2.221 3.98 2.221 7.45 0 .55 0 2.81 2.052 2.81 2.011 0 2.095-1.97 2.095-2.76a10.412 10.412 0 0 0-3.728-8 8.166 8.166 0 0 0-4.276-1.6zm19.54 24.09c0-3.89-7.122-6.07-8.588-6.07-.336 0-.461.16-.461.29a1.676 1.676 0 0 0 .586.5 11.826 11.826 0 0 1 4.4 4.49c1.382 2.51 1.55 2.8 2.43 2.8a2.009 2.009 0 0 0 1.631-2.01z" transform="translate(-283.25 -3656)"/><path id="_発酵エキス美容液_" data-name="“発酵エキス美容液”" d="M565.352 3831.45c0-1.98-.892-2.49-2.739-3.63a1.437 1.437 0 0 1-.573-1.15 4.543 4.543 0 0 1 1.21-2.55c.255-.32 1.783-1.59 1.783-1.97a.693.693 0 0 0-.637-.7c-.637 0-6.433 4.9-6.433 10a3.695 3.695 0 0 0 7.389 0zm-9.681 0c0-1.98-.892-2.49-2.739-3.63a1.529 1.529 0 0 1-.637-1.15 4.643 4.643 0 0 1 1.274-2.55c.255-.32 1.783-1.59 1.783-1.97a.693.693 0 0 0-.637-.7c-.637 0-6.432 4.9-6.432 10a3.694 3.694 0 0 0 7.388 0zm27.2 16.17a.681.681 0 0 0 .573.39c.446 0 3.44-.26 4.013-.26 1.274 0 1.274.77 1.274 2.8 0 7.2-.255 7.26-2.1 7.26h-2.1c-3.63 0-6.878-.19-8.725-.25-.446 0-2.421-.19-2.8-.19-.127 0-.255 0-.255.13a1.394 1.394 0 0 0 .319.44l1.21 1.47a.687.687 0 0 0 .573.38c.128 0 1.656-.19 1.847-.19 2.548-.13 5.732-.13 7.516-.13h2.038c.637 0 1.592 0 1.592 1.28 0 .19-.955 7.7-6.624 12.41a36.253 36.253 0 0 1-7.26 4.91c-1.083.51-1.211.57-1.211.76a.457.457 0 0 0 .51.32 34.674 34.674 0 0 0 10-3.95c6.688-4.2 7.834-10.06 8.726-14.33.255-1.34.892-1.4 2.1-1.4h6.05c1.656 0 1.784 1.08 1.784 2.16 0 .45-.192 6.18-.192 7.39 0 7.84 3.121 8.79 10.892 8.79 2.8 0 8.407 0 10.508-.95 2.23-.96 2.994-2.68 2.994-3.44 0-.89-.382-1.21-1.847-2.74a8.341 8.341 0 0 1-.892-3.31c-.127-.96-.127-1.21-.446-1.21-.254 0-.318.25-.891 2.61-1.019 3.95-1.4 5.03-7.579 5.03-2.166 0-6.752 0-7.707-1.85-.7-1.33-.7-4.71-.7-8.21 0-3.63 0-4.27 2.038-4.27H620c2.8 0 3.12 0 3.12-.76 0-.9-4.076-4.46-4.9-4.46-.7 0-2.547 2.67-2.993 3.06-.637.5-.956.5-3.758.5h-3.439c-1.847 0-1.847-.7-1.847-3.44 0-.76 0-5.79.127-6.11.191-.57.51-.57 3.057-.57 1.4 0 2.548 0 2.548-1.02 0-.89-3.376-3.95-4.395-3.95-.509 0-.637.19-1.656 1.78a2.728 2.728 0 0 1-2.8 1.53h-9.936c-2.42 0-6.687-.12-9.235-.25-.828-.07-1.465-.07-1.465-.45 0-.19 2.866-3.18 3.44-3.76 3.566-4.01 5.159-7.07 8.407-12.99a4.115 4.115 0 0 1 2.165-2.1 1.546 1.546 0 0 0 1.083-1.34c0-1.08-4.2-3.76-4.777-3.76-.509 0-.573.13-1.719 1.72-.637.96-1.338 1.34-2.994 1.28l-2.356-.07c-3.631-.12-6.879-.12-8.726-.19-.446 0-2.42-.19-2.8-.19-.128 0-.255 0-.255.13a.9.9 0 0 0 .318.38l1.21 1.46a.653.653 0 0 0 .574.45c.127 0 1.656-.19 1.847-.19 2.547-.13 5.668-.13 7.515-.13h2.739c.7 0 1.592 0 1.592.96 0 1.66-4.076 9.81-4.777 9.81-.382 0-.764-1.91-.891-2.23-1.465-3-6.752-4.27-8.089-4.27-.191 0-.382 0-.382.25.382.51 1.337 1.66 1.783 2.23 1.147 1.47 4.9 6.5 4.9 7.39 0 1.85-6.432 7.45-9.235 9.68-.573.51-3.821 2.81-3.821 2.93 0 .19.127.26.382.26.446 0 2.611-.7 7.324-3.7.765-.51 4.14-3.05 4.522-3.05a.7.7 0 0 1 .637.31zm11.528 10.19c-1.592 0-1.783-.7-1.783-1.52 0-.96.255-5.67.255-6.75 0-.96.191-1.85 1.847-1.85h5.35c.955 0 1.592.19 1.847 1.08.063.38.063 4.33.063 5.1 0 3.24 0 3.94-1.783 3.94h-5.8zm30.762-23.62c.574-1.22-4.33-5.42-5.1-5.42-.509 0-.764.51-1.146 1.21-1.274 2.36-6.942 8.35-8.216 8.35-1.338 0-5.286-5.23-5.286-5.67 0-1.28 8.98-5.67 10.126-5.99 1.274-.38 1.975-.57 1.975-1.02 0-1.08-4.586-4.27-5.541-4.27-.574 0-.574.07-1.4 1.79-1.528 3.25-5.095 7.83-6.05 7.83-.892 0-2.548-3.06-3.185-4.2-.382-.64-1.91-4.08-2.165-4.08-.191 0-.191.19-.191.32a43.926 43.926 0 0 0 7.006 15.6c6.114 8.22 14.33 12.68 15.285 12.68a11.4 11.4 0 0 0 2.1-1.28 16.588 16.588 0 0 1 4.65-1.78c.191 0 .7 0 .7-.38 0-.19-.255-.26-1.083-.45-4.776-1.21-15.285-6.69-15.285-7.96 0-1.14 8.343-4.65 10.126-4.65 2.042 0 2.36 0 2.678-.63zm31.078-6.44c2.675 0 2.993 0 2.993-.83a1.464 1.464 0 0 0-.764-1.14c-2.675-2.61-2.994-2.87-3.567-2.87s-1.847 2.3-2.229 2.61c-.573.51-.892.51-3.567.51h-5.668c-3.63 0-6.942-.06-8.789-.19-.446 0-2.357-.25-2.8-.25-.063 0-.191 0-.191.12a.606.606 0 0 0 .255.45l1.21 1.47a1.076 1.076 0 0 0 .573.44c.51 0 4.714-.32 5.541-.32 1.72 0 1.72.38 1.72 3.76 0 .38 0 5.92-.064 6.24a1.192 1.192 0 0 1-1.21.64 3.659 3.659 0 0 1-1.974-.77 12.375 12.375 0 0 0-3.5-1.4.416.416 0 0 0-.446.39c0 .57.446 2.93.51 3.44.127.82.254 19.68.254 20.82 0 2.49-.573 13.7-.573 15.99 0 .63 0 1.91 1.465 1.91s2.42-1.08 2.611-2.87a1.519 1.519 0 0 1 1.72-1.59h12.037a1.455 1.455 0 0 1 1.72 1.21c.191 1.02.319 1.97 1.656 1.97a3.006 3.006 0 0 0 2.866-2.86c0-.45-.127-2.36-.191-2.74-.064-1.27-.191-6.24-.191-7.83 0-3.7 0-22.04.191-22.81a2.274 2.274 0 0 1 1.146-1.4 1.162 1.162 0 0 0 .446-.76c0-.96-3.375-3.12-3.885-3.12-.446 0-1.528 1.72-1.847 1.97a2.007 2.007 0 0 1-1.4.45c-2.166 0-2.166-.26-2.166-2.68 0-.95 0-6.49.192-7.06.318-.9 1.273-.9 2.038-.9h3.885zM640 3862.02c-1.911 0-1.911-.64-1.911-3.57 0-1.59.127-1.72 1.72-2.93 3.184-2.48 4.522-7.71 4.522-14.2 0-.64 0-1.27.955-1.27 1.146 0 1.592 0 1.592 1.08 0 1.14-.063 6.43-.063 7.64 0 3.44.127 5.16 3.757 5.16a7.393 7.393 0 0 0 1.656-.13 7.054 7.054 0 0 1 1.21-.32c.574 0 .574.26.574 1.09s-.064 4.84-.064 5.73a1.516 1.516 0 0 1-1.783 1.72H640zm5.923-34.27a.876.876 0 0 1 .828.32c.127.26.127 7.96.127 8.85 0 .96 0 1.47-.891 1.47-.956 0-1.656 0-1.656-.7 0-3.19 0-9.36.063-9.43.187-.51.379-.51 1.525-.51zm-6.114 12.3c1.146 0 1.146.31 1.146 3.18 0 5.29 0 8.6-1.72 11.14a1.666 1.666 0 0 1-.764.71c-.318 0-.382-.51-.382-.9 0-2.03.255-12.8.255-12.93-.004-1.2.442-1.2 1.456-1.2zm12.865 0c1.4 0 1.4.76 1.4 1.59 0 2.54 0 5.28-.063 7.83 0 .38 0 1.02-.51 1.02-.7 0-1.083-1.08-1.146-1.97 0-.26-.128-1.41-.382-1.41-.192 0-.192.32-.192.39 0 .76-.127 2.61-1.019 2.61-.573 0-.573-.77-.573-.96 0-1.21-.064-6.43-.064-7.51 0-.77 0-1.59 1.465-1.59h1.083zm-12.8 32.54c-1.91 0-1.91-1.02-1.91-2.61 0-5.8 0-6.24 1.974-6.24h12.1c1.911 0 1.911 1.02 1.911 2.35 0 6.37-.255 6.5-2.038 6.5h-12.043zm45.921-29.62c2.675 0 2.993 0 2.993-.76 0-.89-3.885-4.14-4.585-4.14-.637 0-2.166 2.74-2.675 2.99a8.969 8.969 0 0 1-2.675.19c-.319 0-.7 0-.7-.51 0-.89 6.56-9.04 7.516-10.06.382-.44 2.611-1.84 2.611-2.35 0-.83-4.968-3.89-5.8-3.89-.382 0-.509.58-.828 1.98-.127.44-1.4 4.77-2.356 4.77a3.273 3.273 0 0 1-1.593-1.14c-1.528-1.53-1.719-1.6-2.229-1.6-.446 0-1.656 1.79-1.974 2.1a1.462 1.462 0 0 1-1.338.45c-1.082 0-1.082-.64-1.082-1.46 0-3.44 0-3.83.254-4.33.128-.39 1.274-1.66 1.274-1.98 0-1.02-4.777-2.1-5.541-2.1-.191 0-.382 0-.382.25a16.242 16.242 0 0 0 .573 1.6c.255.95.255 1.46.255 5.92 0 .89 0 2.04-1.465 2.04-.955 0-4.968-.32-5.8-.32-.127 0-.254 0-.254.13a.609.609 0 0 0 .254.44l1.274 1.47a.69.69 0 0 0 .51.38c.509 0 3.5-.26 4.076-.26 1.4 0 1.4 1.09 1.4 2.04 0 6.24 0 6.37-1.465 6.37-1.146 0-5.987-.38-7.006-.38a.263.263 0 0 0-.255.19.7.7 0 0 0 .319.38l1.21 1.53a.7.7 0 0 0 .637.38c.127 0 1.592-.19 1.783-.19 2.548-.13 5.414-.13 8.535-.13.445 0 .637 0 .637.32 0 .51-2.421 3.44-2.994 4.08-1.019 1.27-1.083 1.4-1.911 1.4-.955 0-5.222-.38-6.114-.38a.163.163 0 0 0-.191.19.71.71 0 0 0 .255.38l1.21 1.47a1.076 1.076 0 0 0 .573.44c.319 0 2.357-.25 2.8-.25a.3.3 0 0 1 .382.25c0 .45-6.242 7.07-6.242 7.13a.226.226 0 0 0 .191.26c1.019 0 6.879-5.22 8.853-7.01.637-.57.892-.7 2.739-.7h6.114c.509 0 .892 0 .892.45 0 .51-2.357 4.01-3.185 4.01-.573 0-3.567-1.46-4.2-1.46a.314.314 0 0 0-.383.38 20.866 20.866 0 0 0 .574 2.16c.127 1.02.254 4.08.254 4.4 0 .89-.127 1.97-1.847 1.97-2.547 0-5.477-.12-8.088-.25-.446 0-2.484-.19-2.866-.19-.064 0-.255 0-.255.13s0 .12.318.44l1.211 1.47a.778.778 0 0 0 .573.38c.191 0 1.146-.13 1.337-.13 1.4-.13 4.777-.19 6.433-.19 2.484 0 2.8 0 3.121.76a47.934 47.934 0 0 1 .254 6.25c0 3.18-1.974 3.44-5.923 3.44a1.7 1.7 0 0 0-.764.12 5.954 5.954 0 0 0 1.4.58c1.592.76 1.911 1.2 3.312 2.99a1.541 1.541 0 0 0 1.338.64 5.329 5.329 0 0 0 3.63-2.04 6.441 6.441 0 0 0 .7-3.44c0-1.27-.192-7.2 0-8.09.191-.95.764-1.21 1.783-1.21h7.26c2.676 0 2.994 0 2.994-.76s-3.885-4.34-4.586-4.34c-.573 0-.7.2-1.783 2.11-.764 1.33-1.083 1.33-4.458 1.33-1.338 0-1.338-.89-1.338-1.84 0-2.42 0-2.68.191-3.19.064-.25 1.21-1.08 1.21-1.27a5.043 5.043 0 0 0-.318-.58c0-.12 4.458-3.12 7.069-3.31 1.784-.12 2.8-.19 2.8-.82 0-1.15-4.9-4.59-5.477-4.59a2.091 2.091 0 0 0-.765 1.15 1.264 1.264 0 0 1-1.465.82h-6.114c-.828 0-.892 0-.892-.25 0-.19 3.121-3.82 3.5-4.27 1.019-1.21 1.338-1.34 2.994-1.34h7.77zm-8.535-10.25c.574 0 1.211 0 1.211.51 0 .57-2.866 5.1-3.567 6.11-1.21 1.85-1.337 1.91-2.675 1.91-.955 0-1.146-.25-1.146-5.6 0-1.72 0-2.93 1.847-2.93h4.33zm24.734 5.86c-.255.26.446 1.66 1.083 2.55.955 1.14 3.5 2.86 4.14 2.86.255 0 6.878-1.91 8.216-1.91 1.783 0 2.293 1.66 2.293 9.17 0 3.19 0 6.75-1.274 7.33a136.978 136.978 0 0 1-15.222 1.78 30.726 30.726 0 0 1-5.541-.57 16.592 16.592 0 0 0-1.847-.38.4.4 0 0 0-.446.44c0 3.12 6.242 5.86 6.5 5.86.51 0 2.866-.95 3.44-1.08 8.088-2.23 19.043-3.25 27.578-3.25a26.16 26.16 0 0 1 7.706.83c.764.19 3.5.95 4.013.95.191 0 2.356-.19 2.356-1.33 0-1.85-4.586-4.72-6.305-4.72-.7 0-3.949.39-4.713.45-1.72.06-9.745.64-11.019.64-1.465 0-1.91-.26-1.91-1.21 0-.13.063-.39.063-.7.382-2.93.828-6.25 1.083-8.79.064-.32.51-1.98.51-2.36 0-.51-.192-.7-1.72-2.29a1.555 1.555 0 0 1-.573-.96.876.876 0 0 1 .955-.7c1.338-.13 7.834-1.02 9.3-1.08 1.528-.06 3.312-.13 3.312-1.34 0-1.91-4.268-3.25-6.242-3.25-.573 0-2.993 1.21-3.567 1.34a74.39 74.39 0 0 1-15.922 2.55 25.012 25.012 0 0 1-5.35-.64 2.383 2.383 0 0 0-.903-.19zm76.781 17.07c0-1.21.128-1.59 2.8-2.17a67.62 67.62 0 0 1 11.464-1.84c2.293 0 4.9-.07 4.9-1.98 0-1.08-1.4-2.8-4.777-2.8a13.074 13.074 0 0 0-6.305 1.59 42.884 42.884 0 0 1-8.152 2.42c-1.147 0-1.4-.57-1.975-2.74a41.175 41.175 0 0 1-1.146-5.73 1.408 1.408 0 0 1 1.21-1.59c.7-.26 1.274-.38 6.433-1.4 4.649-.89 5.923-1.15 5.923-2.42 0-1.02-1.784-2.36-3.822-2.36-.891 0-1.21.13-3.948 1.34a39.063 39.063 0 0 1-5.541 1.72c-.892 0-1.593 0-2.166-4.14-.127-.77-.255-4.46-.382-5.35-.191-1.28-4.649-2.68-5.923-2.68-1.4 0-3.312.7-3.312 1.09a26.6 26.6 0 0 0 2.93 2.29c2.8 2.42 3.63 8.47 3.63 8.72 0 1.22-1.019 1.6-3.248 2.11a59.511 59.511 0 0 1-9.809 1.08c-.573 0-1.273 0-1.273.44 0 1.15 4.267 3.44 5.795 3.44.128 0 7.325-2.42 8.79-2.42.955 0 1.273.64 1.656 2.23.891 3.51 1.4 5.35 1.4 6.37 0 1.08-.446 1.34-2.1 1.66-6.815 1.4-10.636 2.16-15.477 2.16-.573 0-3.248-.25-3.821-.25a.666.666 0 0 0-.764.64c0 1.91 6.369 4.71 7.324 4.71.637 0 3.248-1.47 3.885-1.66 3.121-1.02 10.7-2.8 10.955-2.8 1.146 0 1.465.83 1.719 1.98.255 1.46 1.656 8.4 1.975 9.99.509 2.68 1.528 8.22 4.331 8.22.955 0 1.4-1.21 1.4-2.42.001-2.8-4.585-15.79-4.585-17.45zm50.19-17.45c.191 1.02-7.388 17.51-24.011 29.55a19.666 19.666 0 0 0-2.93 2.36.371.371 0 0 0 .446.38 15.645 15.645 0 0 0 3.949-1.47c8.28-4.14 14.776-11.27 17-13.63 1.4-1.59 1.593-1.78 2.229-1.78 1.4 0 7.006 4.84 11.4 12.55 2.229 3.95 2.484 4.39 3.949 4.39a2.751 2.751 0 0 0 2.611-2.8c0-5.8-11.4-12.23-14.266-13.88-2.675-1.47-2.8-1.6-2.8-2.17a2.06 2.06 0 0 1 .51-1.27c1.019-1.47 6.05-8.92 7.324-10.45.382-.44 2.739-2.16 2.739-2.74 0-1.59-3.885-4.84-5.414-4.84-.573 0-2.93 1.72-3.5 1.98-3.312 1.33-15.286 2.35-17.451 2.35a11.357 11.357 0 0 1-3.376-.63c-.191-.07-1.592-.45-1.656-.45-.318 0-.382.19-.382.51a12.854 12.854 0 0 0 1.529 3.69c.382.39 3.375 2.3 4.331 2.3a29.2 29.2 0 0 0 2.866-1.21c.318-.13 13.693-3.25 14.139-3.25a.715.715 0 0 1 .758.51zm56.33-5.67c-.7 0-1.21 0-1.21-.45a1.412 1.412 0 0 1 .574-.76c.382-.38 2.484-2.1 2.993-2.48 2.993-2.62 3.312-2.87 4.522-3.06.573-.07 1.338-.13 1.338-.89 0-1.02-.956-1.4-2.293-1.91-.637-.26-4.14-1.66-4.459-1.66-.637 0-.637.51-.637 1.97 0 3.83-2.738 9.24-5.031 9.24h-17.585c-2.993 0-5.668-.13-8.789-.25-.382 0-2.356-.2-2.8-.2-.128 0-.191 0-.191.13a.606.606 0 0 0 .255.45l1.21 1.46a.882.882 0 0 0 .573.45 10.244 10.244 0 0 0 1.337-.19c.637 0 2.484-.13 8.089-.13h11.592c1.719 0 1.719 1.4 1.719 3.44 0 2.67 0 3.63-1.656 3.63H868.6c-2.994 0-5.6-.07-8.726-.26-.382 0-2.356-.19-2.8-.19a.163.163 0 0 0-.191.13.607.607 0 0 0 .254.45l1.211 1.46a.763.763 0 0 0 .573.45 10.244 10.244 0 0 0 1.337-.19c.637 0 2.484-.13 8.025-.13h6.624c1.656 0 1.656 1.34 1.656 2.48 0 2.74 0 3.82-1.656 3.82h-13.565c-2.993 0-5.605-.06-8.726-.19-.445-.06-2.356-.25-2.8-.25-.191 0-.255.06-.255.19a3.672 3.672 0 0 0 .255.38l1.274 1.53a.847.847 0 0 0 .573.38c.191 0 1.083-.13 1.338-.13.637-.06 2.483-.19 8.025-.19h42.417c2.166 0 3.439 0 3.439-.89 0-.83-5.541-4.26-5.986-4.26-.574 0-.765.25-2.548 2.35-.892 1.08-1.21 1.08-4.076 1.08h-11.721c-1.72 0-1.72-1.27-1.72-3.69 0-1.15 0-2.61 1.72-2.61h11.591c2.166 0 3.567 0 3.567-1.15 0-.89-4.968-4.01-5.541-4.01s-2.484 2.55-2.993 2.93c-.574.44-1.083.51-3.631.51h-2.993c-1.656 0-1.656-1.15-1.656-3.82 0-2.04 0-3.25 1.656-3.25h19.68c2.166 0 3.439 0 3.439-.96 0-.82-5.6-4.2-5.987-4.2-.573 0-.764.25-2.547 2.36-.892 1.08-1.21 1.08-4.076 1.08h-7.771zm-11.782 29.81c.892 0 1.4 0 1.4.95 0 2.55-5.1 10.89-22.164 12.68-.255 0-3.121.31-3.121.38 0 .25 3.5.95 7.388.95 4.649 0 18.343-1.21 22.483-12.54.446-1.15.446-1.34.764-1.34a1.372 1.372 0 0 1 .764.7 35.973 35.973 0 0 0 4.013 4.84 39.277 39.277 0 0 0 16.3 10.19 1.329 1.329 0 0 0 .828-.83 23.519 23.519 0 0 1 4.459-3.69c.382-.26 2.611-1.28 2.611-1.4s-.255-.13-.382-.13c-.255 0-1.656.06-1.975.06-15.094 0-24.966-9.49-24.966-10.38 0-.44.382-.44 1.146-.44h18.088c1.847 0 3.376 0 3.376-.77 0-.51-4.968-4.01-5.86-4.01-.7 0-1.592 1.02-2.1 1.59-1.338 1.47-1.4 1.47-4.586 1.47h-9.808c-1.338 0-1.4-.51-1.4-1.09 0-.19.254-2.86.318-3.31.064-.32.828-1.91.828-2.29 0-1.47-4.968-1.91-5.8-1.91-.318 0-.892 0-.892.44a8.057 8.057 0 0 0 .383 1.6 12.377 12.377 0 0 1 .318 3.63c0 1.84 0 2.93-1.656 2.93h-11.336c-2.993 0-5.668-.07-8.789-.26-.382 0-2.357-.19-2.8-.19a.163.163 0 0 0-.191.13.607.607 0 0 0 .254.45l1.21 1.46a1.078 1.078 0 0 0 .574.44c.191 0 1.146-.12 1.337-.12.7-.07 2.484-.19 8.089-.19h10.891zm1.21-33.12c0-3.06-2.1-4.08-5.414-5.54a28.642 28.642 0 0 0-4.84-1.6.345.345 0 0 0-.255.13 1.537 1.537 0 0 0 .382.64 22.14 22.14 0 0 1 4.267 4.97c2.293 3.82 2.612 4.26 3.567 4.26 1.714 0 2.287-1.59 2.287-2.86zm71.635 47.32c.955 0 1.4.06 1.783.95a1.873 1.873 0 0 0 2.1 1.47c1.975 0 2.866-2.04 2.866-3.82 0-.45-.254-6.24-.254-7.39 0-3.18.254-3.37.828-3.76 1.21-.89 1.337-1.02 1.337-1.46 0-1.02-4.2-4.21-4.841-4.21-.573 0-1.337.9-1.783 1.47a2.419 2.419 0 0 1-2.484 1.08h-13.188c-1.273 0-1.592-.12-3.694-1.02a17.568 17.568 0 0 0-2.993-1.08.454.454 0 0 0-.446.51 9.65 9.65 0 0 0 .191 1.34c.191 2.67.382 5.28.382 7.39 0 3.43-.127 5.79-.254 7.58a15.647 15.647 0 0 0-.192 1.97c0 1.08.7 1.66 2.357 1.66a2.754 2.754 0 0 0 2.484-1.15c.828-1.4.955-1.53 1.974-1.53h13.821zm.191-14.01c1.911 0 1.911.83 1.911 2.16v8.47c0 1.28-.446 1.66-1.911 1.66H932.4c-1.911 0-1.911-.76-1.911-2.1v-8.47c0-1.28.446-1.72 1.911-1.72h14.139zm-2.611-33.63c-1.147 0-2.166-.06-2.166-2.29 0-1.34.255-1.47 1.019-1.91a1.624 1.624 0 0 0 .892-1.28 1.416 1.416 0 0 0-1.083-1.21c-.445-.19-5.477-1.02-5.668-1.02a.62.62 0 0 0-.7.64c0 .32.51 1.66.574 1.97a17.629 17.629 0 0 1 .254 3.32c0 1.46-.637 1.78-2.165 1.78h-14.33c-1.083 0-1.211-.38-1.72-1.72a5.063 5.063 0 0 0-1.146-1.66 4.363 4.363 0 0 0-.446 1.21 12.355 12.355 0 0 1-2.866 5.67c-2.293 2.55-2.612 2.93-2.612 3.7a2.633 2.633 0 0 0 2.612 2.29c1.337 0 4.139-1.21 4.967-5.42.446-2.22.51-2.42 1.911-2.42h36.105c.574 0 1.274 0 1.274.9 0 .44-.891 2.93-.891 3.05a.174.174 0 0 0 .191.2 3.388 3.388 0 0 0 1.019-.64c2.165-1.15 3.057-1.66 5.286-1.66.446 0 2.484 0 2.739-.06a1.593 1.593 0 0 0 1.019-1.21c0-.51-1.083-1.28-2.1-1.98-.637-.44-3.567-2.73-4.076-2.99a1.025 1.025 0 0 0-.51-.13c-.382 0-1.465 1.85-1.719 2.17a2.393 2.393 0 0 1-1.911.7h-13.759zm26.368 29.49c.127-.26-.446-.32-.7-.32a35.972 35.972 0 0 1-6.5-1.08c-10.063-2.74-20.19-11.34-20.7-11.72-.509-.45-.509-.58-.509-1.85 0-.89-.446-1.15-1.592-1.72a29.666 29.666 0 0 0-3.567-1.53 1.532 1.532 0 0 0-1.147.89 11.927 11.927 0 0 1-1.91 3.32c-6.688 8.02-16.751 14.39-21.018 17.13-1.465.89-2.611 1.65-2.611 1.91a.163.163 0 0 0 .191.13c.127 0 3.312-.9 4.2-1.21a65.982 65.982 0 0 0 23.12-15.23c1.592-1.71 1.783-1.91 2.484-1.91.764 0 .891.2 1.847 1.4a48.251 48.251 0 0 0 10.445 10.77 61.919 61.919 0 0 0 9.49 5.86 1.635 1.635 0 0 0 .891-.58c1.529-2.03 4.459-3.18 5.8-3.69a8.067 8.067 0 0 0 1.78-.57zm-37.195-20.26c1.21-.44 1.528-.57 1.528-1.08 0-.83-4.076-3.31-4.458-3.31-.446 0-.637.32-1.338 1.46-.764 1.21-5.031 5.1-11.464 9.56a29.133 29.133 0 0 0-2.866 1.84.174.174 0 0 0 .191.2c.382 0 6.815-1.47 15.8-6.95.371-.25 2.155-1.52 2.601-1.72zm23.437 6.76c1.274 1.52 1.784 2.16 2.994 2.16a2.28 2.28 0 0 0 2.293-2.29c0-2.04-2.038-6.18-10.636-8.6-2.357-.64-7.134-1.53-7.2-1.53a.236.236 0 0 0-.255.26 4.187 4.187 0 0 0 1.4.95 35.685 35.685 0 0 1 11.398 9.05zm57.678-1.15a.717.717 0 0 1-.83-.83c0-.19 1.97-5.16 3.63-5.99a1.139 1.139 0 0 0 .83-.89c0-1.53-5.93-2.55-6.05-2.55a.65.65 0 0 0-.64.83c0 6.88-7.77 19.75-9.36 22.36-.38.64-2.614 3.76-2.614 3.95 0 .13.318.13.637-.13a24.842 24.842 0 0 0 4.647-4.4.9.9 0 0 1 .7-.38c.45 0 .51.26.64.7a36.946 36.946 0 0 0 3.63 9.24 2.357 2.357 0 0 1 .25 1.02c0 .95 0 1.4-4.26 4.9-.89.77-7.263 4.4-7.263 4.71a.2.2 0 0 0 .191.19 31.2 31.2 0 0 0 10.832-4.83c1.97-1.47 2.16-1.6 2.67-1.6.64 0 .64 0 2.74 1.91a27.055 27.055 0 0 0 9.23 5.54 4.263 4.263 0 0 0 1.09.32c.63 0 .76-.19 1.84-1.59.58-.76 1.02-1.4 4.72-3.06a1.122 1.122 0 0 0 .76-.51c0-.25-.32-.25-.38-.25a25.388 25.388 0 0 1-11.21-2.36c-1.85-.83-4.84-2.23-4.84-3.69a1.567 1.567 0 0 1 .44-1.15c.71-.7 4.85-4.9 10.13-16.68.45-1.02.57-1.09 2.29-1.72a1.139 1.139 0 0 0 .77-.96c0-1.21-4.59-4.27-5.29-4.27-.38 0-.51.13-1.72 1.34a2.724 2.724 0 0 1-2.23.83h-5.98zm6.05 1.72a1.152 1.152 0 0 1 1.4 1.08c0 1.72-3.7 10.06-5.92 13.57-2.04 3.12-2.23 3.44-3.19 3.44-1.08 0-2.99-2.87-3.69-4.02-.77-1.14-2.42-3.95-2.42-5.09a2.065 2.065 0 0 1 .32-1.08c.25-.39 1.59-2.17 1.91-2.62.44-.63.51-.7.82-.7.77 0 2.11 2.81 2.49 3.89.7 1.91 1.27 2.67 2.48 2.67 1.15 0 1.85-1.14 1.85-2.48 0-2.29-3.95-4.2-5.16-4.78a1.137 1.137 0 0 1-.76-1.08 3.482 3.482 0 0 1 3.12-2.8h6.75zm-36.242-13.76a3.252 3.252 0 0 0 1.592-2.67c0-3.38-5.159-5.93-8.789-5.93-.319 0-1.083 0-1.083.32a2.793 2.793 0 0 0 .764.7 13.873 13.873 0 0 1 3.439 4.01c1.911 3.38 2.166 3.76 3.312 3.76a1.664 1.664 0 0 0 .759-.19zm-4.459 12.99a2.638 2.638 0 0 0 1.274-2.16c0-3.19-3.375-5.35-7.9-5.35-.446 0-2.039 0-2.039.44a2.307 2.307 0 0 0 .7.58 24.254 24.254 0 0 1 4.267 3.95c1.911 2.61 2.1 2.74 2.8 2.74a2.471 2.471 0 0 0 .892-.2zm33.121-14.52c-1.98 0-1.98-.89-1.98-3.31a3.86 3.86 0 0 1 .45-2.04 6.729 6.729 0 0 0 1.02-1.33c0-1.22-4.97-2.23-5.92-2.23a.926.926 0 0 0-1.02.76c0 .32.44 1.78.51 2.1a14.4 14.4 0 0 1 .25 3c0 2.1 0 3.05-1.97 3.05h-4.08c-2.93 0-5.8-.12-8.725-.25-.382 0-2.357-.19-2.8-.19a.159.159 0 0 0-.191.12.651.651 0 0 0 .255.45l1.21 1.46a.77.77 0 0 0 .573.39c.191 0 1.147-.13 1.338-.13 2.229-.19 6.624-.19 8.025-.19h27.9c1.97 0 2.99 0 2.99-.89 0-1.09-4.46-4.78-5.35-4.78-.64 0-2.74 2.93-3.25 3.5-.44.39-.95.51-3.56.51h-5.67zm-20.319 28.92c0 2.48-.127 14.71-.127 17.51a1.946 1.946 0 0 0 1.974 2.23c2.739 0 2.739-2.99 2.739-3.69 0-.26 0-1.02-.064-2.17-.446-7-.446-7.26-.446-17a32.54 32.54 0 0 1 .128-4.46 1.79 1.79 0 0 1 1.082-1.53 1.078 1.078 0 0 0 .828-.83c0-.57-1.019-1.21-1.656-1.53a.6.6 0 0 1-.445-.57 1.021 1.021 0 0 1 .318-.64c1.146-1.33 6.5-8.28 7.138-8.66 1.08-.7 1.33-.83 1.33-1.34 0-1.27-5.22-2.73-5.538-2.73-.573 0-.637.06-1.083 1.65-1.146 4.4-7.643 13.63-11.464 18.66-.51.64-2.866 3.38-3.248 3.82l.127.19c1.529 0 6.687-5.28 7.579-5.98a.459.459 0 0 1 .319-.13.486.486 0 0 1 .509.38v6.82zm-12.865 19.23a3.135 3.135 0 0 0 3.184-3.12c0-.76-1.019-4.26-1.146-5.09a39.679 39.679 0 0 1-.7-6.5c0-3.63 6.433-21.65 6.433-23.95a.22.22 0 0 0-.191-.25c-.382 0-6.433 14.2-7.77 16.75-2.994 5.67-3.567 5.73-5.1 5.86-1.273.06-1.4.06-1.4.25 0 .13.064.19.892.7 2.484 1.53 3.184 5.67 3.184 8.03 0 .57-.127 3.44-.127 3.82-.004 1.65.378 3.5 2.735 3.5zm58.4-53.11c0 1.91.89 2.48 2.74 3.63a1.227 1.227 0 0 1 .57 1.08 4.528 4.528 0 0 1-1.21 2.55c-.25.31-1.78 1.59-1.78 1.97a.7.7 0 0 0 .64.7c.63 0 6.43-4.9 6.43-10a3.7 3.7 0 1 0-7.392.07zm9.68 0c0 1.91.9 2.48 2.74 3.63a1.238 1.238 0 0 1 .58 1.08 4.594 4.594 0 0 1-1.21 2.55c-.26.31-1.79 1.59-1.79 1.97a.7.7 0 0 0 .64.7c.64 0 6.43-4.9 6.43-10a3.7 3.7 0 1 0-7.392.07z" transform="translate(-283.25 -3656)" fill="#a40808" fill-rule="evenodd"/></g><g id="グループ_3" data-name="グループ 3"><path id="見つけました_" data-name="見つけました！" class="cls-1" d="M670.332 3690.82c.847 0 1.2.15 1.2 1.15a17.459 17.459 0 0 1-10.315 15.15c-2.142 1-4.385 1.85-5.83 2.39a.5.5 0 0 0-.4.35c0 .2.3.26.5.26.7 0 10.713-.45 16.1-8.56a22.033 22.033 0 0 0 3.139-7.39 1.433 1.433 0 0 1 .847-1.2c.648-.4.7-.4.7-.65s-.2-.35-1.1-.8a1.473 1.473 0 0 1-.747-.55c0-.15.1-.15.947-.15h2.641a1.137 1.137 0 0 1 1 .4c.3.45.3 3.2.3 4.1 0 7.85 0 8.75.05 9.65.1 2.64.548 4.05 10.215 4.05 2.741 0 6.029-.36 8.122-1.85a2.971 2.971 0 0 0 1.395-1.85 8.252 8.252 0 0 0-1.1-1.8c-.8-1.55-1.146-5.1-1.2-6.1a.5.5 0 0 0-.3-.5c-.249 0-.8 3.9-1 4.6-.848 2.95-1.4 4.2-7.026 4.2-5.93 0-5.93-1.2-5.93-2.3v-8.55c0-3.55 0-4.05 1.345-4.05h2.691a.982.982 0 0 1 1.2.85c.1 1 .2 1.8 1.345 1.8 1.346 0 2.542-2.05 2.542-3.25 0-.4-.1-2.2-.1-2.55-.149-6.9-.149-8.4-.149-11.95 0-1.3 0-4.95.4-5.65.1-.15.548-.85.648-1a.94.94 0 0 0 .2-.5c0-.8-1.943-2.8-2.69-2.8-.449 0-1.744 1.65-2.093 1.85a3.121 3.121 0 0 1-1.595.3h-17.248a6.442 6.442 0 0 1-2.391-.4c-.549-.15-3.09-1.3-3.488-1.3-.15 0-.15.25-.15.4 0 .3.2 3 .2 3.55.15 2.9.249 8.6.249 11.2 0 1.65-.3 10.1-.3 11a1.058 1.058 0 0 0 1.046 1.3 2.69 2.69 0 0 0 2.591-2.2.962.962 0 0 1 1.1-.65h2.442zm16.145-14.5c1.494 0 1.494.6 1.494 2.4 0 3.15 0 3.5-1.445 3.5h-18.237c-1.5 0-1.5-.55-1.5-2.9 0-2.55 0-3 1.6-3h18.088zm.249-7.05c1.295 0 1.295 1 1.295 1.7a25.594 25.594 0 0 1-.149 3.45 1.369 1.369 0 0 1-1.346.6h-17.988c-.648 0-1.644 0-1.644-1.35a29.542 29.542 0 0 1 .149-3.8 1.447 1.447 0 0 1 1.445-.6h18.238zm-.3 14.25c1.445 0 1.445.7 1.445 2.4 0 3.3-.05 3.55-1.395 3.55h-18.237c-1.5 0-1.5-.4-1.5-3.25 0-2.25 0-2.7 1.545-2.7h18.138zm22.068 2.75c1.345 0 2.093-.3 4.584-2.05 4.335-3 11.461-6.8 16.194-6.8a8.1 8.1 0 0 1 8.073 8.35c0 4.45-2.99 13.25-15.3 15-1.843.25-2.043.25-2.043.65 0 .65.748.65 1.2.65 10.713 0 20.031-5.4 19.982-14.5a12.446 12.446 0 0 0-12.707-12.35c-4.734 0-11.56 2.8-13.952 3.75-6.129 2.5-6.777 2.8-8.022 2.8-.449 0-2.542-.6-3.04-.6a.7.7 0 0 0-.747.8c-.001 1.45 2.789 4.3 5.784 4.3zm72.176-4.45c.149-.25.448-.4 1.993-1.15 1.146-.55 2.84-1.55 2.84-3.05 0-1.25-2.342-1.6-2.691-1.6-.5 0-.5.05-1 .75a2.071 2.071 0 0 1-1.3.8c-.4 0-.5-.4-.5-1.25a15.713 15.713 0 0 1 .15-2.6c.049-.35.8-1.85.8-2.25 0-1-2.94-2.35-4.335-2.35a1.314 1.314 0 0 0-1.3.55 6.053 6.053 0 0 0 .7 1 23.305 23.305 0 0 1 .847 5.95c0 1.7-.2 1.9-.449 2.1-1.345.9-5.082.9-5.83.9a22.189 22.189 0 0 1-3.139-.3c-.349-.05-.847-.3-1.146-.3a.174.174 0 0 0-.149.2c0 1.05 2.192 3.45 7.075 3.45.4 0 2.591-.15 3.09-.15.8 0 .9.3.9 2 0 9.55-.349 14.4-4.684 20.05-.4.54-2.841 3.2-2.841 3.35s.15.14.25.14c.647 0 4.833-2.15 7.474-6.29 2.691-4.15 3.089-8.25 3.089-18.6a4.463 4.463 0 0 1 .157-1.35zm-26.36-11.45a.338.338 0 0 0-.4.4 4.23 4.23 0 0 0 .3 1 10.816 10.816 0 0 1 .5 3.4 32.067 32.067 0 0 1-.6 5.4c-1.146 7.25-1.246 9.35-1.246 11.3a25.782 25.782 0 0 0 1.346 8.4c.847 2.75 2.142 5.6 4.036 5.6a1.6 1.6 0 0 0 1.694-1.55 6.036 6.036 0 0 0-.6-2.01 4.35 4.35 0 0 1-.6-2.24 42.368 42.368 0 0 1 .947-6.55c.2-.9 1.2-5.25 1.2-5.65a.3.3 0 0 0-.2-.35c-.847 0-3.388 8.95-4.434 8.95-.6 0-1.146-2.85-1.146-5.1a33.956 33.956 0 0 1 1.644-9.4c.249-.75 1.794-4.4 1.794-5.25.002-3-2.888-6.35-4.234-6.35zm55.453-.15a34.424 34.424 0 0 1-.3 4.4c-.1.5-.6.75-1.644.75a8.771 8.771 0 0 1-4.833-1.35c-.15-.1-1.346-.8-1.4-.8a.335.335 0 0 0-.2.35c0 1.95 3.139 4.5 6.677 4.75.8.05 1.047.05 1.047.3 0 .05-.4 6.6-.449 6.75-.349.95-3.687.95-4.883.95a19.322 19.322 0 0 1-6.029-.9 12.288 12.288 0 0 0-1.894-.7c-.149 0-.149.1-.149.2a5.616 5.616 0 0 0 1.445 2.3c2.242 2.1 5.73 2.05 6.876 2.05.648 0 3.638-.25 4.335-.25.5 0 .5.3.5.75.05 1.35.1 4.7.1 5.7 0 1.7 0 1.85-.548 1.85-.349 0-2.192-.15-2.641-.15-5.93 0-8.969 2.3-8.969 5.3 0 2.05 1.694 5.4 6.378 5.4a9.67 9.67 0 0 0 8.471-5.05c.249-.55.349-.8.648-.8.548 0 2.491 1.45 3.488 2.7 1.794 2.15 1.993 2.4 2.69 2.4a1.934 1.934 0 0 0 1.695-2.1c0-2.35-3.189-5-7.076-6.6-1.046-.4-1.046-.6-1.246-2.25-.05-.5-.6-6.25-.6-7.2 0-.5.15-.55 1.694-1.1 2.293-.75 7.824-3.05 7.824-4.8 0-1.1-1.3-1.2-3.339-1.35-.249 0-1.3-.25-1.545-.25-.1 0-.249 0-.249.15s.2.75.2.9c0 1.6-3.587 2.6-4.135 2.6-.648 0-.648-.3-.648-1.45 0-2.05.2-4.7.249-4.85.05-.75.15-.8.548-.9 1.395-.45 4.784-1.45 4.784-3.3 0-.8-.947-.95-1.445-.95a5.939 5.939 0 0 0-1.794.4 5.805 5.805 0 0 1-1.4.45.236.236 0 0 1-.2-.3 11.712 11.712 0 0 1 .748-3.25 14.42 14.42 0 0 0 1.246-2.65c0-1.05-2.691-2.3-4.037-2.3-.3 0-1.245 0-1.245.35 0 .1.3.6.348.75a9.507 9.507 0 0 1 .908 3.1zm-1.2 30.19a2.9 2.9 0 0 1-1.146 2.45 8.151 8.151 0 0 1-4.933 1.86c-1.395 0-3.986-.61-3.986-2.51 0-2.84 5.232-2.84 5.332-2.84.902 0 4.39.2 4.738 1.04zm30.19-32.54a.621.621 0 0 0-.7.5c0 .05.5 1.2.549 1.35a6.315 6.315 0 0 1 .448 2.45c0 1.4-.448 5.5-.648 7.15-1.046 9.8-1.146 10.8-1.146 13.9 0 10.04 3.09 13.79 9.567 13.79 9.368 0 16.743-8.04 16.743-8.59a.233.233 0 0 0-.249-.25c-.2 0-3.987 2.1-4.734 2.45a24.474 24.474 0 0 1-10.464 2.6c-6.677 0-7.624-4.5-7.624-9.55a120.517 120.517 0 0 1 2.093-17.8 22.991 22.991 0 0 0 .947-2.8c.007-1.15-2.186-5.2-4.777-5.2zm35.437 35.25c0 .55.15 2.2 1.346 2.2.946 0 2.74 0 6.178-10.4 1.047-3.25 1.1-3.3 3.638-14.2.2-.9.4-.95 2.093-1.4 3.288-.9 7.524-2.35 7.524-5.15a1.427 1.427 0 0 0-1.644-1.55c-.25 0-1.346.1-1.545.1-.5 0-4.485-.85-4.485-1.8 0-.25.548-1.25.548-1.5 0-.6-1.744-2.65-3.986-2.65-1.3 0-2.242.65-2.242 1.15a8.207 8.207 0 0 0 1.395 1.85 6.915 6.915 0 0 1 .6 3.1c0 .35-.15 3.75-.548 4.1s-2.791.45-3.538.45a18.254 18.254 0 0 1-4.435-.55 10.864 10.864 0 0 0-1.146-.45.209.209 0 0 0-.2.2c0 .5 1 1.9 2.591 2.7a9.546 9.546 0 0 0 4.435.9c1.594 0 1.793 0 1.793.5a67.494 67.494 0 0 1-6.577 18.4c-1.541 2.9-1.785 3.4-1.785 4zm12.109-27.5c.249-1.2.249-1.35.448-2.35.1-.5.249-.6.548-.6.548 0 3.239 1.1 3.239 1.6 0 .65-3.787 2-4.036 2-.298 0-.244-.3-.198-.65zm5.68 7.1a.74.74 0 0 0 .449.1c.2 0 1.345-.15 1.644-.2a29.3 29.3 0 0 1 3.588-.2c.747 0 4.285.05 4.285.8 0 .55-2.591 2.45-2.591 2.8 0 .15.149.15.249.15a8.7 8.7 0 0 0 2.093-.65 8.342 8.342 0 0 1 3.687-.8c.4 0 2.342.15 2.791.15a1.2 1.2 0 0 0 1.445-1.2c0-2.2-3.588-3.6-8.322-3.6-5.327 0-9.662 2-9.313 2.65zm-2.242 13.35c-.4 0-.7 1.05-.7 2.2 0 6.3 6.727 8.35 14.8 8.35 4.236 0 6.08-.25 6.08-1.7 0-1.66-2.293-2.5-3.987-2.5-.8 0-4.584.35-5.431.35-3.787 0-9.169-.96-10.215-5.3a3.925 3.925 0 0 0-.542-1.4zm40.33 11.45a2.716 2.716 0 0 0 2.69-2.7 2.691 2.691 0 1 0-5.381 0 2.723 2.723 0 0 0 2.696 2.7zm0-38.3a2.653 2.653 0 0 0-2.591 2.65c0 .9.747 5.6.847 6.6a163.748 163.748 0 0 1 .847 19.2c0 1.25.049 1.95.9 1.95s.9-.75.9-2.05a173.942 173.942 0 0 1 .8-19.05c.149-1.35.9-5.5.9-6.65a2.687 2.687 0 0 0-2.598-2.65z" transform="translate(-283.25 -3656)"/><path id="長方形_10" data-name="長方形 10" fill="#fff" stroke="#c69c6d" stroke-linejoin="round" stroke-opacity=".73" stroke-width="2" d="M121.75 1h236v62h-236z"/><path id="そんな私が_ついに_" data-name="そんな私が、ついに…" d="M428.32 3677.87a12.884 12.884 0 0 0-3.2.68 3.033 3.033 0 0 1-.841.12c-.168 0-1.106-.17-1.178-.17a.166.166 0 0 0-.168.19c0 .07.385 2.12 1.682 2.12a2.1 2.1 0 0 0 1.8-.96 2.8 2.8 0 0 1 1.538-.87.408.408 0 0 1 .408.41c0 .56-1.466 2.07-2.211 2.82-.889.89-5.094 5.89-5.311 6.05-.7.63-.913.85-.913 1.31a1.465 1.465 0 0 0 1.25 1.4c.745 0 1.081-.25 2.379-1.19a7.944 7.944 0 0 1 1.8-.96.086.086 0 0 1 .1.07 8.832 8.832 0 0 1-.576.75 5.921 5.921 0 0 0-1.058 3.35c0 4.08 4.951 4.36 5.119 4.36.841 0 1.586-.26 1.586-.77a1.6 1.6 0 0 0-1.442-1.23c-2.788-.65-4.3-1.01-4.3-3.28 0-3.44 4.589-4.38 6.512-4.38.12 0 .745.04.889.04.336 0 1.249-.16 1.249-.77 0-.87-1.706-1.18-2.234-1.18-.986 0-2.283.48-4.855 1.47a31.078 31.078 0 0 1-4.277 1.45.18.18 0 0 1-.216-.15 18.517 18.517 0 0 1 2.235-2.6 65.662 65.662 0 0 1 5.551-4.82c.769-.51.913-.77.913-1.14a2.183 2.183 0 0 0-2.231-2.12zm17.273.27a.144.144 0 0 0-.168.14c0 .1.168.97.168 1.11a2.514 2.514 0 0 1-.216.97c-.192.43-1.2 2.36-1.322 2.58a48.455 48.455 0 0 0-3.58 6.12c-.169.36-.937 2.27-1.13 2.7a4.61 4.61 0 0 0-.673 2.24c0 1.57.841 1.81 1.13 1.81a.9.9 0 0 0 .793-.79c.072-.25.168-1.52.216-1.81.865-6.18 4.9-6.63 5.311-6.63 1.778 0 2.259 1.9 2.259 3.25 0 .51-.385 3.04-.385 3.59a2.3 2.3 0 0 0 2.139 2.54 6.605 6.605 0 0 0 4.542-2.37 5.42 5.42 0 0 0 1.129-2.24c0-.07-.024-.12-.072-.12a4.147 4.147 0 0 0-.48.58c-1.154 1.2-2.4 2.19-3.725 2.19a1.6 1.6 0 0 1-1.754-1.76c0-.34.144-1.93.144-2.29 0-.96-.168-4.17-3.124-4.17a5.307 5.307 0 0 0-3.076 1.06c-.216.15-.673.41-.937.6-.072 0-.1-.02-.1-.09a5.991 5.991 0 0 1 .48-1.01 18.59 18.59 0 0 1 3.172-4.03c1.178-1.3 1.322-1.45 1.322-1.83.004-.73-1.246-2.34-2.063-2.34zm20.277 2.12a3.075 3.075 0 0 1-1.057.14 3.55 3.55 0 0 1-1.85-.5 1.5 1.5 0 0 0-.649-.32c-.144 0-.168.2-.168.29 0 .03 0 1.72 2.835 1.96.361.02.529.04.529.26a21.638 21.638 0 0 1-3.316 7.86c-.721 1.04-.793 1.16-.793 1.5a.641.641 0 0 0 .745.67c2.21 0 4.277-8.15 4.565-9.35.217-.85.241-.92.457-.99 1.946-.58 3.292-1.01 3.292-1.93 0-.68-.913-.94-1.37-1.06a1.9 1.9 0 0 1-1.081-.46 1.954 1.954 0 0 0-1.73-1.06.919.919 0 0 0-.985.51 5.124 5.124 0 0 0 .456.67 1.984 1.984 0 0 1 .337 1.06 1.151 1.151 0 0 1-.217.75zm1.514-.22a.229.229 0 0 1-.048-.14c0-.07.168-1.06.577-1.06a2.055 2.055 0 0 1 .985.6c.002.36-1.442.67-1.514.6zm5.767 14.18c.337-.14 1.442.6 2.091 1.18a1.03 1.03 0 0 0 .745.39.722.722 0 0 0 .649-.85c0-.89-1.394-1.66-1.9-1.93-.217-.12-1.346-.5-1.562-.67-.721-.51-.962-4.24-.962-4.85a2.723 2.723 0 0 1 .577-2 2.9 2.9 0 0 1 1.754-.72 3.608 3.608 0 0 1 1.3.39 1.766 1.766 0 0 0 .553.09 1.143 1.143 0 0 0 1.129-1.25 2.577 2.577 0 0 0-1.754-2.46 7.118 7.118 0 0 0-1.418-.41.145.145 0 0 0-.168.12.719.719 0 0 0 .312.38 2.14 2.14 0 0 1 .673 1.23c0 .63-.168.7-1.658 1.57-2.019 1.16-2.163 2.44-2.163 5.09 0 .33.1 1.95.1 2.31 0 .24-.12.27-.336.27-.168 0-1.057-.05-1.25-.05-2.162 0-3.869.82-3.869 2.39 0 1.2 1.346 2.79 3.629 2.79a3.145 3.145 0 0 0 3.388-2.63.472.472 0 0 1 .14-.38zm-1.634-.63c.145.39-.192 2.22-2.523 2.22-1.442 0-2.163-.72-2.163-1.3 0-1.28 2.163-1.28 2.716-1.28s1.853 0 1.97.36zm21.193-9.64c.793 0 1.274 0 1.274-.32 0-.43-1.947-1.73-2.043-1.73a1.608 1.608 0 0 0-.673.67 1.257 1.257 0 0 1-1.249.75 1.609 1.609 0 0 1-.841-.1c-.265-.16-.265-.28-.265-1.54 0-1.13 0-2.19.337-2.43a11.053 11.053 0 0 1 2.451-.73c.12 0 .625.05.673.05a.286.286 0 0 0 .336-.22 8.6 8.6 0 0 0-2.115-1.8 14.224 14.224 0 0 0-1.321.89 21.06 21.06 0 0 1-5.888 2.07.47.47 0 0 0-.264.17 1.4 1.4 0 0 0 .769.12c.456 0 2.715-.22 2.835-.22.625 0 .745.39.745 1.14a17.653 17.653 0 0 1-.1 2.31c-.1.22-.216.29-.673.29h-.528c-.889 0-2-.05-2.884-.07-.168-.03-.937-.1-1.081-.1-.024 0-.1 0-.1.05a.327.327 0 0 0 .12.17l.456.56a.292.292 0 0 0 .217.16c.072 0 .889-.09 1.009-.09a83.41 83.41 0 0 1 2.355-.05.471.471 0 0 1 .529.5 26.509 26.509 0 0 1-3.2 6.44c-.169.24-1.514 1.98-1.514 2.08a.1.1 0 0 0 .1.12c.6 0 3.652-3.62 4.3-4.58.433-.63.481-.7.649-.7.264 0 .264.26.264.43 0 .12-.048 3.09-.072 4.82 0 .7-.12 3.81-.12 4.44 0 .39.048.67.433.67a1.369 1.369 0 0 0 1.49-1.54c0-1.06-.265-8.7-.265-9.43a.281.281 0 0 1 .265-.33 4.394 4.394 0 0 1 2.09 2.38c.457 1.16.5 1.28.865 1.28a1.287 1.287 0 0 0 .937-1.37c0-1.88-2.835-2.58-3.7-2.8-.241-.05-.457-.17-.457-.79 0-1.43.048-1.62.841-1.62h3zm-.5 13.5a.293.293 0 0 0 .241-.19 1.5 1.5 0 0 1 .793-.7c.384-.17 7.5-2.12 7.714-2.12.624 0 .769.77.841 1.47.12 1.13.168 1.76.889 1.76a1.424 1.424 0 0 0 1.225-1.64c0-1.71-1.9-3.88-3.436-5.33a11.7 11.7 0 0 0-1.538-1.26.087.087 0 0 0-.072.1 1.423 1.423 0 0 0 .336.51 11.749 11.749 0 0 1 1.779 3.37.519.519 0 0 1-.5.49c-.625.12-4.157.58-4.494.58a.433.433 0 0 1-.456-.41c0-.1 1.081-4.25 1.177-4.71.385-1.59 2.451-10.27 2.716-10.73a5.231 5.231 0 0 0 .6-.72c0-.24-.072-.26-.672-.5-.217-.08-1.8-.66-1.9-.66-.216 0-.216.15-.216.63 0 .99-.264 3.69-.361 4.46-.384 3.62-1.225 8.32-2.018 12.06a.881.881 0 0 1-.289.55c-.192.19-.817.34-2.739.34-.12 0-.673-.07-.793-.07a.118.118 0 0 0-.144.12c-.009.29.976 2.6 1.312 2.6zm17.555-10.75c.48 0 2.715-.97 3.244-.97a.17.17 0 0 1 .168.2 6.677 6.677 0 0 1-.336 1.13c-1.3 3.61-2.307 4.72-2.956 5.45-1.442 1.59-1.61 1.78-1.61 2.29a.708.708 0 0 0 .769.77c1.946 0 4.277-5.93 5.239-9.21a3.36 3.36 0 0 1 .36-1.04 5.325 5.325 0 0 1 2.307-.57c.7 0 1.658.11 1.658 1.8a19.329 19.329 0 0 1-.745 4.2c-.7 2.6-1.586 2.94-2.283 2.94a6.015 6.015 0 0 1-1.225-.17 5.047 5.047 0 0 0-.6-.17.114.114 0 0 0-.12.12c0 .07.264.63.312.8.288.82.529 1.66 1.418 1.66a3.706 3.706 0 0 0 2.451-1.47c1.394-1.69 2.067-5.83 2.067-7.74 0-2.22-1.394-3.09-3.2-3.09-.193 0-1.3.13-1.418.13a.222.222 0 0 1-.264-.22c0-.46.913-3.55.913-3.57 0-.63-.938-1.54-2.548-1.54-.1 0-.384.02-.384.19a1.483 1.483 0 0 0 .408.55 3.07 3.07 0 0 1 .6 2.05c0 .12-.024 2.56-.432 2.85-.048.02-3.341.72-4.037.72-.265 0-1.514-.34-1.586-.34a.215.215 0 0 0-.217.2c-.001.53 1.105 2.05 2.042 2.05zm16 1.08c-.024-1.23-1.129-4.27-4.205-4.27a.134.134 0 0 0-.168.15 1.375 1.375 0 0 0 .576.36 3.1 3.1 0 0 1 1.947 2.77c0 .65-.1.73-.985 1.4a4.094 4.094 0 0 0-.938.68 2.7 2.7 0 0 0 .769.17 12.98 12.98 0 0 0 1.634.72c1.005 0 1.369-1.69 1.369-1.98zm-1.8-10.15a1.05 1.05 0 0 0-.865.34.342.342 0 0 0 .312.24 6.638 6.638 0 0 1 2.139 1.28 1.713 1.713 0 0 0 1.274.87.661.661 0 0 0 .6-.7c-.003-.46-.483-2.03-3.463-2.03zm-2.091 1.95a.443.443 0 0 0-.408.22.828.828 0 0 0 .36.36 6.561 6.561 0 0 1 1.706 1.43c.745.89.938 1.03 1.274 1.03a.9.9 0 0 0 .7-.94c-.006-.29-.559-2.1-3.635-2.1zm11.883 17.15c0-2.24-4.085-3.5-4.926-3.5a.22.22 0 0 0-.264.17 1.063 1.063 0 0 0 .336.29 6.811 6.811 0 0 1 2.523 2.58c.793 1.45.89 1.62 1.394 1.62a1.159 1.159 0 0 0 .934-1.16zm9.8-10.03c.649 0 1.009-.15 2.211-.99 2.09-1.45 5.527-3.28 7.809-3.28a3.906 3.906 0 0 1 3.893 4.03c0 2.14-1.441 6.39-7.377 7.23-.889.12-.985.12-.985.31 0 .32.36.32.576.32 5.167 0 9.661-2.61 9.637-7a6 6 0 0 0-6.128-5.95c-2.283 0-5.575 1.35-6.729 1.81-2.955 1.2-3.268 1.35-3.868 1.35-.217 0-1.226-.29-1.466-.29a.335.335 0 0 0-.361.38c-.005.7 1.341 2.08 2.783 2.08zm21.748-6.06a.137.137 0 0 0-.145.1 3.2 3.2 0 0 0 .192.82 6.731 6.731 0 0 1 .169 1.4c0 .63-.337 3.59-.337 4.27 0 4.6 3.028 7.13 4.566 7.13a.848.848 0 0 0 .913-.74 6.31 6.31 0 0 0-.192-.8 3.228 3.228 0 0 1-.144-.96 6.818 6.818 0 0 1 .312-1.84 2.787 2.787 0 0 0 .072-.48.166.166 0 0 0-.12-.19 2.1 2.1 0 0 0-.745.82c-.721 1.21-.817 1.32-1.225 1.32-.745 0-2-1.75-2-4.19a8.517 8.517 0 0 1 .577-3.11 3.271 3.271 0 0 0 .288-.97c0-.65-1.081-2.58-2.186-2.58zm11.462 2.22a.187.187 0 0 0-.216.12 8.129 8.129 0 0 0 1.153 1.09c1.274 1.28 1.274 2.29 1.274 4.29 0 .31 0 1.62 1.177 1.62a1.323 1.323 0 0 0 1.2-1.59 6.012 6.012 0 0 0-2.139-4.61 4.727 4.727 0 0 0-2.454-.92zm11.7 6.68c0-2.17 1.586-5.71 1.85-6.22a1.9 1.9 0 0 0 .457-1.11c0-.87-1.01-3.06-2.115-3.06a.173.173 0 0 0-.192.12 3.016 3.016 0 0 0 .144.43 5.952 5.952 0 0 1 .24 1.72 8.284 8.284 0 0 1-.408 2.51c-.817 3.01-1.01 3.71-1.01 5.25 0 2.31 1.106 6.41 2.6 6.41a.8.8 0 0 0 .793-.82 2.616 2.616 0 0 0-.289-1.06 4.276 4.276 0 0 1-.384-1.25c0-.58.553-3.4.553-3.67 0-.04 0-.28-.121-.28a.782.782 0 0 0-.336.6c-.529 1.49-.745 1.88-1.153 1.88-.396 0-.638-.73-.638-1.45zm12.448-8.92a2.089 2.089 0 0 0-1.034.27 9.715 9.715 0 0 1-2.643.36 8.261 8.261 0 0 1-1.634-.15c-.313-.07-.6-.17-.673-.17-.144 0-.168.08-.168.12 0 .32 1.49 1.79 4.2 1.79.288 0 2.956 0 2.956-1.18a1.2 1.2 0 0 0-1.013-1.04zm1.033 11.96c-.1 0-1.778.17-2.115.19a18.056 18.056 0 0 1-2.09.08 5.923 5.923 0 0 1-2.572-.41 3.469 3.469 0 0 0-.576-.34c-.121 0-.121.19-.121.24a2.385 2.385 0 0 0 .745 1.2c.5.49 1.394 1.09 3.749 1.09 3.364 0 4.085-.29 4.085-1.23a.907.907 0 0 0-1.114-.82zm5.825-3.74a1.515 1.515 0 1 0-1.514-1.52 1.526 1.526 0 0 0 1.505 1.52zm8 0a1.526 1.526 0 0 0 1.514-1.52 1.505 1.505 0 0 0-1.514-1.51 1.515 1.515 0 0 0-.007 3.03zm8 0a1.515 1.515 0 1 0-1.49-1.52 1.511 1.511 0 0 0 1.485 1.52z" transform="translate(-283.25 -3656)" fill="#a67c52" fill-rule="evenodd"/></g><path id="大人の肌のために生まれた" class="cls-1" d="M483.676 3770.7c.561 0 .946 0 .946.77a25.527 25.527 0 0 1-.561 3.54 22.955 22.955 0 0 1-12.181 14.91 3.223 3.223 0 0 0-1.12.7.187.187 0 0 0 .21.14 15.141 15.141 0 0 0 5.216-1.89c9.031-5.04 10.326-12.32 11.026-16.24.14-.74.14-.84.245-.84a1.747 1.747 0 0 1 .245.7 35.292 35.292 0 0 0 5.46 11.87c1.856 2.65 4.971 5.46 5.6 5.46a5.538 5.538 0 0 0 1.155-.63 8.579 8.579 0 0 1 3.15-.67c.526-.03.7-.07.7-.32 0-.13 0-.13-.946-.52-9.906-3.89-14.456-14.28-14.456-16.42 0-.56.245-.56 1.015-.56h11.166c1.155 0 1.855 0 1.855-.49 0-.35-2.8-2.59-3.57-2.59-.42 0-.56.14-1.68 1.58-.455.59-.63.59-2.24.59h-6.056c-.56 0-1.19 0-1.19-.8 0-.84.245-4.9.28-5.81.07-1.65.07-1.82.735-2.38a1.118 1.118 0 0 0 .56-.81.773.773 0 0 0-.77-.63 29.092 29.092 0 0 0-3.64-.8c-.21 0-.21.1-.21.28s.1.98.14 1.19c.21 2.13.21 3.99.21 4.83 0 4.93-.1 4.93-1.191 4.93h-6.055c-1.645 0-3.08-.07-4.8-.14-.21 0-1.3-.1-1.54-.1-.07 0-.14 0-.14.07a.465.465 0 0 0 .175.24l.665.81a.374.374 0 0 0 .315.21c.105 0 .6-.07.735-.07.35-.04 1.331-.11 4.411-.11h6.125zm40.916-8.92a.74.74 0 0 1 .56-.21.587.587 0 0 0 .595-.56c0-.63-.7-.84-2.38-1.3-.315-.07-1.82-.56-2.03-.56a.3.3 0 0 0-.281.28 4.689 4.689 0 0 0 .14.7 9.581 9.581 0 0 1 .141 2.14c0 .38 0 10.39-3.991 17.99a26.076 26.076 0 0 1-8.3 9 .864.864 0 0 0-.455.41.174.174 0 0 0 .21.18 19.345 19.345 0 0 0 10.186-8.33c3.466-5.71 4.376-13.86 4.481-14.98.14-1.26.14-1.4.35-1.4.14 0 .14.03.175.42a37.766 37.766 0 0 0 3.36 13.54c3.395 7.43 7.841 10.19 7.981 10.19a2.867 2.867 0 0 0 .875-.6 7.108 7.108 0 0 1 2.415-1.04c1.12-.25 1.225-.25 1.225-.42a.418.418 0 0 0-.35-.25c-5.39-1.4-9.346-7.81-9.941-8.75a38.065 38.065 0 0 1-5.075-16.03.663.663 0 0 1 .109-.42zm33.194 2.27c9.556 0 9.7 8.33 9.7 9.7 0 8.71-7.6 11.72-11.236 13.16-.875.35-.945.38-.945.49a.292.292 0 0 0 .35.25 21.613 21.613 0 0 0 5.81-1.3 13.052 13.052 0 0 0 8.821-12.32 10.978 10.978 0 0 0-6.09-10.19 11.41 11.41 0 0 0-5.636-1.12 14.483 14.483 0 0 0-11.166 4.55 12.336 12.336 0 0 0-3.886 8.93c0 4.27 2.066 7.87 4.376 7.87 1.4 0 3.185-.84 5.985-5.11 3.081-4.65 3.606-7.91 3.606-10.25a26.828 26.828 0 0 0-.35-3.78c0-.14-.07-.28-.07-.39-.004-.21.031-.49.731-.49zm-1.96.11c.455 0 .6.17.6 2.27a20.029 20.029 0 0 1-3.431 10.19c-2.415 3.64-3.255 4.06-4.27 4.06-2.135 0-3.045-3.11-3.045-5.39-.005-6.62 6.82-11.13 10.146-11.13zm28.423 13.3a.9.9 0 0 1 1.05 1.01c0 1.02-.14 7.32-.245 7.95a.951.951 0 0 1-1.05.87c-.456 0-2.591-.45-2.836-.45-.035 0-.175 0-.175.11a4.04 4.04 0 0 0 1.225.7 4.1 4.1 0 0 1 1.54 1.54c.806 1.22.876 1.36 1.121 1.36.6 0 1.47-.95 1.89-1.5.875-1.16.84-3.05.84-3.93 0-1.67-.035-9.1-.035-10.6.035-1.61.175-8.79.175-10.22 0-1.02 0-1.37.28-1.61.735-.53.735-.53.735-.81 0-.45-2.135-2.31-2.38-2.31a4.154 4.154 0 0 0-.77.77 1.981 1.981 0 0 1-1.155.28h-3.116a2.887 2.887 0 0 1-1.68-.38 4.627 4.627 0 0 0-1.89-.84c-.245 0-.315.07-.315.24 0 .35.35 1.86.385 2.14.28 1.96.28 6.86.28 7.87 0 11.06-.42 14-1.925 17.68-.175.45-1.225 2.73-1.225 2.77a.08.08 0 0 0 .07.07c.42 0 4.165-3.5 4.9-10.75.175-1.54.21-1.96 1.5-1.96h2.8zm.035-15.89c1.05 0 1.05.63 1.05 1.22 0 .67.07 4.03.07 4.8a.9.9 0 0 1-1.05 1.01h-2.906c-1.05 0-1.05-.38-1.05-2.34 0-.53.035-3.12.035-3.71a.89.89 0 0 1 1.05-.98h2.8zm.07 7.94a.885.885 0 0 1 1.085.95c0 .73-.07 4.3-.07 5.11a.879.879 0 0 1-1.05.98h-2.976c-1.085 0-1.085-.42-1.085-2 0-.59.07-3.43.07-4.06a.9.9 0 0 1 1.085-.98h2.941zm10.921-8.75a2.724 2.724 0 0 1-1.4-.31 12.931 12.931 0 0 0-2.486-1.37.282.282 0 0 0-.315.32c0 .14.245.84.28 1.01.525 2.24.525 8.61.525 9.73 0 8.33-.245 13.38-3.36 18.03a14.247 14.247 0 0 0-1.12 1.79c.315 0 3.325-2.35 4.9-5.95 1.716-4 1.961-8.83 1.961-21.25a.922.922 0 0 1 1.05-1.05h2.7c1.085 0 1.12.17 1.12 4.34 0 2.83-.35 17.57-.35 18.38 0 3.04 0 3.39.49 4.2.665 1.04 2.205 1.22 3.29 1.22 1.856 0 5.076-.56 5.076-2.2a.847.847 0 0 0-.49-.74c-.455-.38-.665-2.77-.875-5.04a5.992 5.992 0 0 0-.28-1.82 21.51 21.51 0 0 0-.6 3.57c-.35 3.05-.455 3.74-2.346 3.74-1.68 0-1.82-.8-1.82-2.41 0-1.68.315-19.43.35-20.62a1.37 1.37 0 0 1 .7-1.47c.525-.28.63-.42.63-.63a8.776 8.776 0 0 0-2.45-2.24 4.153 4.153 0 0 0-.805.56 1.78 1.78 0 0 1-.98.21h-3.395zm31.933 3.29c9.556 0 9.7 8.33 9.7 9.7 0 8.71-7.6 11.72-11.236 13.16-.875.35-.945.38-.945.49a.292.292 0 0 0 .35.25 21.625 21.625 0 0 0 5.811-1.3 13.054 13.054 0 0 0 8.821-12.32 10.979 10.979 0 0 0-6.091-10.19 11.4 11.4 0 0 0-5.636-1.12 14.484 14.484 0 0 0-11.166 4.55 12.338 12.338 0 0 0-3.885 8.93c0 4.27 2.065 7.87 4.375 7.87 1.4 0 3.186-.84 5.986-5.11 3.08-4.65 3.605-7.91 3.605-10.25a26.828 26.828 0 0 0-.35-3.78c0-.14-.07-.28-.07-.39-.004-.21.031-.49.731-.49zm-1.96.11c.455 0 .595.17.595 2.27a20.037 20.037 0 0 1-3.43 10.19c-2.415 3.64-3.255 4.06-4.271 4.06-2.135 0-3.045-3.11-3.045-5.39.003-6.62 6.826-11.13 10.151-11.13zm21.944 21.28c0 .39.105 1.54.945 1.54.665 0 1.925 0 4.341-7.28.735-2.28.77-2.31 2.555-9.94.14-.63.28-.67 1.47-.98 2.31-.63 5.286-1.65 5.286-3.61a1 1 0 0 0-1.156-1.08c-.175 0-.945.07-1.085.07-.35 0-3.15-.6-3.15-1.26 0-.18.385-.88.385-1.05a3.16 3.16 0 0 0-2.8-1.86 1.485 1.485 0 0 0-1.575.81 5.715 5.715 0 0 0 .98 1.29 4.826 4.826 0 0 1 .42 2.17 10.075 10.075 0 0 1-.385 2.87 7.523 7.523 0 0 1-2.486.32 12.574 12.574 0 0 1-3.115-.39c-.14-.03-.665-.31-.8-.31a.143.143 0 0 0-.14.14 3.369 3.369 0 0 0 1.82 1.89 6.791 6.791 0 0 0 3.115.63c1.121 0 1.261 0 1.261.35a47.275 47.275 0 0 1-4.621 12.88c-1.09 2.03-1.265 2.38-1.265 2.8zm8.506-19.25c.175-.84.175-.95.315-1.65.07-.35.175-.42.385-.42.385 0 2.275.77 2.275 1.12 0 .46-2.66 1.4-2.835 1.4-.21 0-.175-.21-.138-.45zm3.99 4.97a.52.52 0 0 0 .315.07c.14 0 .945-.11 1.155-.14a19.723 19.723 0 0 1 2.521-.14c.525 0 3.01.03 3.01.56 0 .38-1.82 1.71-1.82 1.96 0 .1.105.1.175.1a6.255 6.255 0 0 0 1.47-.45 5.878 5.878 0 0 1 2.59-.56c.28 0 1.645.1 1.96.1a.842.842 0 0 0 1.016-.84c0-1.54-2.521-2.52-5.846-2.52-3.745 0-6.791 1.4-6.546 1.86zm-1.575 9.34c-.28 0-.49.74-.49 1.55 0 4.4 4.726 5.84 10.4 5.84 2.975 0 4.271-.17 4.271-1.19 0-1.16-1.611-1.75-2.8-1.75-.56 0-3.22.24-3.815.24-2.66 0-6.441-.66-7.176-3.71a2.773 2.773 0 0 0-.39-.98zm46.807-4.09c0-4.62-3.465-8.12-8.366-8.96a.625.625 0 0 1-.665-.67 33.044 33.044 0 0 1 1.225-3.6c0-.84-1.89-2.14-3.465-2.14-.07 0-.35 0-.35.11a.633.633 0 0 0 .07.17 6.9 6.9 0 0 1 .735 2.91 7.932 7.932 0 0 1-.49 2.59.906.906 0 0 1-.875.45 17.24 17.24 0 0 0-5.461 1.26 9.808 9.808 0 0 1-1.68.74.726.726 0 0 1-.63-.39 14.827 14.827 0 0 1-.91-3.46 3.691 3.691 0 0 0-2.835-1.89.08.08 0 0 0-.07.1c0 .11.63 1.37.735 1.65.175.49 1.575 4.69 1.575 5a1.118 1.118 0 0 1-.385.91 11.564 11.564 0 0 0-3.676 7.91c0 1.4.386 4.97 2.661 4.97.98 0 3.29-.87 6.125-3.85.63-.66.7-.73 1.05-.73a1.4 1.4 0 0 1 .736.28 3.462 3.462 0 0 0 1.96.59 1.121 1.121 0 0 0 1.3-1.12c0-.84-.385-1.12-1.575-1.75a.676.676 0 0 1-.525-.66.9.9 0 0 1 .175-.49 29.74 29.74 0 0 0 2.66-5.01c.91-2.13.98-2.34 1.5-2.34 1.575 0 6.791 1.68 6.791 7.14 0 6.33-6.406 9.38-11.026 10.88-.91.28-1.015.35-1.015.46 0 .18.07.18.665.18 6.23 0 14.036-3.75 14.036-11.24zm-12.146-7.18a22.155 22.155 0 0 1-2.59 5.15c-.735 1.19-.875 1.26-1.226 1.26-.945 0-2.94-3.85-2.94-4.45a1.348 1.348 0 0 1 .945-1.08 11.383 11.383 0 0 1 5.321-1.3.408.408 0 0 1 .49.42zm-5.566 8.79c0 .73-3.29 3.6-4.585 3.6-.805 0-1.5-1.26-1.5-3.15 0-3.53 2.38-5.95 2.835-5.95a.945.945 0 0 1 .63.84 14.315 14.315 0 0 0 2.38 4.03.787.787 0 0 1 .24.63zm28.427-.25c0-3.15 2.31-8.29 2.7-9.03.665-1.19.665-1.22.665-1.61 0-1.26-1.47-4.44-3.08-4.44a.252.252 0 0 0-.28.17 4.049 4.049 0 0 0 .21.63 8.615 8.615 0 0 1 .35 2.49 11.9 11.9 0 0 1-.6 3.64c-1.19 4.37-1.47 5.39-1.47 7.63 0 3.36 1.61 9.31 3.78 9.31a1.173 1.173 0 0 0 1.155-1.19 3.753 3.753 0 0 0-.42-1.54 6.346 6.346 0 0 1-.56-1.82c0-.84.8-4.94.8-5.32 0-.07 0-.42-.175-.42a1.145 1.145 0 0 0-.49.87c-.77 2.17-1.085 2.74-1.68 2.74-.555 0-.905-1.06-.905-2.11zm18.132-12.95a3.048 3.048 0 0 0-1.505.39 14.419 14.419 0 0 1-3.851.52 11.6 11.6 0 0 1-2.38-.21c-.455-.1-.875-.24-.98-.24-.21 0-.245.1-.245.17 0 .46 2.17 2.59 6.125 2.59.42 0 4.306 0 4.306-1.71a1.751 1.751 0 0 0-1.47-1.51zm1.5 17.37c-.14 0-2.59.24-3.08.27a27.879 27.879 0 0 1-3.046.11 8.542 8.542 0 0 1-3.745-.6 5.221 5.221 0 0 0-.84-.49c-.175 0-.175.28-.175.35a3.458 3.458 0 0 0 1.085 1.75c.735.71 2.03 1.58 5.46 1.58 4.9 0 5.951-.42 5.951-1.78.005-.43-.277-1.19-1.605-1.19zm14.835-15.79c-.456 0-.876 0-.876-.46a13.573 13.573 0 0 1 1.121-2.66 7.152 7.152 0 0 0 1.26-1.26c0-.59-3.361-1.96-3.431-1.96s-.14.07-.21.74c-.105.7-.77 5.21-4.62 12.32-.315.56-.875 1.61-.875 1.68a.177.177 0 0 0 .175.21c.56 0 2.94-2.87 4.865-6.09.875-1.47.945-1.58 2.03-1.58h5.776a.878.878 0 0 1 1.015.91v6.86a.873.873 0 0 1-1.05 1.09H751.4c-1.645 0-3.081-.04-4.8-.11-.245-.03-1.295-.14-1.54-.14-.105 0-.14.04-.14.11a.654.654 0 0 0 .14.21l.7.8a.43.43 0 0 0 .315.25 5.353 5.353 0 0 0 .735-.11c.315 0 1.33-.07 4.411-.07h4.1a.835.835 0 0 1 1.015.84v8.44c0 1.26-.525 1.26-1.155 1.26H748.5c-1.645 0-3.08-.07-4.795-.14-.245 0-1.33-.11-1.54-.11-.1 0-.14 0-.14.08a.318.318 0 0 0 .14.24l.7.81a.4.4 0 0 0 .28.21c.14 0 .63-.08.77-.08.315-.03 1.33-.1 4.41-.1h23.243c1.05 0 1.855 0 1.855-.45a11.779 11.779 0 0 0-3.185-2.67c-.315 0-.42.18-1.471 1.61-.455.6-.63.6-2.24.6h-6.4a.932.932 0 0 1-1.121-.6c-.035-.17-.07-7.7-.07-8.75 0-.84.105-1.19 1.121-1.19h8.47c1.086 0 1.891 0 1.891-.45a11.751 11.751 0 0 0-3.186-2.66c-.315 0-.42.14-1.5 1.57-.42.6-.595.6-2.24.6h-3.465c-1.086 0-1.156-.42-1.156-1.51 0-1.01 0-6.47.07-6.75a.9.9 0 0 1 1.051-.6h9.591c1.05 0 1.855 0 1.855-.45a11.751 11.751 0 0 0-3.186-2.66c-.315 0-.42.14-1.47 1.57-.455.6-.63.6-2.24.6h-4.515c-1.086 0-1.121-.42-1.121-1.33a20.922 20.922 0 0 1 .315-4.03 5.658 5.658 0 0 0 .841-1.05c0-.87-3.536-1.22-3.781-1.22s-.385.07-.385.24.245.95.28 1.12a31.134 31.134 0 0 1 .21 4.1c0 1.75 0 2.17-1.085 2.17h-5.18zm40.758-3.99a24.15 24.15 0 0 1-.21 3.08c-.07.35-.42.52-1.155.52a6.206 6.206 0 0 1-3.4-.94c-.105-.07-.945-.56-.98-.56a.228.228 0 0 0-.14.24c0 1.37 2.2 3.15 4.691 3.33.56.03.735.03.735.21 0 .03-.28 4.62-.315 4.72-.245.67-2.591.67-3.431.67a13.769 13.769 0 0 1-4.235-.63 8.624 8.624 0 0 0-1.33-.49c-.105 0-.105.07-.105.14a3.932 3.932 0 0 0 1.015 1.61c1.575 1.47 4.025 1.43 4.83 1.43.455 0 2.556-.17 3.046-.17.35 0 .35.21.35.52.035.95.07 3.29.07 3.99 0 1.19 0 1.3-.385 1.3-.245 0-1.54-.11-1.855-.11-4.166 0-6.3 1.61-6.3 3.71 0 1.44 1.19 3.79 4.48 3.79a6.774 6.774 0 0 0 5.951-3.54c.175-.39.245-.56.455-.56a6.3 6.3 0 0 1 2.45 1.89c1.26 1.51 1.4 1.68 1.89 1.68a1.355 1.355 0 0 0 1.191-1.47c0-1.65-2.241-3.5-4.971-4.62-.735-.28-.735-.42-.875-1.58-.035-.35-.42-4.37-.42-5.04 0-.35.105-.38 1.19-.77 1.61-.52 5.5-2.13 5.5-3.36 0-.77-.91-.84-2.346-.94-.175 0-.91-.18-1.085-.18-.07 0-.175 0-.175.11s.14.52.14.63c0 1.12-2.52 1.82-2.9 1.82-.455 0-.455-.21-.455-1.02a33.939 33.939 0 0 1 .175-3.39c.035-.53.1-.56.385-.63.98-.32 3.36-1.02 3.36-2.31a.871.871 0 0 0-1.015-.67 4.344 4.344 0 0 0-1.26.28 4.326 4.326 0 0 1-.98.32.166.166 0 0 1-.14-.21 8.21 8.21 0 0 1 .525-2.28 9.857 9.857 0 0 0 .875-1.85c0-.74-1.89-1.61-2.835-1.61a1 1 0 0 0-.875.24c0 .07.21.42.245.53a6.615 6.615 0 0 1 .629 2.17zm-.84 21.14a2.067 2.067 0 0 1-.8 1.72 5.8 5.8 0 0 1-3.466 1.29c-.98 0-2.8-.42-2.8-1.75 0-2 3.675-2 3.745-2 .63 0 3.081.14 3.326.74zm24.181-22.79c-.246 0-.806.04-.806.35a13.285 13.285 0 0 0 1.051 1.75 11.761 11.761 0 0 1 .91 5.11 1.115 1.115 0 0 1-.245 1.02 22.816 22.816 0 0 1-4.166 1.43 2.828 2.828 0 0 0-1.75 2.73c0 .6.035.84.8 2.8a18.26 18.26 0 0 1 .8 2.63 3.3 3.3 0 0 1-.455 1.15c-.35.63-1.54 2.7-1.54 3.92a1.282 1.282 0 0 0 1.26 1.3c1.05 0 1.61-.91 1.925-1.96.245-.84.28-.94.42-.94.35 0 1.3 3.39 1.365 3.84.351 1.86.491 2.67 1.576 2.67s1.365-.81 1.365-1.96a21.332 21.332 0 0 0-.42-3.26 32.017 32.017 0 0 1-.28-4.52c0-3.53.35-4.97 2.7-7.17 2.31-2.17 5.286-4.66 7.771-4.66a2.056 2.056 0 0 1 2.17 2.42 58.1 58.1 0 0 1-.945 7.31 14.93 14.93 0 0 0-.42 3.29c0 .95 0 5.11 4.13 5.11 3.711 0 5.636-4.06 5.636-4.55a.27.27 0 0 0-.21-.28 1.715 1.715 0 0 0-.735.6 4.67 4.67 0 0 1-3.676 1.75c-2.38 0-2.59-1.89-2.59-3.26a30.194 30.194 0 0 1 .56-5.25 30.824 30.824 0 0 0 .42-4.48c0-2.48-1.05-4.16-3.43-4.16-3.255 0-7.491 3.99-9.311 5.74a2.742 2.742 0 0 1-.875.73.089.089 0 0 1-.105-.1 4.614 4.614 0 0 1 .84-1.26 1.711 1.711 0 0 0 .315-.91.776.776 0 0 0-.525-.7 1.047 1.047 0 0 1-.735-1.23 24.429 24.429 0 0 1 .175-2.52c.035-.31.35-1.85.35-2.13.01-.63-2.16-2.35-3.315-2.35zm.56 10.61a4.84 4.84 0 0 1-.63 1.57c-.176.35-2.066 4.03-2.136 4.2a.625.625 0 0 1-.385.35c-.315 0-1.155-2.62-1.155-3.85 0-1.75 3.641-2.48 3.921-2.48a.37.37 0 0 1 .39.21zm-.63 11.58a5.693 5.693 0 0 1-1.226-2.52c0-.38 1.015-2.69 1.366-2.69.175 0 .175.21.175.31 0 .07-.07 1.05-.07 1.23.005 3.43.005 3.67-.24 3.67zm29.087 2.49c0 .39.105 1.54.946 1.54.665 0 1.925 0 4.34-7.28.735-2.28.77-2.31 2.555-9.94.14-.63.28-.67 1.47-.98 2.311-.63 5.286-1.65 5.286-3.61a1 1 0 0 0-1.155-1.08c-.175 0-.945.07-1.085.07-.35 0-3.151-.6-3.151-1.26 0-.18.385-.88.385-1.05a3.16 3.16 0 0 0-2.8-1.86 1.485 1.485 0 0 0-1.575.81 5.715 5.715 0 0 0 .98 1.29 4.826 4.826 0 0 1 .42 2.17 10.075 10.075 0 0 1-.385 2.87 7.516 7.516 0 0 1-2.485.32 12.574 12.574 0 0 1-3.115-.39c-.14-.03-.666-.31-.806-.31a.143.143 0 0 0-.14.14 3.372 3.372 0 0 0 1.821 1.89 6.791 6.791 0 0 0 3.115.63c1.12 0 1.26 0 1.26.35a47.25 47.25 0 0 1-4.62 12.88c-1.079 2.03-1.256 2.38-1.256 2.8zm8.506-19.25c.175-.84.175-.95.315-1.65.07-.35.175-.42.385-.42.385 0 2.276.77 2.276 1.12 0 .46-2.661 1.4-2.836 1.4-.205 0-.17-.21-.135-.45zm3.991 4.97a.52.52 0 0 0 .315.07c.14 0 .945-.11 1.155-.14a19.7 19.7 0 0 1 2.52-.14c.525 0 3.01.03 3.01.56 0 .38-1.82 1.71-1.82 1.96 0 .1.105.1.175.1a6.255 6.255 0 0 0 1.47-.45 5.884 5.884 0 0 1 2.591-.56c.28 0 1.645.1 1.96.1a.841.841 0 0 0 1.015-.84c0-1.54-2.52-2.52-5.846-2.52-3.74 0-6.785 1.4-6.54 1.86zm-1.575 9.34c-.28 0-.49.74-.49 1.55 0 4.4 4.725 5.84 10.4 5.84 2.975 0 4.27-.17 4.27-1.19 0-1.16-1.61-1.75-2.8-1.75-.56 0-3.221.24-3.816.24-2.66 0-6.44-.66-7.175-3.71a2.773 2.773 0 0 0-.384-.98z" transform="translate(-283.25 -3656)"/></svg>