<svg xmlns="http://www.w3.org/2000/svg" width="823.597" height="64.7"><path data-name="pc/happiness-title.svg,pc/png/happiness-title.png" d="M32.982 36.9a1.193 1.193 0 0 1 .874.4c.552.9.6 1.1 1.288 1.1a2.167 2.167 0 0 0 2.209-2.4c0-.4-.23-2.5-.23-2.9 0-.3-.046-1.7-.046-2.1 0-2.2 0-2.4.414-2.6.874-.3 1.012-.4 1.012-.8 0-1.1-3.266-2.4-3.451-2.4-.414 0-.506.1-1.334 1a1.827 1.827 0 0 1-1.426.6h-.828a1.148 1.148 0 0 1-1.38-1.2 3.017 3.017 0 0 1 .322-1.3 3.107 3.107 0 0 0 .6-.8c0-.8-2.576-1.3-2.944-1.3-.322 0-.46.1-.46.4 0 .5.184 2.5.184 2.9a1.049 1.049 0 0 1-1.2 1.3h-1.609a.962.962 0 0 1-1.15-1.1 2.8 2.8 0 0 1 .23-1.4 3.85 3.85 0 0 0 .506-.8c0-.7-2.622-1.2-2.852-1.2-.322 0-.6.1-.6.4 0 .4.368 2.4.368 2.8a1.186 1.186 0 0 1-1.2 1.3 4.287 4.287 0 0 1-2.438-.4 10.567 10.567 0 0 0-3.221-1.2.2.2 0 0 0-.23.2s.46 1.3.46 1.4a4.388 4.388 0 0 1 .23 1.7c0 1.4-.23 8.2-.23 8.7a1.028 1.028 0 0 0 1.2 1.2 1.762 1.762 0 0 0 1.748-1 1.306 1.306 0 0 1 1.151-.5H32.98zm-6.348-4.6a.975.975 0 0 1 1.15 1.1c0 1.8 0 2.3-1.15 2.3h-1.749c-1.1 0-1.1-.5-1.1-2.1 0-1.1.46-1.3 1.1-1.3h1.752zm.046-4.3a.976.976 0 0 1 1.1 1c0 1.5 0 2.1-1.1 2.1h-1.8c-1.1 0-1.1-.6-1.1-1.9a1 1 0 0 1 1.1-1.2h1.8zm-6.349 0c1.2 0 1.2.6 1.2 1.4 0 1 0 1.7-1.2 1.7h-1.472c-1.2 0-1.2-.7-1.2-1.7 0-.8 0-1.4 1.2-1.4h1.472zm.046 4.3c1.15 0 1.15.8 1.15 1.5 0 1.2 0 1.9-1.15 1.9h-1.564c-1.151 0-1.151-.6-1.151-2.2a1.052 1.052 0 0 1 1.151-1.2h1.564zm12.651 0c1.15 0 1.15.7 1.15 2 0 .6 0 1.4-1.15 1.4h-1.791c-1.15 0-1.15-.7-1.15-2 0-.6 0-1.4 1.15-1.4h1.794zm0-4.3a.962.962 0 0 1 1.15 1c0 1.5 0 2.1-1.15 2.1h-1.791c-1.15 0-1.15-.6-1.15-2.1a.973.973 0 0 1 1.15-1h1.794zM18.445 51.3a1.14 1.14 0 0 1 1.334 1v6.5a1.723 1.723 0 0 1-.828 1.7 20.388 20.388 0 0 1-3.543.3c-.138 0-.874-.2-1.012-.2a.289.289 0 0 0-.322.3c0 .1.92 3.8 1.748 3.8a4.088 4.088 0 0 0 .782-.6c.322-.1 8.051-2.5 9.155-2.8.691-.2 5.061-1.6 5.245-1.6a1.109 1.109 0 0 1 1.012.6c1.2 1.7 5.153 4.4 5.981 4.4.23 0 .276-.1.414-.4a7.331 7.331 0 0 1 2.024-1.7c.23-.2 1.7-.9 1.84-1-.414-.1-2.53-.5-2.9-.6-2.944-.7-5.981-2.6-5.981-3.4s5.383-3.1 5.383-3.8-3.036-1.6-3.4-1.6a.742.742 0 0 0-.783.8c-.23 1.1-1.564 3.8-2.254 3.8-.736 0-3.174-4-3.174-4.8a.743.743 0 0 1 .92-.7h9.2c2.622 0 2.944 0 2.944-.6 0-.7-2.392-3.1-3.128-3.1-.414 0-.506.2-1.38 1.6-.6.8-.828.8-2.945.8H16.144a1.27 1.27 0 0 1-1.334-.7c-.046-.1-.046-3.7-.046-5.6a1.268 1.268 0 0 1 1.472-1.5h23.969c1.472 0 2.116 0 2.116-.6 0-.7-2.76-3.2-3.358-3.2-.414 0-1.7 1.9-2.024 2.3-.322.2-.6.3-2.485.3H16.42a4.718 4.718 0 0 1-1.794-.3 23.074 23.074 0 0 0-2.53-1.1.6.6 0 0 0-.552.7c0 .3.184 1.6.23 1.9.276 3.6.368 5.1.368 6.8 0 7.5-1.84 10.9-3.5 14a4.168 4.168 0 0 0-.46.9.1.1 0 0 0 .092.1 18.854 18.854 0 0 0 5.935-10.3c.276-1.6.368-2.4 1.978-2.4h2.255zm8.373 0a1.475 1.475 0 0 1 1.61 1.5 26.21 26.21 0 0 0 1.61 4.2c.046.2.506 1.1.506 1.2 0 .4-.368.5-.782.6a46.2 46.2 0 0 1-5.659 1.1 1.373 1.373 0 0 1-1.426-1.3v-5.9a1.178 1.178 0 0 1 1.38-1.4h2.761zM9.106 29.4a1.974 1.974 0 0 0 .874-1.5c0-3.2-5.981-4.8-6.119-4.8a.207.207 0 0 0-.184.2 5.126 5.126 0 0 0 .368.7 24.873 24.873 0 0 1 2.668 4.1c.782 1.4.92 1.5 1.61 1.5a1.1 1.1 0 0 0 .783-.2zM4.551 39a1.524 1.524 0 0 0 1.012-1.5c0-3.2-5.245-4.8-5.383-4.8a.259.259 0 0 0-.183.2s.276.4.368.5a12.426 12.426 0 0 1 1.564 2.9c.874 2.6.966 2.9 1.932 2.9a1.431 1.431 0 0 0 .69-.2zm21.392 6.5c-2.162 0-4.048-.1-6.3-.2-.276 0-1.7-.1-2.024-.1-.093 0-.185 0-.185.1a.5.5 0 0 0 .23.3l.875 1.1a.491.491 0 0 0 .414.3c.138 0 .828-.1.966-.1a54.935 54.935 0 0 1 5.8-.2h8.143c1.565 0 2.439 0 2.439-.6 0-.8-2.255-2.8-2.945-2.8-.368 0-.46.2-1.288 1.4-.552.8-.782.8-2.76.8h-3.359zM5.103 64.1c1.288 0 2.07-.9 2.07-2.5 0-.9-.184-1.5-1.1-4.5a22.212 22.212 0 0 1-.506-3.7c0-3 4.555-17.2 4.555-18.8a.275.275 0 0 0-.184-.3.98.98 0 0 0-.322.7c-1.749 4.9-4.279 11-5.889 15-.736 1.7-1.058 2.5-2.07 2.9a4.46 4.46 0 0 0-1.426.5 1.381 1.381 0 0 1 .414.3c2.254 1.5 2.346 3.4 2.438 5.6.18 4.5.548 4.8 2.02 4.8zm73.773-22.7c.46 0 .92 0 1.012.6a.986.986 0 0 0 1.1 1c.552 0 2.346-.2 2.346-1.8 0-1-.23-6-.23-7.1 0-1.4 0-1.5.46-1.8a1.741 1.741 0 0 0 .966-1 .563.563 0 0 0-.506-.5c-.506-.3-3.312-1.8-3.45-1.8a2.263 2.263 0 0 0-.69.8 1.605 1.605 0 0 1-1.38.5h-12.51a4.746 4.746 0 0 1-2.024-.4c-.184-.1-2.208-.9-2.3-.9-.138 0-.322 0-.322.2 0 .1.322 1 .368 1.2.184 1.3.23 4.8.23 6.3 0 .8-.138 4.6-.138 5.5a.775.775 0 0 0 .92.9 3.075 3.075 0 0 0 2.254-1.1.922.922 0 0 1 1.1-.6h12.79zm-.046-9.9c1.1 0 1.1.1 1.1 1.7s0 1.8-1.1 1.8H66.137c-1.1 0-1.1-.2-1.1-1.8 0-1.4 0-1.7 1.1-1.7h12.7zm-12.606 8.7c-1.1 0-1.1-.3-1.1-3a.916.916 0 0 1 1.058-1h12.7c1.058 0 1.058.4 1.058 1.9 0 1.8 0 2.1-1.058 2.1H66.224zm20.7-13.1c2.208 0 2.438 0 2.438-.6 0-.8-3.22-3.6-3.819-3.6-.552 0-1.7 2.2-2.024 2.6-.23.3-.552.4-2.3.4H57.483a5.621 5.621 0 0 1-2.668-.6 11.158 11.158 0 0 0-2.852-1 .419.419 0 0 0-.368.3c0 .2.552 1 .6 1.2.736 2.3.782 12 .782 15.1 0 4.4 0 14-3.129 20.6-.138.3-1.012 1.5-1.012 1.6s0 .1.092.1a5.27 5.27 0 0 0 1.841-1.5c2.76-3.4 5.382-7.6 5.382-23.2 0-1.6-.23-9.7-.23-10.1a1.2 1.2 0 0 1 1.472-1.3h29.534zM69.58 45.3c-2.577 0-4.969 0-6.3-.1-.322 0-1.748-.2-2.024-.2a.109.109 0 0 0-.138.1.362.362 0 0 0 .184.3l.874 1.1a.64.64 0 0 0 .414.3c.138 0 .828-.1.966-.1 1.61-.2 4.738-.2 5.843-.2h7.5c.369 0 .783 0 .783.5 0 .3-2.071 2.5-2.991 2.5-.184 0-2.53-.4-3.036-.4a.584.584 0 0 0-.6.3 8.505 8.505 0 0 0 .368 1.3 6.1 6.1 0 0 1 .092 1 .825.825 0 0 1-.966 1h-5.521c-2.576 0-4.968-.1-6.3-.2-.322 0-1.748-.1-2.024-.1a.109.109 0 0 0-.138.1l.184.3.874 1a.554.554 0 0 0 .414.3c.138 0 .828-.1.967-.1 1.61-.1 4.692-.1 5.8-.1h5.889c.92 0 1.1.1 1.1 2.3 0 4.4-.23 4.5-1.15 4.5a17 17 0 0 1-2.254-.1c-.184 0-1.2-.2-1.289-.2a.235.235 0 0 0-.276.2c0 .1 1.749 1.3 2.025 1.6a5.111 5.111 0 0 1 .92 1.6c.092.5.138.5.69.5.184 0 2.714-.2 3.864-1.6a5.729 5.729 0 0 0 .92-3.5c0-.7-.092-4.3 0-4.8a.844.844 0 0 1 .966-.5h12.054c1.1 0 1.38-.2 1.38-.5 0-.8-3.312-3.2-3.588-3.2a20.253 20.253 0 0 0-1.795 2.1 1.2 1.2 0 0 1-1.1.4h-6.954c-.552 0-1.15 0-1.15-.8a2.256 2.256 0 0 1 .874-1.4c.138-.1.644-.8.783-.9 1.38-.8 4.048-2.3 4.922-2.4 2.024-.1 2.254-.1 2.254-.7 0-.5-3.358-2.6-3.726-2.6a6 6 0 0 0-1.334 1.2 3.123 3.123 0 0 1-1.472.2h-7.775zM107.84 30a5.3 5.3 0 0 1-2.024.3 6.969 6.969 0 0 1-3.542-1 2.223 2.223 0 0 0-1.242-.6c-.276 0-.322.4-.322.5s0 3.3 5.428 3.8c.69 0 1.012.1 1.012.5a41.655 41.655 0 0 1-6.348 15c-1.381 2-1.519 2.2-1.519 2.8a1.223 1.223 0 0 0 1.427 1.3c4.232 0 8.188-15.5 8.741-17.8.414-1.6.46-1.8.874-1.9 3.726-1.1 6.3-2 6.3-3.7 0-1.3-1.748-1.8-2.622-2-1.38-.4-1.84-.6-2.07-.9a3.745 3.745 0 0 0-3.313-2c-.92 0-1.886.4-1.886.9a7.154 7.154 0 0 0 .874 1.3 4.131 4.131 0 0 1 .644 2.1 2.171 2.171 0 0 1-.409 1.4zm2.9-.4a.754.754 0 0 1-.092-.3c0-.1.322-2 1.1-2a4.062 4.062 0 0 1 1.886 1.1c.003.7-2.754 1.3-2.892 1.2zm11.041 27c.644-.3 2.76 1.2 4 2.3a1.919 1.919 0 0 0 1.427.7 1.351 1.351 0 0 0 1.242-1.6c0-1.7-2.669-3.2-3.635-3.7a19.347 19.347 0 0 1-2.99-1.3c-1.38-.9-1.84-8.1-1.84-9.2 0-1.2.046-2.8 1.1-3.8a5.178 5.178 0 0 1 3.358-1.4 7.565 7.565 0 0 1 2.485.7 2.949 2.949 0 0 0 1.058.2 2.161 2.161 0 0 0 2.162-2.4 4.94 4.94 0 0 0-3.358-4.7 24.462 24.462 0 0 0-2.715-.8.289.289 0 0 0-.322.3 1.392 1.392 0 0 0 .6.7 4 4 0 0 1 1.288 2.4c0 1.1-.322 1.3-3.174 2.9-3.864 2.3-4.14 4.7-4.14 9.7 0 .7.184 3.8.184 4.5 0 .4-.23.5-.645.5-.322 0-2.024-.1-2.392-.1-4.14 0-7.407 1.5-7.407 4.5 0 2.3 2.577 5.4 6.947 5.4 2.392 0 5.889-1 6.487-5a1.042 1.042 0 0 1 .282-.8zm-3.128-1.2c.276.8-.368 4.3-4.831 4.3-2.76 0-4.14-1.4-4.14-2.5 0-2.5 4.14-2.5 5.2-2.5s3.543 0 3.773.7zm30.126-30.7c-.092 0-.46 0-.46.3a14.16 14.16 0 0 0 3.312 2.2c.874.4.966.5.966.8 0 .9-3.174 4.3-3.174 4.5s.092.2.184.2 1.288-.7 1.518-.8c2.99-1.7 4.049-2.2 5.567-2.2.322 0 1.932.1 2.3.1.874 0 2.116-.2 2.116-1.4 0-.4-.276-1.5-2.162-2.2-.92-.5-1.426-.5-3.634-.5a17.075 17.075 0 0 1-2.117-.1c-.688-.1-4.276-.9-4.414-.9zm8.189 10.4c-2.3 0-3.5.5-6.073 1.6-2.852 1.3-3.174 1.4-4.232 1.4-.322 0-1.795-.3-2.117-.3a.421.421 0 0 0-.46.4c0 .6 2.255 3.5 4.233 3.5.736 0 .874-.2 2.116-1.7a8.478 8.478 0 0 1 6.165-2.7c4.37 0 4.646 5.1 4.646 6.5 0 7.4-4.324 13.5-10.581 17.9a15.427 15.427 0 0 0-2.024 1.5.109.109 0 0 0 .138.1c1.242 0 15.872-4.9 15.872-19.2.002-6.2-3.725-9-7.681-9zm40.674 21.8c-.644 0-.92-.4-1.564-1.2a6.623 6.623 0 0 0-5.244-2.9c-2.623 0-4.555 2-4.555 3.7 0 2.3 3.267 4.7 7.821 4.7 5.843 0 11.5-4.1 11.5-9.9 0-5.2-4.462-9.6-10.351-9.6a10.338 10.338 0 0 0-4.048.8 5.248 5.248 0 0 0-1.15.4.384.384 0 0 1-.276-.4c0-.7 4.048-7 7.36-9.4 2.209-1.5 3.267-2.2 3.267-3.6 0-2-2.991-3.2-4.831-3.2-1.012 0-1.334.2-4.186 1.4a21.018 21.018 0 0 1-7.131 1.7c-.966 0-1.1 0-1.1.1 0 .3 1.426 3.2 3.588 3.2.782 0 1.426-.1 3.267-1.7.782-.6 3.5-2.9 5.2-2.9a.755.755 0 0 1 .874.6c0 .5-.644 1.5-2.162 3.7-6.947 9.7-7.407 10.3-10.4 13.8-3.266 3.8-3.635 4.9-3.635 6a1.262 1.262 0 0 0 1.335 1.3c1.242 0 1.7-.9 2.622-2.4.828-1.5 4.738-7.8 10.811-7.8 4.6 0 7.775 3.2 7.775 7s-3.22 6.6-4.785 6.6zm-4.232.5a.742.742 0 0 1-.782.8c-1.978 0-3.957-.9-3.957-2.1a1.825 1.825 0 0 1 1.933-1.6 3.092 3.092 0 0 1 2.808 2.9zm55.986-22.1a5.932 5.932 0 0 0-4.968 2.9.177.177 0 0 0 .184.2 1.14 1.14 0 0 0 .46-.2 3.658 3.658 0 0 1 1.794-.4c1.564 0 3.864.6 3.864 2.4a2.563 2.563 0 0 1-.184.9.841.841 0 0 0-.138.3.274.274 0 0 0 .23.3 8.271 8.271 0 0 0 1.38-.4c.23 0 1.289.1 1.565.1.966 0 1.518-1.2 1.518-2.2.002-2.1-2.164-3.9-5.703-3.9zm-16.884-1.4l-.184.2c0 .1.23.6.23.7 0 .6-1.288 1.1-1.61 1.1a.441.441 0 0 1-.368-.5 24.98 24.98 0 0 1 .46-3 18.2 18.2 0 0 0 .966-2.4c0-.8-1.656-3.1-4.738-3.1-.276 0-1.013.1-1.013.5a2.255 2.255 0 0 0 .645.7 4.664 4.664 0 0 1 1.518 3.7 34 34 0 0 1-.46 5 12.441 12.441 0 0 1-7.959 1.2c-.138 0-.69-.2-.828-.2a.328.328 0 0 0-.368.3c0 .3 1.748 3.5 3.312 3.5.69 0 .92-.1 3.266-.9.276 0 1.565-.4 2.117-.4a.912.912 0 0 1 .644 1c.046.8.092 4.7.092 5.8 0 1.3-.276 1.4-2.623 2.6-2.714 1.3-3.542 1.5-4.784 1.5-.276 0-1.61-.2-1.886-.2a1.677 1.677 0 0 0-1.334 1.8c0 1.5 2.346 2.9 2.852 2.9a11.738 11.738 0 0 0 1.748-.9 3.586 3.586 0 0 1 1.15-.3c.6 0 .828 0 2.3 2.9a2.445 2.445 0 0 0 2.117 1.7c1.656 0 2.346-3.1 2.346-5.2 0-.5-.138-2.5-.138-3 0-.8.276-.9 2.852-2.3 5.383-2.9 8.235-3.5 9.523-3.5a4.783 4.783 0 0 1 4.417 5.1c0 3.7-3.865 5.7-6.9 5.7-.46 0-2.99 0-2.99-2.2a2.125 2.125 0 0 1 .414-1.3.536.536 0 0 0 .184-.3.312.312 0 0 0-.23-.3 4.174 4.174 0 0 0-2.3 3.7c0 2.4 2.116 3.7 4.738 3.7 3.772 0 10.167-2.8 10.167-8.8a7.04 7.04 0 0 0-7.085-7c-1.2 0-3.266.2-7.82 1.9-.737.2-4.509 1.8-4.647 1.8-.414 0-.414-.6-.414-.8 0-.3 0-4 .092-5 .092-1.6.138-1.8.782-2 1.1-.5 4.6-1.9 4.6-3.4.002-1.4-2.207-2.1-2.851-2zm-4.554 17.5a1.458 1.458 0 0 1 .138.8c0 2.2-.644 3.5-1.288 3.5-.691 0-1.933-1.5-1.933-2.2.002-.6 2.947-2.1 3.085-2.1zm37.786-20.7a.312.312 0 0 0-.276.2 6.54 6.54 0 0 0 .368 1.6 12.183 12.183 0 0 1 .322 2.6c0 1.2-.644 6.9-.644 8.2 0 8.8 5.8 13.6 8.741 13.6a1.627 1.627 0 0 0 1.749-1.4 9.128 9.128 0 0 0-.369-1.5 6.834 6.834 0 0 1-.275-1.9 12.653 12.653 0 0 1 .6-3.5 4.544 4.544 0 0 0 .138-.9.357.357 0 0 0-.23-.4c-.368 0-1.151 1.1-1.427 1.6-1.38 2.3-1.564 2.5-2.346 2.5-1.426 0-3.818-3.3-3.818-8a16.24 16.24 0 0 1 1.1-5.9 6.7 6.7 0 0 0 .552-1.9c.008-1.2-2.066-4.9-4.183-4.9zm21.945 4.3c-.23 0-.414 0-.414.2 0 .3 1.84 1.7 2.208 2.1 2.438 2.4 2.438 4.3 2.438 8.1 0 .6 0 3.1 2.255 3.1 2.208 0 2.3-2.1 2.3-3a11.553 11.553 0 0 0-4.1-8.8 8.779 8.779 0 0 0-4.685-1.7zm22.508 7.3c.92 0 5.2-1.9 6.211-1.9a.364.364 0 0 1 .322.4 14.478 14.478 0 0 1-.644 2.2c-2.484 6.9-4.417 9-5.659 10.4-2.76 3-3.082 3.4-3.082 4.3a1.342 1.342 0 0 0 1.472 1.5c3.726 0 8.189-11.3 10.029-17.6a9.318 9.318 0 0 1 .69-2c.322-.4 2.945-1.1 4.417-1.1 1.334 0 3.174.3 3.174 3.5a36.512 36.512 0 0 1-1.426 8c-1.334 5-3.036 5.6-4.371 5.6a13.532 13.532 0 0 1-2.346-.3 4.364 4.364 0 0 0-1.15-.3.216.216 0 0 0-.23.2c0 .1.506 1.2.6 1.5.552 1.6 1.012 3.2 2.714 3.2 1.565 0 3.4-1.3 4.693-2.8 2.668-3.2 3.956-11.2 3.956-14.8 0-4.2-2.668-5.9-6.118-5.9-.368 0-2.485.3-2.715.3a.466.466 0 0 1-.506-.5c0-.8 1.749-6.7 1.749-6.8 0-1.2-1.795-2.9-4.877-2.9-.184 0-.736 0-.736.4a3.232 3.232 0 0 0 .782 1 5.743 5.743 0 0 1 1.15 3.9c0 .3-.046 4.9-.828 5.5-.092 0-6.395 1.3-7.729 1.3-.506 0-2.9-.6-3.036-.6a.42.42 0 0 0-.414.4c0 1 2.116 3.9 3.91 3.9zm30.64 2c-.046-2.3-2.163-8.1-8.051-8.1a.261.261 0 0 0-.322.3 2.838 2.838 0 0 0 1.1.7 5.893 5.893 0 0 1 3.726 5.3c0 1.2-.184 1.3-1.886 2.6-.276.2-1.794 1-1.794 1.3 0 .2 1.15.2 1.472.3a21.472 21.472 0 0 0 3.128 1.4c1.939 0 2.627-3.2 2.627-3.8zM337.386 25c-.552 0-1.656.2-1.656.6a.834.834 0 0 0 .6.5 11.525 11.525 0 0 1 4.1 2.4c.92 1.1 1.426 1.7 2.438 1.7a1.3 1.3 0 0 0 1.15-1.4c-.005-.8-.925-3.8-6.63-3.8zm-4 3.7a.916.916 0 0 0-.782.4 1.414 1.414 0 0 0 .69.7 12.756 12.756 0 0 1 3.266 2.7c1.426 1.7 1.794 2 2.438 2a1.719 1.719 0 0 0 1.335-1.8c.004-.6-1.059-4-6.947-4zm51.448-18.4a1.629 1.629 0 0 1-1.768-1.8c0-2.7 0-3.6 1.224-4.2 1.02-.6 1.564-.9 1.564-1.5a1.334 1.334 0 0 0-.816-1c-.068 0-6.391-1.8-6.935-1.8s-.816.1-.816.6c0 .4.544 2.6.612 3.1a35.474 35.474 0 0 1 .2 4.7 1.58 1.58 0 0 1-1.7 1.9h-8.295c-3.876 0-7.344-.1-9.247-.2-.408 0-2.584-.3-3.06-.3a.337.337 0 0 0-.272.2 1.816 1.816 0 0 0 .272.5l1.36 1.5a.872.872 0 0 0 .816.5c.34 0 2.243-.3 2.651-.3h15.913c1.836 0 1.836 1.2 1.836 5.9 0 .9 0 2.3-1.7 2.3h-13.665c-3.06 0-6.935-.1-8.567-.2-.476 0-3.128-.2-3.672-.2-.2 0-.34 0-.34.1a.559.559 0 0 0 .272.4l1.36 1.6a1.081 1.081 0 0 0 .612.5c.476 0 2.38-.2 2.856-.2 2.584-.1 5.031-.2 7.139-.2h45.08c3.263 0 3.671 0 3.671-.8 0-1-3.331-4.4-4.419-4.4-.612 0-2.924 2.5-3.468 3-.544.4-.884.4-3.74.4h-14.955c-1.768 0-1.768-.6-1.768-6.1 0-.8 0-2.1 1.768-2.1h17.61c2.244 0 3.6 0 3.6-.9 0-.6-4.624-4.7-5.78-4.7-.816 0-1.9 1.5-2.583 2.5-.884 1.2-1.224 1.2-4.284 1.2h-8.563zm-19.582 12.9c-.2.2.2.5.272.6 1.02.7 2.312 4.5 2.516 5.3.816 3.1 1.088 4.2 3.2 4.2a2.413 2.413 0 0 0 2.448-2.7c-.005-4.5-7.96-8-8.436-7.4zm11.015 24.4a1.663 1.663 0 0 1 1.768 1.9c0 1.7-.272 9.7-.272 11.5 0 .6 0 1.7 1.36 1.7a4.9 4.9 0 0 0 1.9-.6c1.972-.9 2.176-1.7 2.176-3.8 0-1.2-.136-7.1-.136-8.5 0-.8 0-2.2 1.768-2.2h17.474c3.2 0 3.6-.2 3.6-1 0-.9-4.148-4.7-4.9-4.7-.68 0-3.059 3-3.671 3.4-.544.4-.816.4-3.6.4h-8.839c-1.836 0-1.836-1.3-1.836-2.4 0-7.2 0-7.6 1.768-7.6h21.35c2.924 0 3.6-.2 3.6-.9 0-1-4.079-4.7-5.3-4.7-.748 0-1.02.3-2.652 2.7-.816 1.1-1.36 1.1-4.283 1.1h-7.745c-.612 0-.816-.3-.816-.5 0-.6 4.964-5.3 6.188-5.5 1.02-.3 2.244-.7 2.244-1.7 0-1.3-5.644-3.5-5.984-3.5a.636.636 0 0 0-.748.7 11.521 11.521 0 0 1-.34 2.5c-2.787 8-3.875 8-5.507 8h-20.33c-2.856 0-5.371-.1-9.179-.3-.476 0-2.652-.2-3.2-.2a.174.174 0 0 0-.2.2.559.559 0 0 0 .272.4l1.292 1.5a1.641 1.641 0 0 0 .748.5c.408 0 2.312-.2 2.788-.2 2.584-.1 5.1-.1 7.139-.1h12.307a1.614 1.614 0 0 1 1.7 1.5c.068.9-.068 5.1-.068 6 0 1.1 0 2.5-1.768 2.5h-8.227c-3.536 0-5.916 0-9.247-.2-.408 0-2.584-.2-3.128-.2a.174.174 0 0 0-.2.2.539.539 0 0 0 .2.3l1.36 1.6a.927.927 0 0 0 .748.5c.68 0 2.243-.3 2.583-.3h15.843zm85.794-35.9a5.478 5.478 0 0 0-5.78-4.8c-.34 0-1.5.1-1.5.8 0 .1 1.224 2.4 1.292 2.5a9.763 9.763 0 0 1 .816 4.7c0 .9-.136 4.1-.34 5.5-.272 1.4-.748 1.5-4.963 2.2-1.768.2-10.335 2.1-10.811 2.1-.884 0-.884-.5-.884-1.9a38.387 38.387 0 0 1 .34-5.3 13.629 13.629 0 0 0 .34-2.1c0-2.4-4.216-4.3-5.848-4.3-.816 0-1.971.4-1.971 1 0 .3 1.359 2.6 1.563 3.2.748 1.7 1.088 3.4 1.088 7.1 0 2.5-.068 3.1-1.156 3.5a32.92 32.92 0 0 1-8.635.9c-.612 0-3.467-.2-4.147-.2-.612 0-.884 0-.884.9 0 3.8 5.507 5.1 7 5.1 1.02 0 5.712-2.2 6.867-2.2 1.224 0 1.224.7 1.224 6.4 0 13 0 18.4 19.446 18.4 1.564 0 7.751 0 7.751-3.2 0-1.5-1.767-2.9-3.671-2.9-.952 0-2.992.4-3.264.4a29.557 29.557 0 0 1-5.983.6c-9.519 0-10.743-3.2-10.743-9.6 0-.2.136-6.4.2-8.6a5.455 5.455 0 0 1 .612-2.8c.884-1.5 13.19-4.2 14.618-4.2 1.02 0 1.02.3 1.02.9a30.267 30.267 0 0 1-1.972 7.7 2.463 2.463 0 0 1-2.311 1.8c-.612 0-3.672-1.3-4.42-1.3-.136 0-.34 0-.34.2a7.96 7.96 0 0 0 .884 1.4 25.117 25.117 0 0 1 1.292 3c.612 2 .884 2.7 3.2 2.7 2.447 0 6.119-3.4 7.411-13.5.408-3.5.476-3.7 4.419-3.7 1.224 0 7.14.8 8.5.8s3.331-.5 3.331-2.3c0-1.3-1.02-2.4-5.3-3.6a30.232 30.232 0 0 0-4.9-1.3c-.136 0-.544 0-.544.3a.705.705 0 0 0 .272.4c1.224 1.2 1.36 1.3 1.36 1.7 0 .8-.612.8-2.108 1-.544 0-2.923.2-3.2.2-.2 0-.748 0-.748-.3 0-.4.068-.9.544-5.4.081-.7 1.033-3.8 1.033-3.9zm53.32-.6c18.562 0 18.834 16.1 18.834 18.8 0 16.9-14.755 22.8-21.826 25.6-1.7.6-1.836.7-1.836.9a.582.582 0 0 0 .68.5 43.224 43.224 0 0 0 11.287-2.5 25.367 25.367 0 0 0 17.134-24c0-8.9-4.487-16.1-11.831-19.7-1.9-1-4.759-2.2-10.947-2.2a28.2 28.2 0 0 0-21.689 8.8c-6.8 6.9-7.548 13.8-7.548 17.4 0 8.3 4.012 15.3 8.5 15.3 2.719 0 6.187-1.7 11.626-10 5.984-9 7-15.3 7-19.9a50.237 50.237 0 0 0-.68-7.3c0-.3-.136-.6-.136-.8.004-.4.072-.9 1.432-.9zm-3.808.2c.884 0 1.156.3 1.156 4.4 0 6.7-3.06 14.3-6.663 19.8-4.692 7-6.324 7.9-8.3 7.9-4.147 0-5.915-6.1-5.915-10.5.004-12.9 13.263-21.6 19.722-21.6zm78.063 36.6a5 5 0 0 1 1.156-3.3c5.1-6.8 9.383-12.7 16.726-32.2.952-2.6 1.224-3 1.564-3.2 1.36-.6 1.768-.8 1.768-1.3 0-1.3-5.78-3.6-6.867-3.6a.614.614 0 0 0-.476.7c-.952 11.8-8.024 24.2-12.375 32a2.094 2.094 0 0 1-1.088 1 .528.528 0 0 1-.544-.6c-.068-.4-.068-2.6-.068-4.4 0-1.9-.136-10.5-.136-12.5 0-1.3.068-5.9.816-7.1a7.968 7.968 0 0 0 1.428-1.8c0-1.6-6.664-2.8-6.868-2.8a.6.6 0 0 0-.68.6c0 .3.476 1.7.544 2.1.68 4.3.68 10.7.68 16.6 0 1.9 0 16.1-.2 17-.476 1.7-4.555 6.2-7.751 8.8-1.224 1-7.887 5.8-7.887 5.9 0 .2.136.2.272.2a44.3 44.3 0 0 0 14.007-7.9 1.723 1.723 0 0 1 .951-.4c.884 0 .952 1.1.952 1.5.2 5.2 1.9 7.2 10.539 7.2 8.5 0 10.811-3.1 10.811-5.1 0-.8-.34-.9-1.224-1.4-2.583-1.4-4.011-8.9-4.147-9.2a2.255 2.255 0 0 0-.408-1.2.445.445 0 0 0-.34.3c-.136.6-.408 2.9-.544 3.4-1.428 7.9-1.564 8.4-5.236 8.4-4.763 0-5.374-1.1-5.374-7.7zm-9.247-19c-.544-2.6-1.768-5.7-2.244-5.7-.272 0-.2.5-.2.7 0 .5.068 1.2.068 1.6a46.272 46.272 0 0 1-1.564 10.5c-.272 1-2.516 5.9-2.516 7.1a1.627 1.627 0 0 0 1.9 1.7c3.06 0 5.3-3.5 5.3-8.8a37.452 37.452 0 0 0-.744-7.1zm-7.343-8.5c2.583 0 4.011 0 4.011-1 0-1.1-3.264-4.3-4.283-4.3-.408 0-.612 0-2.108 2.2-.884 1.2-1.292 1.2-3.74 1.2-2.108 0-2.108-.5-2.108-5.7 0-4.5 0-5.1 1.972-5.3 1.156-.1 6.256-1.1 7.343-1.2 1.972-.2 2.72-.3 2.72-1.2 0-1.4-6.187-4.4-6.663-4.4-.2 0-2.72 1.5-3.264 1.8A77.437 77.437 0 0 1 551.22 8a6.233 6.233 0 0 0-1.768.7c0 .3 1.088.3 1.428.3 1.292 0 7-.5 8.159-.5 1.632 0 1.632.5 1.632 4.3 0 5.1 0 5.7-2.04 5.7-1.292 0-7.139-.4-8.363-.4a.174.174 0 0 0-.2.2l.272.4 1.292 1.5a1.084 1.084 0 0 0 .612.5c.272 0 4.419-.3 5.235-.3.952 0 1.5.3 1.5 1.2 0 1.1-2.584 11.6-5.235 18.9-.816 2.3-2.448 6.7-3.264 9a.287.287 0 0 0 .2.2c.272 0 2.448-2.6 4.827-6.9.884-1.5 2.788-5.3 4.148-8a.58.58 0 0 1 .476-.4c.272 0 .34.5.34.6 0 2.2-.2 10.5-.272 12.8-.068 1.1-.612 11.3-.612 11.8 0 1.4.34 2.3 1.972 2.3 3.467 0 3.467-3.4 3.467-5.6 0-4.2-.2-22.9-.2-26.7 0-.6 0-1.1.408-1.1.272 0 1.836.9 2.584 3.9 1.02 3.9 1.292 5 2.924 5a2.864 2.864 0 0 0 2.652-3c0-2.9-1.972-4.4-6.664-7.7-1.292-.9-1.9-1.5-1.9-3.7 0-2.1.476-2.6 2.244-2.6h5.984zm20.262-18c-.272-.2-3.4-2.1-4.488-2.1-.136 0-.34 0-.34.2 0 .1.612.6.748.8a19.1 19.1 0 0 1 4.42 9.4c.34 2.1.951 3.4 2.175 3.4 1.428 0 2.992-2.4 2.992-4.8 0-2.7-3.128-5.3-5.507-6.9zm15.5 29.3c-2.244-3.1-4.827-4.2-5.167-4.2-.068 0-.068 0-.068.1a17.562 17.562 0 0 0 1.087 2.3 22.923 22.923 0 0 1 2.04 9.1c0 .7-.136 4-.136 4.4 0 .6 0 3.7 2.312 3.7 1.972 0 3.469-3 3.469-6.2.002-3.9-2.447-7.7-3.535-9.2zm46.577 3c.68 0 1.97 0 1.97 1.5 0 .3-2.04 17.1-14.55 25a1.45 1.45 0 0 0-.88.5c0 .1.13.2.4.2a16.246 16.246 0 0 0 6.12-2.7c8.84-6 11.09-14.5 12.72-20.7.2-.7.34-1.2.68-1.2a.649.649 0 0 1 .61.6 51.912 51.912 0 0 0 4.22 10.2c3.6 6.6 8.97 12.1 9.38 12.1a7.626 7.626 0 0 0 1.7-1.5 8.083 8.083 0 0 1 4.96-1.3c.27 0 .34-.1.34-.2 0-.2-.27-.2-.47-.3a42.635 42.635 0 0 1-7.42-5.1c-8.15-6.9-11.49-15.9-11.49-16.3 0-.8 1.02-.8 1.5-.8h13.39c2.32 0 3.61 0 3.61-1 0-.9-4.97-4-5.31-4s-.61.2-1.08 1.6c-.21.6-.75 1.5-1.3 1.5a.919.919 0 0 1-.74-1c0-1 .27-12 .61-12.6.27-.5 2.24-1.9 2.24-2.4 0-.8-4.69-3.5-4.89-3.5a8.67 8.67 0 0 0-1.36 1.4 2.513 2.513 0 0 1-2.18.9h-3.26c-1.02 0-2.18-.3-2.18-2 0-1 0-7 .07-7.6a1.721 1.721 0 0 1 .75-1.4c1.29-1 1.43-1.1 1.43-1.6 0-.8-.62-1.1-1.36-1.4a29.635 29.635 0 0 0-5.78-1.1.708.708 0 0 0-.89.6c0 .5.82 3.2.95 3.7a62.453 62.453 0 0 1 .55 8.8 1.72 1.72 0 0 1-1.63 2c-1.3 0-7.55-.5-8.98-.5-.2 0-.27 0-.27.1a1.179 1.179 0 0 0 .27.5l1.36 1.6a.921.921 0 0 0 .61.4c.21 0 1.16-.2 1.43-.2 1.63-.1 5.24-.1 5.44-.1a1.637 1.637 0 0 1 1.84 1.8c0 5.8-.55 11.5-.55 11.9-.13 1.5-.88 1.7-2.04 1.7h-2.85c-2.04 0-2.52 0-6.67-.2-.27 0-1.7-.3-2.04-.3a.277.277 0 0 0-.27.3 2.677 2.677 0 0 1 .34.4l1.29 1.5a.8.8 0 0 0 .62.5 6.941 6.941 0 0 0 1.42-.2c2.18-.1 3.27-.1 4.97-.1h2.65zm-26.86-3.4c-1.49 0-2.58-.2-3.81-.3-.2 0-1.76-.2-1.83-.2-.14 0-.27 0-.27.1a.672.672 0 0 0 .34.5l1.29 1.6a.9.9 0 0 0 .61.4c.27 0 3.67-.4 4.22-.4h9.51c3.34 0 3.68 0 3.68-.8 0-1-4.36-4-4.7-4-.4 0-1.63 2-1.97 2.4a2.33 2.33 0 0 1-2.11.7h-4.96zm39.23-14a1.8 1.8 0 0 1 1.98 2.1c0 1.8-.28 9.9-.28 11.5a1.658 1.658 0 0 1-1.9 1.9h-3.26c-2.04 0-2.04-1.5-2.04-1.7 0-.5.27-3.4.27-3.9.07-1.8.2-5.9.2-7.9a1.807 1.807 0 0 1 2.11-2h2.92zm-32.91 39.5a1.378 1.378 0 0 1 1.5 1.3 1.43 1.43 0 0 0 1.63 1.2 6.233 6.233 0 0 0 2.52-1 2.117 2.117 0 0 0 .81-2.1c0-1.4-.34-8.6-.34-10 0-1.3 0-1.7.75-2.2 1.02-.7 1.23-.9 1.23-1.4 0-1.1-4.15-3.1-4.63-3.1-.34 0-.34 0-.95.8a2.918 2.918 0 0 1-2.31.9h-4.56a5.911 5.911 0 0 1-2.78-.6c-.62-.3-3-1.9-3.61-1.9a.55.55 0 0 0-.61.6 26.085 26.085 0 0 0 .34 2.7c.07 1.5.14 5.2.14 6.3 0 2.3-.28 6-.55 8.4-.07.5-.34 2.8-.34 3.3a1.243 1.243 0 0 0 1.43 1.4c.41 0 3.6-.1 3.81-3.1a1.658 1.658 0 0 1 1.97-1.5h4.55zm-.27-13.8a1.754 1.754 0 0 1 2.11 1.9c0 3.3 0 5.9-.14 8.3-.06 1.9-1.22 1.9-1.97 1.9h-4.21c-1.63 0-2.25-.4-2.25-2.1 0-1.3.14-6.9.14-8.1 0-.7 0-1.9 2.17-1.9h4.15zm-6.59-38c-.89 0-5.37-.5-5.58-.5a.22.22 0 0 0-.27.2.667.667 0 0 0 .27.4l1.36 1.6a.806.806 0 0 0 .61.5c.34 0 3.61-.4 4.22-.4h10.13c3.33 0 3.67 0 3.67-.8 0-.6-4.42-4.9-5.23-4.9-.41 0-.48.2-1.3 1.7-1.15 2.2-1.9 2.2-3.26 2.2h-4.62zm-.34 9.3c-2.04 0-2.52 0-6.67-.2-.27 0-1.7-.2-2.04-.2-.13 0-.27 0-.27.2a2.677 2.677 0 0 1 .34.4l1.29 1.5a.8.8 0 0 0 .62.5 6.941 6.941 0 0 0 1.42-.2c2.18-.1 3.27-.1 4.97-.1h15.57c2.24 0 3.67 0 3.67-.9 0-.6-4.08-4.7-4.96-4.7-.62 0-2.18 2.8-2.72 3.2-.62.5-.89.5-3 .5h-8.22zm.27 8.7c-2.11 0-3.47-.2-3.74-.2s-1.77-.3-1.9-.3a.2.2 0 0 0-.21.2.732.732 0 0 0 .27.4l1.3 1.6a1.311 1.311 0 0 0 .61.4c.47 0 3.67-.3 4.28-.3h10.47c3.27 0 3.67 0 3.67-.8 0-.6-4.69-4.4-5.03-4.4-.27 0-.41 0-1.43 1.7-1.08 1.7-1.56 1.7-2.85 1.7h-5.44zm63.33-6c-.88 1 2.38 5.6 5.78 5.6a6.422 6.422 0 0 0 2.32-.9c2.24-1.3 16.31-7.3 20.26-7.3a.474.474 0 0 1 .41.1 9.582 9.582 0 0 1-1.7 1.5c-9.8 8.7-9.86 23.1-9.86 26.1 0 3.2 0 14.6 13.87 14.6.41 0 7.88 0 7.88-3.6 0-1.6-1.22-2.5-3.33-2.5-.61 0-5.44.4-6.46.4-4.01 0-8.29-.8-8.29-12.2 0-17.5 9.65-25.5 18.29-25.5.75 0 4.62.8 5.51.8a2.762 2.762 0 0 0 2.78-2.6c0-2.3-3.06-3.2-5.5-3.2-4.49 0-20.06 4.4-26.11 6.1-9.32 2.6-10.34 2.9-13.19 2.9-.408 0-2.378-.6-2.658-.3zm46.85 4.6a8.089 8.089 0 0 0-1.7-.3c-.2 0-.95 0-.95.4a1.43 1.43 0 0 0 .61.9 17.44 17.44 0 0 1 4.49 5.4c.68 1.6 1.43 3.6 3.06 3.6.88 0 1.97-.7 1.97-2.5.002-3.3-3.468-6.2-7.478-7.5zm-8.77 2.8c-.61-.1-1.36-.1-1.36.3a5.057 5.057 0 0 0 .68 1.2c2.18 2.8 2.65 3.4 3.4 5.3 1.09 2.6 1.7 3.9 2.92 3.9a2.742 2.742 0 0 0 2.38-2.8c.002-2.1-2.238-6.3-8.018-7.9zm25.93-5.7a.691.691 0 0 0-.34.7c0 2.7 5.65 5.6 7.14 5.6 1.16 0 6.12-2.4 7.28-2.7a87.386 87.386 0 0 1 12.03-2.7c1.36 0 1.36.4 1.36 4 0 3.5 0 3.9-1.9 4.2-6.6 1-6.6 8.5-6.6 9.4 0 5.4 3.27 8.9 6.94 8.9.2 0 1.22-.2 1.43-.2a.84.84 0 0 1 .68 1c0 2.9-2.04 7.3-3.81 10-.48.7-3.26 3.9-3.26 4.1s.2.2.34.2c2.1 0 12.37-8.4 12.37-21.6a21.939 21.939 0 0 0-1.97-9.2 8.7 8.7 0 0 1-.89-4.4c0-6 .14-6.9 1.09-7.3 1.29-.6 5.71-.7 7.35-.7 1.29 0 7.61.6 9.04.6 2.38 0 3.67-.6 3.67-2.4 0-2.3-2.99-2.6-3.88-2.6-.54 0-3.4.3-4.08.3a16.5 16.5 0 0 1-5.98-1.3c-4.01-1.7-5.98-2.8-5.98-4.3 0-.4.27-1.8.27-2.1 0-2.2-2.65-3.4-5.64-3.4-.41 0-1.43 0-1.43.4a15.96 15.96 0 0 0 1.15 1.9 41.142 41.142 0 0 1 .96 9.3c0 1.8-.41 1.8-3.95 2.4-4.96.9-13.8 2.4-18.49 2.4-.948 0-4.218-.5-4.898-.5zm32.1-8c.61-.1 5.16 3.1 5.16 3.6 0 1-4.42 1.2-4.69 1.2-.95 0-1.22-.2-1.22-1.3.002-1.8.272-3.3.752-3.5zm-4.63 21.5a13.354 13.354 0 0 1 .89 4.8c0 1.1-.07 5.1-2.72 5.1-1.77 0-4.42-1.6-4.42-5.4 0-3.5 2.17-6.3 3.87-6.3a2.851 2.851 0 0 1 2.382 1.8zm33.33 14c-3.06 0-7.55 2.3-7.55 7.4a7.551 7.551 0 1 0 7.552-7.4zm-.07 1.9a5.665 5.665 0 0 1 5.78 5.7 5.676 5.676 0 0 1-11.35-.2 5.469 5.469 0 0 1 5.572-5.5z" fill-rule="evenodd"/></svg>