<svg id="pc_interview-title.svg_pc_png_interview-title.png" data-name="pc/interview-title.svg,pc/png/interview-title.png" xmlns="http://www.w3.org/2000/svg" width="721.786" height="152.4"><defs><style>.cls-4{fill:#12374a}</style></defs><path id="に聞いてみました_" data-name="に聞いてみました！" d="M716.133 18388.2c0-5.3 3.894-13.9 4.543-15.2 1.121-2 1.121-2 1.121-2.7 0-2.1-2.478-7.5-5.192-7.5a.4.4 0 0 0-.472.3 7.935 7.935 0 0 0 .354 1.1 14.423 14.423 0 0 1 .59 4.2 20.107 20.107 0 0 1-1 6.1c-2.007 7.4-2.479 9.1-2.479 12.9 0 5.6 2.715 15.7 6.373 15.7a2.026 2.026 0 0 0 1.947-2 6.143 6.143 0 0 0-.708-2.6 10.872 10.872 0 0 1-.944-3.1c0-1.4 1.357-8.3 1.357-9 0-.1 0-.7-.295-.7s-.472.5-.826 1.5c-1.3 3.6-1.829 4.6-2.832 4.6-.947 0-1.537-1.8-1.537-3.6zm30.565-21.8c-.59 0-.768 0-2.538.7a24.632 24.632 0 0 1-6.49.8 19.46 19.46 0 0 1-4.013-.3 16.052 16.052 0 0 0-1.652-.4.332.332 0 0 0-.413.3c0 .7 3.658 4.3 10.326 4.3.708 0 7.258 0 7.258-2.8a2.991 2.991 0 0 0-2.476-2.6zm2.537 29.3c-.236 0-4.367.4-5.193.5-1.475.1-3.6.1-5.133.1-2.183 0-4.6-.1-6.314-1a10.138 10.138 0 0 0-1.416-.8c-.295 0-.295.5-.295.6 0 1.1 1.534 2.6 1.829 2.9 1.239 1.2 3.423 2.7 9.205 2.7 8.261 0 10.031-.7 10.031-3 0-.7-.472-2-2.714-2zm21.909-36a4.151 4.151 0 0 1-2.3-.5 22.417 22.417 0 0 0-2.6-.9c-.3 0-.3.3-.3.5 0 .4.236 2 .236 2.3.118 1.9.177 3.4.177 7.1 0 20.3-.059 22.6-.236 36.5 0 .3-.059 1.8-.059 2.1 0 1 .118 2.6 1.712 2.6a2.854 2.854 0 0 0 2.006-1.1 4.838 4.838 0 0 0 .59-2.9c0-2.3-.236-12.5-.236-14.6-.059-4.4-.059-10.7-.059-15.2 0-1.7.472-1.9 1.947-1.9h8.379c.885 0 1.416 0 1.711.7.413 1 .649 1.5 1.593 1.5 2.537 0 2.537-2.3 2.537-3.1 0-.7-.177-3.8-.177-4.5s0-4.7.059-5c.118-.2.885-1.1 1-1.3a2.177 2.177 0 0 0 .295-.9c0-.8-2.3-2.5-3.128-2.5a4.275 4.275 0 0 0-1.829.9 2.829 2.829 0 0 1-1.357.2h-9.972zm9.5 7.7c1.652 0 1.652.3 1.652 3.5 0 1.2-.767 1.2-1.652 1.2h-8.91c-1.652 0-1.652-.3-1.652-3.5 0-1.2.767-1.2 1.652-1.2h8.91zm0-6.1c1.652 0 1.652.2 1.652 2.2 0 2.1 0 2.3-1.652 2.3h-8.91c-1.652 0-1.652-.2-1.652-2.2 0-2.1 0-2.3 1.652-2.3h8.91zm16.817-1.6a6.108 6.108 0 0 1-1.535-.2c-.118-.1-2.773-1.1-2.891-1.1a.878.878 0 0 0-.708 1c0 1 .354 5.4.354 6.3 0 1.4-.059 7.3-.059 8.4 0 1 .3 1.9 1.534 1.9a2.97 2.97 0 0 0 2.537-1.4c.354-.8.413-.9 1.948-.9h8.968c1.3 0 1.948 0 1.948 1.7 0 4 0 22.5-.118 25.9-.059 2.2-.177 3-2.833 3-.531 0-2.891-.3-3.363-.3-.118 0-.472 0-.472.3 0 .5 3.894 2.2 4.484 2.8a17.421 17.421 0 0 0 1.417 2 .914.914 0 0 0 .767.2 5.971 5.971 0 0 0 2.714-1.1c1.239-.9 1.475-2.8 1.475-4.3s-.3-8.3-.3-9.7c-.059-2.4-.059-16.6-.059-19.9 0-1.5.059-7.9.059-9.2 0-1.5 0-2 .354-2.6a11.486 11.486 0 0 0 1.416-1.6c0-.9-2.655-3.5-3.894-3.5-.708 0-.826.2-1.947 1.6a1.961 1.961 0 0 1-1.771.7h-10.03zm.708 6.2c-1.653 0-1.653-.1-1.653-2 0-2.4 0-2.6 1.653-2.6h9.676c1.653 0 1.653.2 1.653 2 0 2.4 0 2.6-1.653 2.6h-9.676zm-.059 6.2c-1.594 0-1.594-.1-1.594-2.6 0-1.7 0-2 1.594-2h9.854c1.593 0 1.593.2 1.593 2.6 0 1.7 0 2-1.593 2h-9.854zm-21.715 9.3a.788.788 0 0 0 .532.4c.295 0 2.3-.2 2.714-.2a1.264 1.264 0 0 1 1.475 1.5v14.6c0 1.4-.472 1.4-2.183 1.4-.649 0-3.895-.2-4.19-.2-.177 0-.472 0-.472.3 0 .7 2.065 5.6 2.951 5.6.354 0 1.593-1.4 1.947-1.6.236-.1 8.556-1.9 10.208-2.3 1.357-.3 4.13-1.1 4.189-1.1.59 0 .885.4.885 1.3 0 .3-.059 3.8-.059 4.1 0 1.7 0 2.7 1.416 2.7a2.51 2.51 0 0 0 2.656-2.7c0-1.5-.3-8.8-.3-10.4-.059-2.4-.059-2.8-.059-11.6 0-1.6.649-1.7 1.829-1.7h1.829c2.006 0 3.186 0 3.186-.8s-2.832-3.4-3.894-3.4c-.59 0-.708.2-2.065 1.7-.826.9-1.121.9-3.777.9H785.9c-2.773 0-5.192 0-8.083-.2-.413 0-2.184-.2-2.6-.2a.438.438 0 0 0-.236.1.673.673 0 0 0 .236.4zm9.913 11.2c-1.062 0-1.711 0-1.711-1.3v-2.4c0-1.3.649-1.3 1.711-1.3h6.609c1.062 0 1.711 0 1.711 1.3 0 .5-.059 2.4-.059 2.7-.059.8-.295 1-1.652 1h-6.609zm-.059-6.5c-1.593 0-1.593-.3-1.593-2.5 0-2 .118-2.1 1.593-2.1h6.786c1.475 0 1.652.1 1.652 2.1 0 2.2 0 2.5-1.652 2.5h-6.786zm6.609 8c1.357 0 1.711.2 1.711 1.6 0 2.4 0 2.6-1.534 2.8-2.36.2-4.779.4-7.2.4-1.3 0-1.3-.6-1.3-2 0-2.6 0-2.8 1.77-2.8h6.55zm36.442-27.6c-.118 0-.354 0-.354.2a7.763 7.763 0 0 0 .472 2 17.385 17.385 0 0 1 .413 3.4c0 1.6-.826 8.8-.826 10.5 0 11.3 7.435 17.4 11.211 17.4a2.056 2.056 0 0 0 2.243-1.8 12.68 12.68 0 0 0-.473-1.9 8.338 8.338 0 0 1-.354-2.4 16.752 16.752 0 0 1 .768-4.5 6.715 6.715 0 0 0 .177-1.2.363.363 0 0 0-.295-.4c-.473 0-1.476 1.4-1.83 2-1.77 2.9-2.006 3.2-3.009 3.2-1.829 0-4.9-4.3-4.9-10.2a21.033 21.033 0 0 1 1.416-7.7c.59-1.7.708-1.8.708-2.3.003-1.6-2.652-6.3-5.367-6.3zm28.146 5.4c-.3 0-.531.1-.531.3 0 .4 2.36 2.2 2.832 2.7 3.128 3.1 3.128 5.6 3.128 10.5 0 .7 0 3.9 2.891 3.9 2.832 0 2.95-2.8 2.95-3.9a14.98 14.98 0 0 0-5.251-11.3 11.912 11.912 0 0 0-6.019-2.2zm22.96-1.6c-.708.8 2.065 4.8 5.015 4.8a4.085 4.085 0 0 0 2.065-.8c1.889-1 14.162-6.3 17.525-6.3.118 0 .354 0 .354.1a14.221 14.221 0 0 1-1.416 1.3c-8.556 7.6-8.615 20.1-8.615 22.7 0 2.8 0 12.6 12.1 12.6.354 0 6.845 0 6.845-3.1 0-1.4-1.121-2.2-2.95-2.2-.472 0-4.721.4-5.606.4-3.481 0-7.2-.7-7.2-10.6 0-15.2 8.378-22.1 15.872-22.1.708 0 4.071.6 4.839.6a2.308 2.308 0 0 0 2.36-2.2c0-2-2.655-2.8-4.721-2.8-3.953 0-17.406 3.8-22.658 5.3-8.084 2.3-8.969 2.5-11.506 2.5-.297 0-2.067-.5-2.303-.2zm73.073-4.6a8.421 8.421 0 0 1-.767 2.7c-.295.5-7.671 11.6-9.028 13.8a2.035 2.035 0 0 1-1.475 1.2c-6.195 2.2-11.447 6.7-11.447 11.7 0 1.5.885 4.7 3.894 4.7 3.718 0 4.721-2.2 9.8-13 1-2.1 1.122-2.3 4.78-2.3a25.236 25.236 0 0 1 10.857 2.6c3.245 1.6 3.245 1.9 3.245 2.4a10.27 10.27 0 0 1-1.77 3.4c-3.422 5.3-6.313 7.7-12.155 11.7a9.211 9.211 0 0 0-1.121.8c0 .2.413.2.472.2a22.878 22.878 0 0 0 6.372-2.4c7.14-3.7 9.854-7.8 11.566-10.9a1.01 1.01 0 0 1 .826-.7c.59 0 2.3 1.5 2.419 1.5 4.13 3.6 4.779 4.1 5.959 4.1a2.339 2.339 0 0 0 2.184-2.3c0-3.1-5.37-5.8-7.671-7.1-1-.5-1.357-.7-1.357-1.4 0-.2.826-4.9.826-5.1a9.251 9.251 0 0 0 1.3-2.3c0-2.3-5.134-3.2-5.311-3.2-.235 0-.649 0-.649.3s.355 2.9.355 3.4-.355 5.4-1.122 5.4a1.942 1.942 0 0 1-.944-.3 51.483 51.483 0 0 0-11.152-2.3c-.708-.1-4.012 0-4.779 0a.552.552 0 0 1-.59-.4c0-.2 4.425-8 8.674-11.9 3.068-2.9 3.6-3.6 3.6-4.8 0-.9-.885-3.6-4.78-3.6-.944 0-2.773.2-5.664 2-3.54 2.2-4.249 2.3-6.137 2.3-.3 0-1.652-.2-2.006-.2s-.472.2-.472.6c0 .2 1.652 4.4 3.835 4.4 1.535 0 3.777-2 4.544-2.8.944-.8 3.422-2.9 4.189-2.9a.749.749 0 0 1 .7.7zm-12.1 20.2a.279.279 0 0 1 .236.3c0 .3-3.835 9-7.081 9a1.552 1.552 0 0 1-1.534-1.8c0-3.4 6.259-7.5 8.383-7.5zm67.9-23.6a41.429 41.429 0 0 1-.35 5.2c-.12.6-.71.9-1.95.9a10.369 10.369 0 0 1-5.72-1.6c-.18-.1-1.6-.9-1.655-.9a.392.392 0 0 0-.236.4c0 2.3 3.721 5.3 7.911 5.6.94.1 1.23.1 1.23.4 0 0-.47 7.7-.53 7.9-.41 1.1-4.36 1.1-5.78 1.1a22.235 22.235 0 0 1-7.139-1 16.588 16.588 0 0 0-2.242-.8c-.177 0-.177.1-.177.2a6.278 6.278 0 0 0 1.711 2.7c2.655 2.5 6.787 2.4 8.147 2.4.76 0 4.3-.3 5.13-.3.59 0 .59.4.59.9.06 1.6.12 5.6.12 6.7 0 2 0 2.2-.65 2.2-.41 0-2.6-.2-3.13-.2-7.02 0-10.62 2.8-10.62 6.3 0 2.4 2.006 6.4 7.55 6.4 4.84 0 8.79-3.2 10.03-6 .3-.6.42-.9.77-.9.65 0 2.95 1.7 4.13 3.2 2.13 2.5 2.36 2.8 3.19 2.8a2.33 2.33 0 0 0 2-2.5c0-2.8-3.77-5.9-8.38-7.8-1.23-.4-1.23-.7-1.47-2.6-.06-.6-.71-7.4-.71-8.5 0-.6.18-.7 2.01-1.3 2.71-.9 9.26-3.6 9.26-5.7 0-1.3-1.53-1.4-3.95-1.6-.3 0-1.54-.3-1.83-.3-.12 0-.3 0-.3.2s.24.9.24 1.1c0 1.8-4.25 3-4.9 3-.76 0-.76-.3-.76-1.7 0-2.4.23-5.5.29-5.7.06-.9.18-1 .65-1.1 1.65-.5 5.66-1.7 5.66-3.9 0-.9-1.12-1.1-1.71-1.1a6.414 6.414 0 0 0-2.12.5 4.751 4.751 0 0 1-1.65.5.241.241 0 0 1-.24-.3 13.83 13.83 0 0 1 .89-3.9c.17-.4 1.47-2.5 1.47-3.1 0-1.2-3.19-2.7-4.78-2.7-.35 0-1.47 0-1.47.4 0 .1.35.7.41.9a11.2 11.2 0 0 1 1.061 3.6zm-1.41 35.7c.23.5-.3 1.9-1.36 2.9a10.027 10.027 0 0 1-5.84 2.2c-1.655 0-4.724-.8-4.724-3 0-3.4 6.194-3.4 6.314-3.4 1.061 0 5.191.3 5.611 1.3zm38.06-38.4a.678.678 0 0 0-.82.6s.59 1.4.64 1.6a6.992 6.992 0 0 1 .54 2.8c0 1.7-.54 6.5-.77 8.5-1.24 11.5-1.36 12.7-1.36 16.4 0 11.8 3.66 16.3 11.33 16.3 11.09 0 19.83-9.5 19.83-10.2a.289.289 0 0 0-.3-.3c-.23 0-4.72 2.5-5.6 2.9a28.908 28.908 0 0 1-12.4 3.1c-7.9 0-9.02-5.3-9.02-11.3a143.424 143.424 0 0 1 2.47-21 27.816 27.816 0 0 0 1.13-3.3c.001-1.4-2.599-6.1-5.669-6.1zm44.29 41.6c0 .6.18 2.6 1.59 2.6 1.13 0 3.25 0 7.32-12.3 1.24-3.8 1.3-3.9 4.31-16.8.23-1 .47-1.1 2.48-1.6 3.89-1.1 8.91-2.8 8.91-6.1a1.683 1.683 0 0 0-1.95-1.8c-.3 0-1.59.1-1.83.1-.59 0-5.31-1-5.31-2.1 0-.3.65-1.5.65-1.8 0-.7-2.07-3.1-4.72-3.1-1.54 0-2.66.7-2.66 1.3a10.1 10.1 0 0 0 1.66 2.2 8.361 8.361 0 0 1 .7 3.7c0 .4-.17 4.4-.65 4.8s-3.3.5-4.18.5a21.956 21.956 0 0 1-5.26-.6 7.382 7.382 0 0 0-1.35-.5.2.2 0 0 0-.24.2c0 .6 1.18 2.2 3.07 3.2a11.2 11.2 0 0 0 5.25 1c1.89 0 2.12 0 2.12.6a79 79 0 0 1-7.78 21.7c-1.829 3.5-2.129 4.1-2.129 4.8zm14.34-32.5c.29-1.4.29-1.6.53-2.8a.682.682 0 0 1 .65-.7c.65 0 3.84 1.3 3.84 1.9 0 .8-4.49 2.4-4.78 2.4-.359 0-.299-.4-.239-.8zm6.73 8.4a1 1 0 0 0 .53.1c.23 0 1.59-.2 1.94-.2a31.127 31.127 0 0 1 4.25-.3c.89 0 5.08.1 5.08 1 0 .6-3.07 2.9-3.07 3.3 0 .2.18.2.29.2a13.158 13.158 0 0 0 2.48-.8 10.351 10.351 0 0 1 4.37-.9c.47 0 2.77.1 3.3.1a1.411 1.411 0 0 0 1.71-1.4c0-2.6-4.24-4.2-9.85-4.2-6.309 0-11.449 2.3-11.029 3.1zm-2.66 15.7c-.47 0-.82 1.3-.82 2.6 0 7.5 7.96 9.9 17.52 9.9 5.02 0 7.2-.3 7.2-2 0-2-2.72-3-4.72-3-.95 0-5.43.5-6.43.5-4.49 0-10.86-1.2-12.1-6.3-.059-.2-.409-1.7-.649-1.7zm50.07 13.6a3.274 3.274 0 0 0 3.19-3.2 3.19 3.19 0 1 0-6.38 0 3.233 3.233 0 0 0 3.191 3.2zm0-45.2a3.084 3.084 0 0 0-3.07 3.1c0 1.1.89 6.6 1 7.8a191.236 191.236 0 0 1 1.01 22.6c0 1.5.06 2.3 1.06 2.3s1.06-.8 1.06-2.4a205.643 205.643 0 0 1 .95-22.5c.17-1.6 1.06-6.5 1.06-7.8a3.123 3.123 0 0 0-3.069-3.1z" transform="translate(-440.094 -18257)" fill-rule="evenodd"/><path id="愛用者" d="M473.736 18381.5c-.625 0-1.339 0-1.339-.7a3.849 3.849 0 0 1 2.5-2.5c.446-.1 1.963-.6 1.963-1.4 0-.5-2.767-1.4-2.767-2a.441.441 0 0 1 .447-.3c1.07 0 5.71.1 6.692.1 11.421 0 16.685-3.6 16.685-6.4 0-.8-.357-1.2-2.766-4.5a8.92 8.92 0 0 1-1.071-3.3c0-.6-.356-.6-.446-.6-.178 0-.267 0-.446 1.1-.357 2.7-1.517 5.7-3.837 6.9-1.963 1.1-9.815 1.2-12.313 1.2-8.923 0-8.923-1.1-8.923-2.5 0-.3 0-5.1.089-5.2.09-.4 1.7-1.7 1.7-2.1 0-1.7-7.228-3.4-7.5-3.4a.639.639 0 0 0-.8.6 4.46 4.46 0 0 0 .713 1.1 17.785 17.785 0 0 1 .179 4c0 .9 0 8.2.089 8.4a5.037 5.037 0 0 0 4.461 3.8c.982.2 1.964.3 1.964 1.3 0 2.2-8.923 17-25.787 23-.179.1-1.249.4-1.517.5a.365.365 0 0 0-.179.3.449.449 0 0 0 .536.5c6.246 0 18.559-6.9 24.091-12.1a5.8 5.8 0 0 1 2.231-1.7c.625 0 .8.1 2.409 2.3a49.317 49.317 0 0 0 5 5.3c1.606 1.5 1.784 1.6 1.784 2.1 0 1.4-11.688 6.2-12.759 6.7a164.681 164.681 0 0 1-18.649 5.9s-1.517.3-1.517.6.357.3.446.3c6.782 0 23.646-3.4 35.335-9.5a4.266 4.266 0 0 1 1.963-.6 3.611 3.611 0 0 1 1.873.7 58.081 58.081 0 0 0 15.972 5.9 75.127 75.127 0 0 0 10.8 1.8c.892 0 .981-.2 2.32-2.4 1.07-1.7 1.517-1.9 5.443-4.8a.728.728 0 0 0 .446-.6.241.241 0 0 0-.268-.3c-.089 0-.625.2-.714.2a40.725 40.725 0 0 1-6.87.5c-12.135 0-23.824-3.2-23.824-4.4 0-.5.178-.5 1.606-1.7 1.784-1.3 2.141-1.7 7.674-7.5a3.993 3.993 0 0 1 3.123-1.4c.267 0 1.427-.1 1.427-1a2.062 2.062 0 0 0-.535-.9c-.536-.3-3.034-1.6-3.569-1.9-.357-.2-3.3-1.9-3.48-1.9-.536 0-.8.4-1.7 1.4a3.158 3.158 0 0 1-2.587 1.1h-15.798zm14.811 2.4c.982 0 1.607 0 1.607.9s-6.514 8-8.388 8c-2.231 0-10.618-7-10.618-8a1.01 1.01 0 0 1 1.249-.9h16.15zm18.292-31.1c.535 0 1.249 0 1.249.8 0 .7-3.212 5.2-3.212 5.8 0 .2 0 .4.178.4a6.486 6.486 0 0 0 1.071-.7c.8-.4 5.175-3.4 8.388-3.4 2.141 0 5-.1 5-1.6 0-.9-.267-1.2-3.033-3.6-.8-.7-4.373-3.8-5-3.8-.268 0-.357.2-1.428 2.1-.981 1.6-1.695 1.7-3.212 1.7h-14.277c-.268 0-.625 0-.625-.4 0-.8 5.086-4.4 7.049-5.4.535-.3 4.1-1.3 4.1-2s-.357-.9-3.391-3.3c-.8-.6-2.588-2-2.588-2.6a.607.607 0 0 1 .536-.5c.267-.1 8.03-.8 8.655-.8.535 0 3.123.2 3.747.2.8 0 2.5 0 2.5-1a1.075 1.075 0 0 0-.536-.8c-.981-.7-9.726-6.5-10.35-6.5a7.646 7.646 0 0 0-1.606 1.1c-2.856 1.7-12.671 4.3-22.932 5.6-9.636 1.1-33.193 3.3-33.46 3.3-.8 0-1.071.3-1.071.6 0 .7 7.763.7 8.477.7.8 0 4.55-.2 5.353-.2 2.41 0 3.748 3.3 4.819 6.1 1.963 4.8 2.141 5.4 3.569 5.4.892 0 2.5-1.8 2.5-3.8 0-4.1-4.64-6.3-5.978-6.9a.743.743 0 0 1-.714-.5c0-.2 0-.4.446-.4 2.588-.1 12.4-.4 12.492-.4.8 0 1.606 0 1.963.8a19.238 19.238 0 0 1 1.071 4.9c.089 2.6.268 5.6 2.766 5.6a3.388 3.388 0 0 0 3.123-3.2c0-2.1-1.606-4.2-2.945-5.4-.357-.4-2.5-2-2.5-2.5 0-.4.535-.4.714-.4 1.517 0 5.175-.3 8.655-.5.981-.1 5.71-.5 6.781-.5.892 0 1.785 0 1.785 1.3a26.293 26.293 0 0 1-1.874 6.2c-2.409 5.6-2.677 6.2-4.372 6.2h-37.383c-1.516 0-1.695-.4-2.676-2.3-.357-.8-1.517-3.1-2.053-3.1-.446 0-.446.5-.446 1.3a14.445 14.445 0 0 1-3.747 9.9c-1.785 2-2.32 2.8-2.32 4.3a3.187 3.187 0 0 0 3.212 3.2c.624 0 5.443-.2 6.424-8.8.268-2.2.536-2.2 2.588-2.2h54.518zm-51.217 5.1a22.005 22.005 0 0 0-1.16 3.3 10.285 10.285 0 0 1-2.855 3.9c-3.926 4-4.283 4.3-4.283 5.8a3 3 0 0 0 2.855 3.2c.536 0 6.693 0 6.693-11.1 0-.7-.179-6.2-1.25-5.1zm19.006-2.8a1.547 1.547 0 0 0 .446.7c1.16 1.3 3.569 4.8 5.354 7.2 1.338 1.9 1.517 2.1 2.23 2.1.893 0 2.142-1.3 2.142-3.2 0-1.7-.8-2.8-2.588-3.9a26.95 26.95 0 0 0-7.227-3.2c-.179 0-.446.1-.357.3zm22.485 1.1a2.459 2.459 0 0 0 .625 1.3c5.175 7 5.8 7.8 7.5 12.5 1.338 3.6 1.785 4.7 3.391 4.7 1.338 0 3.033-1.7 3.033-4.6 0-7.6-14.008-14.1-14.187-14.1s-.362 0-.362.2zm68.831 22.1c2.141 0 2.766.9 2.766 2.9 0 3.7-.536 20.2-.536 23.5 0 1.1.089 2.3 1.874 2.3a6.8 6.8 0 0 0 4.194-1.6c.624-.7.892-1.3.892-3 0-6.8 0-14.2-.089-20.6-.09-2.6.357-3.5 2.766-3.5h18.113c.982 0 2.32 0 2.677 1.6.178.8.178 7 .178 8.2 0 11.3-.089 12.3-3.569 12.3-1.249 0-6.87-.5-8.03-.5a.983.983 0 0 0-1.071.6c0 .5 1.338.8 1.606.9.8.1 6.246 2 7.5 5.2.625 1.8.714 2 1.517 2 8.3 0 8.3-9.9 8.3-13.8 0-7.6-.535-40.6-.535-47.9 0-8.5.267-8.5 2.32-9.6a2.188 2.188 0 0 0 1.427-1.7c0-1.4-6.513-5.1-7.227-5.1-.625 0-.714.2-2.231 1.8-.624.6-1.16 1.1-3.123 1.1h-43.639c-2.855 0-3.926-.5-7.049-2.1-.982-.4-3.48-1.5-4.461-1.5-.536 0-.625.2-.625.7 0 .2.625 5.3.714 6.3.624 6.6.8 21.2.8 28.2 0 22.3-1.517 30.1-5.175 37.7-.357.7-2.5 4.2-2.5 4.3a.459.459 0 0 0 .536.4c1.338 0 11.242-9.5 12.759-25.1.357-3.3.357-4 2.945-4h15.972zm-15.883-24.6c-2.677 0-2.766 0-2.766-10.2 0-7.4 0-7.7 2.677-7.7h16.239c2.677 0 2.677.2 2.677 8.9 0 9 0 9-2.677 9h-16.15zm-.089 22.2c-2.588 0-2.588-1.7-2.588-3.1 0-2 0-14.6.089-15.1a2.215 2.215 0 0 1 2.5-1.6h16.239c2.677 0 2.677.4 2.677 8.3 0 1.2 0 9.7-.357 10.5a2.38 2.38 0 0 1-2.32 1h-16.24zm45.774-19.8c2.766 0 2.855.2 2.855 13.3 0 5.9 0 6.5-2.677 6.5h-18.2c-.625 0-1.963 0-2.41-1.1-.357-.7-.357-8.8-.357-10.2 0-8.2 0-8.5 2.767-8.5h18.024zm-.447-20.3c2.856 0 2.945 0 2.945 11.8 0 5.1 0 6.1-2.766 6.1h-17.756c-2.767 0-2.767-1.5-2.767-3.4 0-2.1 0-12.4.09-12.9.357-1.4 1.517-1.6 2.677-1.6H595.3zm85.141 68.2a1.952 1.952 0 0 1 2.231 1.6c.357 2.2.446 3 2.766 3 1.071 0 4.818-.8 4.818-4.7 0-1.1-.446-12.5-.446-14.7 0-1.5 0-9.3.179-10.1a1.706 1.706 0 0 1 1.249-1.4c.714-.3 1.963-.7 1.963-1.7 0-.7-5.532-6.7-6.96-6.7-.892 0-1.249.6-3.034 3.1a2.49 2.49 0 0 1-2.409 1.1H654.3c-.357 0-1.428 0-1.428-.7 0-.4.357-.4 1.16-.8 6.692-2.9 15.079-8.5 16.061-9.1 5.264-3.6 5.889-3.9 9.1-3.9h21.5c2.945 0 4.729 0 4.729-1.3 0-1.1-7.763-5.9-8.3-5.9-.8 0-1.071.4-3.569 3.3-1.339 1.6-1.785 1.6-5.711 1.6h-5.8c-.714 0-1.963 0-1.963-.8a.947.947 0 0 1 .267-.5 32.272 32.272 0 0 1 2.5-2.4c3.747-3.7 8.833-8.6 11.332-9.1 2.23-.5 2.676-.5 2.676-1.7 0-1.8-6.513-7.3-7.049-7.3-.446 0-.8.4-1.249 1.2a79.384 79.384 0 0 1-13.295 15.3c-4.015 3.6-5.8 5.3-8.3 5.3s-2.766 0-3.123-.8c-.268-.4-.268-6.7-.268-7.8 0-2.3 0-3.9 2.588-3.9h9.19c2.767 0 4.73 0 4.73-1.1 0-1-6.782-6.1-7.853-6.1-.446 0-.624.3-2.409 2.3-1.873 2.3-2.23 2.5-3.48 2.5-2.587 0-2.676-.2-2.676-1.3 0-5.1.535-6.5 1.695-7.4 1.071-.8 1.338-1 1.338-1.5 0-.6-.624-1.1-2.141-1.5-5.8-1.7-6.424-1.9-6.96-1.9a.881.881 0 0 0-1.071 1.1c0 2.6.447 6.9.447 9.6 0 1.1 0 2.9-2.5 2.9h-2.409c-4.194 0-7.852 0-12.224-.2-.536-.1-3.3-.4-3.926-.4a.32.32 0 0 0-.357.3 1 1 0 0 0 .446.6l1.7 2a1.189 1.189 0 0 0 .8.6c.268 0 1.607-.3 1.874-.3.892-.1 3.48-.2 11.243-.2h2.766c2.5 0 2.588 1.7 2.588 3.1 0 9.4-.536 9.4-2.856 9.4h-15.52c-4.194 0-7.852-.2-12.225-.4-.624 0-3.39-.3-4.015-.3-.178 0-.268 0-.268.2a.73.73 0 0 0 .357.6l1.785 2.1a1.056 1.056 0 0 0 .714.5c.267 0 1.606-.2 1.963-.2.8-.1 3.39-.2 11.242-.2h23.913c.893 0 1.964 0 1.964.6 0 2.3-21.147 13.8-35.335 17.8-3.747 1-4.818 1.3-4.818 1.7a1.083 1.083 0 0 0 1.16.6 46.534 46.534 0 0 0 7.941-1.2c1.785-.3 11.243-3 11.511-3 1.338 0 1.517 0 1.517 7.2 0 1.3 0 13.7-.268 19.8 0 .5-.268 4-.268 4.2 0 1.4.357 2.3 2.32 2.3 2.142 0 4.551-.8 5.175-2.6.625-2 .8-2.4 2.409-2.4h25.073zm.357-28.2c2.5 0 2.5.7 2.5 7.1 0 2.9 0 4.3-2.5 4.3h-25.34c-2.856 0-2.856-.8-2.856-6 0-4.2 0-5.4 2.5-5.4h25.7zm-25.251 25.9c-2.588 0-2.945-.2-2.945-9 0-1.8.09-3.2 2.856-3.2h24.983c2.677 0 2.856 1.4 2.856 3.2 0 8.6-.179 9-2.945 9h-24.8z" transform="translate(-440.094 -18257)" fill="#978462" fill-rule="evenodd"/><path id="長方形_29" data-name="長方形 29" fill="#fff" stroke="#12374a" stroke-linejoin="round" stroke-width="2" d="M239.906 1h239v47h-239z"/><path id="長方形_31" data-name="長方形 31" class="cls-4" d="M93.906 26h148v1h-148z"/><path id="長方形_31-2" data-name="長方形 31" class="cls-4" d="M477.906 26h148v1h-148z"/><path id="岡本さんインタビュー" d="M706.61 18278.1c0-1.5-1.842-2.3-3.616-2.9l-.09.2a8.626 8.626 0 0 1 1.392 2.8 1.313 1.313 0 0 0 1.1 1.2 1.263 1.263 0 0 0 1.214-1.3zm7.185 2a.378.378 0 0 0-.224-.3l-1.482-1.2a.5.5 0 0 0-.4-.2.463.463 0 0 0-.337.3l-.876 1.1H708.2c1.46-1.5 1.639-1.8 2.762-2.9.629-.1.876-.2.876-.5a.418.418 0 0 0-.292-.3l-2.852-1.3a16.183 16.183 0 0 1-1.168 5h-2.807c-1.078 0-2.156 0-3.211-.1l.382.8a8.983 8.983 0 0 1 2.425-.2h2.088v6.9h-1.639v-4c.606-.4.629-.4.629-.6s-.18-.2-.359-.3l-2.673-.6c.292 1.2.337 1.4.337 4.4 0 .4-.067 2.5-.067 3a.69.69 0 0 0 .786.8 1.173 1.173 0 0 0 1.347-1.3v-.8h5.367c-.022.8-.045 1.2.853 1.2a1.078 1.078 0 0 0 1.325-1.2c0-.1-.067-2.2-.067-2.4 0-.1.022-1.9.022-2.3.562-.3.607-.3.607-.5a.408.408 0 0 0-.427-.4l-2.695-.5c.27.7.4 1.1.4 3.6v1.9h-1.617v-6.9h4.918c.143 0 .35 0 .35-.2zm3.436-5.7a.493.493 0 0 0-.269-.4l-1.707-1.1a.687.687 0 0 0-.337-.2.515.515 0 0 0-.292.2l-.763 1h-12.194l-3.054-1.2c0 .1.247 1.9.247 1.9.045.8.045 1.2.045 4.8 0 6.1-.023 8-.112 10.2-.023.3-.158 1.9-.158 2.2a.851.851 0 0 0 .966.9 1.364 1.364 0 0 0 1.55-1.5c0-.8-.09-4.8-.09-5.7 0-3.5.022-7.7.045-11.1h12.979c.023.9.045 1.6.045 2.9 0 1.6-.09 9.6-.09 11.4 0 .9 0 1.2-.538 1.2-.068 0-2.268-.1-2.965-.2l-.022.2a3.7 3.7 0 0 1 2.582 3 6.134 6.134 0 0 0 2.381-.9c.988-.7.988-1.4.988-2.6 0-2.3-.157-13-.068-14.1a1.421 1.421 0 0 0 .831-.9zm24.426 11.8v-.2c-5.592-1.9-8.174-6.7-9.117-8.4h7.972c.135 0 .337 0 .337-.2a.505.505 0 0 0-.225-.4l-1.819-1.4a.61.61 0 0 0-.426-.3.5.5 0 0 0-.337.3l-1.235 1.5h-4.761c0-.4.045-2.4.067-2.9.809-.5.9-.5.9-.8 0-.1-.022-.2-.381-.3l-3.144-.8a21.772 21.772 0 0 1 .426 4.8h-5.434c-.247 0-1.841-.1-3.211-.2l.359.9a7.2 7.2 0 0 1 2.448-.2h4.446c-.4 1.1-2.358 5.8-7.994 10.8l.09.2a20.553 20.553 0 0 0 4.85-3.2 23.172 23.172 0 0 0 4.424-5.1c-.022 2.2-.022 2.4-.09 6h-.718c-.247 0-1.842 0-3.212-.1l.382.8a11.209 11.209 0 0 1 2.425-.2h1.121c-.022.5-.224 4.7-.224 4.8a.834.834 0 0 0 1.01 1c1.6 0 1.6-1 1.6-1.3 0-.5-.09-3.8-.113-4.5h3.616c.157 0 .359 0 .359-.2a.444.444 0 0 0-.225-.3l-1.347-1.3a.858.858 0 0 0-.4-.2.771.771 0 0 0-.337.3l-.988 1.2h-.674c0-.9-.067-5.5-.067-6.5 0-.4 0-.5.045-2.2h.067c.27 1.2 2 7.2 6.894 10.8a4 4 0 0 1 2.641-2.2zm18.8-1.9a1.431 1.431 0 0 0-.2-.7 28.328 28.328 0 0 0-3.661-4c-.18-.1-1.1-1-1.3-1.1 1.055-.5 4.154-1.9 4.154-3.1a.97.97 0 0 0-1.011-.9c-.2 0-1.167.2-1.369.2a7.62 7.62 0 0 1-1.235-.1l-.023.1c.7.4.764.5.764.6 0 .4-1.3 1.2-2.718 1.9-1.437-1.3-2.492-2.2-2.492-2.7a.584.584 0 0 1 .337-.5c.134-.1.92-.2 1.078-.3a6.215 6.215 0 0 0-1.909-.7 2.454 2.454 0 0 0-1.909 2.1c0 .5.225.8 1.145 1.3a14.489 14.489 0 0 1 2.178 1.4 11.309 11.309 0 0 1-3.682.6 4.093 4.093 0 0 1-2.9-1 3.1 3.1 0 0 0 3.391 2.7 12.736 12.736 0 0 0 4.738-1.1 23.209 23.209 0 0 1 3.66 4.3.32.32 0 0 1-.314.2c-.09 0-.2-.1-.27-.1a27.63 27.63 0 0 0-3.57-.3 7.484 7.484 0 0 0-4.693 1.2 3.922 3.922 0 0 0-1.438 3.1c0 1.5 1.236 4.4 8.242 4.4.651 0 2.156 0 2.156-1 0-.3-.225-1.6-2.268-1.6-.315 0-1.909.1-2.269.1-.853 0-4.85 0-4.85-2.7 0-.9.808-2.6 3.975-2.6a10.306 10.306 0 0 1 5.21 1.4c1.28.9 1.414.9 1.729.9.673 0 1.325-.9 1.325-2zm23.518-.9l-.2-.1c-2.807 4.8-5.637 5-6 5-1.1 0-1.347-.9-1.5-2.1-.315-2.3-.517-3.6-2.965-3.6-1.527 0-2.268.5-4.019 1.7a40.884 40.884 0 0 1 4.985-7.1c.943-1.1 1.033-1.2 1.033-1.6 0-.9-1.482-2.3-3.1-2.3a2.969 2.969 0 0 0-1.594.5c1.145.3 1.8.8 1.8 1.4a2.881 2.881 0 0 1-.314.9c-1.011 2.1-4.514 8.5-6.063 10.8-.831 1.3-1.1 1.8-1.1 2.7s.27 1.5 1.011 1.5a1.618 1.618 0 0 0 1.3-1.2c1.123-2.7 2.7-6.5 5.39-6.4 1.3 0 1.414 1.4 1.5 2.8.135 2.2.27 4.5 3.212 4.5 4.132 0 6.019-5.3 6.625-7.4zm17.887-7.7a4.111 4.111 0 0 0-3.5-2.6c-.314 0-.516.1-.785.1a2.125 2.125 0 0 1 1.167 1.6c0 1-6.153 8.2-10.8 11.1l.09.2a22.4 22.4 0 0 0 7.882-4.7 10.4 10.4 0 0 1 .247 2.9c0 .9-.09 3.8-.18 4.3-.022.2-.224 1.2-.224 1.4 0 .5.516 1.9 1.437 1.9.629 0 .988-.7.988-1.7 0-1.8-.135-4.9-.135-6.8a5.91 5.91 0 0 1 .112-1.4 4.656 4.656 0 0 0 .225-.8.431.431 0 0 0-.247-.4c-.292-.2-.606-.4-.9-.6.606-.6 3.3-3.4 3.84-3.7a1.168 1.168 0 0 0 .784-.8zm13.8 2c0-2.4-3.48-2.8-4.738-2.8a7.4 7.4 0 0 0-1.684.2 8.778 8.778 0 0 1 3.615 2.6c.944 1.1 1.168 1.3 1.617 1.3a1.288 1.288 0 0 0 1.192-1.3zm9.163-.9h-.135a40.157 40.157 0 0 1-7.1 6.7c-1.842 1.4-5.008 3.4-5.637 3.4-.09 0-.876 0-1.819-1.5a2.643 2.643 0 0 0-.224 1c0 1.4 1.841 3.6 2.807 3.6.314 0 .381-.1 1.01-.7.135-.2 3.526-2.8 4.177-3.3 4.096-3.3 6.316-7.1 6.923-9.2zm17.81 1.5a6.019 6.019 0 0 0-2.021-2.2 7.917 7.917 0 0 0-1.258.7 18.941 18.941 0 0 1-3.75.4 6.291 6.291 0 0 1 .606-.8 1.016 1.016 0 0 0 .494-.8c0-.8-1.706-1.8-2.807-1.8a1.947 1.947 0 0 0-1.392.5c.584.1 1.415.4 1.415 1.1 0 .8-2.695 5.6-5.592 8.6l.09.1a15.255 15.255 0 0 0 4.02-2.9 8.8 8.8 0 0 1 2.4 2.5 1.557 1.557 0 0 0 .944.8 24.351 24.351 0 0 1-7.658 6.7l.067.2c5.974-1.5 9.5-5.3 12.419-10.7.92-1.7.92-1.7 1.414-1.9s.611-.3.611-.5zm-3.3-.3a20.119 20.119 0 0 1-2.471 5c-.381-1.8-3.009-2.1-4.087-2.1a30.025 30.025 0 0 0 2.268-2.9 1.772 1.772 0 0 0 1.056.5c.181 0 2.899-.5 3.235-.5zm25.658-3.5c0-1.8-3.323-2-3.66-2a2.189 2.189 0 0 0-.831.1 6.833 6.833 0 0 1 2.47 1.7c.719.8.988 1 1.37 1a.732.732 0 0 0 .652-.8zm-2.2 1.3a1.994 1.994 0 0 0-1.527-1.6 8.21 8.21 0 0 0-2.852-.4 8.366 8.366 0 0 1 2.492 2c.651.7.786.9 1.19.9a.839.839 0 0 0 .698-.9zm.044 13c0-1.3-2.649-1.5-2.784-1.5a2.167 2.167 0 0 0-1.011.3 11.119 11.119 0 0 1-4.064.6c-3.369 0-3.369-.4-3.279-5a31.156 31.156 0 0 0 7.68-2.6 3.35 3.35 0 0 1 .921-.4c1.055-.3 1.257-.4 1.257-.9a3.974 3.974 0 0 0-3.346-2.4c-.381 0-.628.1-.9.1a1.872 1.872 0 0 1 .988 1c0 .6-3.054 3.2-6.579 4.7.045-.5.157-3.1.2-3.7a6.245 6.245 0 0 1 .157-1.2c.045-.2.516-1 .516-1.2 0-.9-2.268-1.9-3.166-1.9a2.436 2.436 0 0 0-1.639.8c1.325.5 1.751.9 1.864 1.9.044.3.044 5.6.044 6.4 0 4.5.113 6.4 6.266 6.4 1.212 0 5.255-.1 6.2-.6a.892.892 0 0 0 .676-.8zm21.826-.3c0-.7-1.55-1.8-2.066-1.8-.157 0-.943.2-1.123.2-.359 0-2.2.1-2.627.1.157-.5.808-3.2.965-3.8a2.25 2.25 0 0 1 .472-1.2c.606-.4.606-.4.606-.6a4.29 4.29 0 0 0-1.976-1.9 5.116 5.116 0 0 0-.966.6 19.829 19.829 0 0 1-4.221.6 1.791 1.791 0 0 1-1.662-1 3.333 3.333 0 0 0-.135.8 2.683 2.683 0 0 0 1.572 2.1c.157 0 .9-.4 1.078-.4a14.886 14.886 0 0 1 3.413-.8c-.112 1.2-.382 3.7-.786 5.7-.337.1-1.751.2-2.919.3-.539.1-3.009.4-3.413.4a2.6 2.6 0 0 1-2.111-1.2 4.118 4.118 0 0 0-.135.9c0 1.2 1.729 2.4 2.021 2.4.225 0 1.19-.5 1.415-.5a21.094 21.094 0 0 1 6.6-1 17.047 17.047 0 0 1 4.02.3 4.483 4.483 0 0 0 1.325.3.584.584 0 0 0 .654-.5zm20.949-5.9c0-1.2-1.886-1.6-2.784-1.6a3.166 3.166 0 0 0-.9.3c-.539.1-8.4.2-9.791.2-2.515 0-2.92-.1-3.661-1.8a4.379 4.379 0 0 0-.471 1.5c0 1.1 1.369 2.8 2.133 2.8a2.284 2.284 0 0 0 .808-.2 44.046 44.046 0 0 1 6.288-.5c1.617 0 4.6 0 5.906.1.09 0 .651.1 1.033.1a1.225 1.225 0 0 0 1.44-.9z" transform="translate(-440.094 -18257)" fill="#12374a" fill-rule="evenodd"/></svg>