<svg id="pc_love-title.svg_pc_png_love-title.png" data-name="pc/love-title.svg,pc/png/love-title.png" xmlns="http://www.w3.org/2000/svg" width="861.16" height="149.56"><defs><style>.cls-1{fill:#fff;fill-rule:evenodd}</style></defs><path id="愛され続けて_冠達成しました_" data-name="愛され続けて 冠達成しました！" class="cls-1" d="M410.9 8508.8c-.336 0-.721 0-.721-.38a1.971 1.971 0 0 1 1.346-1.35 1.355 1.355 0 0 0 1.058-.77c0-.29-1.49-.77-1.49-1.06a.222.222 0 0 1 .24-.19c.577 0 3.077.05 3.606.05 6.154 0 8.991-1.92 8.991-3.42 0-.43-.192-.67-1.49-2.45a4.757 4.757 0 0 1-.577-1.78c0-.33-.193-.33-.241-.33-.1 0-.144 0-.24.62-.192 1.44-.817 3.08-2.068 3.7-1.057.58-5.288.68-6.635.68-4.808 0-4.808-.63-4.808-1.35 0-.19 0-2.79.048-2.84.048-.19.914-.91.914-1.1 0-.91-3.895-1.83-4.039-1.83a.341.341 0 0 0-.433.29 4.441 4.441 0 0 0 .385.63 9.187 9.187 0 0 1 .1 2.11c0 .48 0 4.42.048 4.57a2.721 2.721 0 0 0 2.4 2.02c.529.09 1.058.19 1.058.72 0 1.15-4.808 9.13-13.895 12.36a4.662 4.662 0 0 1-.817.28.2.2 0 0 0-.1.2.234.234 0 0 0 .289.24c3.365 0 10-3.71 12.982-6.54a3.569 3.569 0 0 1 1.2-.92c.336 0 .432.1 1.3 1.25a27.848 27.848 0 0 0 2.692 2.89c.866.77.962.82.962 1.1 0 .77-6.3 3.37-6.876 3.61a77.6 77.6 0 0 1-10.048 3.17 2.044 2.044 0 0 0-.818.34c0 .14.192.14.241.14 3.654 0 12.741-1.82 19.039-5.09a2.083 2.083 0 0 1 1.058-.34 1.854 1.854 0 0 1 1.01.39 30.978 30.978 0 0 0 8.606 3.17 41.9 41.9 0 0 0 5.818.96c.481 0 .529-.1 1.25-1.25.577-.96.818-1.06 2.933-2.59a.434.434 0 0 0 .24-.34.126.126 0 0 0-.144-.15c-.048 0-.336.1-.384.1a21.3 21.3 0 0 1-3.7.29c-6.539 0-12.837-1.73-12.837-2.41 0-.24.1-.28.865-.91.962-.72 1.154-.91 4.135-4.04a2.342 2.342 0 0 1 1.683-.77.692.692 0 0 0 .769-.53 1.2 1.2 0 0 0-.288-.48c-.289-.14-1.635-.86-1.923-1.01-.193-.09-1.779-1.01-1.875-1.01a1.469 1.469 0 0 0-.914.73 1.664 1.664 0 0 1-1.394.62H410.9zm7.982 1.25c.529 0 .865 0 .865.48s-3.51 4.33-4.519 4.33c-1.2 0-5.722-3.75-5.722-4.33a.544.544 0 0 1 .673-.48h8.7zm9.856-16.73c.289 0 .673 0 .673.43 0 .39-1.731 2.79-1.731 3.13 0 .09 0 .19.1.19a3.517 3.517 0 0 0 .577-.34c.432-.24 2.788-1.87 4.519-1.87 1.154 0 2.693-.05 2.693-.87 0-.48-.145-.62-1.635-1.92a15.314 15.314 0 0 0-2.693-2.07c-.144 0-.192.15-.769 1.15a1.583 1.583 0 0 1-1.731.92h-7.693c-.144 0-.336 0-.336-.19 0-.44 2.74-2.41 3.8-2.94.289-.14 2.212-.67 2.212-1.06s-.192-.52-1.827-1.77a4.769 4.769 0 0 1-1.395-1.4.314.314 0 0 1 .289-.29c.144-.04 4.327-.43 4.664-.43.288 0 1.683.1 2.019.1.433 0 1.346 0 1.346-.53a.592.592 0 0 0-.288-.44 65.831 65.831 0 0 0-5.577-3.5 4.74 4.74 0 0 0-.866.57c-1.538.92-6.827 2.36-12.357 3.03-5.192.63-17.885 1.78-18.03 1.78-.432 0-.577.19-.577.34 0 .38 4.183.38 4.568.38.433 0 2.452-.09 2.885-.09 1.3 0 2.019 1.77 2.6 3.26 1.058 2.6 1.154 2.89 1.923 2.89a2.114 2.114 0 0 0 1.347-2.02c0-2.21-2.5-3.41-3.222-3.7a.532.532 0 0 1-.384-.29c0-.1 0-.19.24-.19 1.394-.1 6.683-.24 6.731-.24a.979.979 0 0 1 1.058.43 10.392 10.392 0 0 1 .577 2.64c.048 1.4.144 3.03 1.49 3.03a1.869 1.869 0 0 0 1.683-1.73 4.45 4.45 0 0 0-1.586-2.93 5.884 5.884 0 0 1-1.347-1.35c0-.19.289-.19.385-.19.817 0 2.789-.19 4.664-.29.529-.05 3.077-.29 3.654-.29.481 0 .962.05.962.73a14.807 14.807 0 0 1-1.01 3.36c-1.3 2.98-1.443 3.32-2.356 3.32h-20.153c-.817 0-.913-.19-1.442-1.25-.193-.43-.818-1.69-1.106-1.69-.24 0-.24.29-.24.73a7.731 7.731 0 0 1-2.02 5.33c-.961 1.11-1.25 1.54-1.25 2.31a1.709 1.709 0 0 0 1.731 1.73c.337 0 2.933-.09 3.462-4.71.144-1.2.288-1.2 1.394-1.2h29.377zm-27.6 2.74a11.48 11.48 0 0 0-.625 1.78 5.614 5.614 0 0 1-1.539 2.11c-2.115 2.12-2.307 2.31-2.307 3.13a1.6 1.6 0 0 0 1.538 1.68c.289 0 3.606 0 3.606-5.96.004-.39-.092-3.32-.669-2.74zm10.241-1.49a.793.793 0 0 0 .241.34c.625.72 1.923 2.59 2.884 3.89.722 1.01.818 1.15 1.2 1.15a1.631 1.631 0 0 0 1.154-1.73 2.329 2.329 0 0 0-1.394-2.11 14.342 14.342 0 0 0-3.894-1.73c-.091 0-.235.04-.187.19zm12.116.57a1.222 1.222 0 0 0 .337.68c2.789 3.8 3.125 4.23 4.039 6.78.721 1.92.961 2.5 1.827 2.5.721 0 1.635-.92 1.635-2.45 0-4.14-7.549-7.6-7.645-7.6s-.188 0-.188.09zm34.774 1.16c1.01-.24 5.818-2.02 6.106-2.02 1.395 0 7.789 7.16 7.789 10.29a1.542 1.542 0 0 1-1.683 1.54c-.673 0-.961-.1-3.942-.96a17.186 17.186 0 0 0-5.193-.87c-5.337 0-10.241 2.89-10.241 7.65a7.07 7.07 0 0 0 4.135 5.96c1.635.82 3.75 1.49 7.741 1.49.865 0 5.481 0 5.481-2.55a2.036 2.036 0 0 0-2.356-1.88c-.1 0-4.183.44-5 .44-4.087 0-7.116-1.2-7.116-4.28 0-1.78 2.067-5.58 6.731-5.58a17.654 17.654 0 0 1 8.174 2.5c2.885 1.59 3.221 1.78 4.087 1.78a3 3 0 0 0 3.173-3.22c0-4.91-6.3-10.48-8.8-12.7a1.357 1.357 0 0 1-.577-.91c0-.33.144-.43 1.443-1.25.673-.38 2.933-2.11 2.933-3.36a1.674 1.674 0 0 0-1.635-1.74c-.529-.04-2.981 0-3.558 0a8.074 8.074 0 0 1-4.52-1.1c-2.211-1.3-2.692-1.59-3.7-1.59a2.321 2.321 0 0 0-2.4 2.31c0 1.39 1.779 3.03 3.077 3.94.625.44 2.212 1.54 2.212 1.97 0 .77-3.269 1.64-5.1 1.64a12.054 12.054 0 0 1-4.952-1.3 12.536 12.536 0 0 0-1.971-.91.347.347 0 0 0-.385.43c0 .91 2.116 4.62 7.068 4.62a13.775 13.775 0 0 0 2.983-.34zm2.693-6.97c-.385-.29-2.116-1.69-2.116-2.84a.891.891 0 0 1 .914-.86c.528 0 .913.19 4.086 2.11 1.539.92 1.683 1.06 1.683 1.68 0 1.06-1.49 1.54-1.779 1.54-.621 0-2.111-1.1-2.784-1.63zm36.513-6.49c-.336 0-1.106.04-1.106.48a18.719 18.719 0 0 0 1.443 2.4 16.181 16.181 0 0 1 1.25 7.02c0 .87-.048 1.2-.337 1.4-.577.43-2.4.96-5.721 1.97a3.872 3.872 0 0 0-2.4 3.75c0 .81.048 1.15 1.105 3.84a25.469 25.469 0 0 1 1.106 3.61 4.617 4.617 0 0 1-.625 1.59c-.481.86-2.115 3.7-2.115 5.38a1.758 1.758 0 0 0 1.731 1.78c1.442 0 2.211-1.25 2.644-2.69.337-1.16.385-1.3.577-1.3.481 0 1.779 4.66 1.875 5.29.481 2.55.673 3.65 2.164 3.65s1.875-1.1 1.875-2.69a29.277 29.277 0 0 0-.577-4.47 44.042 44.042 0 0 1-.385-6.2c0-4.86.481-6.83 3.7-9.86 3.174-2.98 7.261-6.39 10.674-6.39 2.981 0 2.981 2.45 2.981 3.31a79.452 79.452 0 0 1-1.3 10.05 20.508 20.508 0 0 0-.577 4.52c0 1.3 0 7.02 5.674 7.02 5.1 0 7.741-5.58 7.741-6.25a.364.364 0 0 0-.289-.38 2.339 2.339 0 0 0-1.01.81 6.4 6.4 0 0 1-5.048 2.41c-3.269 0-3.558-2.6-3.558-4.47a41.477 41.477 0 0 1 .769-7.22 42.342 42.342 0 0 0 .577-6.15c0-3.41-1.442-5.72-4.712-5.72-4.471 0-10.289 5.48-12.789 7.88a3.633 3.633 0 0 1-1.2 1.01.127.127 0 0 1-.144-.14 6.409 6.409 0 0 1 1.154-1.73 2.333 2.333 0 0 0 .432-1.25 1.07 1.07 0 0 0-.721-.96 1.442 1.442 0 0 1-1.009-1.69 33.606 33.606 0 0 1 .24-3.46c.048-.43.481-2.55.481-2.93.002-.87-2.979-3.22-4.566-3.22zm.769 14.57a6.61 6.61 0 0 1-.865 2.16c-.24.48-2.837 5.53-2.933 5.77a.865.865 0 0 1-.529.48c-.433 0-1.587-3.61-1.587-5.29 0-2.4 5-3.41 5.385-3.41a.52.52 0 0 1 .533.29zm-.865 15.91a7.868 7.868 0 0 1-1.683-3.46c0-.53 1.394-3.7 1.875-3.7.241 0 .241.28.241.43 0 .09-.1 1.44-.1 1.68.007 4.71.007 5.05-.329 5.05zm48.015-8.37c0 1.11-.384 11.93-.433 12.41 0 .53-.288 3.22-.288 3.56 0 1.05.192 2.02 1.635 2.02 2.067 0 2.067-.87 2.067-4.96 0-1.54-.1-10.14-.1-12.02 0-1.2 0-3.51.337-3.99.384-.53 2.644-.96 2.836-.96a.729.729 0 0 1 .722.48c.336.87.721 1.78 1.73 1.78 1.251 0 1.3-1.87 1.3-2.21 0-3.22-5.193-5.58-5.578-5.58a.169.169 0 0 0-.192.15 4.11 4.11 0 0 0 .673 1.01 9.286 9.286 0 0 1 1.3 2.83c0 .44-.481.48-1.538.58s-3.991.19-4.664.19c-.192 0-.818 0-.818-.33a1.286 1.286 0 0 1 .529-.77 62.524 62.524 0 0 0 5.049-5.77c2.26-2.89 2.5-3.27 3.125-3.51.914-.39 1.3-.53 1.3-1.01 0-.72-4.183-2.36-4.615-2.36a1.366 1.366 0 0 0-.241.82c-.529 3.6-4.327 10.14-4.471 10.43-1.395 2.36-1.731 2.45-2.6 2.45a10.335 10.335 0 0 1-3.077-.38c-.336-.1-1.827-.58-1.971-.58a.357.357 0 0 0-.337.43c0 .1.385 1.26.625 1.98.385 1.1.77 2.59 1.443 2.59a8.5 8.5 0 0 0 1.25-.77 16.472 16.472 0 0 1 4.183-.91c.725 0 .825.48.825 2.4zm29.329-11.15c1.491 0 2.5 0 2.5-.77 0-.82-2.788-2.69-3.413-2.69-.481 0-.529.19-1.058 1.1-.529.96-1.154 1.06-2.885 1.06-1.539 0-1.779 0-1.875-.82-.048-.38-.048-2.11-.048-2.83a.876.876 0 0 1 1.058-1.06h7.837c1.683 0 2.5 0 2.5-.87 0-1.15-3.414-2.93-3.51-2.93-.288 0-.673.29-1.442 1.44-.722 1.06-1.106 1.06-3.318 1.06h-2.115c-1.058 0-1.058-.19-1.058-2.21a1.469 1.469 0 0 1 .384-1.25c.914-.91 1.01-1.01 1.01-1.35 0-.91-4.375-1.73-4.519-1.73a.4.4 0 0 0-.481.48c0 .19.288 1.25.336 1.49a11.182 11.182 0 0 1 .241 2.7c0 1.68 0 1.87-.673 1.87a119.1 119.1 0 0 1-7.068-.19c-.241 0-1.3-.15-1.539-.15a.169.169 0 0 0-.192.15c0 .09 0 .09.192.29l1.01 1.2a.585.585 0 0 0 .433.24c.144 0 .769-.1.913-.1 1.683-.09 2.4-.14 6.058-.14.673 0 .914.29.914 1.39 0 2.98 0 3.32-1.346 3.32-.866 0-4.953-.34-5.866-.34a.17.17 0 0 0-.193.15 2.312 2.312 0 0 0 .193.24l1.058 1.25a.5.5 0 0 0 .384.24 12.313 12.313 0 0 0 1.346-.15c1.924-.09 4.328-.09 5.674-.09h8.558zm-14.809 4.28c-.625 0-.769-.34-1.3-1.59a1.11 1.11 0 0 0-.529-.67c-.192 0-.24.19-.24.62a9.36 9.36 0 0 1-.529 2.22c-.24.67-1.779 4.03-1.779 4.75a1.865 1.865 0 0 0 1.827 1.88c2.212 0 2.308-3.12 2.308-5 0-.48.1-.91.673-.91h13.415c.913 0 1.538 0 1.538.86a2.844 2.844 0 0 1-.192.92 15.223 15.223 0 0 0-.866 1.87.191.191 0 0 0 .193.24 3.821 3.821 0 0 0 1.2-.91 5.858 5.858 0 0 1 2.788-1.49c1.443-.29 1.924-.39 1.924-1.01 0-.96-3.366-3.22-3.558-3.22a5.751 5.751 0 0 0-1.106 1.05c-.337.34-.673.39-2.933.39h-12.83zm-16.491-8.22a.584.584 0 0 1 .24-.44 17.064 17.064 0 0 1 1.347-1.25c.721-.67 3.99-4.42 4.856-5.09.24-.2 1.682-.72 1.682-1.06 0-1.01-3.894-2.36-4.567-2.36-.289 0-.289.1-.529 1.21-.337 1.73-3.221 8.17-4.327 8.17-.289 0-3.847-1.97-4.664-1.97a.109.109 0 0 0-.1.14c0 .1 1.875 1.83 2.067 2.07a15.218 15.218 0 0 1 2.356 3.56c1.25 2.5 1.394 2.59 2.164 2.59.961 0 1.49-1.39 1.49-2.16a3.421 3.421 0 0 0-.817-1.92 6.783 6.783 0 0 1-1.194-1.49zm-3.414 16.39c-.24-.09-.673 0-.673.29s.192 1.64.192 1.92c0 3.27-1.49 9-2.067 10.73-.1.33-.721 2.01-.721 2.16 0 .05 0 .19.1.19.625 0 3.173-5.05 4.279-7.74.24-.53 1.154-3.13 1.442-3.85a11.873 11.873 0 0 0 1.251-1.49c0-.62-3.27-2.06-3.799-2.21zm15.819 8.22c0-2.83-5.145-7.74-5.722-7.74a.264.264 0 0 0-.192.24 9.027 9.027 0 0 0 .529.92 22.673 22.673 0 0 1 1.682 6.05c.337 2.17.577 3.23 1.635 3.23 1.254 0 2.072-1.88 2.072-2.7zm13.126-11.78c-.866 0-.866.34-.866.63 0 .43.289 2.5.289 2.93.144 2.41.144 6.78.144 11.49 0 4.62 2.019 4.62 7.212 4.62 2.5 0 3.317-.24 4.183-.82a2.686 2.686 0 0 0 1.2-1.87 1.686 1.686 0 0 0-.433-1.01 5.429 5.429 0 0 1-1.154-2.46 13.215 13.215 0 0 0-.625-2.88c-.144 0-.192.14-.529 1.49-1.106 4.52-1.394 4.66-3.75 4.66-1.731 0-2.837-.09-3.125-1.39a72.074 72.074 0 0 1-.193-7.41c0-4.37.193-4.47.722-4.85a1.483 1.483 0 0 0 1.057-1.15c.006-1.26-3.84-1.98-4.128-1.98zm-7.213-.09a.415.415 0 0 0-.48.48 7.641 7.641 0 0 0 .144.82c.048.62.192 1.58.192 2.83a24.891 24.891 0 0 1-1.634 9.38 10.412 10.412 0 0 1-5.818 6.2 4.463 4.463 0 0 0-1.25.72c0 .15.144.15.384.15a12.012 12.012 0 0 0 3.222-.82c1.683-.72 6.058-2.55 7.452-9.91.192-.96.769-5.96.914-6.25a8.592 8.592 0 0 0 1.154-1.15c.004-.72-3.121-2.45-4.276-2.45zm57.708-6.35c.145-.24.433-.38 1.924-1.11 1.105-.52 2.74-1.49 2.74-2.93 0-1.2-2.26-1.54-2.6-1.54-.481 0-.481.05-.962.73a2.024 2.024 0 0 1-1.25.76c-.384 0-.481-.38-.481-1.2a15.052 15.052 0 0 1 .145-2.5c.048-.33.769-1.78.769-2.16 0-.96-2.837-2.26-4.183-2.26a1.269 1.269 0 0 0-1.25.53 5.836 5.836 0 0 0 .673.96 22.267 22.267 0 0 1 .817 5.72c0 1.64-.192 1.83-.432 2.02-1.3.87-4.9.87-5.626.87a21.875 21.875 0 0 1-3.029-.29c-.336-.05-.817-.29-1.106-.29a.164.164 0 0 0-.144.19c0 1.01 2.116 3.32 6.827 3.32.385 0 2.5-.15 2.981-.15.77 0 .866.29.866 1.93 0 9.18-.337 13.85-4.52 19.28-.384.53-2.74 3.07-2.74 3.22s.144.14.24.14c.625 0 4.664-2.06 7.212-6.05 2.6-3.99 2.981-7.94 2.981-17.89a4.322 4.322 0 0 1 .152-1.3zm-25.434-11.01a.328.328 0 0 0-.385.39 4.137 4.137 0 0 0 .289.96 10.34 10.34 0 0 1 .481 3.27 30.862 30.862 0 0 1-.577 5.19c-1.106 6.97-1.2 8.99-1.2 10.87a24.664 24.664 0 0 0 1.3 8.07c.817 2.65 2.067 5.39 3.894 5.39a1.534 1.534 0 0 0 1.635-1.49 5.866 5.866 0 0 0-.577-1.93 4.205 4.205 0 0 1-.577-2.16 40.846 40.846 0 0 1 .914-6.3c.192-.86 1.153-5.05 1.153-5.43a.29.29 0 0 0-.192-.34c-.817 0-3.269 8.61-4.279 8.61-.577 0-1.106-2.74-1.106-4.91a32.49 32.49 0 0 1 1.587-9.03c.24-.73 1.731-4.24 1.731-5.05 0-2.89-2.789-6.11-4.087-6.11zm43.683 6.35c-.577.67 1.682 3.89 4.086 3.89a3.511 3.511 0 0 0 1.683-.62c1.539-.87 11.54-5.15 14.28-5.15.1 0 .289 0 .289.1a8.776 8.776 0 0 1-1.154 1.01c-6.972 6.2-7.02 16.39-7.02 18.51 0 2.26 0 10.29 9.856 10.29.289 0 5.578 0 5.578-2.55 0-1.15-.914-1.78-2.4-1.78-.385 0-3.847.29-4.568.29-2.837 0-5.866-.53-5.866-8.61 0-12.4 6.828-18.03 12.934-18.03.577 0 3.317.53 3.943.53a1.91 1.91 0 0 0 1.923-1.78c0-1.63-2.164-2.3-3.847-2.3-3.221 0-14.183 3.12-18.463 4.32-6.587 1.88-7.308 2.07-9.375 2.07-.241 0-1.683-.43-1.877-.19zm146.674-27.73c-1.914 0-2.067-.15-3.216-2.06a7.551 7.551 0 0 0-1.608-1.92l-.153.23c0 4.37 0 5.9-1.991 8.96a33.657 33.657 0 0 1-3.369 3.37 4.249 4.249 0 0 0-1.455 2.76c0 1.45 1.838 2.6 3.369 2.6 2.374 0 6.892-4.13 7.2-8.58.23-2.98.306-3.36 2.45-3.36h43.108c.766 0 1.838 0 1.838 1.07 0 .46-1.072 4.75-2.91 4.75-.612 0-3.216-1-3.752-1a.946.946 0 0 0-1.148 1c0 .45.536 2.75.612 3.21.077.61.307 4.82.307 5.21 0 2.07-1.379 2.07-2.45 2.07h-3.37c-4.287 0-8.269-.16-10.489-.24-.536-.07-2.91-.3-3.369-.3a.293.293 0 0 0-.307.15.855.855 0 0 0 .383.54l1.455 1.76a.923.923 0 0 0 .689.54c.153 0 1.991-.23 2.221-.23 3.062-.16 6.891-.16 9.035-.16h3.752c1 0 2.067 0 2.45.84a67.42 67.42 0 0 1 .229 7.36c0 12.94 0 14.39-.536 15.31s-1.148 1.99-8.039 1.99c-.842 0-1.149 0-1.149.31 0 .07 4.288 3.06 4.977 3.75a6.016 6.016 0 0 1 1.149 1.3 1.28 1.28 0 0 0 1.3.84c1.915 0 5.13-2.3 6.509-4.59.383-.69.689-1.23.689-9.96 0-2.37-.153-12.86-.153-15 0-2.07 1-2.15 2.373-2.15h6.2c2.527 0 4.135 0 4.135-1.07 0-1.53-5.36-5.82-6.279-5.82-.765 0-.842.38-1.99 3.52-.383 1.15-1.3 1.31-2.68 1.31-1.608 0-1.838-1.15-1.838-2.23 0-.84 0-3.9.306-4.36.23-.31 1.608-1.61 1.608-1.99 0-.15-.765-.92-.765-1.15 0-.61 2.909-2.68 6.508-2.68 3.139 0 3.522 0 4.364-.31a1.191 1.191 0 0 0 .843-1.22c0-1.68-7.5-6.36-8.04-6.36a9.939 9.939 0 0 0-2.067 1.53 3.9 3.9 0 0 1-2.374.46h-44.558zm7.121 29.64c.383 0 1.761 0 1.914 1.22.077.54 0 13.02 0 15.16 0 9.19.536 11.33 2.527 12.64 2.68 1.76 16.309 2.06 20.673 2.06 11.1 0 14.166-.07 16.386-.46 2.833-.53 7.887-2.83 7.887-4.9 0-.53-1.455-2.98-1.685-3.6a15.93 15.93 0 0 1-.689-5.12c0-.39.306-5.67.306-6.21 0-.38-.076-.76-.306-.76a3.917 3.917 0 0 0-.613 1.68 42.258 42.258 0 0 1-2.679 8.12c-2.6 5.21-3.446 5.97-18.989 5.97-1.608 0-3.676.08-13.706-.46-3.216-.15-4.365-1.07-4.365-4.44v-18.38c0-1.76.46-2.52 2.221-2.52h4.058c2.68 0 4.058 0 4.058-1.15 0-1.07-4.364-5.44-5.589-5.44-.843 0-3.216 3.91-4.059 4.29-.535.31-1.531.31-3.675.31h-7.657c-3.522 0-6.967-.16-10.49-.31-.459 0-2.756-.23-3.292-.23-.153 0-.306 0-.306.15a1.286 1.286 0 0 0 .306.54l1.455 1.76a1.057 1.057 0 0 0 .689.46c.459 0 3.905-.31 4.517-.31 2.221 0 2.221.62 2.221 6.97 0 4.83 0 10.95-5.36 19.22-.459.77-3.369 4.36-3.369 4.59a.169.169 0 0 0 .153.16c.536 0 11.256-5.13 12.94-19.45.153-1 .307-5.82.613-6.82.077-.38 1.608-1.53 1.608-1.91 0-.61-.383-.77-1.608-1.22a11.3 11.3 0 0 1-2.527-1.31c0-.3.383-.3.842-.3h5.59zm-4.211-15.16c-2.144 0-2.527 0-5.9-.16-.46-.07-2.68-.3-3.216-.3-.153 0-.23 0-.23.15a.491.491 0 0 0 .153.46l1 1.76a.556.556 0 0 0 .536.46 18.148 18.148 0 0 0 2.067-.23c1.838-.08 3.982-.08 5.36-.08h13.706c1.914 0 2.756 0 2.756-1.07 0-.92-4.364-5.21-4.977-5.21-.153 0-3.522 3.68-3.905 4.06a10.031 10.031 0 0 1-2.22.16h-5.13zm22.817 14.09c1.3 2.37 1.531 4.05 1.531 10.87 0 .92.46 2.22 1.762 2.22 1.531 0 3.445-1.53 3.445-4.6 0-4.82-5.283-9.26-6.585-9.26a.418.418 0 0 0-.306.15.955.955 0 0 0 .154.62zm94.321-3.14c-.306 0-.689 0-.689-.31 0-.38 3.6-4.21 4.594-4.82 1.225-.77 1.608-1.08 1.608-1.61 0-.69-3.063-2.61-3.063-2.84s.153-.23.613-.23h12.1c2.526 0 4.058 0 4.058-1.07 0-1.3-4.9-5.13-5.819-5.13-.69 0-.843.31-2.68 2.84-1 1.3-1.379 1.3-4.9 1.3H901.9c-2.373 0-2.373-.92-2.373-3.83 0-2.68 0-3.75 2.373-3.75h10.949c2.3 0 4.059 0 4.059-.77s-5.13-5.13-6.126-5.13c-.766 0-3.063 3.29-3.752 3.6-.612.31-1.608.31-3.752.31h-1.837c-.613 0-1.761 0-1.761-1.38 0-.61.153-3.14.536-3.45.919-.84 1.454-1.3 1.454-1.61 0-1.15-6.048-2.29-6.814-2.29-.383 0-.536.07-.536.61 0 .23.306 1.68.383 1.99.153 1.46.153 2.99.153 3.14 0 2.07-.153 2.99-2.374 2.99-2.909 0-6.355-.16-9.341-.31-.536 0-2.91-.23-3.446-.23a.194.194 0 0 0-.229.15.716.716 0 0 0 .306.54l1.455 1.76a.915.915 0 0 0 .689.46c.23 0 1.378-.15 1.608-.15 1.608-.16 5.053-.23 8.5-.23 2.833 0 2.833.3 2.833 4.67 0 1.83-.153 2.91-2.3 2.91h-4.441c-3.6 0-6.815 0-10.49-.23-.536 0-2.91-.31-3.446-.31a.2.2 0 0 0-.229.23.645.645 0 0 0 .306.46l1.531 1.76a.969.969 0 0 0 .613.54 16.289 16.289 0 0 0 1.684-.23c1.225-.08 4.212-.16 5.513-.16 1.991 0 2.221.46 2.91 2.38.23.61 2.22 6.74 2.22 6.89a.525.525 0 0 1-.536.54c-2.067 0-2.986 0-8.5-.23-.765 0-4.517-.31-4.824-.31-.229 0-.306.08-.306.15a.779.779 0 0 0 .306.54l1.532 1.76a.812.812 0 0 0 .689.46c.23 0 1.3-.15 1.608-.15.689-.08 2.909-.23 9.648-.23h4.9c2.3 0 2.3.61 2.3 6.2 0 1.91-1.455 1.91-2.45 1.91-1.914 0-3.982-.07-7.351-.23-.765 0-4.517-.3-4.824-.3-.229 0-.306 0-.306.15a1 1 0 0 0 .306.54l1.532 1.76a.833.833 0 0 0 .689.46c.153 0 1.914-.23 2.22-.23 2.451-.08 6.049-.16 7.887-.16 2.144 0 2.3.77 2.3 2.99 0 3.6 0 4.52-2.45 4.52h-2.45c-3.6 0-6.738-.16-10.49-.31-.46 0-2.833-.23-3.369-.23-.153 0-.307 0-.307.15a1.505 1.505 0 0 0 .383.54l1.455 1.68a.774.774 0 0 0 .689.54c.23 0 1.378-.15 1.608-.15.766-.08 2.986-.23 9.648-.23h2.756c1.608 0 2.3.38 2.3 2.53 0 .53-.153 2.98-.153 3.59 0 1.61.766 2.61 2.221 2.61 3.216 0 3.216-2.07 3.216-6.28 0-1.15 0-2.45 2.3-2.45h14.854c3.6 0 3.981 0 3.981-1 0-1.68-4.594-4.67-5.13-4.67-.689 0-.842.23-2.45 2.3-1 1.38-1.378 1.38-4.9 1.38h-6.509c-2.45 0-2.45-.92-2.45-4.52 0-1.84 0-2.99 2.374-2.99h8.346c2.6 0 4.058 0 4.058-.99 0-1.46-4.441-4.75-5.36-4.75-.689 0-.919.23-2.6 2.45-1 1.3-1.608 1.3-3.293 1.3h-1.837c-1.685 0-1.685-.53-1.685-2.91 0-4.51 0-5.2 2.757-5.2h13.859c3.6 0 3.981 0 3.981-.92s-3.828-4.75-5.13-4.75c-.689 0-.842.23-2.45 2.37-1.072 1.31-1.455 1.31-4.9 1.31h-3.982zm-10.873 0c-.459 0-.919 0-.919-.54a2.515 2.515 0 0 1 .383-1.07 3.9 3.9 0 0 0 .307-1.53c0-1.84-1.072-2.68-4.288-5.06-1-.76-1.149-.84-1.149-1.22s.536-.39 1-.39h13.476c.689 0 1.454 0 1.454 1.31a33.09 33.09 0 0 1-.842 6.66c-.459 1.68-.766 1.84-2.22 1.84h-7.2zm-21.669-15.39c0-2.99-2.526-6.28-5.666-8.35-3.216-2.22-8.5-3.06-9.265-3.06-.153 0-.612 0-.612.23 0 .38 2.6 2.22 3.063 2.68a30.058 30.058 0 0 1 6.967 8.8c1.225 2.37 2.068 3.37 3.216 3.37s2.301-1.53 2.301-3.67zm-14.088 17.68a1.057 1.057 0 0 0 .689.46c.612 0 4.441-.3 5.206-.3 2.144 0 2.144 1.07 2.144 2.9 0 2.23-.153 11.8-.153 13.79 0 4.51 0 4.67-3.445 7.58a30.3 30.3 0 0 1-5.59 3.98c-1.3.46-1.684.61-1.684 1.22 0 1.08 3.828 6.44 5.053 6.44.613 0 .766-.39 1.149-1.84 0-.23 7.2-12.25 7.427-12.48a.427.427 0 0 1 .383-.23c.842 0 2.22 3.83 2.6 4.44 5.283 8.73 18.147 8.73 27.794 8.73 3.752 0 20.368.07 21.822-1.15.46-.38 1.149-3.45 1.379-3.98a4.113 4.113 0 0 1 2.067-2.3.927.927 0 0 0 .459-.69.362.362 0 0 0-.459-.3c-.153 0-5.9 1.22-6.814 1.37a132.959 132.959 0 0 1-24.426 1.84c-20.6 0-22.741-4.36-22.817-12.4l-.077-13.25c0-1.15 0-2.22 1-2.53 1.532-.53 1.608-.61 1.608-1.37 0-1.53-3.6-5.06-4.594-5.06-.536 0-.689.16-1.914 1.69-.919 1.22-1.072 1.45-2.144 1.45-1.3 0-7.044-.46-8.193-.46a.181.181 0 0 0-.229.16.718.718 0 0 0 .306.53zm98.417 1.38c2.144 0 2.3 1.23 2.3 2.45 0 10.95-.383 13.55-.612 15.77-.613 4.75-1.991 5.44-3.676 5.44-1 0-5.436-.54-6.355-.54-.306 0-.612.08-.612.31 0 .31 4.134 2.45 4.823 2.99a6.45 6.45 0 0 1 1.761 2.52 1.212 1.212 0 0 0 1.149.77c6.662 0 7.887-8.19 8.116-16.62 0-.92.307-11.1.46-11.41.153-.38 1.761-1.68 1.761-2.06 0-.61-4.365-4.14-4.824-4.14-.536 0-1.991 1.84-2.3 2.07a3.514 3.514 0 0 1-1.991.46h-5.436c-2.221 0-2.221-1.3-2.221-2.22 0-1.53.077-7.66.153-9.11.154-1.69 1.532-1.69 2.221-1.69h17.458c2.067 0 2.22.77 2.986 5.29a89.238 89.238 0 0 0 7.274 23.81 1.624 1.624 0 0 1 .306.92c0 .92-4.518 6.43-9.648 11.02-1.3 1.15-8.346 6.67-8.346 6.9s.307.23.383.23c1 0 9.188-3.37 16.462-10.04.69-.61 3.676-3.82 4.059-3.82s.536.23 1.99 1.83c6.356 7.35 13.936 13.25 18.758 13.25a2.437 2.437 0 0 0 2.6-2.53c0-.53-.15-.76-1.07-2.98a5.73 5.73 0 0 1-.46-2.3c0-1.3 1.23-7.89 1.23-8.19 0-.16 0-.62-.23-.62a31.27 31.27 0 0 0-2.45 3.76c-1.69 2.83-2.911 4.9-4.136 4.9-2.909 0-12.787-10.57-12.787-11.64 0-.54 2.3-4.37 2.757-5.21 1-1.91 5.666-11.25 6.431-11.94.23-.23 1.455-1.08 1.685-1.3a1.619 1.619 0 0 0 .383-.92c0-.77-.306-1-2.833-2.38-2.986-1.68-3.293-1.83-3.6-1.83-.383 0-.613 1.14-.842 2.29-1 4.9-6.279 16.39-7.045 16.39-1.607 0-6.814-19.76-6.814-23.74 0-.92.612-1.15 1.455-1.15h24.275c2.52 0 4.13 0 4.13-1.07 0-.92-6.583-5.89-7.349-5.89-.842 0-2.91 3.82-3.522 4.36-.689.61-1.072.61-4.288.61h-13.241a1.942 1.942 0 0 1-1.991-.99c-.153-.39-1.072-8.2-1.072-9.57a3 3 0 0 1 .536-2.15 5.85 5.85 0 0 0 1.225-1.68c0-1.46-7.274-2.15-7.351-2.15-.536 0-.765.16-.765.62 0 .07.612 2.45.689 2.52.076.46 1.761 12.02 1.761 12.18a1.19 1.19 0 0 1-1.455 1.22h-17a12.147 12.147 0 0 1-2.91-.46c-1-.38-5.589-2.68-6.049-2.68-.229 0-.229.31-.229.46 0 .69.459 3.6.536 4.21.153 1.46.612 7.89.612 13.94a133.027 133.027 0 0 1-1.684 22.05 41.946 41.946 0 0 1-4.212 12.86 2.229 2.229 0 0 0-.306.92.346.346 0 0 0 .383.31c1.378 0 5.819-6.28 7.733-12.71a87.937 87.937 0 0 0 3.063-19.91 1.8 1.8 0 0 1 2.067-1.99h5.743zm27.565-30.93c-.153.15-.077.38.23.84a33 33 0 0 1 4.134 6.66c.536 1.53.842 2.45 1.914 2.45 2.068 0 2.757-1.53 2.757-3.14.004-5.44-8.725-7.2-9.031-6.81zm42.054 20.81a.6.6 0 0 0-.68.48c0 .04.49 1.15.53 1.3a6 6 0 0 1 .44 2.35c0 1.35-.44 5.29-.63 6.88-1.01 9.42-1.1 10.38-1.1 13.36 0 9.67 2.98 13.27 9.23 13.27 9.04 0 16.15-7.74 16.15-8.27a.228.228 0 0 0-.24-.24c-.19 0-3.85 2.02-4.57 2.36a23.668 23.668 0 0 1-10.09 2.5c-6.45 0-7.36-4.33-7.36-9.18a115.972 115.972 0 0 1 2.02-17.12 21.222 21.222 0 0 0 .91-2.69c.004-1.11-2.106-5-4.606-5zm52.55 2.26a33.809 33.809 0 0 1-.29 4.23c-.1.48-.58.72-1.59.72a8.459 8.459 0 0 1-4.66-1.3c-.15-.09-1.3-.77-1.35-.77a.327.327 0 0 0-.19.34c0 1.87 3.03 4.33 6.44 4.57.77.04 1.01.04 1.01.28 0 .05-.38 6.35-.43 6.49-.34.92-3.56.92-4.71.92a18.766 18.766 0 0 1-5.82-.87 12.466 12.466 0 0 0-1.83-.67c-.14 0-.14.1-.14.19a5.36 5.36 0 0 0 1.39 2.21c2.17 2.02 5.53 1.97 6.64 1.97.62 0 3.51-.23 4.18-.23.48 0 .48.28.48.72.05 1.29.1 4.52.1 5.48 0 1.63 0 1.78-.53 1.78-.34 0-2.12-.15-2.55-.15-5.72 0-8.66 2.21-8.66 5.1 0 1.97 1.64 5.19 6.16 5.19a9.3 9.3 0 0 0 8.17-4.86c.24-.52.34-.76.63-.76.53 0 2.4 1.39 3.36 2.59 1.73 2.07 1.93 2.31 2.6 2.31a1.859 1.859 0 0 0 1.63-2.02c0-2.26-3.07-4.81-6.82-6.35-1.01-.38-1.01-.57-1.2-2.16-.05-.48-.58-6.01-.58-6.92 0-.48.14-.53 1.63-1.06 2.21-.72 7.55-2.93 7.55-4.62 0-1.05-1.25-1.15-3.22-1.3-.24 0-1.25-.23-1.49-.23-.1 0-.24 0-.24.14s.19.72.19.86c0 1.54-3.46 2.5-3.99 2.5-.62 0-.62-.28-.62-1.39a46.078 46.078 0 0 1 .24-4.66c.04-.72.14-.77.53-.87 1.34-.43 4.61-1.39 4.61-3.17 0-.77-.91-.92-1.39-.92a5.812 5.812 0 0 0-1.73.39 5.876 5.876 0 0 1-1.35.43.227.227 0 0 1-.19-.29 11.107 11.107 0 0 1 .72-3.12 14.242 14.242 0 0 0 1.2-2.55c0-1.01-2.6-2.21-3.89-2.21-.29 0-1.21 0-1.21.33 0 .1.29.58.34.73a9.158 9.158 0 0 1 .874 2.98zm-1.16 29.04a2.815 2.815 0 0 1-1.1 2.35 7.958 7.958 0 0 1-4.76 1.78c-1.35 0-3.85-.57-3.85-2.4 0-2.74 5.05-2.74 5.14-2.74.874 0 4.244.19 4.574 1.01zm32.36-31.3a.592.592 0 0 0-.67.48c0 .04.48 1.15.53 1.3a6.191 6.191 0 0 1 .43 2.35c0 1.35-.43 5.29-.63 6.88-1.01 9.42-1.1 10.38-1.1 13.36 0 9.67 2.98 13.27 9.23 13.27 9.04 0 16.15-7.74 16.15-8.27a.222.222 0 0 0-.24-.24c-.19 0-3.84 2.02-4.56 2.36a23.673 23.673 0 0 1-10.1 2.5c-6.44 0-7.36-4.33-7.36-9.18a115.972 115.972 0 0 1 2.02-17.12 21.235 21.235 0 0 0 .92-2.69c.004-1.11-2.116-5-4.616-5zm37.34 33.89c0 .53.14 2.12 1.29 2.12.92 0 2.65 0 5.97-10 1.01-3.13 1.05-3.18 3.51-13.66.19-.86.38-.91 2.02-1.34 3.17-.87 7.26-2.26 7.26-4.96a1.379 1.379 0 0 0-1.59-1.49c-.24 0-1.3.1-1.49.1-.48 0-4.33-.82-4.33-1.73 0-.24.53-1.2.53-1.44 0-.58-1.68-2.55-3.85-2.55-1.25 0-2.16.62-2.16 1.1a7.609 7.609 0 0 0 1.35 1.78 6.726 6.726 0 0 1 .57 2.98c0 .34-.14 3.61-.53 3.95s-2.69.43-3.41.43a17.655 17.655 0 0 1-4.28-.53 9.992 9.992 0 0 0-1.1-.43.208.208 0 0 0-.2.19 4.667 4.667 0 0 0 2.5 2.6 9.329 9.329 0 0 0 4.28.86c1.54 0 1.73 0 1.73.48a64.7 64.7 0 0 1-6.34 17.7c-1.486 2.79-1.726 3.27-1.726 3.84zm11.68-26.44c.24-1.16.24-1.3.43-2.26.1-.48.24-.58.53-.58.53 0 3.13 1.06 3.13 1.54 0 .63-3.66 1.92-3.9 1.92-.286 0-.236-.28-.186-.62zm5.48 6.83a.762.762 0 0 0 .43.09c.2 0 1.3-.14 1.59-.19a29.227 29.227 0 0 1 3.46-.19c.72 0 4.14.05 4.14.77 0 .53-2.5 2.35-2.5 2.69 0 .14.14.14.24.14a8.624 8.624 0 0 0 2.02-.62 8.05 8.05 0 0 1 3.55-.77c.39 0 2.26.14 2.7.14a1.153 1.153 0 0 0 1.39-1.15c0-2.11-3.46-3.46-8.03-3.46-5.136 0-9.326 1.92-8.986 2.55zm-2.16 12.83c-.39 0-.68 1.01-.68 2.12 0 6.06 6.5 8.03 14.28 8.03 4.09 0 5.87-.24 5.87-1.64 0-1.58-2.21-2.4-3.85-2.4-.77 0-4.42.34-5.24.34-3.65 0-8.84-.92-9.85-5.1a3.891 3.891 0 0 0-.526-1.35zm42.15 11.01a2.6 2.6 0 1 0-2.6-2.59 2.61 2.61 0 0 0 2.604 2.59zm0-36.82a2.548 2.548 0 0 0-2.5 2.54c0 .87.72 5.39.81 6.35a156.185 156.185 0 0 1 .82 18.46c0 1.21.05 1.88.87 1.88s.86-.72.86-1.97a166.333 166.333 0 0 1 .77-18.32c.14-1.3.87-5.29.87-6.4a2.59 2.59 0 0 0-2.496-2.54z" transform="translate(-345.5 -8385.5)"/><path id="_5" data-name="5" class="cls-1" d="M786.089 8421.18c0-.75 0-.75-.562-.75-2.248 0-10.114 6.37-17.418 6.37-5.056 0-9.926-3.93-17.979-3.93-5.619 0-14.421 2.99-18.354 9.92l-19.853 34.65c-2.622 4.5-3.371 6.93-2.247 6.93 2.247 0 8.053-13.29 18.167-13.29 9.364 0 15.732 7.3 15.732 17.23 0 15.54-19.853 52.81-40.454 52.81-12.736 0-19.478-7.12-19.478-16.67 0-7.3 5.993-12.92 11.237-12.92 3.559 0 6.555 2.25 6.555 5.43 0 3.37-1.685 4.68-5.618 5.24 1.685 3.94 3.184 5.44 5.993 5.44a9.994 9.994 0 0 0 9.739-10.12A12.765 12.765 0 0 0 699 8495.16c-9.365 0-17.793 9.18-17.793 19.11 0 11.79 10.3 20.78 24.16 20.78 27.531 0 53.19-24.16 53.19-50.38 0-14.23-11.05-26.97-22.849-26.97a45.633 45.633 0 0 0-17.418 3.75l11.612-20.04c2.622-2.06 8.053-5.43 13.485-5.43 6.554 0 14.795 1.5 24.909 1.5.936 0 10.113-4.5 14.608-10.68 1.496-2.06 3.185-3.74 3.185-5.62z" transform="translate(-345.5 -8385.5)"/><path id="長方形_17" data-name="長方形 17" fill-opacity="0" stroke="#efeff1" stroke-linejoin="round" stroke-width="3" fill="#fff" d="M1.5 1.5h283v71H1.5z"/><path id="発売から10年_" data-name="発売から10年。" class="cls-1" d="M380.154 8420.91a.386.386 0 0 0 .324.21c.252 0 1.944-.14 2.268-.14.719 0 .719.43.719 1.59 0 4.06-.144 4.1-1.187 4.1h-1.188c-2.052 0-3.888-.11-4.932-.15-.252 0-1.367-.1-1.583-.1-.072 0-.144 0-.144.07a.82.82 0 0 0 .18.25l.683.83a.386.386 0 0 0 .324.21c.072 0 .936-.1 1.044-.1 1.44-.08 3.24-.08 4.248-.08h1.152a.705.705 0 0 1 .9.72 11.726 11.726 0 0 1-3.743 7.02 20.156 20.156 0 0 1-4.1 2.77c-.612.29-.684.33-.684.44a.255.255 0 0 0 .288.18 19.754 19.754 0 0 0 5.651-2.24c3.779-2.37 4.427-5.68 4.931-8.09.144-.76.5-.8 1.188-.8h3.42a.966.966 0 0 1 1.008 1.23c0 .25-.109 3.49-.109 4.17 0 4.43 1.764 4.97 6.156 4.97 1.584 0 4.751 0 5.939-.54a2.528 2.528 0 0 0 1.692-1.94c0-.51-.216-.69-1.044-1.55a4.7 4.7 0 0 1-.5-1.87c-.072-.54-.072-.69-.252-.69-.144 0-.18.15-.5 1.48-.576 2.23-.792 2.84-4.283 2.84-1.224 0-3.816 0-4.356-1.04-.4-.76-.4-2.66-.4-4.64 0-2.06 0-2.42 1.152-2.42h6.731c1.584 0 1.764 0 1.764-.43 0-.5-2.3-2.52-2.772-2.52-.4 0-1.439 1.51-1.691 1.73-.36.29-.54.29-2.124.29h-1.944c-1.044 0-1.044-.4-1.044-1.95 0-.43 0-3.27.072-3.45.108-.33.288-.33 1.728-.33.792 0 1.44 0 1.44-.57a5 5 0 0 0-2.484-2.23c-.288 0-.36.11-.936 1a1.549 1.549 0 0 1-1.584.87h-5.615c-1.368 0-3.779-.07-5.219-.15-.468-.03-.828-.03-.828-.25a28.217 28.217 0 0 1 1.944-2.12c2.015-2.27 2.915-4 4.751-7.34a2.28 2.28 0 0 1 1.224-1.19.878.878 0 0 0 .612-.76c0-.61-2.376-2.12-2.7-2.12-.288 0-.324.07-.972.97a1.607 1.607 0 0 1-1.691.72l-1.332-.04c-2.052-.07-3.888-.07-4.932-.1-.252 0-1.368-.11-1.584-.11-.072 0-.144 0-.144.07a.527.527 0 0 0 .18.22l.684.82a.377.377 0 0 0 .324.26c.072 0 .936-.11 1.044-.11 1.44-.07 3.2-.07 4.248-.07h1.547c.4 0 .9 0 .9.54 0 .93-2.3 5.54-2.7 5.54a3.087 3.087 0 0 1-.5-1.26c-.828-1.69-3.816-2.41-4.572-2.41-.108 0-.216 0-.216.14.216.29.756.94 1.008 1.26.648.83 2.772 3.67 2.772 4.18 0 1.04-3.636 4.21-5.219 5.47-.324.29-2.16 1.58-2.16 1.65 0 .11.072.15.216.15.252 0 1.476-.4 4.139-2.09a26.5 26.5 0 0 1 2.556-1.73.393.393 0 0 1 .36.18zm6.515 5.76c-.9 0-1.008-.4-1.008-.87 0-.54.144-3.2.144-3.81a.888.888 0 0 1 1.044-1.05h3.024a.886.886 0 0 1 1.044.62c.035.21.035 2.44.035 2.88 0 1.83 0 2.23-1.007 2.23h-3.276zm17.386-13.36c.324-.68-2.448-3.06-2.88-3.06a.947.947 0 0 0-.648.69c-.72 1.33-3.923 4.71-4.643 4.71-.756 0-2.988-2.95-2.988-3.2 0-.72 5.076-3.2 5.724-3.38.719-.22 1.115-.33 1.115-.58 0-.61-2.591-2.41-3.131-2.41-.324 0-.324.03-.792 1.01-.864 1.83-2.88 4.42-3.42 4.42-.5 0-1.44-1.72-1.8-2.37a21.509 21.509 0 0 0-1.224-2.31c-.108 0-.108.11-.108.18a24.809 24.809 0 0 0 3.959 8.82c3.456 4.65 8.1 7.17 8.639 7.17a6.636 6.636 0 0 0 1.188-.72 9.034 9.034 0 0 1 2.628-1.01c.108 0 .4 0 .4-.22 0-.11-.144-.14-.612-.25-2.7-.68-8.639-3.78-8.639-4.5 0-.65 4.715-2.63 5.723-2.63 1.154 0 1.329 0 1.509-.36zm25.569 3.24a.9.9 0 0 1-.936-1.11c0-2.7 0-2.88 1.08-2.88h10.762c1.224 0 1.944 0 1.944-.51 0-.46-3.527-2.62-3.815-2.62a2.738 2.738 0 0 0-1.368 1.29c-.576.9-.756.9-2.376.9H429.8c-1.008 0-1.008-.54-1.008-1.69a2.42 2.42 0 0 1 .288-1.26 7.332 7.332 0 0 0 .792-1.08c0-.25-.36-.61-1.224-.83a19.184 19.184 0 0 0-2.592-.65c-.288 0-.288.11-.288.36 0 .36.18 2.16.18 2.6 0 2.26 0 2.55-1.116 2.55h-5.579c-1.692 0-3.2-.07-4.967-.14-.216 0-1.332-.11-1.584-.11-.072 0-.108 0-.108.07a.4.4 0 0 0 .144.25l.684.79a.452.452 0 0 0 .324.26c.108 0 .648-.07.756-.07.936-.08 2.231-.11 4.571-.11h5.8c1.044 0 1.044.57 1.044 1.55 0 2.08-.18 2.44-1.08 2.44h-3.1c-1.692 0-3.168-.03-4.932-.1-.216-.04-1.332-.15-1.583-.15a.129.129 0 0 0-.144.11.468.468 0 0 0 .179.21l.684.83a.433.433 0 0 0 .324.26 6.559 6.559 0 0 0 .756-.11c.36 0 1.4-.08 4.536-.08h15.874c1.152 0 1.871 0 1.871-.43a10.785 10.785 0 0 0-3.491-2.59 2.3 2.3 0 0 0-1.3 1.15c-.612.87-.756.9-2.34.9h-2.555zm8.315 5.11c.54 0 .54.26.54.26a26.574 26.574 0 0 1-1.4 2.55.249.249 0 0 0 .288.22 10.527 10.527 0 0 0 1.691-.87 9.041 9.041 0 0 1 3.06-.79c.4-.03 1.44-.14 1.44-.83 0-.64-3.348-2.66-3.744-2.66a6.6 6.6 0 0 0-1.4.94 2.937 2.937 0 0 1-1.8.25h-19.33a1.583 1.583 0 0 1-1.116-.29c-.288-.25-1.331-1.8-1.727-1.8a.4.4 0 0 0-.4.4c0 .14.18.86.18 1.01a5.466 5.466 0 0 1-1.008 3.05c-1.332 1.91-1.512 2.13-1.512 2.78a1.349 1.349 0 0 0 1.44 1.36c1.836 0 3.2-2.62 3.383-4.32.108-1.11.108-1.26.828-1.26h20.59zm-15.694 1.41a1.143 1.143 0 0 0-.468-.11.283.283 0 0 0-.324.25 5.464 5.464 0 0 0 .216.83 8.946 8.946 0 0 1 .108 1.62c0 2.66 0 6.95-4.68 10.33a12.976 12.976 0 0 1-4.427 2.12c-.36.11-.576.15-.576.33 0 .22.216.32.5.32 2.772 0 10.223-1.76 11.734-9.68.072-.47.288-2.88.468-3.38a12.415 12.415 0 0 0 .756-1.08.886.886 0 0 0-.756-.58c-.428-.14-2.047-.79-2.551-.97zm7.919-.04c-.432-.07-.648-.07-.648.54 0 .22.036 1.26.036 1.51 0 .98.072 5.76.072 6.84 0 4.83 0 5.83 7.7 5.83a14.6 14.6 0 0 0 4.607-.5c.216-.07 1.872-.72 1.872-1.76a4.38 4.38 0 0 0-.972-1.59 2.408 2.408 0 0 1-.468-1.26c-.4-3.92-.432-4.39-.612-4.39a6.271 6.271 0 0 0-.36 1.77c-.54 4.28-.648 5.11-4.463 5.11-2.844 0-3.96-.29-4.284-1.05-.252-.57-.324-1.44-.324-5.61a12.041 12.041 0 0 1 .288-3.39 6.133 6.133 0 0 0 .828-1.11.784.784 0 0 0-.684-.54c-.352-.11-2.152-.29-2.588-.4zm24.4-1.98c.72 0 4.067-1.44 4.859-1.44a.252.252 0 0 1 .252.29 9.711 9.711 0 0 1-.5 1.69c-1.944 5.4-3.455 7.06-4.427 8.14-2.16 2.37-2.412 2.66-2.412 3.42a1.056 1.056 0 0 0 1.152 1.15c2.916 0 6.407-8.86 7.847-13.75a4.894 4.894 0 0 1 .54-1.55 7.888 7.888 0 0 1 3.455-.86c1.044 0 2.484.18 2.484 2.7a28.67 28.67 0 0 1-1.116 6.26c-1.044 3.89-2.375 4.39-3.419 4.39a11.837 11.837 0 0 1-1.836-.25 6.044 6.044 0 0 0-.9-.25.169.169 0 0 0-.18.18c0 .07.4 1.01.468 1.18.4 1.16.756 2.49 2.124 2.49a5.579 5.579 0 0 0 3.671-2.2c2.088-2.52 3.1-8.71 3.1-11.55 0-3.31-2.088-4.61-4.788-4.61-.287 0-1.943.18-2.123.18a.327.327 0 0 1-.4-.32c0-.69 1.368-5.26 1.368-5.33 0-.94-1.4-2.3-3.816-2.3-.144 0-.576.03-.576.28a2.208 2.208 0 0 0 .612.83 4.574 4.574 0 0 1 .9 3.06c0 .18-.036 3.82-.648 4.25a59.051 59.051 0 0 1-6.047 1.08c-.4 0-2.268-.5-2.376-.5a.314.314 0 0 0-.324.28c-.008.8 1.647 3.06 3.051 3.06zm24.117 1.48c0-1.84-1.692-6.37-6.3-6.37a.2.2 0 0 0-.252.21 2.113 2.113 0 0 0 .864.54 4.633 4.633 0 0 1 2.915 4.14c0 .97-.144 1.08-1.476 2.09a6.289 6.289 0 0 0-1.4 1.01 5.942 5.942 0 0 0 1.152.25c.432.11 2.088 1.08 2.448 1.08 1.504 0 2.044-2.52 2.044-2.95zm18.178-14.76a.467.467 0 0 0 .072.47 2.638 2.638 0 0 1 .612 1.62c0 1.04-.864 1.4-2.88 2.23-3.023 1.22-3.167 3.06-3.275 4.32-.108 1.33-.972 7.95-.972 9.47 0 2.77 1.224 4.5 2.736 4.5 1.223 0 1.619-.62 3.275-2.96a5.476 5.476 0 0 1 4.68-2.7 3.758 3.758 0 0 1 4 4c0 3.38-3.383 6.23-7.883 7.23a2.251 2.251 0 0 0-1.044.44c0 .29.5.29.972.29 5.219 0 10.943-2.92 10.943-7.31 0-2.95-2.736-5.65-6.587-5.65-2.3 0-3.672.86-5.868 2.3a5.231 5.231 0 0 1-2.087.86c-.9 0-.936-1.11-.936-1.65 0-.9.288-3.96.468-5.29.072-.51.432-2.63.432-2.95s-.252-1.88-.252-2.2a2.4 2.4 0 0 1 2.555-2.38 5.071 5.071 0 0 1 1.692.36 6.57 6.57 0 0 0 2.124.62 1.771 1.771 0 0 0 1.836-1.73c-.01-2.02-4.366-4.11-4.618-3.89zm32.116 28.33c.324 0 .9 0 .9-.51a.675.675 0 0 0-.864-.64c-2.664 0-3.168-.44-3.42-1.48-.108-.39-.143-14.22-.143-15.87 0-1.08.071-5.73.071-6.7 0-1.62 0-1.73-.395-1.73a14.272 14.272 0 0 0-1.764.8 17.245 17.245 0 0 1-4.068.9c-1.116.07-1.476.1-1.476.57s.36.47 1.224.47c3.024 0 3.528 0 3.528 1.69 0 1.91.072 10.3.072 12.02 0 1.26 0 7.6-.252 8.21-.432 1.01-1.368 1.12-3.312 1.12-1.3 0-1.836 0-1.836.57 0 .11.037.58.828.58h10.902zM551.5 8423c0-6.34-2.268-13.79-8.1-13.83-5.651 0-8.1 7.13-8.1 13.83 0 6.62 2.412 13.78 8.1 13.78 5.8 0 8.1-7.41 8.1-13.78zm-3.239 0c0 1.87-.073 12.59-4.86 12.59-4.859.04-4.859-11.12-4.859-12.59 0-1.84.072-12.64 4.859-12.64 4.862 0 4.862 11.12 4.862 12.64zm24.076-11.52c1.044 0 1.08 0 1.08 5.69a.918.918 0 0 1-1.116 1.11H567.7a4.219 4.219 0 0 1-1.692-.29 5.3 5.3 0 0 0-1.764-.5c-.144 0-.144.07-.144.65 0 .14.18 5.58.18 6.62 0 2.16 0 2.41-1.008 2.41-.828 0-4.391-.25-5.111-.25-.072 0-.144 0-.144.07s0 .07.18.25l.684.83a.378.378 0 0 0 .324.22c.108 0 .647-.07.756-.07 1.259-.11 3.671-.11 4.535-.11h7.775a.89.89 0 0 1 1.08 1.08c0 .9-.072 4.07-.108 5.18-.036.58-.252 3.02-.252 3.53a1.2 1.2 0 0 0 1.116 1.11 3.173 3.173 0 0 0 1.908-.86 1.361 1.361 0 0 0 .359-1.22c0-.72-.215-3.85-.215-4.5v-3.17a.917.917 0 0 1 1.079-1.15h11.051c1.584 0 1.908-.11 1.908-.43 0-.51-3.312-2.88-3.708-2.88-.36 0-.468.14-1.4 1.47-.612.9-.755.9-1.979.9h-5.868a.931.931 0 0 1-1.116-1.11c0-1.37 0-4.18-.035-5.51 0-1.23.287-1.33 1.3-1.33h6.552c1.475 0 1.943 0 1.943-.47 0-.5-3.167-2.41-3.347-2.41-.432 0-1.692 1.65-2.016 1.83a6.611 6.611 0 0 1-1.764.11h-1.368c-.864 0-1.3-.07-1.3-1.19v-4.75a.879.879 0 0 1 1.079-.86h8.063c1.224 0 1.944 0 1.944-.51 0-.46-3.491-2.59-3.635-2.59-.36 0-1.224 1.55-1.44 1.8-.252.25-.4.33-2.052.33H569.5c-.9 0-.971 0-.971-.26a2.931 2.931 0 0 1 .863-1.29 5 5 0 0 0 1.188-1.08c0-.51-2.915-1.77-3.563-2.02a2.546 2.546 0 0 0-.4.94c-1.4 4.82-5.328 9.43-6.695 10.8a8.613 8.613 0 0 0-1.152 1.29.119.119 0 0 0 .144.11c1.259 0 5.615-3.92 7.523-6.23 1.008-1.18 1.08-1.29 2.195-1.29h3.708zm-.036 7.74c1.188 0 1.188.1 1.188 3.67 0 4.28-.072 4.28-1.224 4.28h-4.211c-1.152 0-1.224 0-1.224-4.71 0-3.1.108-3.24 1.152-3.24h4.318zm27.224 10.98a4 4 0 0 0-.036 7.99 4 4 0 1 0 .038-7.99zm-.036 1a3.021 3.021 0 0 1 3.06 3.03 2.975 2.975 0 0 1-2.988 2.95 3.021 3.021 0 0 1-3.023-3.03 2.913 2.913 0 0 1 2.953-2.95z" transform="translate(-345.5 -8385.5)"/></svg>