<svg id="pc_love-body.svg_pc_png_love-body.png" data-name="pc/love-body.svg,pc/png/love-body.png" xmlns="http://www.w3.org/2000/svg" width="1039" height="644"><defs><style>.cls-1{fill:#fff}.cls-2,.cls-3{fill:#5e606b;fill-rule:evenodd}.cls-3{fill:#1a1a1a}</style></defs><circle id="楕円形_6" data-name="楕円形 6" class="cls-1" cx="158" cy="158" r="158"/><circle id="楕円形_6-2" data-name="楕円形 6" class="cls-1" cx="520" cy="158" r="158"/><circle id="楕円形_6-3" data-name="楕円形 6" class="cls-1" cx="339" cy="486" r="158"/><circle id="楕円形_6-4" data-name="楕円形 6" class="cls-1" cx="701" cy="486" r="158"/><circle id="楕円形_6-5" data-name="楕円形 6" class="cls-1" cx="881" cy="158" r="158"/><path id="ママが選ぶ_コスメ部門" data-name="ママが選ぶ コスメ部門" class="cls-2" d="M366.337 8692.78a8.347 8.347 0 0 1-1.74-.15 10.284 10.284 0 0 0-.99-.36c-.21 0-.21.42-.21.48 0 1.41 2.43 3 2.909 3 .091 0 1.95-.87 2.34-.99a93.177 93.177 0 0 1 12.24-2.43.476.476 0 0 1 .6.39c0 .87-3.99 6.51-4.89 6.51-.18 0-4.23-1.44-5.04-1.44a.243.243 0 0 0-.27.24c0 .12.03.15.33.36a21.743 21.743 0 0 1 4.44 3.78c1.74 1.95 1.92 2.16 2.7 2.16a1.05 1.05 0 0 0 1.02-1.17 3.381 3.381 0 0 0-.93-2.07c-.9-.99-1.02-1.11-1.02-1.35a.706.706 0 0 1 .15-.3c.54-.57 1.53-1.29 1.95-1.65 2.61-2.19 2.91-2.43 4.53-2.64.72-.09 1.17-.24 1.17-.66 0-1.5-3.24-3.96-3.87-3.96-.06 0-2.67.63-3.15.72a108.724 108.724 0 0 1-12.269 1.53zm30.338 0a8.337 8.337 0 0 1-1.739-.15 10.284 10.284 0 0 0-.99-.36c-.21 0-.21.42-.21.48 0 1.41 2.43 3 2.91 3 .089 0 1.949-.87 2.339-.99a93.177 93.177 0 0 1 12.24-2.43.476.476 0 0 1 .6.39c0 .87-3.99 6.51-4.89 6.51-.18 0-4.23-1.44-5.04-1.44a.243.243 0 0 0-.27.24c0 .12.03.15.33.36a21.743 21.743 0 0 1 4.44 3.78c1.74 1.95 1.92 2.16 2.7 2.16a1.05 1.05 0 0 0 1.02-1.17 3.381 3.381 0 0 0-.93-2.07c-.9-.99-1.02-1.11-1.02-1.35a.706.706 0 0 1 .15-.3c.54-.57 1.53-1.29 1.95-1.65 2.61-2.19 2.91-2.43 4.53-2.64.72-.09 1.17-.24 1.17-.66 0-1.5-3.24-3.96-3.87-3.96-.06 0-2.67.63-3.15.72a108.712 108.712 0 0 1-12.27 1.53zm30.081 2.85c.6 0 3.39-1.2 4.05-1.2a.209.209 0 0 1 .21.24 8.065 8.065 0 0 1-.42 1.41c-1.62 4.5-2.88 5.88-3.69 6.78-1.8 1.98-2.009 2.22-2.009 2.85a.882.882 0 0 0 .96.96c2.429 0 5.339-7.38 6.539-11.46a4.124 4.124 0 0 1 .45-1.29 6.521 6.521 0 0 1 2.88-.72c.87 0 2.07.15 2.07 2.25a23.851 23.851 0 0 1-.93 5.22c-.87 3.24-1.98 3.66-2.85 3.66a7.466 7.466 0 0 1-1.53-.21 5.473 5.473 0 0 0-.75-.21.142.142 0 0 0-.15.15c0 .09.33.78.39.99.36 1.02.66 2.07 1.77 2.07a4.652 4.652 0 0 0 3.06-1.83c1.74-2.1 2.58-7.26 2.58-9.63 0-2.76-1.74-3.84-3.99-3.84-.24 0-1.62.15-1.77.15a.273.273 0 0 1-.33-.27c0-.57 1.14-4.41 1.14-4.44 0-.78-1.17-1.92-3.18-1.92-.12 0-.48.03-.48.24a1.846 1.846 0 0 0 .51.69 3.8 3.8 0 0 1 .75 2.55c0 .15-.03 3.18-.54 3.54a50.2 50.2 0 0 1-5.039.9c-.33 0-1.89-.42-1.98-.42a.264.264 0 0 0-.27.24c0 .66 1.38 2.55 2.549 2.55zm19.98 1.35c-.03-1.53-1.41-5.31-5.25-5.31a.166.166 0 0 0-.21.18 1.854 1.854 0 0 0 .72.45 3.857 3.857 0 0 1 2.43 3.45c0 .81-.12.9-1.23 1.74a5.347 5.347 0 0 0-1.17.84 3.064 3.064 0 0 0 .96.21 15.111 15.111 0 0 0 2.04.9c1.26 0 1.71-2.1 1.71-2.46zm-2.25-12.63a1.3 1.3 0 0 0-1.08.42.427.427 0 0 0 .39.3 8.269 8.269 0 0 1 2.67 1.59c.6.69.93 1.08 1.59 1.08a.824.824 0 0 0 .75-.87c0-.57-.6-2.52-4.32-2.52zm-2.61 2.43a.548.548 0 0 0-.51.27 1.074 1.074 0 0 0 .45.45 8.108 8.108 0 0 1 2.13 1.77c.93 1.11 1.17 1.29 1.59 1.29a1.125 1.125 0 0 0 .87-1.17c0-.36-.69-2.61-4.53-2.61zm20.118 14.43a.381.381 0 0 0 .24.21c.06 0 .69-.09.78-.09 1.11-.06 2.4-.06 3.21-.06H479.3c.66 0 1.38 0 1.38-.51 0-.15-1.32-1.98-1.89-1.98-.27 0-.36.12-1.11 1.17-.39.51-.51.51-1.74.51h-.99c-.93 0-.93-.18-.93-2.01a.773.773 0 0 1 .93-.81h2.64c.63 0 1.38 0 1.38-.48 0-.15-1.32-1.98-1.89-1.98-.27 0-.36.12-1.11 1.17a1.216 1.216 0 0 1-1.32.51c-.54 0-.63-.21-.63-.75a2.615 2.615 0 0 1 .06-.6 10.48 10.48 0 0 0 .45-1.02c0-.36-1.71-.72-2.07-.72-.12 0-.36 0-.36.18 0 .3.12 1.71.12 2.01a.746.746 0 0 1-.93.9h-2.19a.532.532 0 0 1-.63-.63 1.716 1.716 0 0 1 .03-.42c.03-.15.36-.69.36-.81 0-.69-1.83-.9-2.31-.9-.12 0-.18 0-.18.06 0 .03.21.63.24.72a4.888 4.888 0 0 1 .09 1.08.7.7 0 0 1-.81.87c-.51 0-2.73-.18-3.18-.18a.071.071 0 0 0-.09.06.506.506 0 0 0 .12.21l.51.69a.321.321 0 0 0 .27.18c.18 0 1.98-.12 2.31-.12.93 0 .93.42.93 1.29 0 1.41 0 1.5-1.11 1.5-.69 0-2.91-.09-3.21-.12-.18 0-.84-.09-.99-.09a.08.08 0 0 0-.09.09.325.325 0 0 0 .12.18zm9.45-3.57c.87 0 .87.36.87 1.68 0 .9-.09 1.14-1.02 1.14h-1.8c-1.02 0-1.02-.24-1.02-1.62 0-.63 0-1.2.81-1.2h2.16zm-11.22-8.31a4.547 4.547 0 0 0-2.879-4.17 12.825 12.825 0 0 0-3-1.17c-.15 0-.24.06-.24.15a1.113 1.113 0 0 0 .48.6 16.747 16.747 0 0 1 2.91 3.45c1.05 1.92 1.17 2.13 1.8 2.13a.949.949 0 0 0 .929-.99zm-5.879 6.36a.386.386 0 0 0 .27.21c.09 0 .54-.06.63-.06.78-.06 2.19-.09 2.25-.09.87 0 .9.45.9 1.14v6.66c-.18 1.32-3.33 2.94-4.11 3.09-.21.03-.39.06-.39.24a1.779 1.779 0 0 0 .72.9 6.813 6.813 0 0 0 1.29 1.2c.3 0 .36-.12.84-1.14a19.661 19.661 0 0 1 3.059-3.81 15.97 15.97 0 0 1 1.23 1.83 6.836 6.836 0 0 0 5.28 2.94c1.92.24 6.54.39 9.27.39.51 0 3.6-.03 3.93-.12.36-.12.39-.21.9-1.35a5.544 5.544 0 0 1 .69-1.08 4.62 4.62 0 0 0 .54-.6c0-.09-.09-.09-.15-.09-.03 0-2.04.39-2.43.45a65.3 65.3 0 0 1-9.48.51c-5.58 0-7.26-.51-8.55-2.25-.78-1.05-.78-1.32-.78-4.98 0-3.3 0-3.66.21-3.81.09-.09.63-.45.72-.54a.214.214 0 0 0 .09-.18c0-.54-1.8-1.59-1.949-1.59a2.086 2.086 0 0 0-.87.81 1.161 1.161 0 0 1-1.02.57c-.6 0-3.15-.18-3.69-.18a.071.071 0 0 0-.09.06.284.284 0 0 0 .12.21zm11.969-7.08a.824.824 0 0 1 .72.24.847.847 0 0 0 .75.45 1.088 1.088 0 0 0 1.11-1.2c0-.36-.06-1.92-.06-2.22a1.3 1.3 0 0 1 .27-1.05c.33-.27.36-.3.36-.42a5.736 5.736 0 0 0-1.71-1.26.945.945 0 0 0-.66.57.9.9 0 0 1-.99.39c-.54 0-2.97-.09-3.36-.12-.18 0-.93-.09-1.08-.09-.03 0-.12 0-.12.06s0 .06.15.21l.57.69a.363.363 0 0 0 .27.18c.09 0 .54-.06.63-.06a52.2 52.2 0 0 1 2.97-.09c1.02 0 1.02.21 1.02 2.07a.73.73 0 0 1-.87.87h-1.26a1.953 1.953 0 0 1-.84-.21 2.513 2.513 0 0 0-1.2-.36c-.09 0-.45.03-.45.24 0 .12.15.54.15.63a12.211 12.211 0 0 1 .09 1.5c0 2.7.06 3.72 2.76 3.72a11.425 11.425 0 0 0 3.57-.3 2.144 2.144 0 0 0 1.38-1.38c0-.12-.36-.66-.39-.78-.03-.15-.15-.84-.21-.99a.408.408 0 0 0-.18-.24 5.964 5.964 0 0 0-.69 1.11c-.48.81-1.23.81-2.16.81-1.92 0-2.13 0-2.34-.42a4.344 4.344 0 0 1-.24-1.8.6.6 0 0 1 .69-.75h1.35zm9.54.24a.739.739 0 0 1 .66.24.641.641 0 0 0 .69.42 1.141 1.141 0 0 0 1.2-1.14c0-.42-.06-2.22-.06-2.58a.917.917 0 0 1 .24-.78.857.857 0 0 0 .39-.48 5.511 5.511 0 0 0-1.68-1.23.743.743 0 0 0-.63.48.683.683 0 0 1-.69.33c-1.08 0-3.42-.12-3.63-.12s-1.17-.09-1.35-.09c-.03 0-.12 0-.12.06s0 .06.15.21l.57.69a.363.363 0 0 0 .27.18c.06 0 .78-.09.87-.09.15-.03 1.32-.06 3.12-.06a.725.725 0 0 1 .75.51c.06.27.06 1.56.06 1.8a.745.745 0 0 1-.93.87h-1.74a3.1 3.1 0 0 1-.93-.12c-.12-.03-1.14-.27-1.2-.27-.18 0-.51.06-.51.27 0 .12.24 1.92.24 2.28 0 2.73 0 3 4.83 3 2.07 0 2.7-.21 3.27-.51a2.037 2.037 0 0 0 1.17-1.26 4.792 4.792 0 0 0-.66-.93 8.827 8.827 0 0 0-.69-1.32 5.585 5.585 0 0 0-.54 1.44c-.36.87-2.22.87-3.75.87-2.07 0-2.07-.36-2.07-1.86 0-.75.24-.81.87-.81h1.83zm-8.55 12.78a.953.953 0 0 0-.27-.09c-.12 0-.18 0-.42.54a7.582 7.582 0 0 1-1.59 2.1 21.6 21.6 0 0 0-1.74 1.41.234.234 0 0 0 .27.18 6.091 6.091 0 0 0 2.37-.75c.39-.18 2.1-1.29 2.49-1.47.72-.36.78-.36.78-.57 0-.33-1.5-1.14-1.894-1.35zm5.19.6a3.482 3.482 0 0 0-.81-.09.214.214 0 0 0-.24.15 2.019 2.019 0 0 0 .51.45c.36.27 2.1 1.77 3.12 2.64a1.76 1.76 0 0 0 1.2.63.911.911 0 0 0 .81-.9c0-1.95-2.284-2.52-4.59-2.88zm25.827-16.74a.129.129 0 0 0-.12.12c0 .06.84 1.5.9 1.59.66.9.72.99.72 1.41 0 .75-.42 1.35-1.44 2.82a4.323 4.323 0 0 0-.9 2.37 4.875 4.875 0 0 0 .72 2.1 12.237 12.237 0 0 1 1.05 1.89.606.606 0 0 1-.51.39 21.94 21.94 0 0 0-3.93 2.07c-2.85 2.19-3.719 2.85-5.429 2.85-.18 0-1.02-.15-1.2-.15-.45 0-.57.9-.57 1.32a1.942 1.942 0 0 0 1.95 1.95c.96 0 1.2-.3 2.519-1.92a1.223 1.223 0 0 1 .87-.63 15.618 15.618 0 0 1 3.69 1.08c1.44.93 1.89 1.23 3.12 1.23a3.209 3.209 0 0 0 3.36-3.42 8.474 8.474 0 0 0-.57-2.91 7.77 7.77 0 0 1-.51-1.14c0-.24.33-.27.45-.27a8 8 0 0 1 2.91.66 6.554 6.554 0 0 1 3.6 3.63c.99 2.16 1.08 2.4 1.92 2.4.93 0 1.17-1.38 1.17-1.62 0-.81-1.5-4.95-7.26-5.73a17.917 17.917 0 0 0-2.88-.12 1.706 1.706 0 0 1-1.2-.39c-2.43-2.25-2.67-2.61-2.67-3.57 0-1.53 2.01-2.7 3.42-2.82 1.32-.09 1.95-.15 1.95-1.14 0-1.53-1.65-2.34-3.09-3.03a16.062 16.062 0 0 0-2.04-1.02zm2.34 15.63c0 1.5 0 2.67-2.7 2.67a26.789 26.789 0 0 1-4.74-.69.145.145 0 0 1-.06-.12c0-.69 5.13-4.23 6.39-4.23.54 0 1.11 1.74 1.11 2.37zm8.16-16.44a1.179 1.179 0 0 0-1.11.36.483.483 0 0 0 .39.33 7.281 7.281 0 0 1 2.64 1.68 2.033 2.033 0 0 0 1.53 1.11.849.849 0 0 0 .78-.87c0-1.23-1.56-2.61-4.23-2.61zm-2.67 2.67a.521.521 0 0 0-.51.24 1.182 1.182 0 0 0 .42.45 9.234 9.234 0 0 1 2.1 1.83c.87 1.14 1.14 1.35 1.56 1.35a1.132 1.132 0 0 0 .9-1.14c0-.81-1.321-2.73-4.47-2.73zm-136.068 43.72a.313.313 0 0 0-.36.3c0 .6 2.13 2.43 2.79 2.43.24 0 1.29-.42 1.56-.48 1.17-.27 8.61-1.47 9.54-1.47.33 0 .45.12.45.63 0 .6-.27 3.21-.63 5.85-.21 1.5-.33 1.86-.69 2.04a98.87 98.87 0 0 1-10.38.78 10.614 10.614 0 0 1-1.53-.09 8.041 8.041 0 0 0-.9-.15.242.242 0 0 0-.27.21c0 1.05 1.77 2.4 2.31 2.4.15 0 .9-.33 1.08-.36.48-.12 6.18-.75 8.04-.75.69 0 4.02.21 4.77.21.24 0 1.62 0 1.62-.81 0-.75-1.11-1.14-1.86-1.26-.45-.09-.72-.12-.72-.51 0-.18.42-1.5.48-1.77 1.02-4.17 1.14-4.62 1.68-5.01.93-.69 1.02-.78 1.02-1.05 0-.78-2.88-2.7-3.48-2.7-.27 0-.39.06-1.47.78-.66.42-7.05.96-9.75.96-.51 0-3.12-.18-3.3-.18zm39.162-.36c.09.48-3.48 8.25-11.31 13.92a9.256 9.256 0 0 0-1.38 1.11.175.175 0 0 0 .21.18 7.37 7.37 0 0 0 1.86-.69 30.14 30.14 0 0 0 8.01-6.42c.66-.75.75-.84 1.05-.84.66 0 3.3 2.28 5.37 5.91 1.05 1.86 1.17 2.07 1.86 2.07a1.3 1.3 0 0 0 1.23-1.32c0-2.73-5.37-5.76-6.72-6.54-1.26-.69-1.32-.75-1.32-1.02a.986.986 0 0 1 .24-.6c.48-.69 2.85-4.2 3.45-4.92a6.561 6.561 0 0 0 1.29-1.29c0-.75-1.83-2.28-2.55-2.28a11.452 11.452 0 0 0-1.65.93c-1.56.63-7.2 1.11-8.22 1.11a5.345 5.345 0 0 1-1.59-.3c-.09-.03-.75-.21-.78-.21-.15 0-.18.09-.18.24a6.122 6.122 0 0 0 .72 1.74 6.261 6.261 0 0 0 2.04 1.08 12.958 12.958 0 0 0 1.35-.57c.15-.06 6.45-1.53 6.66-1.53a.337.337 0 0 1 .36.24zm21.669 1.59a.23.23 0 0 0-.27.24c0 .15.06.18.63.48 1.14.63 3.9 2.28 3.9 2.91 0 .45-1.44 2.31-2.16 3.21a48.142 48.142 0 0 1-7.95 7.35 4.488 4.488 0 0 0-.929.87.176.176 0 0 0 .21.15c.27 0 6.269-2.55 11.759-9.42a.863.863 0 0 1 .63-.42c.42 0 .99 1.02 1.29 1.56 1.05 1.86 1.5 2.64 2.58 2.64a.941.941 0 0 0 .96-.99c0-.75-.36-2.37-2.94-4.65a1.193 1.193 0 0 1-.51-.81 1.377 1.377 0 0 1 .3-.75c.63-.99 1.2-2.01 1.71-3 .78-1.47.87-1.62 1.2-1.8.66-.33.75-.36.75-.6a3.941 3.941 0 0 0-1.29-2.16 4.676 4.676 0 0 0-2.01-.96.245.245 0 0 0-.24.27 1.282 1.282 0 0 0 .18.36 1.335 1.335 0 0 1 .21.69 14.788 14.788 0 0 1-1.11 3.6c-.36.87-1.23 2.97-1.86 2.97a16.257 16.257 0 0 1-1.89-.81 12.055 12.055 0 0 0-3.15-.93zm24.987 7.5a3.2 3.2 0 0 1-.93-.18 13.386 13.386 0 0 0-2.04-1.11.174.174 0 0 0-.209.18c0 .09.09.51.09.6.119 1.74.179 2.73.179 5.37 0 .6-.119 3.69-.119 4.38a.811.811 0 0 0 .659.96 1.631 1.631 0 0 0 1.62-1.62.762.762 0 0 1 .93-.81h4.83c.84 0 .84.39.84 1.14a.554.554 0 0 0 .63.69 1.5 1.5 0 0 0 1.62-1.56c0-.27-.06-1.53-.06-1.8 0-.42 0-4.47.12-4.74a8.692 8.692 0 0 0 .75-1.08c0-.39-1.8-1.56-2.16-1.56-.21 0-.24.06-.75.75a.841.841 0 0 1-.81.39H455.9zm5.1.78a.81.81 0 0 1 .9 1.02c0 .63-.06 3.42-.06 3.99.03.6.03 1.2-.87 1.2h-4.95c-.9 0-1.02-.15-1.02-2.61 0-3.42.03-3.6.93-3.6H461zm3.03-12.27c1.08 0 1.62 0 1.62-.45a5.98 5.98 0 0 0-2.16-1.86 5.834 5.834 0 0 0-1.11 1.26 1.27 1.27 0 0 1-1.17.27h-.811c-.93 0-.93-.39-.93-1.62a3.074 3.074 0 0 1 .21-1.29 4.274 4.274 0 0 0 .66-.84c0-.57-2.67-1.05-2.7-1.05-.21 0-.21.06-.21.69v3.15a.784.784 0 0 1-.87.96c-.87 0-3.21-.12-3.45-.12-.21 0-1.139-.09-1.349-.09-.06 0-.12 0-.12.06a.616.616 0 0 0 .15.21l.569.66a.307.307 0 0 0 .27.21c.091 0 .54-.06.63-.06.3-.03 1.17-.09 3.78-.09h6.99zm-7.2 4.32c-.36-2.37-3.27-3.63-3.72-3.63a.177.177 0 0 0-.21.15 7.174 7.174 0 0 0 .48.66 7.436 7.436 0 0 1 1.14 3c.15 1.2.42 1.95 1.14 1.95s1.32-1.08 1.17-2.13zm6.42-3.18a5.5 5.5 0 0 0-1.05-.72c-.12 0-.15.06-.3.54a14.131 14.131 0 0 1-.75 2.22c-.21.51-1.35 2.97-1.35 3.06 0 .06 0 .15.09.15a3.688 3.688 0 0 0 1.38-1.14c1.71-1.98 1.92-2.22 2.55-2.61a.591.591 0 0 0 .36-.42c0-.33-.09-.42-.93-1.08zm7.14-4.56a3.8 3.8 0 0 1-1.29-.15 11.316 11.316 0 0 0-1.77-.66.289.289 0 0 0-.33.3c0 .12.09.78.09.93.06.66.06 2.07.06 2.67 0 1.14-.03 4.38-.03 5.19-.03 1.68-.15 10.35-.15 12.03 0 .42-.15 3.51-.15 3.57a.956.956 0 0 0 .96 1.17c1.38 0 1.38-1.11 1.38-3.45s-.12-13.83-.12-16.44a33.936 33.936 0 0 1 .15-4.05.909.909 0 0 1 .81-.33h2.94c.48 0 .78.09.78.66 0 .18-1.08 3.42-1.26 3.96-.15.45-1.02 2.73-1.02 2.85 0 .27.06.33.69.87a7.833 7.833 0 0 1 2.28 5.97 8.034 8.034 0 0 1-.48 2.79 1.81 1.81 0 0 1-2.01 1.5c-.15 0-1.11-.06-1.2-.06a.37.37 0 0 0-.42.24c0 .12 1.44 1.17 1.68 1.44.78.93.87 1.05 1.2 1.05.63 0 3.449-1.92 3.449-5.46a9.993 9.993 0 0 0-3.269-7.02 8.07 8.07 0 0 1-1.23-1.26c0-.03 3.51-6.09 4.23-6.54.749-.48.84-.54.84-.81 0-.48-2.43-1.98-2.55-1.98-.15 0-.21.06-.57.6a.891.891 0 0 1-.93.42h-2.76zm-14.4 10.38c-1.41 0-2.64 0-4.109-.09-.18 0-1.11-.12-1.32-.12a.1.1 0 0 0-.12.09.424.424 0 0 0 .15.18l.57.69a.362.362 0 0 0 .27.21c.09 0 .54-.09.63-.09.3-.03 1.17-.09 3.779-.09h8.85c1.05 0 1.62 0 1.62-.39a7.573 7.573 0 0 0-2.34-1.92c-.18 0-.27.12-.93 1.08-.3.45-.45.45-1.8.45h-5.25zm35.313-1.92a.759.759 0 0 1 .9.57c.06.63.09.9.81.9 1.35 0 1.35-1.05 1.35-1.77 0-.93-.09-5.04-.09-5.88a1.18 1.18 0 0 1 .36-1.05c.66-.48.75-.54.75-.75 0-.39-2.22-1.92-2.37-1.92a3.774 3.774 0 0 0-.96.87 1.725 1.725 0 0 1-1.17.3h-3.6a3.149 3.149 0 0 1-1.47-.33 5.284 5.284 0 0 0-1.769-.57.32.32 0 0 0-.39.24c0 .21.209 1.26.24 1.47.27 2.82.27 10.02.27 13.35 0 .81-.12 7.98-.15 8.19-.03.51-.06 1.14-.06 1.47a1.089 1.089 0 0 0 .959 1.35c1.38 0 1.38-1.77 1.38-2.52 0-2.07-.03-11.16-.03-13.02 0-.66.15-.9.87-.9h4.17zm-.06-7.92c.93 0 .93.42.93 1.8 0 .66 0 1.17-.9 1.17h-4.2c-.9 0-.9-.51-.9-1.17 0-1.38 0-1.8.9-1.8h4.17zm-4.11 7.11c-.93 0-.93-.21-.93-2.25 0-.6 0-1.11.9-1.11h4.23c.9 0 .9.42.9 1.59 0 1.35 0 1.77-.9 1.77h-4.2zm18.21.66a.788.788 0 0 1 .93.57c.09.48.09 7.5.09 8.19 0 .6 0 4.02-.06 4.35a1.231 1.231 0 0 1-1.38.72c-.27 0-1.53-.09-1.8-.09-.36 0-.54.09-.54.18a2.78 2.78 0 0 0 .9.6 5.835 5.835 0 0 1 1.35 1.74.7.7 0 0 0 .57.39 3.813 3.813 0 0 0 2.01-.93 3.225 3.225 0 0 0 1.02-2.79c0-3-.15-16.26-.15-18.96a1.536 1.536 0 0 1 .3-1.08c.57-.45.63-.51.63-.75 0-.33-.09-.39-.99-1.02a9.043 9.043 0 0 0-1.2-.72 3.783 3.783 0 0 0-.93.75 1.966 1.966 0 0 1-1.14.27H501.5a4.193 4.193 0 0 1-1.89-.33 5.151 5.151 0 0 0-1.56-.66.537.537 0 0 0-.45.66c0 .24.15 2.28.18 2.73 0 .24.12 3.63.12 4.92 0 .36-.12 2.01-.12 2.34a.7.7 0 0 0 .75.75 1.53 1.53 0 0 0 1.53-1.2.714.714 0 0 1 .87-.63h4.41zm-.09-7.77c.93 0 .93.39.93 1.47 0 .99 0 1.41-.93 1.41h-4.38c-.96 0-.96-.39-.96-1.47 0-.99 0-1.41.96-1.41h4.38zm-4.32 6.96c-.96 0-.96-.21-.96-2.25 0-.66.06-1.02.93-1.02h4.41c.93 0 .93.3.93 1.5 0 1.5 0 1.77-.93 1.77h-4.38z" transform="translate(-280 -8595)"/><path id="_1" data-name="※1" class="cls-2" d="M433.986 8859.22l5.187 5.2.512-.51-5.2-5.18 5.2-5.19-.512-.51-5.187 5.2-5.186-5.2-.512.51 5.2 5.19-5.2 5.18.512.51zm4.354-1.82a1.33 1.33 0 1 0 1.345 1.33 1.334 1.334 0 0 0-1.345-1.33zm-8.707 0a1.33 1.33 0 1 0 1.328 1.33 1.338 1.338 0 0 0-1.328-1.33zm4.353-4.37a1.335 1.335 0 1 0 1.329 1.34 1.336 1.336 0 0 0-1.329-1.34zm0 8.72a1.335 1.335 0 1 0 1.329 1.33 1.334 1.334 0 0 0-1.329-1.33zm13.968 3.06v-11.69h-1.729a2.619 2.619 0 0 1-2.545 2.04h-.928v1.52h3.169v8.13h2.033z" transform="translate(-280 -8595)"/><path id="_2" data-name="※2" class="cls-2" d="M795.639 8859.22l5.186 5.2.513-.51-5.2-5.18 5.2-5.19-.513-.51-5.186 5.2-5.186-5.2-.512.51 5.2 5.19-5.2 5.18.512.51zm4.354-1.82a1.33 1.33 0 1 0 1.345 1.33 1.334 1.334 0 0 0-1.345-1.33zm-8.707 0a1.33 1.33 0 1 0 1.328 1.33 1.338 1.338 0 0 0-1.328-1.33zm4.353-4.37a1.335 1.335 0 1 0 1.329 1.34 1.336 1.336 0 0 0-1.329-1.34zm0 8.72a1.335 1.335 0 1 0 1.329 1.33 1.334 1.334 0 0 0-1.329-1.33zm17.4 3.06v-1.68h-5.41a5.888 5.888 0 0 1 2.465-2.51c1.52-1.06 2.849-2.12 2.849-3.99a3.706 3.706 0 0 0-3.954-3.71c-3.617 0-3.745 3.28-3.777 4.32h2.033c.016-.87.064-2.55 1.68-2.55a1.831 1.831 0 0 1 1.825 1.94c0 1.02-.512 1.67-2.225 2.91-2.641 1.94-3.361 3.19-3.649 5.27h8.163z" transform="translate(-280 -8595)"/><path id="_3" data-name="※3" class="cls-2" d="M1156.76 8859.22l5.19 5.2.51-.51-5.2-5.18 5.2-5.19-.51-.51-5.19 5.2-5.18-5.2-.51.51 5.2 5.19-5.2 5.18.51.51zm4.36-1.82a1.33 1.33 0 1 0 1.34 1.33 1.336 1.336 0 0 0-1.34-1.33zm-8.71 0a1.33 1.33 0 1 0 1.33 1.33 1.332 1.332 0 0 0-1.33-1.33zm4.35-4.37a1.335 1.335 0 1 0 1.33 1.34 1.33 1.33 0 0 0-1.33-1.34zm0 8.72a1.335 1.335 0 1 0 1.33 1.33 1.327 1.327 0 0 0-1.33-1.33zm17.11-.49a3.223 3.223 0 0 0-1.73-2.87 2.552 2.552 0 0 0 1.39-2.42c0-1.95-1.83-3.05-3.63-3.05a3.821 3.821 0 0 0-3.3 1.68 3.674 3.674 0 0 0-.59 2.09h1.93a1.763 1.763 0 0 1 1.81-2 1.541 1.541 0 0 1 1.68 1.62 1.694 1.694 0 0 1-1.82 1.7h-.9v1.42h.9c1.25 0 2.08.51 2.08 1.84a1.851 1.851 0 0 1-1.92 1.99c-.96 0-1.8-.55-1.86-2.2h-2.13c.15 1.64.43 2.21 1.03 2.82a4.1 4.1 0 0 0 2.96 1.15 3.822 3.822 0 0 0 4.1-3.77z" transform="translate(-280 -8595)"/><path id="_4" data-name="※4" class="cls-3" d="M613.757 9193.22l5.186 5.2.512-.51-5.2-5.18 5.2-5.19-.512-.51-5.186 5.2-5.186-5.2-.512.51 5.2 5.19-5.2 5.18.512.51zm4.354-1.82a1.33 1.33 0 1 0 1.344 1.33 1.334 1.334 0 0 0-1.344-1.33zm-8.708 0a1.33 1.33 0 1 0 1.329 1.33 1.338 1.338 0 0 0-1.332-1.33zm4.354-4.37a1.335 1.335 0 1 0 1.329 1.34 1.337 1.337 0 0 0-1.329-1.34zm0 8.72a1.335 1.335 0 1 0 1.329 1.33 1.335 1.335 0 0 0-1.329-1.33zm17.355.56v-1.55h-1.568v-7.64h-2.369l-4.61 7.51v1.68h4.866v2.5h2.113v-2.5h1.568zm-3.6-7.43l-.08 1.06v4.82h-3.153l-.448.11.448-.54 2.913-4.74z" transform="translate(-280 -8595)"/><path id="_5" data-name="※5" class="cls-3" d="M975.722 9193.22l5.186 5.2.512-.51-5.2-5.18 5.2-5.19-.512-.51-5.186 5.2-5.187-5.2-.512.51 5.2 5.19-5.2 5.18.512.51zm4.353-1.82a1.33 1.33 0 1 0 1.345 1.33 1.334 1.334 0 0 0-1.345-1.33zm-8.707 0a1.33 1.33 0 1 0 1.328 1.33 1.338 1.338 0 0 0-1.328-1.33zm4.354-4.37a1.335 1.335 0 1 0 1.328 1.34 1.336 1.336 0 0 0-1.328-1.34zm0 8.72a1.335 1.335 0 1 0 1.328 1.33 1.334 1.334 0 0 0-1.328-1.33zm17.153-.85a3.714 3.714 0 0 0-3.713-3.86 2.569 2.569 0 0 0-2.177.95l.176-.83.288-2.31h5.026v-1.73h-6.466l-.833 6.57 1.969.17a1.489 1.489 0 0 1 1.5-1.04 2.038 2.038 0 0 1 2.016 2.23 1.926 1.926 0 0 1-1.888 2.16 1.762 1.762 0 0 1-1.825-1.57h-2.1a3.692 3.692 0 0 0 3.97 3.39 3.918 3.918 0 0 0 4.057-4.13z" transform="translate(-280 -8595)"/><path id="エイジングケア_美容液人気" data-name="エイジングケア 美容液人気" class="cls-2" d="M709.7 8690.89a2.027 2.027 0 0 0 .51 1.2 5.2 5.2 0 0 0 1.95 1.35c.12 0 3.24-.9 3.87-.9.84 0 1.08.78 1.08 4.32 0 1.5 0 3.18-.6 3.45a64.316 64.316 0 0 1-7.17.84 14.254 14.254 0 0 1-2.61-.27 7.424 7.424 0 0 0-.87-.18.19.19 0 0 0-.21.21c0 1.47 2.94 2.76 3.06 2.76.24 0 1.35-.45 1.62-.51a53.627 53.627 0 0 1 12.99-1.53 12.3 12.3 0 0 1 3.629.39c.36.09 1.65.45 1.89.45.09 0 1.11-.09 1.11-.63 0-.87-2.16-2.22-2.97-2.22-.33 0-1.86.18-2.22.21-.81.03-4.589.3-5.189.3-.69 0-.9-.12-.9-.57 0-.06.03-.18.03-.33.18-1.38.39-2.94.51-4.14.03-.15.24-.93.24-1.11 0-.24-.09-.33-.81-1.08a.73.73 0 0 1-.27-.45.412.412 0 0 1 .45-.33c.63-.06 3.69-.48 4.379-.51.72-.03 1.56-.06 1.56-.63 0-.9-2.009-1.53-2.939-1.53-.27 0-1.41.57-1.68.63a34.921 34.921 0 0 1-7.5 1.2 11.839 11.839 0 0 1-2.52-.3 1.059 1.059 0 0 0-.42-.09zm39.123 2.1c.57-.72 1.53-1.8 2.04-2.52a8.569 8.569 0 0 1 2.04-2.46.76.76 0 0 0 .269-.6c0-1.14-3.029-2.4-3.479-2.4a.3.3 0 0 0-.3.24 3.333 3.333 0 0 0 .21.48 1.7 1.7 0 0 1 .24.84c0 .84-2.34 5.94-9.42 12-.48.42-1.32 1.11-2.1 1.8a.272.272 0 0 0-.09.21.152.152 0 0 0 .15.18c.54 0 5.58-2.91 8.52-5.73a.873.873 0 0 1 .51-.36c.78 0 .78 3.15.78 4.23 0 1.59-.12 3.9-.3 5.52-.03.3-.33 1.62-.33 1.92a2.468 2.468 0 0 0 1.86 2.1c.72 0 .72-1.02.72-1.32 0-.39-.18-2.13-.21-2.49-.06-1.17-.09-2.79-.09-3.6 0-4.14.06-4.77.18-5.31.03-.18.36-1.02.36-1.2 0-.27-.12-.39-1.29-1.11a.485.485 0 0 1-.272-.42zm17.013.42c-.18 0-2.1 0-2.1.45a.585.585 0 0 0 .3.3 7.777 7.777 0 0 1 2.73 2.46c.45.75.6.93 1.05.93a1.418 1.418 0 0 0 1.14-1.5c-.002-1.47-1.832-2.64-3.122-2.64zm5.01-5.55a4.13 4.13 0 0 0-1.53-.3c-.9 0-2.28.3-2.28.63 0 .12.03.12.45.27a5.074 5.074 0 0 1 2.61 1.62c1.05 1.23 1.17 1.38 1.5 1.38a1.312 1.312 0 0 0 .99-1.41 2.621 2.621 0 0 0-1.742-2.19zM767 8707.24c.33 0 .45-.09 1.56-.96.24-.18.36-.27 2.19-1.41 11.759-7.41 13.259-12.06 13.259-12.12a.192.192 0 0 0-.18-.18c-.09 0-1.83 1.77-2.16 2.1-5.279 4.86-13.439 9.33-15.059 9.33-.3 0-1.65-.48-1.74-.48a.22.22 0 0 0-.24.24 1.222 1.222 0 0 0 .15.54c.06.15.54.78.63.96.604 1.29.964 1.98 1.59 1.98zm14.879-23.55c-.54 0-1.14 0-1.14.27a.525.525 0 0 0 .33.36 7.528 7.528 0 0 1 2.43 1.95 2.089 2.089 0 0 0 1.47 1.32.883.883 0 0 0 .81-.96c.004-2.07-3.116-2.94-3.896-2.94zm-3.449 1.92c-.181 0-.54.03-.54.21a1.154 1.154 0 0 0 .39.48 9.364 9.364 0 0 1 1.919 2.01c.75 1.17 1.02 1.5 1.47 1.5a1.232 1.232 0 0 0 .96-1.14c.004-1.59-2.456-3.06-4.195-3.06zm22.725 5.4c0-1.77-2.52-3.48-5.73-3.48a.61.61 0 0 0-.66.27.4.4 0 0 0 .27.27 6.757 6.757 0 0 1 2.73 2.46c.99 1.5 1.29 1.98 2.1 1.98a1.325 1.325 0 0 0 1.294-1.5zm12.479-.27a.193.193 0 0 0-.15-.15c-.06 0-.9.84-1.38 1.32-4.979 4.92-12.929 10.23-14.4 10.23a4.966 4.966 0 0 1-2.04-.69 7.469 7.469 0 0 0-.9-.57c-.27 0-.3 1.38-.3 1.59 0 1.2 2.22 3.12 3.84 3.12.45 0 .51-.06 1.08-.75a20.95 20.95 0 0 1 2.94-2.46c7.804-5.76 11.314-11.37 11.314-11.64zm12.952-2.82c.24 1.8-2.61 5.94-5.04 8.37a25.443 25.443 0 0 0-2.37 2.25.183.183 0 0 0 .21.18 9.168 9.168 0 0 0 2.88-1.59 22.553 22.553 0 0 0 4.08-3.9c1.26-1.44 1.32-1.5 1.89-1.5.18 0 .99.09 1.17.09.72 0 4.86-.93 4.92-.93a.324.324 0 0 1 .329.33c0 .93-5.7 11.16-14.849 16.2-.93.51-1.02.57-1.02.69a.269.269 0 0 0 .27.27 20.521 20.521 0 0 0 5.97-2.88 36.677 36.677 0 0 0 10.739-11.28c1.05-1.62 1.17-1.8 1.5-2.01.99-.6 1.2-.72 1.2-1.14a1.087 1.087 0 0 0-.57-.75c-.15-.09-.93-.51-1.11-.6-1.23-.72-1.38-.81-1.65-.81a5.6 5.6 0 0 0-1.409.48 16.98 16.98 0 0 1-4.56 1.2c-.12 0-.48 0-.48-.24a.89.89 0 0 1 .24-.48 3.071 3.071 0 0 0 .9-1.5 2.8 2.8 0 0 0-2.79-1.68c-.24 0-.66 0-.66.3.004.12.184.78.214.93zm11.459-5.07a1.39 1.39 0 0 0-1.08.42.443.443 0 0 0 .39.33 7.035 7.035 0 0 1 2.76 1.47 2.114 2.114 0 0 0 1.59.99.812.812 0 0 0 .75-.87c0-.3 0-.99-1.23-1.71a5.534 5.534 0 0 0-3.176-.63zm-2.07 2.58a.5.5 0 0 0-.51.27 1.028 1.028 0 0 0 .45.42 9.474 9.474 0 0 1 2.13 1.77c.93 1.11 1.17 1.29 1.59 1.29a1.125 1.125 0 0 0 .87-1.17c.004-.36-.686-2.58-4.526-2.58zm16.213.69c-.06 0-.42 0-.42.21a3.333 3.333 0 0 0 .21.48 4.593 4.593 0 0 1 .21 1.41c0 .66-.3 3.33-2.88 6.81-.51.66-3.36 4.11-3.36 4.2a.164.164 0 0 0 .15.18c.45 0 3.72-2.04 5.88-5.34a.794.794 0 0 1 .51-.42.871.871 0 0 1 .54.42.865.865 0 0 0 .57.36c.18 0 1.05-.3 1.23-.33a8.933 8.933 0 0 1 1.17-.15c.93 0 1.08 1.05 1.08 1.68a12.866 12.866 0 0 1-2.19 5.79 30.4 30.4 0 0 1-5.22 5.7.728.728 0 0 0-.42.51.154.154 0 0 0 .18.18c.63 0 6.36-2.82 9.21-9.72.15-.3.66-1.86.81-2.22a5.337 5.337 0 0 0 .51-.9c0-.18-.54-.84-.54-1.02 0-.42 2.01-.45 2.31-.45.749 0 1.529.09 2.159.15.27.03 1.59.24 1.92.24a.936.936 0 0 0 .99-.81c0-1.32-2.82-1.8-2.97-1.8-.36 0-2.039.57-2.429.66a50.692 50.692 0 0 1-6.72.72c-.99 0-1.38-.21-1.38-.57a8.5 8.5 0 0 1 1.68-2.52 1.319 1.319 0 0 0 .54-.78 3.975 3.975 0 0 0-.96-1.29c-.958-1.05-1.258-1.38-2.366-1.38zm22.578 2.91c-.15 0-.21.06-.21.12 0 1.05 2.34 2.97 3.06 2.97a22.87 22.87 0 0 0 2.52-.87 52.526 52.526 0 0 1 10.709-1.86.5.5 0 0 1 .571.45c0 .78-2.88 3.66-3.72 3.66a8.917 8.917 0 0 1-1.17-.39 4.523 4.523 0 0 0-1.62-.27c-.18 0-.63.03-.63.27a1.606 1.606 0 0 0 .27.66 3.835 3.835 0 0 1 .39 1.77 13.692 13.692 0 0 1-2.25 6.57 20.433 20.433 0 0 1-5.37 5.58 1.227 1.227 0 0 0-.6.57.152.152 0 0 0 .18.15 7.81 7.81 0 0 0 2.07-.87 16.381 16.381 0 0 0 7.56-9.27c1.05-2.97 1.17-3.33 1.53-3.84.63-.84 5.219-2.52 6.269-2.73 1.05-.24 1.05-.57 1.05-.78 0-1.02-2.85-3.9-3.54-3.9a10.387 10.387 0 0 0-1.23.69 89.347 89.347 0 0 1-12.419 1.74 13.05 13.05 0 0 1-1.89-.12c-.236-.03-1.436-.3-1.526-.3zm-134.8 39.01c-.33 0-.57 0-.57-.21a.653.653 0 0 1 .27-.36c.18-.18 1.169-.99 1.41-1.17 1.409-1.23 1.559-1.35 2.129-1.44.27-.03.63-.06.63-.42 0-.48-.45-.66-1.08-.9-.3-.12-1.949-.78-2.1-.78-.3 0-.3.24-.3.93 0 1.8-1.289 4.35-2.369 4.35h-8.28c-1.41 0-2.67-.06-4.14-.12-.18 0-1.11-.09-1.32-.09-.06 0-.09 0-.09.06a.284.284 0 0 0 .12.21l.57.69a.42.42 0 0 0 .27.21 4.551 4.551 0 0 0 .63-.09c.3 0 1.17-.06 3.81-.06h5.46c.81 0 .81.66.81 1.62 0 1.26 0 1.71-.78 1.71h-2.94c-1.41 0-2.64-.03-4.11-.12-.18 0-1.11-.09-1.32-.09a.075.075 0 0 0-.09.06.284.284 0 0 0 .12.21l.57.69a.362.362 0 0 0 .27.21 4.551 4.551 0 0 0 .63-.09c.3 0 1.17-.06 3.78-.06h3.12c.78 0 .78.63.78 1.17 0 1.29 0 1.8-.78 1.8h-6.39c-1.41 0-2.64-.03-4.11-.09-.21-.03-1.11-.12-1.32-.12-.09 0-.12.03-.12.09a1.372 1.372 0 0 0 .12.18l.6.72a.4.4 0 0 0 .27.18c.09 0 .51-.06.63-.06.3-.03 1.17-.09 3.78-.09h19.979c1.02 0 1.62 0 1.62-.42 0-.39-2.61-2.01-2.82-2.01-.27 0-.36.12-1.2 1.11-.42.51-.57.51-1.92.51h-5.519c-.81 0-.81-.6-.81-1.74 0-.54 0-1.23.81-1.23h5.459c1.02 0 1.68 0 1.68-.54 0-.42-2.34-1.89-2.61-1.89a8.686 8.686 0 0 0-1.41 1.38c-.27.21-.509.24-1.709.24h-1.41c-.78 0-.78-.54-.78-1.8 0-.96 0-1.53.78-1.53h9.269c1.02 0 1.62 0 1.62-.45 0-.39-2.64-1.98-2.82-1.98-.27 0-.36.12-1.2 1.11-.42.51-.57.51-1.92.51h-3.659zm-5.55 14.04c.42 0 .66 0 .66.45 0 1.2-2.4 5.13-10.44 5.97-.12 0-1.47.15-1.47.18a9.977 9.977 0 0 0 3.48.45c2.19 0 8.64-.57 10.59-5.91.21-.54.21-.63.36-.63a.639.639 0 0 1 .36.33 16.647 16.647 0 0 0 1.89 2.28 18.469 18.469 0 0 0 7.679 4.8.622.622 0 0 0 .39-.39 10.988 10.988 0 0 1 2.1-1.74c.18-.12 1.23-.6 1.23-.66s-.12-.06-.18-.06c-.12 0-.78.03-.93.03-7.11 0-11.759-4.47-11.759-4.89 0-.21.18-.21.54-.21h8.519c.87 0 1.59 0 1.59-.36a8.631 8.631 0 0 0-2.76-1.89 1.953 1.953 0 0 0-.99.75c-.63.69-.66.69-2.16.69H738.5c-.63 0-.66-.24-.66-.51 0-.09.12-1.35.15-1.56a11.449 11.449 0 0 0 .39-1.08c0-.69-2.34-.9-2.73-.9-.15 0-.42 0-.42.21a3.842 3.842 0 0 0 .18.75 5.854 5.854 0 0 1 .15 1.71c0 .87 0 1.38-.78 1.38h-5.34c-1.41 0-2.67-.03-4.14-.12-.18 0-1.11-.09-1.32-.09a.075.075 0 0 0-.09.06.284.284 0 0 0 .12.21l.57.69a.5.5 0 0 0 .27.21c.09 0 .54-.06.63-.06.33-.03 1.17-.09 3.81-.09h5.13zm.57-15.6c0-1.44-.99-1.92-2.55-2.61a13.639 13.639 0 0 0-2.28-.75.156.156 0 0 0-.12.06.727.727 0 0 0 .18.3 10.488 10.488 0 0 1 2.01 2.34c1.08 1.8 1.23 2.01 1.68 2.01a1.178 1.178 0 0 0 1.082-1.35zm37.4 22.29a.7.7 0 0 1 .84.45.881.881 0 0 0 .989.69 1.585 1.585 0 0 0 1.35-1.8c0-.21-.12-2.94-.12-3.48 0-1.5.12-1.59.39-1.77.57-.42.63-.48.63-.69 0-.48-1.98-1.98-2.28-1.98a1.632 1.632 0 0 0-.84.69 1.139 1.139 0 0 1-1.169.51h-6.21a3.519 3.519 0 0 1-1.74-.48 8.105 8.105 0 0 0-1.41-.51.214.214 0 0 0-.21.24 4.551 4.551 0 0 0 .09.63c.09 1.26.18 2.49.18 3.48 0 1.62-.06 2.73-.12 3.57a7.523 7.523 0 0 0-.09.93c0 .51.33.78 1.11.78a1.29 1.29 0 0 0 1.17-.54c.39-.66.45-.72.93-.72h6.51zm.09-6.6c.9 0 .9.39.9 1.02v3.99c0 .6-.21.78-.9.78h-6.66c-.9 0-.9-.36-.9-.99v-3.99c0-.6.21-.81.9-.81h6.66zm-1.23-15.84c-.54 0-1.02-.03-1.02-1.08a.759.759 0 0 1 .48-.9.759.759 0 0 0 .42-.6.671.671 0 0 0-.51-.57c-.21-.09-2.58-.48-2.67-.48a.292.292 0 0 0-.33.3c0 .15.24.78.27.93a8.242 8.242 0 0 1 .12 1.56c0 .69-.3.84-1.02.84h-6.75c-.51 0-.57-.18-.81-.81a2.359 2.359 0 0 0-.54-.78 2.069 2.069 0 0 0-.21.57 5.826 5.826 0 0 1-1.35 2.67c-1.08 1.2-1.23 1.38-1.23 1.74a1.239 1.239 0 0 0 1.23 1.08c.63 0 1.95-.57 2.34-2.55.21-1.05.24-1.14.9-1.14h17.009c.27 0 .6 0 .6.42 0 .21-.42 1.38-.42 1.44a.08.08 0 0 0 .09.09 1.612 1.612 0 0 0 .48-.3 4.421 4.421 0 0 1 2.49-.78c.21 0 1.17 0 1.29-.03a.743.743 0 0 0 .48-.57 2.272 2.272 0 0 0-.99-.93c-.3-.21-1.68-1.29-1.92-1.41a.465.465 0 0 0-.24-.06 4.049 4.049 0 0 0-.81 1.02 1.133 1.133 0 0 1-.9.33h-6.479zm12.419 13.89c.06-.12-.21-.15-.33-.15a16.762 16.762 0 0 1-3.06-.51c-4.74-1.29-9.509-5.34-9.749-5.52a.827.827 0 0 1-.24-.87c0-.42-.21-.54-.75-.81a14.058 14.058 0 0 0-1.68-.72.723.723 0 0 0-.54.42 5.594 5.594 0 0 1-.9 1.56c-3.15 3.78-7.89 6.78-9.9 8.07a4.112 4.112 0 0 0-1.23.9.075.075 0 0 0 .09.06c.06 0 1.56-.42 1.98-.57a31.127 31.127 0 0 0 10.89-7.17c.75-.81.84-.9 1.17-.9.36 0 .42.09.87.66a22.8 22.8 0 0 0 4.919 5.07 29.039 29.039 0 0 0 4.47 2.76.789.789 0 0 0 .42-.27 6.287 6.287 0 0 1 2.73-1.74 3.956 3.956 0 0 0 .846-.27zm-17.519-9.54c.57-.21.72-.27.72-.51 0-.39-1.92-1.56-2.1-1.56a.968.968 0 0 0-.63.69 27.746 27.746 0 0 1-5.4 4.5 13.461 13.461 0 0 0-1.35.87.08.08 0 0 0 .09.09 24.5 24.5 0 0 0 7.44-3.27c.184-.12 1.026-.72 1.236-.81zm11.039 3.18c.6.72.84 1.02 1.41 1.02a1.074 1.074 0 0 0 1.08-1.08c0-.96-.96-2.91-5.01-4.05-1.11-.3-3.359-.72-3.389-.72a.11.11 0 0 0-.12.12 1.947 1.947 0 0 0 .66.45 16.864 16.864 0 0 1 5.375 4.26zm30.813-.54a.338.338 0 0 1-.39-.39c0-.09.93-2.43 1.71-2.82a.545.545 0 0 0 .39-.42c0-.72-2.79-1.2-2.85-1.2a.305.305 0 0 0-.3.39c0 3.24-3.659 9.3-4.409 10.53-.18.3-1.23 1.77-1.23 1.86 0 .06.15.06.3-.06a11.829 11.829 0 0 0 2.19-2.07.415.415 0 0 1 .33-.18c.21 0 .24.12.3.33a17.4 17.4 0 0 0 1.709 4.35 1.13 1.13 0 0 1 .121.48c0 .45 0 .66-2.01 2.31-.42.36-3.42 2.07-3.42 2.22a.1.1 0 0 0 .09.09 14.622 14.622 0 0 0 5.1-2.28c.93-.69 1.02-.75 1.26-.75.3 0 .3 0 1.29.9a12.776 12.776 0 0 0 4.35 2.61 2.06 2.06 0 0 0 .51.15c.3 0 .36-.09.87-.75.27-.36.48-.66 2.22-1.44a.527.527 0 0 0 .36-.24c0-.12-.15-.12-.18-.12a12.024 12.024 0 0 1-5.28-1.11c-.87-.39-2.28-1.05-2.28-1.74a.723.723 0 0 1 .21-.54c.33-.33 2.28-2.31 4.77-7.86a1.256 1.256 0 0 1 1.08-.81.527.527 0 0 0 .36-.45c0-.57-2.16-2.01-2.49-2.01a1.344 1.344 0 0 0-.81.63 1.289 1.289 0 0 1-1.05.39H808zm2.85.81a.542.542 0 0 1 .66.51c0 .81-1.74 4.74-2.79 6.39-.96 1.47-1.05 1.62-1.5 1.62-.51 0-1.41-1.35-1.74-1.89a7.3 7.3 0 0 1-1.139-2.4 1.011 1.011 0 0 1 .15-.51c.12-.18.75-1.02.9-1.23.209-.3.239-.33.39-.33.36 0 .989 1.32 1.169 1.83.33.9.6 1.26 1.17 1.26a1.022 1.022 0 0 0 .87-1.17c0-1.08-1.86-1.98-2.43-2.25a.545.545 0 0 1-.359-.51 1.645 1.645 0 0 1 1.469-1.32h3.18zm-17.069-6.48a1.54 1.54 0 0 0 .75-1.26c0-1.59-2.43-2.79-4.14-2.79-.15 0-.51 0-.51.15a1.323 1.323 0 0 0 .36.33 6.471 6.471 0 0 1 1.62 1.89c.9 1.59 1.02 1.77 1.56 1.77a.8.8 0 0 0 .366-.09zm-2.1 6.12a1.252 1.252 0 0 0 .6-1.02c0-1.5-1.59-2.52-3.72-2.52a1.316 1.316 0 0 0-.96.21 1.115 1.115 0 0 0 .33.27 11.543 11.543 0 0 1 2.01 1.86c.9 1.23.99 1.29 1.32 1.29a1.178 1.178 0 0 0 .426-.09zm15.6-6.84c-.93 0-.93-.42-.93-1.56a1.8 1.8 0 0 1 .21-.96 3.147 3.147 0 0 0 .48-.63c0-.57-2.339-1.05-2.789-1.05a.44.44 0 0 0-.48.36c0 .15.21.84.24.99a6.63 6.63 0 0 1 .12 1.41c0 .99 0 1.44-.93 1.44h-1.92c-1.38 0-2.73-.06-4.11-.12-.18 0-1.11-.09-1.32-.09a.075.075 0 0 0-.09.06.306.306 0 0 0 .12.21l.57.69a.363.363 0 0 0 .27.18c.09 0 .54-.06.63-.06 1.05-.09 3.12-.09 3.78-.09h13.139c.93 0 1.41 0 1.41-.42 0-.51-2.1-2.25-2.52-2.25a7.439 7.439 0 0 0-1.53 1.65c-.21.18-.45.24-1.68.24h-2.67zm-9.569 13.62c0 1.17-.06 6.93-.06 8.25a.916.916 0 0 0 .93 1.05c1.29 0 1.29-1.41 1.29-1.74 0-.12 0-.48-.03-1.02-.21-3.3-.21-3.42-.21-8.01a15.426 15.426 0 0 1 .06-2.1.844.844 0 0 1 .51-.72.512.512 0 0 0 .39-.39 1.331 1.331 0 0 0-.78-.72.288.288 0 0 1-.21-.27.479.479 0 0 1 .15-.3c.54-.63 3.06-3.9 3.36-4.08.51-.33.63-.39.63-.63 0-.6-2.46-1.29-2.61-1.29-.27 0-.3.03-.51.78-.54 2.07-3.6 6.42-5.4 8.79-.24.3-1.35 1.59-1.53 1.8l.06.09c.72 0 3.15-2.49 3.57-2.82a.239.239 0 0 1 .39.12v3.21zm-6.06 9.06a1.478 1.478 0 0 0 1.5-1.47c0-.36-.48-2.01-.54-2.4a18.668 18.668 0 0 1-.33-3.06c0-1.71 3.03-10.2 3.03-11.28a.106.106 0 0 0-.09-.12c-.18 0-3.03 6.69-3.66 7.89-1.41 2.67-1.68 2.7-2.4 2.76-.6.03-.66.03-.66.12a.665.665 0 0 0 .42.33c1.17.72 1.5 2.67 1.5 3.78 0 .27-.06 1.62-.06 1.8.005.78.185 1.65 1.295 1.65zm43.329-24.15a.65.65 0 0 1 .48-.18.5.5 0 0 0 .51-.48c0-.54-.6-.72-2.04-1.11-.27-.06-1.56-.48-1.74-.48a.257.257 0 0 0-.24.24 4.248 4.248 0 0 0 .12.6 8.229 8.229 0 0 1 .12 1.83c0 .33 0 8.91-3.42 15.42a22.249 22.249 0 0 1-7.11 7.71.743.743 0 0 0-.39.36.15.15 0 0 0 .18.15 16.581 16.581 0 0 0 8.73-7.14c2.97-4.89 3.75-11.88 3.84-12.84.12-1.08.12-1.2.3-1.2.12 0 .12.03.15.36a32.405 32.405 0 0 0 2.88 11.61c2.909 6.36 6.719 8.73 6.839 8.73a2.6 2.6 0 0 0 .75-.51 5.973 5.973 0 0 1 2.07-.9c.96-.21 1.05-.21 1.05-.36a.379.379 0 0 0-.3-.21c-4.62-1.2-8.01-6.69-8.52-7.5a32.634 32.634 0 0 1-4.349-13.74.577.577 0 0 1 .095-.36zm32.886 21.36c0-1.11-1.65-2.7-2.07-3.09-.96-.93-1.08-1.05-1.08-1.35a1.146 1.146 0 0 1 .18-.48c.12-.18.72-1.02.84-1.23 1.32-2.01 1.47-2.25 1.92-2.49a.623.623 0 0 0 .48-.54c0-.66-2.4-1.77-2.52-1.77-.18 0-.18.09-.39.87-.42 1.59-1.83 4.44-2.49 4.44-.24 0-2.37-1.14-2.82-1.35a23.853 23.853 0 0 0-3.48-1.38.153.153 0 0 0-.15.12c0 .39 5.1 3.48 5.1 4.44 0 .66-3.18 4.08-6.42 5.73a6.809 6.809 0 0 0-1.53.93c0 .15.09.15.18.15.69 0 4.56-1.38 8.4-4.68a1.476 1.476 0 0 1 .99-.6c.69 0 1.71 1.71 1.86 1.98.51.84.9 1.47 1.77 1.47a1.121 1.121 0 0 0 1.235-1.17zm7.919-19.56c1.08 0 1.62 0 1.62-.45a5.261 5.261 0 0 0-2.34-2.16c-.33 0-1.29 1.38-1.53 1.59-.21.21-.36.21-1.62.21H860.55c-.15 0-.48 0-.48-.24a4.069 4.069 0 0 1 1.44-1.83c.51-.18.72-.24.72-.48 0-.6-2.7-1.65-2.76-1.65a2.384 2.384 0 0 0-.6 1.02 28.469 28.469 0 0 1-4.71 7.47c-.24.27-1.62 1.74-1.62 1.8s.06.06.12.06c.36 0 2.7-1.08 5.61-4.32a2.29 2.29 0 0 1 2.07-1.02h15.449zm-3.03 7.74a.7.7 0 0 1 .84.72 8.728 8.728 0 0 1-.12.93 33.877 33.877 0 0 0-.18 4.02c0 3.81.6 5.85 1.86 7.56a4.626 4.626 0 0 0 3.33 2.04.863.863 0 0 0 1.02-.84c0-.33-.51-1.83-.51-2.16 0-.63.39-3.69.39-4.41a.17.17 0 0 0-.15-.21c-.3 0-.99 4.35-1.74 4.35a1.985 1.985 0 0 1-1.05-.78c-1.08-1.35-1.2-4.02-1.2-6.09 0-1.14.03-4.02.99-4.47.57-.24.75-.33.75-.63 0-.27-1.35-1.95-1.83-1.95a11.242 11.242 0 0 0-1.56.99 1.619 1.619 0 0 1-.78.15H860.07c-1.41 0-2.73-.03-4.11-.09-.18-.03-1.11-.12-1.32-.12-.09 0-.12.03-.12.06a.378.378 0 0 0 .12.21l.6.69a.321.321 0 0 0 .27.18c.09 0 .51-.06.63-.06 1.05-.06 3.09-.09 3.78-.09h12.839zm-10.019-4.68c-1.38 0-2.73-.03-4.11-.09-.18-.03-1.11-.12-1.32-.12a.117.117 0 0 0-.12.06.326.326 0 0 0 .15.21l.57.69a.321.321 0 0 0 .27.18c.09 0 .54-.06.63-.06 1.05-.06 3.12-.09 3.78-.09h10.289c.99 0 1.59 0 1.59-.39 0-.18-1.29-2.04-2.04-2.04-.33 0-.39.12-1.11 1.14-.36.51-.6.51-1.919.51h-6.66z" transform="translate(-280 -8595)"/><path id="日本一_売れている" data-name="日本一 売れている" class="cls-2" d="M1137.68 8706.58c.6 0 .6.21.63.72a1.006 1.006 0 0 0 .96 1.14 1.509 1.509 0 0 0 1.5-1.65c0-1.56-.21-9.15-.24-10.86-.03-2.64-.06-3.18-.06-6.39 0-1.44.15-1.65.54-1.95a1.333 1.333 0 0 0 .66-.78c0-.45-2.19-1.86-2.61-1.86-.3 0-.42.15-.87.78a1.076 1.076 0 0 1-1.08.3h-9.18a2.764 2.764 0 0 1-1.5-.42 5.224 5.224 0 0 0-1.41-.63c-.15 0-.18.09-.18.24 0 .27.15 1.53.18 1.8.24 3.03.24 10.17.24 13.44 0 1.14-.18 7.14-.18 7.26a.919.919 0 0 0 1.05 1.11c1.32 0 1.38-.84 1.44-1.62a.754.754 0 0 1 .87-.63h9.24zm-9.45-10.89c-.81 0-.84-.54-.84-1.11 0-.54 0-7.05.06-7.29a.669.669 0 0 1 .69-.45h9.27a.739.739 0 0 1 .75.39c.06.15.15 7.14.15 7.5a.777.777 0 0 1-.87.96h-9.21zm.15 10.08c-.81 0-.9-.39-.9-1.35 0-1.08-.09-5.91-.09-6.9 0-.6.09-1.05.87-1.05h9.18c.81 0 .87.51.87 1.14 0 .69 0 7.35-.03 7.53a.718.718 0 0 1-.87.63h-9.03zm39.29-2.7c1.11 0 1.62 0 1.62-.48a5.04 5.04 0 0 0-2.04-1.92 1.316 1.316 0 0 0-.69.75c-.33.81-.51.87-1.44.87h-.54a.726.726 0 0 1-.84-.87c0-2.64-.03-6.84-.03-9.45 0-.33 0-.75.36-.75.27 0 .33.15.48.54a26.791 26.791 0 0 0 4.53 7.77 20.121 20.121 0 0 0 4.44 3.93.709.709 0 0 0 .39-.3 2.507 2.507 0 0 1 1.26-.69 21.073 21.073 0 0 0 2.07-.45 1.231 1.231 0 0 0-.75-.36c-6.39-2.58-11.28-9.09-11.28-10.17 0-.27.21-.27.6-.27h8.61c1.05 0 1.62 0 1.62-.45 0-.42-2.7-2.4-3.06-2.4-.24 0-.42.09-.96 1.35-.33.72-.54.72-1.92.72h-5.61c-.78 0-.78-.57-.78-1.62a17.716 17.716 0 0 1 .33-4.08 6.272 6.272 0 0 0 .69-.87c0-.54-2.91-.93-3-.93a.232.232 0 0 0-.27.27c0 .15.24 1.83.27 2.04.06.66.06 1.65.06 4.23 0 .51 0 .96-.99.96h-5.97c-1.23 0-2.34-.03-4.05-.12-.21 0-1.17-.09-1.38-.09-.03 0-.12 0-.12.06a.863.863 0 0 0 .12.18l.6.72a.354.354 0 0 0 .3.18c.18 0 1.05-.09 1.23-.09 1.11-.06 2.31-.06 3.15-.06h4.05c.33 0 .75 0 .75.45 0 .99-3.69 7.41-7.8 11.13-.3.27-1.86 1.59-1.86 1.68a.165.165 0 0 0 .18.12 10.382 10.382 0 0 0 2.19-1.2 26.7 26.7 0 0 0 8.43-9.45c.63-1.08.66-1.17.9-1.17.27 0 .27.27.27.57 0 1.14-.06 6.75-.06 8.01a.76.76 0 0 1-.93.93h-.9c-.54 0-3.21-.21-3.81-.21-.03 0-.12 0-.12.06a.255.255 0 0 0 .09.15l.66.75c.15.18.15.18.27.18s.72-.06.87-.06c.36-.03 1.2-.09 1.95-.09h1.05c.39 0 .87 0 .87.96 0 .21-.06 2.01-.09 3.06 0 .12-.12 1.53-.12 1.8a.824.824 0 0 0 .75 1.02 1.635 1.635 0 0 0 1.53-1.86c0-.51-.06-3.15-.06-3.72 0-.9.15-1.26.96-1.26h2.97zm18.09-7.08c-.87 0-3.21 0-4.17-.09-.18 0-1.11-.12-1.26-.12-.03 0-.12 0-.12.06a1.216 1.216 0 0 0 .15.27l.63.84a.4.4 0 0 0 .27.18c.09 0 .54-.06.63-.06.36-.03 1.26-.09 3.78-.09h20.64c1.47 0 1.65 0 1.65-.42a1.578 1.578 0 0 0-.72-.87c-2.1-1.86-2.28-1.86-2.58-1.86-.39 0-.54.15-1.74 1.65-.42.51-.57.51-1.92.51h-15.24zm-79.1 35.53a.75.75 0 0 1-.78-.93c0-2.25 0-2.4.9-2.4h8.97c1.02 0 1.62 0 1.62-.42 0-.39-2.94-2.19-3.18-2.19a2.3 2.3 0 0 0-1.14 1.08c-.48.75-.63.75-1.98.75h-4.26c-.84 0-.84-.45-.84-1.41a2.012 2.012 0 0 1 .24-1.05 6.291 6.291 0 0 0 .66-.9 1.135 1.135 0 0 0-1.02-.69 16.238 16.238 0 0 0-2.16-.54c-.24 0-.24.09-.24.3 0 .3.15 1.8.15 2.16 0 1.89 0 2.13-.93 2.13h-4.65c-1.41 0-2.67-.06-4.14-.12-.18 0-1.11-.09-1.32-.09-.06 0-.09 0-.09.06a.338.338 0 0 0 .12.21l.57.66a.386.386 0 0 0 .27.21c.09 0 .54-.06.63-.06.78-.06 1.86-.09 3.81-.09h4.83c.87 0 .87.48.87 1.29 0 1.74-.15 2.04-.9 2.04h-2.58c-1.41 0-2.64-.03-4.11-.09-.18-.03-1.11-.12-1.32-.12a.1.1 0 0 0-.12.09.424.424 0 0 0 .15.18l.57.69a.362.362 0 0 0 .27.21 4.551 4.551 0 0 0 .63-.09c.3 0 1.17-.06 3.78-.06h13.23c.96 0 1.56 0 1.56-.36a9 9 0 0 0-2.91-2.16 1.912 1.912 0 0 0-1.08.96c-.51.72-.63.75-1.95.75h-2.13zm6.93 4.26c.45 0 .45.21.45.21a22.679 22.679 0 0 1-1.17 2.13.2.2 0 0 0 .24.18 8.925 8.925 0 0 0 1.41-.72 7.427 7.427 0 0 1 2.55-.66c.33-.03 1.2-.12 1.2-.69 0-.54-2.79-2.22-3.12-2.22a5.677 5.677 0 0 0-1.17.78 2.43 2.43 0 0 1-1.5.21h-16.11a1.326 1.326 0 0 1-.93-.24c-.24-.21-1.11-1.5-1.44-1.5a.332.332 0 0 0-.33.33c0 .12.15.72.15.84a4.573 4.573 0 0 1-.84 2.55c-1.11 1.59-1.26 1.77-1.26 2.31a1.125 1.125 0 0 0 1.2 1.14c1.53 0 2.67-2.19 2.82-3.6.09-.93.09-1.05.69-1.05h17.16zm-13.08 1.17a.924.924 0 0 0-.39-.09.234.234 0 0 0-.27.21 4.636 4.636 0 0 0 .18.69 7.455 7.455 0 0 1 .09 1.35c0 2.22 0 5.79-3.9 8.61a10.811 10.811 0 0 1-3.69 1.77c-.3.09-.48.12-.48.27a.343.343 0 0 0 .42.27c2.31 0 8.52-1.47 9.78-8.07.06-.39.24-2.4.39-2.82a9.636 9.636 0 0 0 .63-.9.744.744 0 0 0-.63-.48c-.36-.12-1.71-.66-2.13-.81zm6.6-.03c-.36-.06-.54-.06-.54.45 0 .18.03 1.05.03 1.26 0 .81.06 4.8.06 5.7 0 4.02 0 4.86 6.42 4.86a12.046 12.046 0 0 0 3.84-.42c.18-.06 1.56-.6 1.56-1.47a3.631 3.631 0 0 0-.81-1.32 2.025 2.025 0 0 1-.39-1.05c-.33-3.27-.36-3.66-.51-3.66a5.225 5.225 0 0 0-.3 1.47c-.45 3.57-.54 4.26-3.72 4.26-2.37 0-3.3-.24-3.57-.87-.21-.48-.27-1.2-.27-4.68a9.979 9.979 0 0 1 .24-2.82 4.973 4.973 0 0 0 .69-.93.651.651 0 0 0-.57-.45c-.3-.09-1.8-.24-2.16-.33zm22.86-12.33c-.21 0-.69.03-.69.3a11.662 11.662 0 0 0 .9 1.5 10.081 10.081 0 0 1 .78 4.38.946.946 0 0 1-.21.87 19.385 19.385 0 0 1-3.57 1.23 2.42 2.42 0 0 0-1.5 2.34 5.733 5.733 0 0 0 .69 2.4 15.772 15.772 0 0 1 .69 2.25 2.849 2.849 0 0 1-.39.99 9.362 9.362 0 0 0-1.32 3.36 1.1 1.1 0 0 0 1.08 1.11c.9 0 1.38-.78 1.65-1.68.21-.72.24-.81.36-.81.3 0 1.11 2.91 1.17 3.3.3 1.59.42 2.28 1.35 2.28s1.17-.69 1.17-1.68a18.322 18.322 0 0 0-.36-2.79 27.421 27.421 0 0 1-.24-3.87c0-3.03.3-4.26 2.31-6.15 1.98-1.86 4.53-3.99 6.66-3.99a1.759 1.759 0 0 1 1.86 2.07 49.836 49.836 0 0 1-.81 6.27 12.77 12.77 0 0 0-.36 2.82c0 .81 0 4.38 3.54 4.38 3.18 0 4.83-3.48 4.83-3.9a.228.228 0 0 0-.18-.24 1.452 1.452 0 0 0-.63.51 4 4 0 0 1-3.15 1.5c-2.04 0-2.22-1.62-2.22-2.79a25.844 25.844 0 0 1 .48-4.5 26.529 26.529 0 0 0 .36-3.84c0-2.13-.9-3.57-2.94-3.57-2.79 0-6.42 3.42-7.98 4.92a2.343 2.343 0 0 1-.75.63.08.08 0 0 1-.09-.09 4.128 4.128 0 0 1 .72-1.08 1.446 1.446 0 0 0 .27-.78.669.669 0 0 0-.45-.6.892.892 0 0 1-.63-1.05 20.939 20.939 0 0 1 .15-2.16c.03-.27.3-1.59.3-1.83 0-.54-1.86-2.01-2.85-2.01zm.48 9.09a4.124 4.124 0 0 1-.54 1.35c-.15.3-1.77 3.45-1.83 3.6a.536.536 0 0 1-.33.3c-.27 0-.99-2.25-.99-3.3 0-1.5 3.12-2.13 3.36-2.13a.323.323 0 0 1 .33.18zm-.54 9.93a4.906 4.906 0 0 1-1.05-2.16c0-.33.87-2.31 1.17-2.31.15 0 .15.18.15.27 0 .06-.06.9-.06 1.05 0 2.94 0 3.15-.21 3.15zm24.2-13.56c-.36.42 1.05 2.43 2.55 2.43a2.17 2.17 0 0 0 1.05-.39c.96-.54 7.2-3.21 8.91-3.21.06 0 .18 0 .18.06a5.376 5.376 0 0 1-.72.63c-4.35 3.87-4.38 10.23-4.38 11.55 0 1.41 0 6.42 6.15 6.42.18 0 3.48 0 3.48-1.59 0-.72-.57-1.11-1.5-1.11-.24 0-2.4.18-2.85.18-1.77 0-3.66-.33-3.66-5.37 0-7.74 4.26-11.25 8.07-11.25.36 0 2.07.33 2.46.33a1.191 1.191 0 0 0 1.2-1.11c0-1.02-1.35-1.44-2.4-1.44-2.01 0-8.85 1.95-11.52 2.7-4.11 1.17-4.56 1.29-5.85 1.29a3.18 3.18 0 0 0-1.17-.12zm30.5-1.95a.165.165 0 0 0-.18.12 4.052 4.052 0 0 0 .24 1.02 8.335 8.335 0 0 1 .21 1.74c0 .78-.42 4.47-.42 5.31 0 5.73 3.78 8.88 5.7 8.88a1.064 1.064 0 0 0 1.14-.93 7.525 7.525 0 0 0-.24-.99 4.049 4.049 0 0 1-.18-1.2 8.417 8.417 0 0 1 .39-2.28 3.6 3.6 0 0 0 .09-.6.214.214 0 0 0-.15-.24 2.6 2.6 0 0 0-.93 1.02c-.9 1.5-1.02 1.65-1.53 1.65-.93 0-2.49-2.19-2.49-5.22a10.6 10.6 0 0 1 .72-3.87 4.11 4.11 0 0 0 .36-1.2c0-.81-1.35-3.21-2.73-3.21zm14.31 2.76a.231.231 0 0 0-.27.15 10.739 10.739 0 0 0 1.44 1.35c1.59 1.59 1.59 2.85 1.59 5.34 0 .39 0 2.01 1.47 2.01 1.44 0 1.5-1.41 1.5-1.98a7.466 7.466 0 0 0-2.67-5.73 5.839 5.839 0 0 0-3.06-1.14zm26.26 14.34a1.372 1.372 0 0 1-1.02-.81 4.429 4.429 0 0 0-3.42-1.92 2.888 2.888 0 0 0-2.97 2.43c0 1.5 2.13 3.09 5.1 3.09 3.81 0 7.5-2.67 7.5-6.48a6.476 6.476 0 0 0-6.75-6.24 7.257 7.257 0 0 0-2.64.48c-.18.06-.57.21-.75.27a.225.225 0 0 1-.18-.21c0-.51 2.64-4.62 4.8-6.15 1.44-.99 2.13-1.47 2.13-2.34 0-1.32-1.95-2.07-3.15-2.07-.66 0-.87.09-2.73.9a14.546 14.546 0 0 1-4.65 1.08c-.63 0-.72 0-.72.09 0 .15.93 2.07 2.34 2.07.51 0 .93-.09 2.13-1.08.51-.42 2.28-1.92 3.39-1.92a.5.5 0 0 1 .57.42c0 .33-.42.96-1.41 2.37-4.53 6.36-4.83 6.75-6.78 9.03-2.13 2.49-2.37 3.15-2.37 3.9a.827.827 0 0 0 .87.84c.81 0 1.11-.57 1.71-1.59.54-.93 3.09-5.04 7.05-5.04a4.749 4.749 0 0 1 5.07 4.56c0 2.49-2.1 4.32-3.12 4.32zm-2.76.3a.5.5 0 0 1-.51.54c-1.29 0-2.58-.63-2.58-1.41a1.226 1.226 0 0 1 1.26-1.05 2.041 2.041 0 0 1 1.83 1.92z" transform="translate(-280 -8595)"/><path id="_2017年_" data-name="2017年" class="cls-2" d="M582.011 9029.81a1.6 1.6 0 0 0 1.8-1.08c.15-.63 1.11-4.5 1.11-4.74a.363.363 0 0 0-.3-.42c-.18 0-.18.03-.66 1.14-.84 1.98-2.58 2.82-5.61 2.82h-3.09c-.12 0-1.079 0-1.079-.45 0-.57 1.619-3.36 6.149-7.14 2.55-2.13 4.44-3.84 4.44-6.93 0-3.54-2.76-5.64-6-5.64-3.81 0-6.449 2.88-6.449 5.43a1.84 1.84 0 0 0 1.71 2.04 1.632 1.632 0 0 0 1.619-1.62 2.426 2.426 0 0 0-.63-1.44 1.536 1.536 0 0 1-.3-.9c0-1.29 1.559-2.52 3.359-2.52a4.009 4.009 0 0 1 3.99 4.23c0 2.85-.63 3.63-7.709 12.06-.69.81-2.61 3.12-2.61 4.71 0 .42.69.45.87.45h9.389zm21.657-10.92c0-5.28-1.89-11.49-6.75-11.52-4.709 0-6.749 5.94-6.749 11.52 0 5.52 2.01 11.49 6.749 11.49 4.83 0 6.75-6.18 6.75-11.49zm-2.7 0c0 1.56-.06 10.5-4.05 10.5-4.049.03-4.049-9.27-4.049-10.5 0-1.53.06-10.53 4.049-10.53 4.05 0 4.05 9.27 4.05 10.53zm16.947 10.92c.27 0 .75 0 .75-.42a.564.564 0 0 0-.72-.54c-2.22 0-2.64-.36-2.85-1.23-.09-.33-.12-11.85-.12-13.23 0-.9.06-4.77.06-5.58 0-1.35 0-1.44-.33-1.44a12.926 12.926 0 0 0-1.47.66 14.043 14.043 0 0 1-3.39.75c-.929.06-1.23.09-1.23.48s.3.39 1.02.39c2.52 0 2.94 0 2.94 1.41 0 1.59.06 8.58.06 10.02 0 1.05 0 6.33-.21 6.84-.36.84-1.14.93-2.76.93-1.079 0-1.529 0-1.529.48 0 .09.03.48.689.48h9.09zm7.878-21.87c-1.559 0-1.709.39-2.069 2.04-.09.45-.78 3.69-.78 3.78a.378.378 0 0 0 .39.39c.24 0 .3-.09.69-1.05.66-1.68 1.89-2.88 5.339-2.88h4.14c.54 0 .78 0 .78.39s-2.82 4.95-3.33 5.88c-1.02 1.89-4.769 8.79-4.769 12.09a1.708 1.708 0 0 0 1.529 1.8c1.47 0 1.62-1.8 1.71-2.88.39-5.19 1.14-9.15 6.51-17.58a1.776 1.776 0 0 0 .33-1.14c0-.84-.6-.84-1.26-.84h-9.21zm25.953 1.35c.87 0 .9 0 .9 4.74a.767.767 0 0 1-.93.93h-3.84a3.574 3.574 0 0 1-1.41-.24 4.541 4.541 0 0 0-1.47-.42c-.12 0-.12.06-.12.54 0 .12.15 4.65.15 5.52 0 1.8 0 2.01-.84 2.01-.69 0-3.659-.21-4.259-.21-.06 0-.12 0-.12.06s0 .06.15.21l.57.69a.321.321 0 0 0 .27.18c.089 0 .54-.06.63-.06 1.049-.09 3.059-.09 3.779-.09h6.48a.741.741 0 0 1 .9.9c0 .75-.06 3.39-.09 4.32-.03.48-.21 2.52-.21 2.94a1.006 1.006 0 0 0 .93.93 2.659 2.659 0 0 0 1.59-.72 1.139 1.139 0 0 0 .3-1.02c0-.6-.18-3.21-.18-3.75v-2.64a.765.765 0 0 1 .9-.96h9.21c1.32 0 1.589-.09 1.589-.36 0-.42-2.759-2.4-3.089-2.4-.3 0-.39.12-1.17 1.23-.51.75-.63.75-1.65.75h-4.89a.777.777 0 0 1-.93-.93c0-1.14 0-3.48-.03-4.59 0-1.02.24-1.11 1.08-1.11h5.46c1.23 0 1.62 0 1.62-.39 0-.42-2.64-2.01-2.79-2.01-.36 0-1.41 1.38-1.68 1.53a5.608 5.608 0 0 1-1.47.09h-1.14c-.72 0-1.08-.06-1.08-.99v-3.96a.734.734 0 0 1 .9-.72h6.72c1.02 0 1.62 0 1.62-.42 0-.39-2.91-2.16-3.03-2.16-.3 0-1.02 1.29-1.2 1.5-.21.21-.33.27-1.71.27h-8.79c-.75 0-.81 0-.81-.21a2.449 2.449 0 0 1 .72-1.08 4.128 4.128 0 0 0 .99-.9c0-.42-2.43-1.47-2.97-1.68a2.1 2.1 0 0 0-.33.78 24.6 24.6 0 0 1-5.579 9 7.1 7.1 0 0 0-.96 1.08.1.1 0 0 0 .12.09c1.05 0 4.679-3.27 6.269-5.19.84-.99.9-1.08 1.83-1.08h3.09zm-.03 6.45c.99 0 .99.09.99 3.06 0 3.57-.06 3.57-1.02 3.57h-3.51c-.96 0-1.02 0-1.02-3.93 0-2.58.09-2.7.96-2.7h3.6z" transform="translate(-280 -8595)"/><path id="コスメ_大賞" data-name="コスメ 大賞" class="cls-2" d="M560.06 9068.98a.558.558 0 0 0-.638.54c0 1.06 3.772 4.3 4.941 4.3.424 0 2.284-.75 2.762-.85 2.072-.48 15.246-2.6 16.892-2.6.585 0 .8.21.8 1.11 0 1.06-.478 5.68-1.115 10.36-.372 2.66-.585 3.29-1.222 3.61-.8.43-14.715 1.38-18.38 1.38a18.709 18.709 0 0 1-2.709-.16 15.027 15.027 0 0 0-1.594-.26.43.43 0 0 0-.478.37c0 1.86 3.134 4.25 4.09 4.25.266 0 1.594-.59 1.913-.64.85-.21 10.943-1.33 14.236-1.33 1.222 0 7.119.38 8.447.38.425 0 2.868 0 2.868-1.44 0-1.33-1.965-2.02-3.293-2.23-.8-.16-1.275-.21-1.275-.9 0-.32.743-2.66.85-3.14 1.806-7.38 2.018-8.18 2.974-8.87 1.647-1.22 1.807-1.38 1.807-1.86 0-1.38-5.1-4.78-6.162-4.78-.479 0-.691.11-2.6 1.38-1.169.75-12.484 1.7-17.265 1.7-.909 0-5.531-.32-5.849-.32zm64.491-.63c.159.85-6.162 14.6-20.027 24.64a17.032 17.032 0 0 0-2.443 1.97.309.309 0 0 0 .371.32 13.041 13.041 0 0 0 3.294-1.22c6.906-3.46 12.324-9.41 14.183-11.37 1.169-1.33 1.328-1.49 1.86-1.49 1.168 0 5.843 4.04 9.508 10.47 1.86 3.29 2.072 3.66 3.294 3.66a2.291 2.291 0 0 0 2.178-2.34c0-4.83-9.509-10.2-11.9-11.58-2.231-1.22-2.338-1.32-2.338-1.8a1.716 1.716 0 0 1 .425-1.06c.85-1.23 5.047-7.44 6.109-8.72.319-.37 2.285-1.8 2.285-2.28 0-1.33-3.241-4.04-4.516-4.04-.478 0-2.443 1.44-2.922 1.65-2.762 1.11-12.749 1.96-14.555 1.96a9.379 9.379 0 0 1-2.815-.53c-.16-.05-1.328-.37-1.381-.37-.266 0-.319.16-.319.43a10.949 10.949 0 0 0 1.275 3.08c.319.32 2.815 1.91 3.612 1.91a22.177 22.177 0 0 0 2.391-1.01c.265-.11 11.421-2.71 11.792-2.71a.6.6 0 0 1 .639.43zm32.884 2.81a.407.407 0 0 0-.478.43c0 .26.106.31 1.115.85 2.019 1.11 6.906 4.03 6.906 5.15 0 .8-2.55 4.09-3.825 5.68-1.487 1.81-5.046 5.95-14.077 13.02a8.024 8.024 0 0 0-1.647 1.54.31.31 0 0 0 .372.26c.478 0 11.1-4.51 20.824-16.68a1.547 1.547 0 0 1 1.115-.74c.744 0 1.753 1.81 2.284 2.76 1.86 3.3 2.657 4.68 4.569 4.68a1.674 1.674 0 0 0 1.7-1.76c0-1.32-.638-4.19-5.206-8.23a2.11 2.11 0 0 1-.9-1.43 2.429 2.429 0 0 1 .531-1.33 69.185 69.185 0 0 0 3.028-5.31c1.381-2.61 1.541-2.87 2.125-3.19 1.169-.59 1.328-.64 1.328-1.06a6.98 6.98 0 0 0-2.284-3.83 8.355 8.355 0 0 0-3.559-1.7.433.433 0 0 0-.425.48 2.285 2.285 0 0 0 .318.64 2.342 2.342 0 0 1 .372 1.22 26.143 26.143 0 0 1-1.965 6.37c-.638 1.54-2.178 5.26-3.294 5.26a29.131 29.131 0 0 1-3.346-1.43 21.511 21.511 0 0 0-5.581-1.65zm-73.335 57.15c.85 0 1.435 0 1.435 1.17a38.91 38.91 0 0 1-.85 5.37 34.863 34.863 0 0 1-18.487 22.63c-.531.27-1.7.8-1.7 1.06a.289.289 0 0 0 .319.21 22.88 22.88 0 0 0 7.915-2.86c13.706-7.65 15.671-18.7 16.734-24.65.212-1.12.212-1.28.371-1.28a2.675 2.675 0 0 1 .372 1.07 53.325 53.325 0 0 0 8.287 18c2.816 4.04 7.543 8.29 8.5 8.29a8.085 8.085 0 0 0 1.753-.96 13.483 13.483 0 0 1 4.781-1.01c.8-.05 1.062-.1 1.062-.47 0-.22 0-.22-1.434-.8-15.034-5.9-21.939-21.67-21.939-24.92 0-.85.371-.85 1.54-.85H609.7c1.753 0 2.815 0 2.815-.74 0-.53-4.25-3.93-5.418-3.93-.638 0-.85.21-2.55 2.39-.691.9-.956.9-3.4.9h-9.19c-.85 0-1.806 0-1.806-1.22 0-1.27.372-7.44.425-8.81.106-2.5.106-2.77 1.116-3.62a1.684 1.684 0 0 0 .85-1.22 1.171 1.171 0 0 0-1.169-.96 44.621 44.621 0 0 0-5.525-1.22c-.318 0-.318.16-.318.43s.159 1.49.212 1.8c.319 3.24.319 6.06.319 7.33 0 7.49-.16 7.49-1.806 7.49h-9.19c-2.5 0-4.675-.1-7.278-.21-.319 0-1.965-.16-2.337-.16-.107 0-.213 0-.213.11a.784.784 0 0 0 .266.37l1.009 1.22a.555.555 0 0 0 .478.32c.16 0 .9-.1 1.116-.1.531-.06 2.018-.17 6.693-.17h9.3zm54.665 4.79a4.236 4.236 0 0 1-2.019-.53 7.956 7.956 0 0 0-2.869-1.07.55.55 0 0 0-.637.59c0 .32.266 1.7.319 1.96.106 1.07.106 3.14.106 5.69 0 3.5-.266 7.49-.319 8.44 0 .37-.106 2.02-.106 2.39 0 1.44.372 1.7 1.381 1.7a2.446 2.446 0 0 0 2.656-2.33 1.046 1.046 0 0 1 1.222-.75h17.849a.975.975 0 0 1 1.168.69c.213.96.372 1.6 1.594 1.6 2.391 0 2.391-1.76 2.391-2.71 0-1.7-.213-9.19-.213-10.73 0-2.71 0-3.03.638-3.51a1.2 1.2 0 0 0 .743-.85c0-.8-2.284-3.03-2.975-3.03-.531 0-.8.38-1.487 1.44a2.04 2.04 0 0 1-2.125 1.01h-17.32zm17.742 6.21c1.328 0 1.328.27 1.328 2.29 0 1.06-.69 1.06-1.328 1.06h-18.064c-.85 0-1.275-.11-1.275-1.22 0-1.86 0-2.13 1.275-2.13H656.5zm-18.061-1.38c-.584 0-1.275 0-1.275-1.06 0-2.18 0-2.39 1.275-2.39h18.114c.585 0 1.275 0 1.275 1.06 0 2.12 0 2.39-1.275 2.39h-18.117zm0 9.83c-1.328 0-1.328-.37-1.328-2.34 0-1.22.372-1.33 1.328-1.33H656.5c1.169 0 1.275.27 1.275 1.49 0 2.18-.372 2.18-1.328 2.18h-18.004zm12.483-28.58c-1.593 0-1.646-.75-1.646-2.18 0-3.35 0-3.72.69-4.46a1.651 1.651 0 0 0 .638-1.01c0-1.17-4.622-1.54-4.781-1.54-.478 0-.531.16-.531.37 0 .27.265 1.59.318 1.86.106.74.16 4.73.16 5.1 0 .85 0 1.86-1.488 1.86h-12.061c-1.01 0-1.01-.16-1.541-1.81a3.837 3.837 0 0 0-1.434-2.23c-.106 0-.106.16-.053 1.28a9.284 9.284 0 0 1-2.391 6.69c-1.593 1.65-1.806 1.81-1.806 2.55a2.052 2.052 0 0 0 1.966 2.18c.318 0 3.453 0 4.037-6.22a1.051 1.051 0 0 1 1.222-1.06h31.766a.755.755 0 0 1 .956.74c0 .59-1.221 3.51-1.221 3.78 0 .15.265.1.8-.32 1.859-1.49 2.5-2.02 4.249-2.02 2.072 0 3.028 0 3.028-1.17 0-1.06-4.834-3.83-5.259-3.83-.319 0-.425.22-.69.85a1.148 1.148 0 0 1-1.328.59h-13.6zm-15.352-7.55c-.159-.05-2.231-.79-2.231-.58 0 0 2.975 4.68 3.347 5.31 1.169 1.97 1.275 2.18 1.912 2.18a1.976 1.976 0 0 0 1.594-1.96c.001-3.3-3.722-4.63-4.625-4.95zm6.269 11.53a4.1 4.1 0 0 1-2.231-.63 5.3 5.3 0 0 0-2.178-.54c-.266 0-.957 0-.957.54a7.2 7.2 0 0 0 .532 1.11 12.544 12.544 0 0 1 .265 3.13c0 .54-.159 2.98-.159 3.46a.77.77 0 0 0 .85.9 3.267 3.267 0 0 0 2.39-1.17 1.239 1.239 0 0 1 1.116-.32h12.483a1.014 1.014 0 0 1 1.222.8 1.052 1.052 0 0 0 1.169.96c.106 0 2.284 0 2.284-1.92 0-.47-.212-2.6-.212-3.02a1.978 1.978 0 0 1 .531-1.76 1.344 1.344 0 0 0 .584-.95c0-.75-2.656-1.97-2.975-1.97a11.628 11.628 0 0 0-1.54.96 1.856 1.856 0 0 1-1.381.42h-11.796zm0 5.1c-1.222 0-1.222-.21-1.222-2.07 0-1.33 0-1.65 1.222-1.65h12.111c1.222 0 1.222.27 1.222 2.39 0 1.01-.053 1.33-1.222 1.33h-12.114zm18.008-16.63a14.349 14.349 0 0 0-2.5-.79c-.478 0-.531.53-.584.96a11.649 11.649 0 0 1-1.541 5.63 3.452 3.452 0 0 0-.531 1.38c.478 0 3.453-2.5 3.878-2.87 1.54-1.33 1.54-1.38 2.55-1.59.372-.06 1.222-.27 1.222-.91 0-.74-1.648-1.43-2.497-1.81zm-18.008 39.95a11.6 11.6 0 0 0-2.125-1.22 6.37 6.37 0 0 0-1.116 1.01c-2.018 1.75-6.587 3.93-11.155 5.37-.478.16-2.922.74-2.922.84 0 .32 1.487.38 1.7.38a45.209 45.209 0 0 0 10.359-1.76 56.517 56.517 0 0 1 5.843-1.91c1.116-.05 1.594-.05 1.594-.64-.003-.63-1.278-1.48-2.181-2.07zm14.821.43c-1.01-.16-4.144-.48-4.994-.48-.319 0-.372.16-.372.21a9.133 9.133 0 0 0 .85.48c2.231 1.01 4.94 2.23 6.375 3.08 4.2 2.5 5.418 3.24 6.852 3.24 1.01 0 2.072-.48 2.072-1.59-.003-2.82-8.502-4.57-10.786-4.94z" transform="translate(-280 -8595)"/><path id="コスメ_大賞-2" data-name="コスメ 大賞" class="cls-2" d="M922.06 9068.98a.558.558 0 0 0-.638.54c0 1.06 3.772 4.3 4.941 4.3.424 0 2.284-.75 2.762-.85 2.072-.48 15.246-2.6 16.892-2.6.585 0 .8.21.8 1.11 0 1.06-.478 5.68-1.115 10.36-.372 2.66-.585 3.29-1.222 3.61-.8.43-14.715 1.38-18.38 1.38a18.709 18.709 0 0 1-2.709-.16 15.027 15.027 0 0 0-1.594-.26.43.43 0 0 0-.478.37c0 1.86 3.134 4.25 4.09 4.25.266 0 1.594-.59 1.913-.64.85-.21 10.943-1.33 14.236-1.33 1.222 0 7.119.38 8.447.38.425 0 2.868 0 2.868-1.44 0-1.33-1.965-2.02-3.293-2.23-.8-.16-1.275-.21-1.275-.9 0-.32.743-2.66.85-3.14 1.806-7.38 2.018-8.18 2.974-8.87 1.647-1.22 1.807-1.38 1.807-1.86 0-1.38-5.1-4.78-6.162-4.78-.479 0-.691.11-2.6 1.38-1.169.75-12.484 1.7-17.265 1.7-.909 0-5.531-.32-5.849-.32zm64.491-.63c.159.85-6.162 14.6-20.027 24.64a17.032 17.032 0 0 0-2.443 1.97.309.309 0 0 0 .371.32 13.041 13.041 0 0 0 3.294-1.22c6.906-3.46 12.324-9.41 14.183-11.37 1.169-1.33 1.328-1.49 1.86-1.49 1.168 0 5.843 4.04 9.508 10.47 1.86 3.29 2.072 3.66 3.294 3.66a2.291 2.291 0 0 0 2.178-2.34c0-4.83-9.509-10.2-11.9-11.58-2.231-1.22-2.338-1.32-2.338-1.8a1.716 1.716 0 0 1 .425-1.06c.85-1.23 5.047-7.44 6.109-8.72.319-.37 2.285-1.8 2.285-2.28 0-1.33-3.241-4.04-4.516-4.04-.478 0-2.443 1.44-2.922 1.65-2.762 1.11-12.749 1.96-14.555 1.96a9.379 9.379 0 0 1-2.815-.53c-.16-.05-1.328-.37-1.381-.37-.266 0-.319.16-.319.43a10.949 10.949 0 0 0 1.275 3.08c.319.32 2.815 1.91 3.612 1.91a22.177 22.177 0 0 0 2.391-1.01c.265-.11 11.421-2.71 11.792-2.71a.6.6 0 0 1 .639.43zm32.879 2.81a.4.4 0 0 0-.47.43c0 .26.1.31 1.11.85 2.02 1.11 6.91 4.03 6.91 5.15 0 .8-2.55 4.09-3.83 5.68-1.48 1.81-5.04 5.95-14.07 13.02a7.982 7.982 0 0 0-1.65 1.54.308.308 0 0 0 .37.26c.48 0 11.1-4.51 20.82-16.68a1.569 1.569 0 0 1 1.12-.74c.74 0 1.75 1.81 2.28 2.76 1.86 3.3 2.66 4.68 4.57 4.68a1.671 1.671 0 0 0 1.7-1.76c0-1.32-.63-4.19-5.2-8.23a2.1 2.1 0 0 1-.91-1.43 2.41 2.41 0 0 1 .54-1.33c1.11-1.76 2.12-3.56 3.02-5.31 1.38-2.61 1.54-2.87 2.13-3.19 1.17-.59 1.33-.64 1.33-1.06a6.957 6.957 0 0 0-2.29-3.83 8.321 8.321 0 0 0-3.56-1.7.433.433 0 0 0-.42.48 2.279 2.279 0 0 0 .32.64 2.368 2.368 0 0 1 .37 1.22 26.023 26.023 0 0 1-1.97 6.37c-.63 1.54-2.18 5.26-3.29 5.26a28.732 28.732 0 0 1-3.35-1.43 21.41 21.41 0 0 0-5.58-1.65zm-73.33 57.15c.85 0 1.435 0 1.435 1.17a38.91 38.91 0 0 1-.85 5.37 34.863 34.863 0 0 1-18.487 22.63c-.531.27-1.7.8-1.7 1.06a.289.289 0 0 0 .319.21 22.88 22.88 0 0 0 7.915-2.86c13.706-7.65 15.671-18.7 16.734-24.65.212-1.12.212-1.28.371-1.28a2.675 2.675 0 0 1 .372 1.07 53.325 53.325 0 0 0 8.287 18c2.816 4.04 7.543 8.29 8.5 8.29a8.085 8.085 0 0 0 1.753-.96 13.483 13.483 0 0 1 4.781-1.01c.8-.05 1.062-.1 1.062-.47 0-.22 0-.22-1.434-.8-15.034-5.9-21.939-21.67-21.939-24.92 0-.85.371-.85 1.54-.85H971.7c1.753 0 2.815 0 2.815-.74 0-.53-4.249-3.93-5.418-3.93-.638 0-.85.21-2.55 2.39-.691.9-.956.9-3.4.9h-9.19c-.85 0-1.806 0-1.806-1.22 0-1.27.372-7.44.425-8.81.106-2.5.106-2.77 1.116-3.62a1.684 1.684 0 0 0 .85-1.22 1.171 1.171 0 0 0-1.169-.96 44.621 44.621 0 0 0-5.525-1.22c-.318 0-.318.16-.318.43s.159 1.49.212 1.8c.319 3.24.319 6.06.319 7.33 0 7.49-.16 7.49-1.806 7.49h-9.19c-2.5 0-4.675-.1-7.278-.21-.319 0-1.965-.16-2.337-.16-.107 0-.213 0-.213.11a.784.784 0 0 0 .266.37l1.009 1.22a.555.555 0 0 0 .478.32c.16 0 .9-.1 1.116-.1.531-.06 2.018-.17 6.693-.17h9.3zm54.663 4.79a4.225 4.225 0 0 1-2.017-.53 7.956 7.956 0 0 0-2.869-1.07.55.55 0 0 0-.637.59c0 .32.266 1.7.319 1.96.106 1.07.106 3.14.106 5.69 0 3.5-.266 7.49-.319 8.44 0 .37-.106 2.02-.106 2.39 0 1.44.372 1.7 1.381 1.7a2.446 2.446 0 0 0 2.656-2.33 1.046 1.046 0 0 1 1.226-.75h17.84a.975.975 0 0 1 1.17.69c.22.96.38 1.6 1.6 1.6 2.39 0 2.39-1.76 2.39-2.71 0-1.7-.21-9.19-.21-10.73 0-2.71 0-3.03.63-3.51a1.211 1.211 0 0 0 .75-.85c0-.8-2.29-3.03-2.98-3.03-.53 0-.8.38-1.49 1.44a2.031 2.031 0 0 1-2.12 1.01h-17.32zm17.74 6.21c1.33 0 1.33.27 1.33 2.29 0 1.06-.69 1.06-1.33 1.06h-18.06c-.847 0-1.272-.11-1.272-1.22 0-1.86 0-2.13 1.272-2.13h18.06zm-18.06-1.38c-.581 0-1.272 0-1.272-1.06 0-2.18 0-2.39 1.272-2.39h18.12c.58 0 1.27 0 1.27 1.06 0 2.12 0 2.39-1.27 2.39h-18.12zm0 9.83c-1.325 0-1.325-.37-1.325-2.34 0-1.22.372-1.33 1.325-1.33h18.06c1.17 0 1.28.27 1.28 1.49 0 2.18-.37 2.18-1.33 2.18h-18.01zm12.49-28.58c-1.6 0-1.65-.75-1.65-2.18 0-3.35 0-3.72.69-4.46a1.65 1.65 0 0 0 .64-1.01c0-1.17-4.62-1.54-4.78-1.54-.48 0-.53.16-.53.37 0 .27.26 1.59.31 1.86.11.74.16 4.73.16 5.1 0 .85 0 1.86-1.48 1.86h-12.065c-1.01 0-1.01-.16-1.541-1.81a3.837 3.837 0 0 0-1.434-2.23c-.106 0-.106.16-.053 1.28a9.284 9.284 0 0 1-2.391 6.69c-1.593 1.65-1.806 1.81-1.806 2.55a2.052 2.052 0 0 0 1.966 2.18c.318 0 3.453 0 4.037-6.22a1.051 1.051 0 0 1 1.222-1.06h31.762a.756.756 0 0 1 .96.74c0 .59-1.22 3.51-1.22 3.78 0 .15.26.1.8-.32 1.85-1.49 2.49-2.02 4.25-2.02 2.07 0 3.02 0 3.02-1.17 0-1.06-4.83-3.83-5.26-3.83-.31 0-.42.22-.69.85a1.138 1.138 0 0 1-1.32.59h-13.6zm-15.356-7.55c-.159-.05-2.231-.79-2.231-.58 0 0 2.975 4.68 3.347 5.31 1.169 1.97 1.275 2.18 1.91 2.18a1.975 1.975 0 0 0 1.6-1.96c-.003-3.3-3.726-4.63-4.629-4.95zm6.266 11.53a4.124 4.124 0 0 1-2.23-.63 5.29 5.29 0 0 0-2.176-.54c-.266 0-.957 0-.957.54a7.2 7.2 0 0 0 .532 1.11 12.544 12.544 0 0 1 .265 3.13c0 .54-.159 2.98-.159 3.46a.77.77 0 0 0 .85.9 3.277 3.277 0 0 0 2.395-1.17 1.225 1.225 0 0 1 1.11-.32h12.48a1.023 1.023 0 0 1 1.23.8 1.045 1.045 0 0 0 1.16.96c.11 0 2.29 0 2.29-1.92 0-.47-.21-2.6-.21-3.02a1.984 1.984 0 0 1 .53-1.76 1.354 1.354 0 0 0 .58-.95c0-.75-2.65-1.97-2.97-1.97a11.628 11.628 0 0 0-1.54.96 1.862 1.862 0 0 1-1.38.42h-11.8zm0 5.1c-1.22 0-1.22-.21-1.22-2.07 0-1.33 0-1.65 1.22-1.65h12.11c1.23 0 1.23.27 1.23 2.39 0 1.01-.06 1.33-1.23 1.33h-12.11zm18.01-16.63a14.169 14.169 0 0 0-2.5-.79c-.47 0-.53.53-.58.96a11.715 11.715 0 0 1-1.54 5.63 3.343 3.343 0 0 0-.53 1.38c.48 0 3.45-2.5 3.88-2.87 1.54-1.33 1.54-1.38 2.55-1.59.37-.06 1.22-.27 1.22-.91-.003-.74-1.653-1.43-2.503-1.81zm-18.01 39.95a11.674 11.674 0 0 0-2.12-1.22 6.385 6.385 0 0 0-1.12 1.01c-2.016 1.75-6.585 3.93-11.153 5.37-.478.16-2.922.74-2.922.84 0 .32 1.488.38 1.7.38a45.209 45.209 0 0 0 10.359-1.76 56.258 56.258 0 0 1 5.846-1.91c1.11-.05 1.59-.05 1.59-.64-.003-.63-1.273-1.48-2.183-2.07zm14.82.43c-1.01-.16-4.14-.48-4.99-.48-.32 0-.37.16-.37.21a9.538 9.538 0 0 0 .85.48c2.23 1.01 4.94 2.23 6.37 3.08 4.2 2.5 5.42 3.24 6.86 3.24 1 0 2.07-.48 2.07-1.59-.003-2.82-8.503-4.57-10.793-4.94z" transform="translate(-280 -8595)"/><path id="美容液" class="cls-2" d="M1107.4 8784.62c-.59 0-1.01 0-1.01-.37a1.113 1.113 0 0 1 .48-.64c.31-.32 2.07-1.75 2.49-2.07 2.5-2.18 2.77-2.39 3.77-2.55.48-.05 1.12-.11 1.12-.75 0-.85-.8-1.17-1.91-1.59-.53-.21-3.46-1.38-3.72-1.38-.53 0-.53.42-.53 1.65 0 3.18-2.29 7.7-4.2 7.7h-14.66c-2.5 0-4.73-.11-7.33-.21-.32 0-1.97-.16-2.34-.16-.1 0-.16 0-.16.1a.489.489 0 0 0 .21.37l1.01 1.23a.75.75 0 0 0 .48.37 8.629 8.629 0 0 0 1.12-.16c.53 0 2.07-.11 6.74-.11h9.67c1.44 0 1.44 1.17 1.44 2.87 0 2.23 0 3.03-1.38 3.03h-5.21c-2.5 0-4.68-.05-7.28-.21-.32 0-1.96-.16-2.34-.16a.126.126 0 0 0-.15.1.516.516 0 0 0 .21.38l1.01 1.22a.636.636 0 0 0 .48.37 8.731 8.731 0 0 0 1.11-.16c.53 0 2.07-.11 6.69-.11h5.53c1.38 0 1.38 1.12 1.38 2.07 0 2.29 0 3.19-1.38 3.19h-11.32c-2.49 0-4.67-.05-7.27-.16-.38-.05-1.97-.21-2.34-.21-.16 0-.21.05-.21.16a2.683 2.683 0 0 0 .21.32l1.06 1.27a.717.717 0 0 0 .48.32c.16 0 .9-.1 1.11-.1.54-.06 2.08-.16 6.7-.16h35.38c1.8 0 2.87 0 2.87-.75 0-.69-4.63-3.56-5-3.56-.48 0-.64.22-2.12 1.97-.75.9-1.01.9-3.4.9h-9.78c-1.43 0-1.43-1.06-1.43-3.08 0-.95 0-2.18 1.43-2.18h9.67c1.81 0 2.98 0 2.98-.95 0-.75-4.15-3.35-4.63-3.35s-2.07 2.12-2.49 2.44c-.48.38-.91.43-3.03.43h-2.5c-1.38 0-1.38-.96-1.38-3.19 0-1.7 0-2.71 1.38-2.71h16.42c1.8 0 2.87 0 2.87-.8 0-.68-4.68-3.5-5-3.5-.48 0-.63.21-2.12 1.97-.75.9-1.01.9-3.4.9h-6.48zm-9.83 24.86c.74 0 1.17 0 1.17.8 0 2.12-4.25 9.08-18.49 10.57-.21 0-2.6.26-2.6.31 0 .22 2.92.8 6.16.8 3.88 0 15.3-1.01 18.75-10.46.38-.96.38-1.12.64-1.12a1.11 1.11 0 0 1 .64.59 29.458 29.458 0 0 0 3.34 4.03 32.779 32.779 0 0 0 13.6 8.5 1.068 1.068 0 0 0 .69-.69 19.613 19.613 0 0 1 3.72-3.08c.32-.21 2.18-1.06 2.18-1.17s-.21-.1-.32-.1c-.21 0-1.38.05-1.64.05-12.59 0-20.83-7.92-20.83-8.66 0-.37.32-.37.96-.37h15.08c1.55 0 2.82 0 2.82-.64 0-.42-4.14-3.35-4.89-3.35a3.442 3.442 0 0 0-1.75 1.33c-1.12 1.22-1.17 1.22-3.82 1.22h-8.19c-1.11 0-1.16-.42-1.16-.9 0-.16.21-2.39.26-2.76.05-.27.69-1.59.69-1.91 0-1.22-4.14-1.6-4.83-1.6-.27 0-.75 0-.75.38a7.542 7.542 0 0 0 .32 1.32 10.32 10.32 0 0 1 .27 3.03c0 1.54 0 2.44-1.38 2.44h-9.46c-2.49 0-4.73-.05-7.33-.21-.32 0-1.96-.16-2.34-.16a.143.143 0 0 0-.16.11.482.482 0 0 0 .22.37l1.01 1.22a.877.877 0 0 0 .47.37c.16 0 .96-.1 1.12-.1.58-.06 2.07-.16 6.75-.16h9.08zm1.01-27.62c0-2.55-1.75-3.4-4.52-4.63a23.981 23.981 0 0 0-4.03-1.32.287.287 0 0 0-.22.1 1.292 1.292 0 0 0 .32.53 18.388 18.388 0 0 1 3.56 4.15c1.91 3.18 2.18 3.56 2.98 3.56 1.43 0 1.91-1.33 1.91-2.39zm67.25 39.46a1.249 1.249 0 0 1 1.49.8 1.563 1.563 0 0 0 1.75 1.22c1.65 0 2.39-1.7 2.39-3.18 0-.37-.21-5.21-.21-6.17 0-2.65.21-2.81.69-3.13 1.01-.74 1.12-.85 1.12-1.22 0-.85-3.51-3.51-4.04-3.51a2.955 2.955 0 0 0-1.49 1.22 2.015 2.015 0 0 1-2.07.91h-10.99c-1.07 0-1.33-.11-3.09-.85a13.6 13.6 0 0 0-2.49-.91.381.381 0 0 0-.37.43 6.905 6.905 0 0 0 .16 1.11c.15 2.24.31 4.41.31 6.17 0 2.87-.1 4.83-.21 6.32a13.8 13.8 0 0 0-.16 1.64c0 .91.59 1.39 1.97 1.39a2.28 2.28 0 0 0 2.07-.96c.69-1.17.8-1.28 1.65-1.28h11.52zm.16-11.68c1.6 0 1.6.69 1.6 1.8v7.07c0 1.06-.38 1.38-1.6 1.38h-11.79c-1.59 0-1.59-.64-1.59-1.75v-7.07c0-1.06.37-1.43 1.59-1.43h11.79zm-2.18-28.05c-.95 0-1.8-.05-1.8-1.91a1.351 1.351 0 0 1 .85-1.6 1.331 1.331 0 0 0 .74-1.06 1.2 1.2 0 0 0-.9-1.01c-.37-.16-4.57-.85-4.73-.85a.512.512 0 0 0-.58.53 17.1 17.1 0 0 0 .48 1.65 15.418 15.418 0 0 1 .21 2.76c0 1.22-.53 1.49-1.81 1.49h-11.95c-.9 0-1.01-.32-1.44-1.43a4.107 4.107 0 0 0-.95-1.39 3.456 3.456 0 0 0-.37 1.01 10.367 10.367 0 0 1-2.39 4.73c-1.92 2.13-2.18 2.45-2.18 3.08a2.2 2.2 0 0 0 2.18 1.92c1.11 0 3.45-1.01 4.14-4.52.37-1.86.42-2.02 1.59-2.02h30.12c.48 0 1.07 0 1.07.75 0 .37-.75 2.44-.75 2.55a.14.14 0 0 0 .16.15 2.7 2.7 0 0 0 .85-.53c1.81-.95 2.55-1.38 4.41-1.38.37 0 2.07 0 2.28-.05a1.311 1.311 0 0 0 .85-1.01c0-.43-.9-1.06-1.75-1.65-.53-.37-2.97-2.28-3.4-2.49a.73.73 0 0 0-.42-.11c-.32 0-1.22 1.54-1.44 1.81a2 2 0 0 1-1.59.58h-11.48zm22 24.6c.1-.22-.37-.27-.59-.27a30.183 30.183 0 0 1-5.42-.9c-8.39-2.29-16.84-9.46-17.26-9.78-.43-.37-.43-.48-.43-1.54 0-.74-.37-.95-1.32-1.43a24.635 24.635 0 0 0-2.98-1.28 1.265 1.265 0 0 0-.95.75 10.117 10.117 0 0 1-1.6 2.76c-5.58 6.69-13.97 12-17.53 14.29a7.332 7.332 0 0 0-2.18 1.59.143.143 0 0 0 .16.11c.11 0 2.77-.75 3.51-1.01a55.107 55.107 0 0 0 19.28-12.7c1.33-1.43 1.49-1.59 2.07-1.59.64 0 .75.16 1.54 1.17a40.7 40.7 0 0 0 8.72 8.98 51.711 51.711 0 0 0 7.91 4.88 1.4 1.4 0 0 0 .75-.48c1.27-1.7 3.71-2.65 4.83-3.08a7.3 7.3 0 0 0 1.49-.47zm-31.03-16.9c1.01-.37 1.28-.48 1.28-.9 0-.69-3.4-2.76-3.72-2.76-.37 0-.53.26-1.12 1.22-.63 1.01-4.19 4.25-9.56 7.97a22.967 22.967 0 0 0-2.39 1.54.147.147 0 0 0 .16.16c.32 0 5.69-1.22 13.18-5.79.31-.21 1.8-1.28 2.17-1.44zm19.55 5.63c1.07 1.28 1.49 1.81 2.5 1.81a1.9 1.9 0 0 0 1.91-1.91c0-1.7-1.7-5.15-8.87-7.17-1.96-.53-5.95-1.28-6-1.28a.193.193 0 0 0-.21.21 3.508 3.508 0 0 0 1.16.8 29.871 29.871 0 0 1 9.51 7.54zm55.09-.95a.6.6 0 0 1-.69-.69c0-.16 1.65-4.31 3.03-5a.962.962 0 0 0 .69-.74c0-1.27-4.94-2.13-5.05-2.13a.547.547 0 0 0-.53.7c0 5.73-6.48 16.46-7.81 18.64-.32.53-2.17 3.14-2.17 3.29 0 .11.26.11.53-.1a20.785 20.785 0 0 0 3.87-3.67.757.757 0 0 1 .59-.32c.37 0 .42.22.53.59a30.86 30.86 0 0 0 3.03 7.7 2.083 2.083 0 0 1 .21.85c0 .8 0 1.17-3.56 4.09-.74.64-6.05 3.67-6.05 3.93a.162.162 0 0 0 .15.16 26.054 26.054 0 0 0 9.04-4.03c1.64-1.23 1.8-1.33 2.23-1.33.53 0 .53 0 2.28 1.59a22.711 22.711 0 0 0 7.7 4.62 3.786 3.786 0 0 0 .91.27c.53 0 .63-.16 1.54-1.33.48-.64.85-1.17 3.93-2.55a.946.946 0 0 0 .64-.43c0-.21-.27-.21-.32-.21a21.345 21.345 0 0 1-9.35-1.96c-1.54-.69-4.04-1.86-4.04-3.08a1.288 1.288 0 0 1 .37-.96c.59-.58 4.04-4.09 8.45-13.92.37-.85.48-.9 1.91-1.43a.928.928 0 0 0 .64-.8c0-1.01-3.83-3.56-4.41-3.56-.32 0-.43.11-1.44 1.12a2.267 2.267 0 0 1-1.85.69h-5zm5.05 1.43a.961.961 0 0 1 1.17.9c0 1.44-3.08 8.4-4.94 11.32-1.7 2.6-1.86 2.87-2.66 2.87-.9 0-2.5-2.39-3.08-3.35-.64-.95-2.02-3.29-2.02-4.25a1.758 1.758 0 0 1 .27-.9c.21-.32 1.32-1.81 1.59-2.18.37-.53.43-.58.69-.58.64 0 1.75 2.33 2.07 3.24.59 1.59 1.07 2.23 2.07 2.23.96 0 1.55-.96 1.55-2.07 0-1.92-3.3-3.51-4.31-3.99a.964.964 0 0 1-.64-.9 2.914 2.914 0 0 1 2.61-2.34h5.63zm-30.23-11.47a2.716 2.716 0 0 0 1.33-2.23c0-2.82-4.3-4.94-7.33-4.94-.27 0-.9 0-.9.26a2.41 2.41 0 0 0 .63.59 11.248 11.248 0 0 1 2.87 3.34c1.6 2.82 1.81 3.14 2.76 3.14a1.477 1.477 0 0 0 .64-.16zm-3.72 10.83a2.189 2.189 0 0 0 1.07-1.8c0-2.66-2.82-4.46-6.59-4.46-.37 0-1.7 0-1.7.37a2.087 2.087 0 0 0 .58.48 19.885 19.885 0 0 1 3.56 3.29c1.6 2.18 1.76 2.28 2.34 2.28a1.979 1.979 0 0 0 .74-.16zm27.63-12.11c-1.65 0-1.65-.74-1.65-2.76a3.181 3.181 0 0 1 .37-1.7 5.341 5.341 0 0 0 .85-1.12c0-1-4.14-1.85-4.94-1.85a.775.775 0 0 0-.85.63c0 .27.37 1.49.43 1.76a11.793 11.793 0 0 1 .21 2.49c0 1.76 0 2.55-1.65 2.55h-3.4c-2.44 0-4.83-.1-7.27-.21-.32 0-1.97-.16-2.34-.16a.13.13 0 0 0-.16.11.544.544 0 0 0 .21.37l1.01 1.22a.655.655 0 0 0 .48.32c.16 0 .95-.11 1.11-.11 1.86-.16 5.53-.16 6.7-.16h23.26c1.65 0 2.5 0 2.5-.74 0-.9-3.72-3.98-4.46-3.98-.53 0-2.29 2.44-2.71 2.92-.37.32-.8.42-2.98.42h-4.72zm-16.95 24.12c0 2.07-.1 12.27-.1 14.61a1.62 1.62 0 0 0 1.64 1.86c2.29 0 2.29-2.5 2.29-3.08 0-.22 0-.85-.06-1.81-.37-5.84-.37-6.06-.37-14.18a26.447 26.447 0 0 1 .11-3.72 1.477 1.477 0 0 1 .9-1.28.908.908 0 0 0 .69-.69c0-.48-.85-1.01-1.38-1.27a.513.513 0 0 1-.37-.48.863.863 0 0 1 .26-.53c.96-1.12 5.42-6.91 5.95-7.23.91-.58 1.12-.69 1.12-1.11 0-1.06-4.36-2.29-4.62-2.29-.48 0-.53.06-.91 1.39-.95 3.66-6.37 11.36-9.56 15.56-.42.53-2.39 2.82-2.71 3.19l.11.16c1.27 0 5.58-4.41 6.32-5a.417.417 0 0 1 .27-.1.393.393 0 0 1 .42.32v5.68zm-10.73 16.04a2.619 2.619 0 0 0 2.66-2.6c0-.64-.85-3.56-.96-4.25a32.921 32.921 0 0 1-.58-5.42c0-3.03 5.36-18.06 5.36-19.97a.191.191 0 0 0-.16-.22c-.32 0-5.36 11.85-6.48 13.98-2.5 4.72-2.97 4.78-4.25 4.88-1.06.06-1.17.06-1.17.22 0 .1.06.15.75.58 2.07 1.28 2.65 4.73 2.65 6.69 0 .48-.1 2.87-.1 3.19 0 1.38.32 2.92 2.28 2.92z" transform="translate(-280 -8595)"/><path id="No.1" class="cls-2" d="M756.367 8819.62c1.009 0 1.7 0 1.7-.85a.959.959 0 0 0-1.222-.85c-2.284 0-5.206 0-5.843-3.5-.159-1.01-.159-11.58-.159-13.71s.053-11.36.053-13.28c0-.58.159-1.01.425-1.01s.371.22 1.328 1.76c.265.37 21.089 31.66 21.408 32.03a.919.919 0 0 0 .69.42c.691 0 .691-.9.691-1.16 0-4.41-.053-24.07-.053-28.05 0-6.38 0-8.77 4.409-8.77.85 0 1.593 0 1.593-.85 0-.9-.8-.9-1.381-.9h-11.049c-.744 0-1.487 0-1.487.9a.907.907 0 0 0 1.115.85c1.753 0 4.462 0 5.1 3.24.159.96.159 10.36.159 12.27 0 1.86-.053 10.58-.053 12.06 0 .69-.159 1.07-.372 1.07-.319 0-5.206-7.44-5.9-8.5-3.241-4.89-8.447-12.7-11.687-17.59-2.709-4.14-2.815-4.3-6.64-4.3h-5.153c-.8 0-1.594 0-1.594.9a.952.952 0 0 0 1.169.85c1.806 0 4.728 0 5.365 3.19.16.9.16.96.16 14.34 0 14.08-.053 14.13-.478 15.35-.85 2.39-3.56 2.39-4.25 2.39-1.328 0-1.966 0-1.966.85s.8.85 1.594.85h12.324zm32.565-12.53c0 7.59 4.94 13.54 11.74 13.54s11.739-5.89 11.739-13.54-4.94-13.55-11.739-13.55c-6.906 0-11.74 6.01-11.74 13.55zm4.515 0c0-7.17 3.187-12.11 7.225-12.11 4.409 0 7.224 5.63 7.224 12.11 0 6.37-2.762 12.11-7.224 12.11-4.516 0-7.225-5.84-7.225-12.11zm30.706 13.54a3.505 3.505 0 1 0 0-7.01 3.505 3.505 0 0 0 0 7.01zm31.554-1.01c.478 0 1.328 0 1.328-.74a1 1 0 0 0-1.275-.96c-3.931 0-4.674-.63-5.046-2.17-.16-.59-.213-20.99-.213-23.43 0-1.59.107-8.45.107-9.88 0-2.39 0-2.55-.585-2.55a22.265 22.265 0 0 0-2.6 1.17 25.4 25.4 0 0 1-6 1.33c-1.647.1-2.178.16-2.178.85s.531.69 1.806.69c4.462 0 5.206 0 5.206 2.49 0 2.82.106 15.2.106 17.75 0 1.86 0 11.21-.372 12.11-.637 1.49-2.019 1.64-4.887 1.64-1.913 0-2.709 0-2.709.85 0 .17.053.85 1.221.85h16.1z" transform="translate(-280 -8595)"/><path id="第一位" class="cls-2" d="M370.276 8807.83c1.01 0 1.541.06 1.541.59 0 .95-3.187 4.56-4.462 5.79a46.8 46.8 0 0 1-9.243 7.27 8.451 8.451 0 0 0-1.01.86.184.184 0 0 0 .213.15c.372 0 9.349-2.33 17-10.83a11.754 11.754 0 0 1 1.487-1.44c.319 0 .372.64.372.85 0 .43-.053 2.98-.213 5.85-.053.85-.318 4.67-.318 5.42a1.127 1.127 0 0 0 1.328 1.32c.159 0 2.921 0 2.921-2.6 0-1.81-.106-9.93-.106-11.58 0-1.28.372-1.65 2.178-1.65h11.421c1.222 0 2.072.06 2.072 1.6a32.9 32.9 0 0 1-.638 5.95 3.025 3.025 0 0 1-3.346 2.6c-.585 0-3.241-.27-3.825-.27a.34.34 0 0 0-.425.32 34.6 34.6 0 0 0 3.4 1.59c.425.27 2.231 1.92 2.656 1.92.956 0 3.347-1.38 4.356-3.72.637-1.49.744-2.07 1.381-7.28a1.414 1.414 0 0 1 .9-1.49c.8-.31 1.063-.42 1.063-.79 0-.8-2.763-3.19-3.666-3.19a9.894 9.894 0 0 0-2.072 1.17 4.585 4.585 0 0 1-1.646.21h-11.632c-1.54 0-2.178 0-2.178-1.8v-3.14c0-1.65.584-1.65 2.178-1.65h8.181c.956 0 1.434 0 1.54.75.213 1.11.266 1.32 1.116 1.32 2.815 0 2.868-1.38 2.922-2.81.159-4.89.212-5.42.478-6.06a13.793 13.793 0 0 0 1.221-1.7c0-1.22-3.293-3.13-3.559-3.13a3.864 3.864 0 0 0-1.646 1.38 1.272 1.272 0 0 1-1.275.64H368.63c-3.028 0-5.791-.11-7.331-.21-.372 0-1.966-.16-2.338-.16-.053 0-.159 0-.159.1a.487.487 0 0 0 .213.37l1.009 1.23a.757.757 0 0 0 .478.32c.106 0 1.381-.11 1.541-.11 2.178-.11 4.78-.16 6.321-.16h6.109c1.169 0 2.072.05 2.072 1.54 0 .74 0 3.99-.107 4.41-.212.9-1.009.9-2.018.9h-9.562a3.14 3.14 0 0 1-2.019-.58 29.419 29.419 0 0 0-2.815-1.49c-.425 0-.425.75-.425 1.06 0 1.86-.319 5.05-.531 7.01-.107.96-.9 5.1-.9 6.01 0 .64.106.95 1.221.95a3.383 3.383 0 0 0 2.975-2.28c.266-1.01.319-1.33 1.753-1.33h6.162zm11.634-9.35c-1.487 0-2.178-.1-2.178-1.64v-3.35c0-1.81.637-1.86 2.231-1.86h8.237c1.009 0 2.125.05 2.125 1.38 0 5.47-.372 5.47-2.231 5.47h-8.184zm-7.809 1.38c1.594 0 2.284 0 2.284 1.6 0 .21-.053 3.34-.053 3.72-.159 1.27-.85 1.27-2.231 1.27h-9.243c-1.009 0-2.019 0-2.019-1.38a36.423 36.423 0 0 1 .532-4.41c.265-.8.9-.8 2.018-.8h8.711zm-7.649-17.05c1.487 0 1.806.53 1.806 4.62 0 1.17 0 2.24 1.753 2.24a2.013 2.013 0 0 0 1.912-2.08c0-1.48-1.54-3.02-2.284-3.72a1.369 1.369 0 0 1-.584-.74c0-.32.531-.32 1.115-.32h5.472c1.806 0 2.868 0 2.868-.74 0-.69-2.5-3.61-3.346-3.61-.532 0-.638.21-1.807 2.07-.531.85-1.115.9-3.4.9h-4.091c-1.009 0-1.115 0-1.115-.26a4.46 4.46 0 0 1 1.328-1.65c.372-.32 2.443-1.54 2.443-2.02 0-1.06-4.887-2.23-4.94-2.23-.372 0-.478.58-.637 1.49-.532 2.49-3.188 6.26-5.313 8.87-.318.37-1.274 1.38-1.806 2.12a.289.289 0 0 0 .266.27c.531 0 3.134-1.97 5.843-4.36a2.52 2.52 0 0 1 2.178-.85h2.338zm31.872.05c1.753 0 2.816 0 2.816-.74s-4.09-3.29-4.569-3.29c-.531 0-.637.16-1.753 1.75-.637.85-.9.85-3.4.85h-7.437c-.638 0-.9 0-.9-.37a17.239 17.239 0 0 1 1.275-2.29c.212-.37 2.018-1.32 2.018-1.7 0-.79-4.3-1.85-4.621-1.85s-.319.05-.319.42c0 1.22-1.169 5.68-4.94 11.37a14.265 14.265 0 0 0-1.01 1.54s0 .1.213.1 1.806-.9 5.684-5.25a2.23 2.23 0 0 1 1.859-.54h2.231c.744 0 2.019 0 2.391 2.87.265 2.39.424 3.56 1.859 3.56a1.892 1.892 0 0 0 1.859-1.96c0-1.6-1.434-2.82-2.5-3.56a1.318 1.318 0 0 1-.743-.69c0-.22.318-.22.9-.22h9.083zm23.164 15.84c-1.541 0-5.684 0-7.384-.16-.319 0-1.966-.22-2.231-.22-.053 0-.213 0-.213.11a2.171 2.171 0 0 0 .266.48l1.115 1.49a.729.729 0 0 0 .479.31c.159 0 .956-.1 1.115-.1.638-.06 2.231-.16 6.693-.16h36.548c2.6 0 2.922 0 2.922-.75 0-.42-.425-.79-1.275-1.54-3.719-3.29-4.037-3.29-4.569-3.29-.69 0-.956.27-3.081 2.92-.743.91-1.009.91-3.4.91h-26.985zm81.172-12.97c-.744 0-1.594-.1-1.753-.95-.053-.27-.053-3.67-.053-4.2 0-1.17.159-1.64.8-2.12 1.01-.75 1.116-.8 1.116-1.17 0-.59-.85-.8-1.222-.9-1.806-.43-4.568-1.02-5.046-1.02a.551.551 0 0 0-.585.54c0 .16.478.95.532 1.16a21.715 21.715 0 0 1 .318 4.89c0 3.4 0 3.77-1.54 3.77h-1.7c-2.444 0-4.834-.1-7.278-.21-.319 0-1.965-.16-2.337-.16-.106 0-.213 0-.213.11a.715.715 0 0 0 .266.37l1.009 1.22a.576.576 0 0 0 .478.32c.16 0 .957-.11 1.116-.11 1.859-.15 5.525-.15 6.693-.15h21.2c1.806 0 2.868 0 2.868-.75 0-.53-4.621-3.72-5.1-3.72-.532 0-2.019 2.29-2.444 2.66-.478.42-.744.42-2.975.42h-4.15zm-.16 32.83c-.371 0-.956 0-.956-.58a3.294 3.294 0 0 1 .213-.85c3.559-9.99 5.471-15.99 6.48-20.51.638-2.71.85-3.61 1.594-4.14.744-.58.956-.74.956-1.12s-.053-.37-2.125-1.16c-.584-.22-3.559-1.23-3.877-1.23-.266 0-.372.06-.372.32 0 .32.265 1.97.265 2.39 0 3.03-1.912 17.16-4.09 25.5-.372 1.38-1.009 1.38-1.7 1.38h-7.171c-2.5 0-4.834-.05-7.278-.16-.372-.05-2.019-.21-2.39-.21a.167.167 0 0 0-.16.16 1.606 1.606 0 0 0 .213.32l1.009 1.22a.9.9 0 0 0 .478.37c.159 0 .956-.16 1.116-.16 1.912-.1 5.524-.1 6.746-.1h24.755c1.753 0 2.815-.06 2.815-.75a2.348 2.348 0 0 0-.85-1.01c-.956-.85-3.718-3.45-4.462-3.45a.815.815 0 0 0-.425.16c-.159.11-2.6 2.34-2.975 2.71-1.009.9-1.222.9-3.4.9H502.5zm-13.014-24.96c-.213.15.053.79.478 1.91a37.112 37.112 0 0 1 2.762 14.5c.053 2.66.053 4.25 1.487 4.25s2.975-2.18 2.975-5.15c0-6.01-6.852-16.1-7.702-15.51zm-13.015 3.5c0 5.69 0 8.93-.16 13.92-.053 1.43-.424 8.5-.424 10.09 0 .91.159 1.65 1.221 1.65.213 0 2.5-.21 2.763-1.54.159-.75.159-6.11.159-7.33 0-3.08-.106-18.28-.106-21.73a2.816 2.816 0 0 1 .159-1.22 10.328 10.328 0 0 0 1.063-1.06.74.74 0 0 0-.638-.53c-.531-.22-1.115-.38-1.115-.91 0-.21 3.665-8.02 3.984-8.39.318-.32 2.39-1.43 2.39-1.91 0-.59-6.109-3.03-6.268-3.03-.266 0-.266.32-.266.48s.053.95.053 1.17c0 2.71-3.931 12.64-5.471 16.36-.585 1.43-4.037 8.76-4.037 8.92 0 .11.053.11.106.11 1.009 0 5.949-8.02 6.321-8.02.213 0 .213.42.266.63v2.34z" transform="translate(-280 -8595)"/><path id="_2020年_" data-name="2020年" class="cls-2" d="M941.068 9029.81a1.6 1.6 0 0 0 1.8-1.08c.15-.63 1.11-4.5 1.11-4.74a.363.363 0 0 0-.3-.42c-.18 0-.18.03-.66 1.14-.84 1.98-2.58 2.82-5.61 2.82h-3.089c-.12 0-1.08 0-1.08-.45 0-.57 1.62-3.36 6.149-7.14 2.55-2.13 4.44-3.84 4.44-6.93 0-3.54-2.76-5.64-6-5.64-3.809 0-6.449 2.88-6.449 5.43a1.84 1.84 0 0 0 1.71 2.04 1.633 1.633 0 0 0 1.62-1.62 2.432 2.432 0 0 0-.63-1.44 1.533 1.533 0 0 1-.3-.9c0-1.29 1.56-2.52 3.359-2.52a4.009 4.009 0 0 1 3.99 4.23c0 2.85-.63 3.63-7.709 12.06-.69.81-2.61 3.12-2.61 4.71 0 .42.69.45.87.45h9.389zm21.657-10.92c0-5.28-1.89-11.49-6.75-11.52-4.709 0-6.749 5.94-6.749 11.52 0 5.52 2.01 11.49 6.749 11.49 4.83 0 6.75-6.18 6.75-11.49zm-2.7 0c0 1.56-.06 10.5-4.05 10.5-4.049.03-4.049-9.27-4.049-10.5 0-1.53.06-10.53 4.049-10.53 4.05 0 4.05 9.27 4.05 10.53zm17.577 10.92a1.6 1.6 0 0 0 1.8-1.08c.15-.63 1.11-4.5 1.11-4.74a.363.363 0 0 0-.3-.42c-.18 0-.18.03-.66 1.14-.84 1.98-2.58 2.82-5.61 2.82h-3.089c-.12 0-1.08 0-1.08-.45 0-.57 1.62-3.36 6.149-7.14 2.55-2.13 4.44-3.84 4.44-6.93 0-3.54-2.76-5.64-6-5.64-3.809 0-6.449 2.88-6.449 5.43a1.84 1.84 0 0 0 1.71 2.04 1.633 1.633 0 0 0 1.62-1.62 2.432 2.432 0 0 0-.63-1.44 1.533 1.533 0 0 1-.3-.9c0-1.29 1.56-2.52 3.359-2.52a4.009 4.009 0 0 1 3.99 4.23c0 2.85-.63 3.63-7.709 12.06-.69.81-2.61 3.12-2.61 4.71 0 .42.69.45.87.45h9.387zm21.657-10.92c0-5.28-1.89-11.49-6.75-11.52-4.709 0-6.749 5.94-6.749 11.52 0 5.52 2.01 11.49 6.749 11.49 4.83 0 6.75-6.18 6.75-11.49zm-2.7 0c0 1.56-.06 10.5-4.05 10.5-4.049.03-4.049-9.27-4.049-10.5 0-1.53.06-10.53 4.049-10.53 4.05 0 4.05 9.27 4.05 10.53zm20.131-9.6c.87 0 .9 0 .9 4.74a.767.767 0 0 1-.93.93h-3.84a3.574 3.574 0 0 1-1.41-.24 4.541 4.541 0 0 0-1.47-.42c-.12 0-.12.06-.12.54 0 .12.15 4.65.15 5.52 0 1.8 0 2.01-.84 2.01-.69 0-3.66-.21-4.26-.21-.06 0-.12 0-.12.06s0 .06.15.21l.57.69a.321.321 0 0 0 .27.18c.09 0 .54-.06.63-.06 1.05-.09 3.06-.09 3.78-.09h6.48a.741.741 0 0 1 .9.9c0 .75-.06 3.39-.09 4.32-.03.48-.21 2.52-.21 2.94a1.006 1.006 0 0 0 .93.93 2.659 2.659 0 0 0 1.59-.72 1.139 1.139 0 0 0 .3-1.02c0-.6-.18-3.21-.18-3.75v-2.64a.765.765 0 0 1 .9-.96h9.21c1.32 0 1.59-.09 1.59-.36 0-.42-2.76-2.4-3.09-2.4-.3 0-.39.12-1.17 1.23-.51.75-.63.75-1.65.75h-4.89a.777.777 0 0 1-.93-.93c0-1.14 0-3.48-.03-4.59 0-1.02.24-1.11 1.08-1.11h5.46c1.23 0 1.62 0 1.62-.39 0-.42-2.64-2.01-2.79-2.01-.36 0-1.41 1.38-1.68 1.53a5.608 5.608 0 0 1-1.47.09h-1.14c-.72 0-1.08-.06-1.08-.99v-3.96a.734.734 0 0 1 .9-.72h6.72c1.02 0 1.62 0 1.62-.42 0-.39-2.91-2.16-3.03-2.16-.3 0-1.02 1.29-1.2 1.5-.21.21-.33.27-1.71.27h-8.79c-.75 0-.81 0-.81-.21a2.449 2.449 0 0 1 .72-1.08 4.128 4.128 0 0 0 .99-.9c0-.42-2.43-1.47-2.97-1.68a2.1 2.1 0 0 0-.33.78 24.586 24.586 0 0 1-5.58 9 7.1 7.1 0 0 0-.96 1.08.1.1 0 0 0 .12.09c1.05 0 4.68-3.27 6.27-5.19.84-.99.9-1.08 1.83-1.08h3.09zm-.03 6.45c.99 0 .99.09.99 3.06 0 3.57-.06 3.57-1.02 3.57h-3.51c-.96 0-1.02 0-1.02-3.93 0-2.58.09-2.7.96-2.7h3.6z" transform="translate(-280 -8595)"/></svg>