<?xml version="1.0" encoding="utf-8"?>
<!-- Generator: Adobe Illustrator 24.0.2, SVG Export Plug-In . SVG Version: 6.00 Build 0)  -->
<svg version="1.1" id="sp_mv-txt.svg_sp_png_mv-txt.png"
	 xmlns="http://www.w3.org/2000/svg" xmlns:xlink="http://www.w3.org/1999/xlink" x="0px" y="0px" viewBox="0 0 683 222"
	 style="enable-background:new 0 0 683 222;" xml:space="preserve">
<style type="text/css">
	.st0{fill:#FFFFFF;fill-opacity:0.75;stroke:#6A3906;stroke-width:2;stroke-linejoin:round;stroke-opacity:0.73;}
	.st1{fill-rule:evenodd;clip-rule:evenodd;fill:#754C24;}
	.st2{fill:#754C24;}
	.st3{font-family:'HGSeikaishotaiPRO';}
	.st4{font-size:32.3052px;}
	.st5{letter-spacing:-1;}
	.st6{font-size:30.0773px;}
</style>
<circle id="楕円形_2" class="st0" cx="572.1" cy="111" r="107.9"/>
<circle id="楕円形_2-2" class="st0" cx="341.8" cy="111" r="107.9"/>
<ellipse id="楕円形_2-3" class="st0" cx="110.9" cy="111" rx="107.9" ry="108"/>
<path id="_1" class="st1" d="M645.4,97.6l4.4,4.3l0.4-0.4l-4.4-4.3l4.3-4.4l-0.4-0.4l-4.3,4.4l-4.4-4.3l-0.4,0.4l4.4,4.3l-4.3,4.4
	l0.4,0.4L645.4,97.6z M649,96c-0.6,0-1.1,0.5-1.1,1.1c0,0.6,0.5,1.1,1.1,1.1c0.6,0,1.1-0.5,1.1-1.1C650.1,96.5,649.6,96,649,96
	C649,96,649,96,649,96z M641.7,96.1c-0.6,0-1.1,0.5-1.1,1.1c0,0.6,0.5,1.1,1.1,1.1c0.6,0,1.1-0.5,1.1-1.1c0,0,0,0,0,0
	C642.8,96.6,642.3,96.1,641.7,96.1z M645.3,92.4c-0.6,0-1.1,0.5-1.1,1.1s0.5,1.1,1.1,1.1c0.6,0,1.1-0.5,1.1-1.1l0,0
	C646.4,92.9,645.9,92.4,645.3,92.4z M645.4,99.7c-0.6,0-1.1,0.5-1.1,1.1c0,0.6,0.5,1.1,1.1,1.1c0.6,0,1.1-0.5,1.1-1.1c0,0,0,0,0,0
	C646.5,100.2,646,99.7,645.4,99.7z M652.4,102.2l4.4,0v-0.4l-0.6,0c-0.5,0-0.9-0.3-0.9-0.8c0,0,0,0,0,0l-0.1-8.7
	c0-0.1,0-0.1-0.1-0.1c0,0-0.4,0.2-0.4,0.2c-0.8,0.3-1.6,0.5-2.4,0.6v0.4l1,0c0.4,0,0.6,0.3,0.6,0.7l0.1,7c0.1,0.4-0.2,0.8-0.7,0.8
	c0,0-0.1,0-0.1,0l-0.8,0L652.4,102.2z"/>
<text transform="matrix(1 0 0 1 291.0566 81.8696)"><tspan x="0" y="0" class="st2 st3 st4 st5">敏感肌</tspan><tspan x="-15.3" y="47.4" class="st2 st3 st4 st5">を考えて</tspan><tspan x="15.3" y="94.9" class="st2 st3 st4 st5">開発</tspan></text>
<text transform="matrix(1 0 0 1 490.6016 81.8696)"><tspan x="0" y="0" class="st2 st3 st6 st5">累計240万本</tspan><tspan x="38.8" y="47.4" class="st2 st3 st6 st5">販売の</tspan><tspan x="-4" y="94.9" class="st2 st3 st6 st5">ロングセラー</tspan></text>
<text transform="matrix(1 0 0 1 36.8384 84.0977)"><tspan x="0" y="0" class="st2 st3 st6 st5">食品由来の</tspan><tspan x="0" y="47.4" class="st2 st3 st6 st5">発酵エキス</tspan><tspan x="42.9" y="94.9" class="st2 st3 st6 st5">です</tspan></text>
</svg>
