<svg id="pc_reason-title.svg_pc_png_reason-title.png" data-name="pc/reason-title.svg,pc/png/reason-title.png" xmlns="http://www.w3.org/2000/svg" width="856" height="185.5"><defs><style>.cls-1{fill-rule:evenodd}</style></defs><path id="の理由" class="cls-1" d="M1076.43 12139.6c13.57 0 13.77 11.8 13.77 13.8 0 12.3-10.78 16.6-15.95 18.6-1.24.5-1.34.6-1.34.7a.438.438 0 0 0 .49.4 31.345 31.345 0 0 0 8.25-1.9 18.409 18.409 0 0 0 12.52-17.4c0-6.6-3.28-11.9-8.64-14.5-1.39-.7-3.48-1.6-8-1.6a20.486 20.486 0 0 0-15.85 6.5c-4.97 5-5.52 10-5.52 12.6 0 6.1 2.94 11.2 6.21 11.2 1.99 0 4.53-1.2 8.5-7.2 4.37-6.6 5.12-11.3 5.12-14.6a38.326 38.326 0 0 0-.5-5.4 4.331 4.331 0 0 0-.1-.5c0-.3.05-.7 1.04-.7zm-2.78.1c.65 0 .85.3.85 3.3 0 4.9-2.24 10.4-4.87 14.4-3.43 5.2-4.62 5.8-6.06 5.8-3.03 0-4.33-4.4-4.33-7.7 0-9.3 9.69-15.8 14.41-15.8zm52.55-4.7a6.522 6.522 0 0 1-3.03-.5c-.44-.1-2.58-1.2-2.83-1.2-.2 0-.2.1-.2.3s.2 1.5.25 1.8a77.62 77.62 0 0 1 .35 7.8c0 .6-.2 9.7-.25 11.1 0 .4-.2 2.6-.2 3.1 0 1 .25 1.3.94 1.3 2.24 0 2.49-1.4 2.74-3 .2-1.1.54-1.1 1.69-1.1h3.23a1.524 1.524 0 0 1 1.49.6c.15.3.15.7.15 3.9 0 3.6 0 4-1.54 4h-.95c-1.59 0-3.18 0-6.16-.2-.3 0-1.69-.1-1.99-.1-.1 0-.2 0-.2.1a.567.567 0 0 0 .2.3l.9 1.2a.536.536 0 0 0 .4.3c.14 0 .79-.1.94-.1 1.19-.1 3.43-.2 5.66-.2h1.2c1.59 0 1.59.3 1.59 4.8 0 2.7 0 3.5-1.55 3.5h-7.15c-1.29 0-2.83 0-6.16-.2-.25 0-1.69-.2-1.99-.2a.185.185 0 0 0-.15.1.758.758 0 0 0 .2.4l.85 1.1a.539.539 0 0 0 .39.3c.1 0 1.2-.1 1.35-.1 1.78-.1 4.07-.1 5.31-.1h23.4c2.04 0 2.29 0 2.29-.6s-3.13-3.9-3.93-3.9c-.39 0-.54.2-1.59 1.8-.94 1.4-1.04 1.4-3.28 1.4h-3.32a1.323 1.323 0 0 1-1.45-.9c-.05-.3-.05-.7-.05-4.1 0-2.6 0-3.3 1.5-3.3h6.4c1.54 0 2.44 0 2.44-.7 0-.6-3.93-3.2-4.22-3.2-.45 0-1.89 1.9-2.24 2.3-.25.2-.55.3-1.99.3-1.14 0-1.54 0-1.74-.4a38.408 38.408 0 0 1-.15-4.3c0-3.4 0-3.8 1.5-3.8h3.22a1.342 1.342 0 0 1 1.5.7c.64 1.5.69 1.6 1.54 1.6a2.1 2.1 0 0 0 2.33-2.4c0-1.2-.15-7.4-.15-8.7 0-2.3.1-6.9.15-7.5a1.62 1.62 0 0 1 .84-1.5c.8-.5 1.05-.7 1.05-1.1 0-1-3.48-2.5-3.83-2.5a5.729 5.729 0 0 0-1.44 1.1 2.819 2.819 0 0 1-2.18.7h-12.08zm-.74 8.8c-1.49 0-1.49-.2-1.49-4.3 0-2.7 0-3.2 1.49-3.2h3.57c1.5 0 1.5.5 1.5 3.2 0 3.9 0 4.3-1.5 4.3h-3.57zm13.21 1.3c1.64 0 1.64.6 1.64 3.2 0 4.8-.15 5.1-1.74 5.1h-3.18c-1.64 0-1.64-.3-1.64-4.8 0-2.9 0-3.5 1.64-3.5h3.28zm-13.21 8.3c-1.54 0-1.54-.6-1.54-3.4 0-4.7 0-4.9 1.54-4.9h3.57c1.55 0 1.55.6 1.55 3.2 0 4.6 0 5.1-1.55 5.1h-3.57zm13.36-17.1c1.64 0 1.64.4 1.64 3.7 0 3.4 0 3.8-1.64 3.8h-3.43c-1.64 0-1.64-.4-1.64-3.2 0-4.2 0-4.3 1.64-4.3h3.43zm-21.61 15.5c1.39 0 2.24 0 2.24-.8 0-.6-3.63-3.3-3.93-3.3-.4 0-1.64 1.9-1.94 2.2a1.587 1.587 0 0 1-1.14.5.719.719 0 0 1-.69-.9v-5.3c0-.9 0-5.6.14-6a1.206 1.206 0 0 1 1.3-.7h4.02c1.49 0 2.39 0 2.39-.7 0-.6-3.88-3.3-4.18-3.3-.49 0-1.89 2-2.23 2.4-.4.3-.6.3-2.49.3h-.94c-2.04 0-4.03-.1-6.11-.2-.3 0-1.69-.1-2.04-.1-.1 0-.15 0-.15.1a1.439 1.439 0 0 0 .2.3l.84 1.2a.535.535 0 0 0 .45.3s3.33-.3 3.93-.3a1.228 1.228 0 0 1 1.49.9c.15.7.15 7.4.15 8.7 0 2.7 0 3.3-1.59 3.3-.8 0-4.72-.3-4.97-.3-.1 0-.15 0-.15.1a.389.389 0 0 0 .15.3l.84 1.2a.469.469 0 0 0 .4.3c.15 0 1.04-.1 1.24-.1a14.474 14.474 0 0 1 2.49-.1c1.44 0 1.54.6 1.54 1.7v9.4c0 1.7 0 2.2-4.72 2.5-2.09.2-2.29.2-2.29.6 0 .7 1.39 4.5 1.99 4.5a5.814 5.814 0 0 0 1.14-1.1c.85-.7 14.71-6.8 14.71-8 0-.1-.05-.1-.15-.1-.6 0-6.06 2.3-6.96 2.3a.48.48 0 0 1-.44-.5c0-.8-.05-5.5-.05-5.8 0-5.5.05-5.5 1.54-5.5h3.97zm42.46-8.9c-.89 0-5.17-2.1-5.32-2.1a.279.279 0 0 0-.34.3c0 .4.3 2.2.3 2.6.24 3.9.44 15.9.44 20.2 0 2 0 5.7-.1 8.4 0 .5-.2 3-.2 3.6a1.076 1.076 0 0 0 1.25 1.2c1.24 0 2.63-.5 2.63-2 0-1.1.1-1.7 1.39-1.7h27.23a1.287 1.287 0 0 1 1.49 1.4c.05 1 .1 1.6 1.29 1.6.3 0 2.88 0 2.88-2.6 0-.6-.15-3.2-.2-3.8-.2-4.8-.25-15.6-.25-19.7 0-3.1 0-3.5.35-4.2a10.278 10.278 0 0 0 1.24-2c0-.5-3.08-3-3.62-3-.15 0-.3 0-1.2.9a2.654 2.654 0 0 1-2.23.9h-10.24c-1.54 0-1.54-.4-1.54-3.7a12.994 12.994 0 0 1 .35-4 11.4 11.4 0 0 0 .85-1.5c0-.6-.6-.9-1.4-1.1a30.3 30.3 0 0 0-3.22-.8.441.441 0 0 0-.5.5c0 .4.2 1.9.2 2.3.05 2.2.1 4.3.1 6.5 0 1.3-.25 1.8-1.49 1.8h-10.14zm10.14 1.3a1.244 1.244 0 0 1 1.54 1.4c0 1.2.1 6.8.1 7.9 0 2.9-.15 3.4-1.59 3.4h-10.29a1.237 1.237 0 0 1-1.49-1.3v-10a1.249 1.249 0 0 1 1.49-1.4h10.24zm17.34 14.1c1.14 0 1.44.6 1.44 1.6 0 2.4-.05 8-.15 10.9-.05.8-.1 1.3-1.29 1.3h-10.64c-1.49 0-1.54 0-1.54-6.7v-6a1.23 1.23 0 0 1 1.3-1.1h10.88zm-17.19 0c1.34 0 1.49.7 1.49 1.8 0 2.2 0 9.2-.15 10.9a1.028 1.028 0 0 1-1.25 1.1h-10.48c-.74 0-1.24-.2-1.29-1.5-.15-2.5-.2-7.7-.2-10.5 0-1 .15-1.8 1.44-1.8h10.44zm16.99-14.1c1.59 0 1.59.6 1.59 2.3 0 1.1 0 9.2-.05 9.6a1.279 1.279 0 0 1-1.44.8h-10.74a1.189 1.189 0 0 1-1.39-1.2c0-1.1 0-10.4.05-10.6a1.311 1.311 0 0 1 1.49-.9h10.49z" transform="translate(-372 -12115.8)"/><path id="濃厚なうるおい" d="M751.326 12136.9a1.4 1.4 0 0 1 1.253.6c.792 1.3.858 1.5 1.848 1.5a3.092 3.092 0 0 0 3.168-3.4c0-.6-.33-3.6-.33-4.2 0-.4-.066-2.4-.066-3 0-3.1 0-3.4.594-3.7 1.254-.5 1.452-.6 1.452-1.2 0-1.6-4.686-3.3-4.95-3.3-.594 0-.726.1-1.913 1.4a2.79 2.79 0 0 1-2.046.7h-1.188c-.99 0-1.98-.2-1.98-1.7a4.264 4.264 0 0 1 .462-1.8 2.731 2.731 0 0 0 .858-1.2c0-1.1-3.7-1.8-4.224-1.8a.55.55 0 0 0-.66.6c0 .7.264 3.6.264 4.2a1.441 1.441 0 0 1-1.716 1.7h-2.309a1.358 1.358 0 0 1-1.65-1.5 4.266 4.266 0 0 1 .33-2 3.535 3.535 0 0 0 .726-1.1c0-1.1-3.762-1.7-4.092-1.7-.462 0-.858.1-.858.5 0 .6.528 3.5.528 4.1a1.592 1.592 0 0 1-1.716 1.7 6.948 6.948 0 0 1-3.5-.5c-1.319-.6-3.7-1.7-4.619-1.7a.288.288 0 0 0-.33.3s.66 1.9.66 2a6.421 6.421 0 0 1 .33 2.5c0 1.9-.33 11.7-.33 12.4a1.518 1.518 0 0 0 1.716 1.8 2.592 2.592 0 0 0 2.508-1.5 1.709 1.709 0 0 1 1.649-.7h20.129zm-9.108-6.6a1.377 1.377 0 0 1 1.65 1.5c0 2.7 0 3.3-1.65 3.3h-2.507c-1.584 0-1.584-.6-1.584-3 0-1.6.66-1.8 1.584-1.8h2.507zm.066-6.2a1.418 1.418 0 0 1 1.584 1.5c0 2.2 0 2.9-1.584 2.9h-2.573c-1.584 0-1.584-.8-1.584-2.7a1.413 1.413 0 0 1 1.584-1.7h2.573zm-9.107 0c1.716 0 1.716 1 1.716 2.1 0 1.4 0 2.3-1.716 2.3h-2.112c-1.715 0-1.715-.9-1.715-2.3 0-1.1 0-2.1 1.715-2.1h2.112zm.066 6.2c1.65 0 1.65 1.2 1.65 2.1 0 1.7 0 2.7-1.65 2.7H731c-1.649 0-1.649-.8-1.649-3.1a1.512 1.512 0 0 1 1.649-1.7h2.244zm18.149 0c1.649 0 1.649 1 1.649 2.9 0 .8 0 1.9-1.649 1.9h-2.574c-1.65 0-1.65-.9-1.65-2.9 0-.7 0-1.9 1.65-1.9h2.574zm0-6.2a1.4 1.4 0 0 1 1.649 1.5c0 2.2 0 2.9-1.649 2.9h-2.574c-1.65 0-1.65-.8-1.65-2.9a1.4 1.4 0 0 1 1.65-1.5h2.574zm-20.921 33.4a1.632 1.632 0 0 1 1.914 1.4v9.4a2.375 2.375 0 0 1-1.188 2.4 27.947 27.947 0 0 1-5.081.5c-.2 0-1.254-.3-1.452-.3a.386.386 0 0 0-.462.4c0 .1 1.32 5.4 2.508 5.4a7.781 7.781 0 0 0 1.122-.8c.462-.2 11.549-3.5 13.133-4 .989-.3 7.259-2.3 7.523-2.3a1.508 1.508 0 0 1 1.452.9c1.716 2.4 7.391 6.3 8.579 6.3.33 0 .4-.1.594-.5a7.7 7.7 0 0 1 2.9-2.6 23.782 23.782 0 0 1 2.639-1.3c-.593-.2-3.629-.8-4.157-1-4.224-.9-8.579-3.7-8.579-4.8 0-1.2 7.721-4.4 7.721-5.5 0-1-4.356-2.3-4.884-2.3-.792 0-.99.4-1.122 1.2-.33 1.5-2.243 5.4-3.233 5.4-1.056 0-4.554-5.6-4.554-6.9a1.125 1.125 0 0 1 1.32-1h13.2c3.761 0 4.223 0 4.223-.8 0-1-3.431-4.5-4.487-4.5-.594 0-.726.3-1.98 2.3-.858 1.2-1.188 1.2-4.224 1.2h-26.724a1.909 1.909 0 0 1-1.914-1c-.066-.2-.066-5.3-.066-8 0-1.4.4-2.2 2.112-2.2h34.383c2.112 0 3.035 0 3.035-.8 0-1-3.959-4.7-4.817-4.7-.594 0-2.442 2.7-2.9 3.3-.462.4-.858.5-3.564.5h-25.873a5.918 5.918 0 0 1-2.574-.5c-.528-.2-3.036-1.6-3.63-1.6a.9.9 0 0 0-.792 1.1c0 .4.264 2.3.33 2.7.4 5.2.528 7.3.528 9.7 0 10.8-2.64 15.7-5.015 20.1a6.036 6.036 0 0 0-.66 1.3.111.111 0 0 0 .132.1c.4 0 7.193-6.5 8.513-14.7.4-2.3.528-3.5 2.838-3.5h3.233zm12.011 0c1.848 0 2.112 1.2 2.31 2.1a39.383 39.383 0 0 0 2.31 6.2c.066.2.726 1.5.726 1.6 0 .7-.528.8-1.122.9a69.493 69.493 0 0 1-8.117 1.6 1.983 1.983 0 0 1-2.046-2v-8.3c0-2.1 1.254-2.1 1.98-2.1h3.959zm-25.407-31.3a3.216 3.216 0 0 0 1.253-2.3c0-4.5-8.579-6.8-8.777-6.8a.353.353 0 0 0-.264.3 6.382 6.382 0 0 0 .528.9 39.5 39.5 0 0 1 3.828 6c1.122 2 1.32 2.1 2.31 2.1a2.115 2.115 0 0 0 1.122-.2zm-6.534 13.8a2.356 2.356 0 0 0 1.452-2.3c0-4.6-7.523-6.8-7.721-6.8a.328.328 0 0 0-.264.2 2.44 2.44 0 0 0 .528.7 18.838 18.838 0 0 1 2.243 4.3c1.254 3.7 1.386 4.1 2.772 4.1a2.744 2.744 0 0 0 .99-.2zm30.687 9.3c-3.1 0-5.807-.2-9.041-.3-.4 0-2.442-.2-2.9-.2-.132 0-.264 0-.264.1a.7.7 0 0 0 .33.5l1.253 1.5a.645.645 0 0 0 .594.4c.2 0 1.188-.1 1.386-.1 1.32-.1 3.5-.2 8.316-.2h11.68c2.244 0 3.5 0 3.5-.9 0-1.1-3.234-4-4.223-4-.528 0-.66.2-1.848 2-.792 1.2-1.122 1.2-3.96 1.2h-4.818zm-29.895 26.6c1.848 0 2.97-1.4 2.97-3.5 0-1.4-.264-2.2-1.584-6.6a30.184 30.184 0 0 1-.726-5.3c0-4.3 6.533-24.6 6.533-26.9a.328.328 0 0 0-.264-.4 1.366 1.366 0 0 0-.461.9c-2.508 7.1-6.138 15.9-8.448 21.5-1.056 2.5-1.518 3.6-2.969 4.2a14.441 14.441 0 0 0-2.046.7 2.027 2.027 0 0 0 .594.5c3.233 2.2 3.365 4.8 3.5 8.1.261 6.4.789 6.8 2.901 6.8zm103.406-32.5c.66 0 1.32 0 1.452.8a1.468 1.468 0 0 0 1.583 1.5c.792 0 3.366-.3 3.366-2.7 0-1.4-.33-8.5-.33-10.2 0-1.9 0-2.1.66-2.5.858-.6 1.386-1 1.386-1.4a.985.985 0 0 0-.726-.8c-.726-.4-4.751-2.5-4.949-2.5a3.544 3.544 0 0 0-.99 1 2.169 2.169 0 0 1-1.98.8H796.26a5.406 5.406 0 0 1-2.9-.6c-.264-.1-3.168-1.3-3.3-1.3a.417.417 0 0 0-.462.3c0 .2.462 1.5.528 1.8.264 1.9.33 6.8.33 9 0 1.1-.2 6.6-.2 7.9a1.123 1.123 0 0 0 1.32 1.3 4.834 4.834 0 0 0 3.233-1.6 1.343 1.343 0 0 1 1.584-.8h18.347zm-.066-14.3c1.584 0 1.584.2 1.584 2.6 0 2.1 0 2.5-1.584 2.5h-18.215c-1.584 0-1.584-.3-1.584-2.6 0-2.1 0-2.5 1.584-2.5h18.215zm-18.083 12.5c-1.584 0-1.584-.4-1.584-4.3a1.285 1.285 0 0 1 1.518-1.4h18.215c1.518 0 1.518.5 1.518 2.7 0 2.6 0 3-1.518 3H796.59zm29.7-18.7c3.167 0 3.5 0 3.5-.9 0-1.1-4.619-5.2-5.477-5.2-.792 0-2.442 3.2-2.9 3.7-.33.5-.792.6-3.3.6h-34.062a8.147 8.147 0 0 1-3.827-.8 15.547 15.547 0 0 0-4.092-1.5.515.515 0 0 0-.528.4 12.929 12.929 0 0 0 .858 1.8c1.056 3.3 1.122 17.1 1.122 21.6 0 6.3 0 20.1-4.488 29.6-.2.4-1.452 2.1-1.452 2.3 0 0 0 .2.132.2a6.854 6.854 0 0 0 2.64-2.3c3.96-4.8 7.722-10.9 7.722-33.2 0-2.3-.33-14-.33-14.5 0-1.8 1.319-1.8 2.111-1.8h42.369zm-24.88 26.1c-3.7 0-7.127-.1-9.041-.3-.462 0-2.508-.2-2.9-.2a.171.171 0 0 0-.2.2.562.562 0 0 0 .264.4l1.254 1.6a1.31 1.31 0 0 0 .594.4c.2 0 1.188-.2 1.386-.2 2.309-.2 6.8-.2 8.381-.2H811.9c.528 0 1.122 0 1.122.6 0 .5-2.97 3.6-4.29 3.6-.264 0-3.629-.5-4.355-.5-.528 0-.858.2-.858.5a12.827 12.827 0 0 0 .528 1.8 8.77 8.77 0 0 1 .132 1.4 1.162 1.162 0 0 1-1.386 1.4h-7.92c-3.7 0-7.127-.1-9.041-.2-.462 0-2.508-.2-2.9-.2-.066 0-.2 0-.2.1a.562.562 0 0 0 .264.4l1.253 1.5c.264.4.33.5.594.5.2 0 1.188-.1 1.386-.1 2.31-.2 6.732-.2 8.316-.2h8.447c1.32 0 1.584.1 1.584 3.3 0 6.3-.33 6.4-1.65 6.4-.66 0-2.574 0-3.234-.1-.264 0-1.716-.2-1.848-.2-.264 0-.4 0-.4.2 0 .1 2.508 1.9 2.9 2.3a8.647 8.647 0 0 1 1.32 2.2c.132.7.2.9.99.9.264 0 3.893-.4 5.543-2.3 1.122-1.4 1.32-3.7 1.32-5.1 0-1.1-.132-6.2 0-6.9s.99-.7 1.386-.7H828.2c1.583 0 1.979-.3 1.979-.8 0-1.1-4.751-4.6-5.147-4.6-.33 0-2.112 2.7-2.574 3.1a1.617 1.617 0 0 1-1.584.5h-9.965c-.792 0-1.65 0-1.65-1.1 0-.5.33-.9 1.254-1.9a17.151 17.151 0 0 1 1.122-1.4c1.98-1.1 5.808-3.3 7.061-3.4 2.9-.1 3.234-.1 3.234-1 0-.8-4.817-3.8-5.345-3.8-.4 0-1.584 1.4-1.914 1.7a3.35 3.35 0 0 1-2.112.4h-11.151zm48.425-9.3a6.151 6.151 0 0 1-2.186.3 7.961 7.961 0 0 1-3.825-1 2.5 2.5 0 0 0-1.342-.6.412.412 0 0 0-.348.5c0 .1 0 3.6 5.863 4.1.745 0 1.093.1 1.093.5a43.772 43.772 0 0 1-6.856 16.2c-1.491 2.2-1.64 2.4-1.64 3.1a1.333 1.333 0 0 0 1.54 1.4c4.571 0 8.844-16.8 9.44-19.3.447-1.7.5-1.9.944-2 4.024-1.2 6.807-2.1 6.807-4 0-1.4-1.888-1.9-2.832-2.2-1.491-.4-1.988-.6-2.236-.9-.795-1.1-1.59-2.2-3.577-2.2-.994 0-2.037.4-2.037 1a7.706 7.706 0 0 0 .944 1.4 4.235 4.235 0 0 1 .695 2.2 2.323 2.323 0 0 1-.449 1.5zm3.13-.4a.723.723 0 0 1-.1-.3c0-.2.348-2.2 1.192-2.2.3 0 2.037.9 2.037 1.3-.001.7-2.982 1.3-3.131 1.2zm11.924 29.2c.7-.3 2.981 1.2 4.322 2.4a1.98 1.98 0 0 0 1.541.8 1.465 1.465 0 0 0 1.341-1.7c0-1.8-2.882-3.4-3.925-4a22.529 22.529 0 0 1-3.229-1.4c-1.491-1-1.988-8.7-1.988-10 0-1.2.05-3 1.193-4.1a5.927 5.927 0 0 1 3.627-1.5c.6 0 .795.1 2.683.8a3.412 3.412 0 0 0 1.142.2 2.367 2.367 0 0 0 2.335-2.6 5.3 5.3 0 0 0-3.627-5 16.961 16.961 0 0 0-2.931-.9.3.3 0 0 0-.348.3 1.477 1.477 0 0 0 .646.8 4.24 4.24 0 0 1 1.391 2.5c0 1.3-.347 1.4-3.428 3.2-4.173 2.4-4.471 5.1-4.471 10.5 0 .7.2 4 .2 4.8 0 .5-.249.5-.7.5-.348 0-2.186-.1-2.583-.1-4.472 0-8 1.7-8 5 0 2.4 2.782 5.7 7.5 5.7 2.583 0 6.359-1.1 7.005-5.4a1 1 0 0 1 .302-.8zm-3.378-1.3c.3.8-.4 4.6-5.217 4.6-2.981 0-4.471-1.5-4.471-2.7 0-2.6 4.471-2.6 5.614-2.6s3.823 0 4.072.7zm30.929-33.1c-.1 0-.5 0-.5.2 0 .3 2.086 1.7 3.577 2.5.944.4 1.043.5 1.043.8 0 .9-3.428 4.7-3.428 4.9a.215.215 0 0 0 .2.2c.1 0 1.391-.8 1.639-.9 3.23-1.8 4.372-2.4 6.012-2.4.348 0 2.087.2 2.484.2.944 0 2.286-.3 2.286-1.5 0-.5-.3-1.6-2.336-2.5-.993-.4-1.54-.4-3.924-.4a10.052 10.052 0 0 1-2.286-.2c-.745-.1-4.62-.9-4.769-.9zm8.843 11.2c-2.484 0-3.776.6-6.558 1.7-3.08 1.4-3.428 1.5-4.571 1.5-.348 0-1.937-.3-2.285-.3a.445.445 0 0 0-.5.4c0 .6 2.434 3.8 4.571 3.8.795 0 .944-.2 2.285-1.9a9.567 9.567 0 0 1 6.658-2.9c4.72 0 5.018 5.5 5.018 7.1 0 8-4.671 14.5-11.427 19.3a16.624 16.624 0 0 0-2.187 1.6.118.118 0 0 0 .15.1c1.341 0 17.14-5.3 17.14-20.8.001-6.6-4.023-9.6-8.296-9.6zm42.3 23.6c-.7 0-.993-.5-1.689-1.4a7.325 7.325 0 0 0-5.664-3.2c-2.832 0-4.918 2.3-4.918 4.1 0 2.4 3.527 5.1 8.446 5.1 6.309 0 12.42-4.4 12.42-10.8 0-5.6-4.819-10.3-11.178-10.3a11.951 11.951 0 0 0-4.372.8c-.3.1-.944.4-1.242.5a.389.389 0 0 1-.3-.4c0-.8 4.372-7.6 7.949-10.2 2.384-1.6 3.527-2.4 3.527-3.9 0-2.1-3.229-3.4-5.216-3.4-1.094 0-1.441.2-4.522 1.5a23.959 23.959 0 0 1-7.7 1.8c-1.044 0-1.193 0-1.193.1 0 .3 1.54 3.5 3.875 3.5.845 0 1.541-.2 3.528-1.8.845-.7 3.776-3.2 5.614-3.2a.863.863 0 0 1 .944.7c0 .5-.7 1.6-2.335 3.9-7.5 10.6-8 11.2-11.228 15-3.528 4.1-3.925 5.2-3.925 6.4a1.374 1.374 0 0 0 1.441 1.4c1.341 0 1.838-.9 2.832-2.6.894-1.5 5.117-8.4 11.675-8.4 4.968 0 8.4 3.5 8.4 7.6s-3.486 7.2-5.175 7.2zm-4.571.5a.772.772 0 0 1-.844.8c-2.136 0-4.273-1-4.273-2.3a2 2 0 0 1 2.087-1.7c1.832 0 3.024 2 3.024 3.2zm58.866-23.9c-3.279 0-5.366 2.7-5.366 3.1a.183.183 0 0 0 .2.2 1.288 1.288 0 0 0 .5-.2 4.292 4.292 0 0 1 1.938-.5c1.689 0 4.173.7 4.173 2.7a2.408 2.408 0 0 1-.2.9c0 .1-.149.3-.149.4a.281.281 0 0 0 .248.3 9.206 9.206 0 0 0 1.487-.4c.25 0 1.4.1 1.69.1 1.05 0 1.64-1.3 1.64-2.4-.009-2.3-2.339-4.2-6.167-4.2zm-18.234-1.5l-.2.2c0 .1.248.6.248.7 0 .7-1.391 1.3-1.739 1.3a.548.548 0 0 1-.4-.6 24.28 24.28 0 0 1 .5-3.2c.1-.4 1.043-2.2 1.043-2.6 0-1-1.789-3.4-5.117-3.4-.3 0-1.093.1-1.093.6a5.012 5.012 0 0 0 .7.8 4.739 4.739 0 0 1 1.64 3.9 35.716 35.716 0 0 1-.5 5.4 21.587 21.587 0 0 1-6.31 1.5 22.343 22.343 0 0 1-2.285-.2c-.149 0-.745-.2-.894-.2a.348.348 0 0 0-.4.3c0 .4 1.888 3.8 3.577 3.8.746 0 .994-.1 3.528-.9a11.246 11.246 0 0 1 2.285-.5 1.023 1.023 0 0 1 .7 1.1c.049.9.1 5.1.1 6.2 0 1.4-.3 1.6-2.832 2.8-2.931 1.4-3.825 1.7-5.167 1.7-.3 0-1.739-.3-2.037-.3-.894 0-1.441 1.1-1.441 2 0 1.6 2.534 3.1 3.081 3.1a7.673 7.673 0 0 0 1.888-1 4.121 4.121 0 0 1 1.242-.3c.646 0 .894 0 2.484 3.1a2.546 2.546 0 0 0 2.285 1.8c1.789 0 2.534-3.2 2.534-5.5 0-.5-.149-2.8-.149-3.3 0-.8.3-1 3.08-2.5 5.813-3.1 8.893-3.7 10.285-3.7 2.136 0 4.769 1.9 4.769 5.5 0 3.9-4.173 6.1-7.452 6.1-.5 0-3.23 0-3.23-2.4a2.028 2.028 0 0 1 .447-1.3 1.413 1.413 0 0 0 .2-.4.316.316 0 0 0-.248-.3 4.48 4.48 0 0 0-2.484 4c0 2.5 2.285 4 5.117 4 4.074 0 10.98-3 10.98-9.5a7.585 7.585 0 0 0-7.651-7.5c-1.292 0-3.528.1-8.446 1.9-.8.3-4.869 2-5.018 2-.447 0-.447-.6-.447-.9 0-.2 0-4.2.1-5.3.1-1.8.149-2 .845-2.2 1.192-.5 4.968-2 4.968-3.6s-2.396-2.3-3.092-2.2zm-4.918 18.9a1.365 1.365 0 0 1 .149.8c0 2.4-.7 3.8-1.391 3.8-.745 0-2.087-1.6-2.087-2.3s3.174-2.3 3.323-2.3zm39.22-22.4a.338.338 0 0 0-.3.2 6.317 6.317 0 0 0 .4 1.7 15.2 15.2 0 0 1 .34 2.9c0 1.3-.69 7.4-.69 8.8 0 9.5 6.26 14.7 9.44 14.7a1.731 1.731 0 0 0 1.89-1.5 12.909 12.909 0 0 0-.4-1.7 6.479 6.479 0 0 1-.3-2 13.237 13.237 0 0 1 .65-3.7 6.873 6.873 0 0 0 .14-1 .351.351 0 0 0-.24-.4c-.4 0-1.25 1.2-1.54 1.7-1.49 2.4-1.69 2.7-2.54 2.7-1.54 0-4.12-3.6-4.12-8.6a18.164 18.164 0 0 1 1.19-6.5 6.279 6.279 0 0 0 .6-1.9c-.006-1.4-2.246-5.4-4.526-5.4zm23.69 4.6a.368.368 0 0 0-.44.3c0 .3 1.98 1.8 2.38 2.2 2.64 2.6 2.64 4.7 2.64 8.8 0 .7 0 3.4 2.43 3.4 2.38 0 2.48-2.4 2.48-3.3a12.347 12.347 0 0 0-4.42-9.5 10.135 10.135 0 0 0-5.076-1.9z" transform="translate(-372 -12115.8)" fill="#a67c6d" fill-rule="evenodd"/><path id="今_明かされる" data-name="今、明かされる" class="cls-1" d="M423.926 12157.7c-2.832 0-5.416-.2-6.856-.2-.348 0-1.839-.2-2.186-.2a.117.117 0 0 0-.149.1.622.622 0 0 0 .2.4l.994 1.1a.532.532 0 0 0 .4.3c.2 0 .895-.1 1.093-.1 1.69-.1 5.068-.1 6.26-.1h8.993c.795 0 1.54 0 1.54.8 0 1.5-3.974 9.9-5.117 12.3-1.044 2.2-1.292 2.8-1.292 3.1a1.836 1.836 0 0 0 2.087 1.6c1.838 0 2.186-.8 3.428-4.3.4-1.1 4.521-11.4 4.769-11.8a1.293 1.293 0 0 1 1.143-.5 1.435 1.435 0 0 0 1.193-.9c0-.5-2.733-3.1-3.18-3.1a20.571 20.571 0 0 0-2.335 1.2 4.624 4.624 0 0 1-1.839.3h-9.141zm1.937-7.7c-1.44 0-3.974-.1-5.465-.2-.149 0-1.093-.2-1.341-.2a.1.1 0 0 0-.1.1 1.3 1.3 0 0 0 .149.4l.944 1.1a1.165 1.165 0 0 0 .447.3c.149 0 .894-.1 1.093-.1 1.49-.1 3.329-.1 4.422-.1h8.893c1.242 0 1.987 0 1.987-.7 0-.5-3.031-3.3-3.776-3.3-.546 0-.646.1-1.689 1.8-.5.8-.646.9-2.385.9h-3.18zm1.143-18.6a38.518 38.518 0 0 1-1.739 3.8c-.347.7-6.757 12.2-16.494 18.8a2.558 2.558 0 0 0-.994.9c0 .2.248.2.348.2.646 0 3.229-1.5 4.074-2 6.061-3.7 10.98-9 15.4-14.5 1.143-1.4 1.64-2.1 1.938-2.1a1.773 1.773 0 0 1 .795.7 40.031 40.031 0 0 0 5.366 7.4c3.676 4.2 10.334 9.4 11.129 9.4a1.689 1.689 0 0 0 .993-.6 6.655 6.655 0 0 1 2.484-1.7c.3-.1 1.988-.3 1.988-.7 0-.2-3.329-1.2-3.975-1.5-11.427-4.5-17.389-13.4-17.389-14.2 0-.1 0-.3.149-.3.845-.2.944-.3.944-.7 0-.5-.149-.5-1.341-1.2-1.838-1-3.282-1.8-3.676-1.7zm34.6 42.5c0-4.6-8.446-7.2-10.185-7.2a.47.47 0 0 0-.547.3 1.657 1.657 0 0 0 .7.6 14.768 14.768 0 0 1 5.217 5.3c1.639 3 1.838 3.4 2.881 3.4a2.4 2.4 0 0 0 1.928-2.4zm26.1-38.2a3.663 3.663 0 0 1-1.739-.3c-.2-.1-3.478-1.6-3.527-1.6a.416.416 0 0 0-.3.5c0 .3.15 1.2.2 1.5a75.852 75.852 0 0 1 .3 7.6c0 1.2-.149 14.7-.4 20.6 0 .2-.1 1.2-.1 1.4 0 .3 0 .7.795.7 1.243 0 2.932-1 2.932-2.5a25.213 25.213 0 0 1 .149-3.3 1.349 1.349 0 0 1 1.391-.6h4.819a1.219 1.219 0 0 1 1.491 1.1c.149 1.1.2 1.5 1.093 1.5a3.249 3.249 0 0 0 2.434-1.6 5.8 5.8 0 0 0 .348-2.2c0-2.4-.3-12.9-.3-15.1 0-5 .1-5 .795-5.6.546-.5.6-.5.6-.8 0-.9-3.428-2.9-3.627-2.9-.3 0-.4.1-1.441 1.1a2.021 2.021 0 0 1-1.788.5h-4.124zm-.348 11.4c-1.341 0-1.49-.7-1.49-1.4 0-1.1 0-7.1.049-7.6a1.324 1.324 0 0 1 1.59-1.1h4.919a1.333 1.333 0 0 1 1.441.8c.149.4.149 7 .149 8a1.239 1.239 0 0 1-1.491 1.3h-5.167zm-.049 11.3a1.248 1.248 0 0 1-1.441-1.4v-5.3c0-2.8 0-3.3 1.441-3.3h5.266a1.243 1.243 0 0 1 1.441 1.4v6.7c0 1.1 0 1.9-1.441 1.9h-5.266zm28.517-1a1.239 1.239 0 0 1 1.441 1.3c0 1.6.05 9.4.05 11.2a4.514 4.514 0 0 1-.4 2.3c-.4.7-4.72.2-4.72.7a3.3 3.3 0 0 0 1.541.8 4.3 4.3 0 0 1 2.335 2.5c.1.6.1.7.4.7 1.193 0 4.323-1.6 4.323-5.6a19.172 19.172 0 0 0-.1-2c-.149-2.5-.3-22.7-.3-24.1a55.544 55.544 0 0 1 .2-5.9 1.633 1.633 0 0 1 .546-.8c1.143-.9 1.292-1 1.292-1.4 0-.9-3.676-3.4-4.124-3.4a4.314 4.314 0 0 0-1.391 1.3 1.868 1.868 0 0 1-1.788.6h-6.956a4.987 4.987 0 0 1-1.49-.2c-1.441-.4-4.124-1.3-4.223-1.3a.214.214 0 0 0-.2.2c0 .3.348 1.9.4 2.2a118.853 118.853 0 0 1 .5 12.6c0 11.8-.695 17.7-5.763 24-.4.5-2.484 2.9-2.484 2.9a.235.235 0 0 0 .3.2 9.167 9.167 0 0 0 3.329-2.1c4.074-3.5 6.26-6.5 7.353-14.1.3-2.3.348-2.6 1.441-2.6h8.5zm-.1-20.4a1.306 1.306 0 0 1 1.441 1.6v5.2c0 1.2-.5 1.5-1.59 1.5h-7.6c-1.441 0-1.59-.7-1.59-1.7v-5.2a1.231 1.231 0 0 1 1.49-1.4h7.85zm-.05 9.5a1.251 1.251 0 0 1 1.491 1.4v7.2a1.294 1.294 0 0 1-1.441 1h-7.75c-.7 0-1.69 0-1.69-1.4 0-1 .149-5.5.149-6.5 0-.8 0-1.7 1.491-1.7h7.75zm18.663 6.1c.993 0 5.614-2 6.707-2a.37.37 0 0 1 .348.4 12.753 12.753 0 0 1-.7 2.4c-2.683 7.4-4.769 9.7-6.111 11.2-2.981 3.3-3.329 3.7-3.329 4.7a1.466 1.466 0 0 0 1.59 1.6c4.025 0 8.844-12.2 10.831-19 .5-1.7.547-1.9.745-2.1.348-.5 3.18-1.2 4.77-1.2 1.441 0 3.428.2 3.428 3.7a40.565 40.565 0 0 1-1.54 8.7c-1.441 5.3-3.279 6-4.72 6a14.608 14.608 0 0 1-2.534-.3 5.156 5.156 0 0 0-1.242-.4.252.252 0 0 0-.248.3c0 .1.546 1.4.645 1.6.547 1.6 1.044 3.4 2.932 3.4 1.689 0 3.676-1.4 5.067-3 2.882-3.5 4.273-12 4.273-15.9 0-4.6-2.881-6.4-6.608-6.4-.4 0-2.683.2-2.931.2-.348 0-.546-.1-.546-.4 0-.9 1.887-7.3 1.887-7.4 0-1.2-1.937-3.1-5.266-3.1-.2 0-.8 0-.8.4a4.093 4.093 0 0 0 .845 1.1 6.307 6.307 0 0 1 1.242 4.2c0 .3-.05 5.3-.894 5.9-.1 0-6.906 1.5-8.347 1.5-.547 0-3.13-.7-3.279-.7a.439.439 0 0 0-.447.4c.01 1.1 2.293 4.2 4.233 4.2zm33.287 2c0-2.5-2.335-8.7-8.694-8.7a.275.275 0 0 0-.348.3 3.1 3.1 0 0 0 1.192.7 6.379 6.379 0 0 1 4.025 5.7c0 1.4-.2 1.5-2.037 2.9-.3.2-1.938 1.1-1.938 1.4 0 .1 1.341.2 1.59.3a31.918 31.918 0 0 0 3.378 1.5c2.088 0 2.833-3.5 2.833-4.1zm18.826-5.8c1.044-.2 6.012-2.1 6.31-2.1 1.441 0 8.049 7.5 8.049 10.7a1.63 1.63 0 0 1-1.739 1.6c-.7 0-.994-.1-4.074-1a17.629 17.629 0 0 0-5.366-.9c-5.515 0-10.582 3-10.582 7.9a7.2 7.2 0 0 0 4.272 6.1c1.69.9 3.876 1.6 8 1.6.894 0 5.664 0 5.664-2.7a2.131 2.131 0 0 0-2.434-1.9c-.1 0-4.323.5-5.167.5-4.223 0-7.353-1.3-7.353-4.5 0-1.8 2.136-5.7 6.955-5.7a17.6 17.6 0 0 1 8.446 2.6c2.981 1.6 3.329 1.8 4.223 1.8a3.088 3.088 0 0 0 3.279-3.3c0-5.1-6.508-10.9-9.092-13.1a1.526 1.526 0 0 1-.6-1c0-.3.149-.4 1.491-1.3.695-.4 3.03-2.2 3.03-3.5a1.781 1.781 0 0 0-1.689-1.8H594.4a8.372 8.372 0 0 1-4.671-1.1c-2.285-1.3-2.782-1.6-3.825-1.6a2.4 2.4 0 0 0-2.484 2.4c0 1.4 1.838 3.1 3.179 4 .646.5 2.286 1.6 2.286 2.1 0 .8-3.379 1.7-5.267 1.7a12.5 12.5 0 0 1-5.117-1.4 10.991 10.991 0 0 0-2.037-.9.343.343 0 0 0-.4.4c0 1 2.186 4.8 7.3 4.8a12.566 12.566 0 0 0 3.089-.4zm2.783-7.2c-.4-.3-2.187-1.7-2.187-2.9a.963.963 0 0 1 .945-.9c.546 0 .943.2 4.222 2.2 1.59.9 1.739 1.1 1.739 1.7 0 1.1-1.54 1.6-1.838 1.6-.645 0-2.185-1.1-2.88-1.7zm34.2-6.7c-.348 0-1.143.1-1.143.5a16.621 16.621 0 0 0 1.49 2.5 16.887 16.887 0 0 1 1.292 7.3c0 .9-.05 1.2-.348 1.4a33.793 33.793 0 0 1-5.912 2 4.087 4.087 0 0 0-2.484 3.9c0 .9.05 1.2 1.143 4a28.041 28.041 0 0 1 1.142 3.7 5.036 5.036 0 0 1-.645 1.7c-.5.8-2.186 3.8-2.186 5.5a1.836 1.836 0 0 0 1.788 1.9c1.491 0 2.285-1.3 2.733-2.8.347-1.2.4-1.4.6-1.4.5 0 1.838 4.9 1.937 5.5.5 2.6.7 3.8 2.236 3.8s1.938-1.2 1.938-2.8a29.813 29.813 0 0 0-.6-4.6 45.638 45.638 0 0 1-.4-6.4c0-5.1.5-7.1 3.826-10.2 3.279-3.1 7.5-6.6 11.029-6.6 3.081 0 3.081 2.5 3.081 3.4a83.1 83.1 0 0 1-1.342 10.4 21.11 21.11 0 0 0-.6 4.6c0 1.4 0 7.3 5.863 7.3 5.266 0 8-5.8 8-6.5a.418.418 0 0 0-.3-.4 2.621 2.621 0 0 0-1.043.9 6.607 6.607 0 0 1-5.217 2.5c-3.378 0-3.676-2.7-3.676-4.6a42.843 42.843 0 0 1 .795-7.5 43.345 43.345 0 0 0 .6-6.4c0-3.5-1.491-5.9-4.869-5.9-4.621 0-10.632 5.7-13.216 8.2a3.955 3.955 0 0 1-1.242 1c-.1 0-.149 0-.149-.1 0-.2.149-.4 1.193-1.8a2.69 2.69 0 0 0 .447-1.3 1.065 1.065 0 0 0-.745-1 1.434 1.434 0 0 1-1.044-1.7 34.978 34.978 0 0 1 .249-3.6c.049-.5.5-2.7.5-3-.002-.9-3.083-3.4-4.722-3.4zm.8 15.1a7.258 7.258 0 0 1-.9 2.2c-.248.5-2.931 5.7-3.03 6a.891.891 0 0 1-.547.5c-.447 0-1.639-3.8-1.639-5.5 0-2.5 5.167-3.5 5.564-3.5a.474.474 0 0 1 .546.3zm-.9 16.4c-.1 0-1.739-2.3-1.739-3.6 0-.5 1.441-3.8 1.938-3.8.248 0 .248.3.248.5 0 .1-.1 1.5-.1 1.7 0 4.9 0 5.2-.348 5.2zm61.668 2.7c-.7 0-.994-.5-1.689-1.4a7.325 7.325 0 0 0-5.664-3.2c-2.832 0-4.919 2.3-4.919 4.1 0 2.4 3.528 5.1 8.446 5.1 6.31 0 12.421-4.4 12.421-10.8 0-5.6-4.819-10.3-11.179-10.3a11.951 11.951 0 0 0-4.372.8c-.3.1-.944.4-1.242.5a.389.389 0 0 1-.3-.4c0-.8 4.372-7.6 7.949-10.2 2.385-1.6 3.528-2.4 3.528-3.9 0-2.1-3.229-3.4-5.217-3.4-1.093 0-1.441.2-4.521 1.5a23.959 23.959 0 0 1-7.7 1.8c-1.043 0-1.192 0-1.192.1 0 .3 1.54 3.5 3.875 3.5.845 0 1.54-.2 3.528-1.8.844-.7 3.776-3.2 5.614-3.2a.863.863 0 0 1 .944.7c0 .5-.7 1.6-2.335 3.9-7.5 10.6-8 11.2-11.229 15-3.527 4.1-3.924 5.2-3.924 6.4a1.374 1.374 0 0 0 1.44 1.4c1.342 0 1.839-.9 2.832-2.6.895-1.5 5.117-8.3 11.676-8.3 4.968 0 8.4 3.4 8.4 7.5s-3.482 7.2-5.173 7.2zm-4.571.5a.772.772 0 0 1-.844.8c-2.137 0-4.273-1-4.273-2.3a2 2 0 0 1 2.086-1.7c1.838 0 3.03 2 3.03 3.2z" transform="translate(-372 -12115.8)"/><path id="長方形_21" data-name="長方形 21" opacity=".54" fill="#a67c6d" d="M0 88.2h856v1H0z"/><path id="それは_日本古来の発酵手法と原料への_こだわりにありました" data-name="それは、日本古来の発酵手法と原料への こだわりにありました" class="cls-1" d="M551.99 12237.2c-.72 0-1.05.1-3.99.8a3.323 3.323 0 0 1-1.05.2c-.21 0-1.38-.2-1.47-.2a.177.177 0 0 0-.21.2c0 .1.48 2.7 2.1 2.7 1.11 0 1.44-.4 2.25-1.2a3.373 3.373 0 0 1 1.92-1.1.516.516 0 0 1 .51.5c0 .7-1.83 2.6-2.76 3.5-1.11 1.1-6.36 7.3-6.63 7.5-.87.8-1.14 1.1-1.14 1.7 0 .2.33 1.7 1.56 1.7.93 0 1.35-.3 2.97-1.5a9.9 9.9 0 0 1 2.25-1.2.139.139 0 0 1 .12.1 4.732 4.732 0 0 1-.72.9 7.771 7.771 0 0 0-1.32 4.2c0 5.1 6.18 5.4 6.39 5.4 1.05 0 1.98-.3 1.98-.9 0-.3-.3-1.2-1.8-1.5-3.48-.9-5.37-1.3-5.37-4.1 0-4.3 5.73-5.5 8.13-5.5.149 0 .929.1 1.109.1.42 0 1.56-.2 1.56-1 0-1.1-2.129-1.5-2.79-1.5-1.229 0-2.849.6-6.059 1.9a38.6 38.6 0 0 1-5.34 1.8.251.251 0 0 1-.27-.2 23.039 23.039 0 0 1 2.79-3.2 67.507 67.507 0 0 1 6.93-6c.96-.7 1.14-1 1.14-1.5a2.737 2.737 0 0 0-2.79-2.6zm19.284-.1a.749.749 0 0 0-.69.3 6.637 6.637 0 0 0 .9 1.5 10.279 10.279 0 0 1 .78 4.4.926.926 0 0 1-.21.9 16.094 16.094 0 0 1-3.57 1.2 2.481 2.481 0 0 0-1.5 2.4 5.84 5.84 0 0 0 .69 2.4 15.643 15.643 0 0 1 .69 2.2 2.617 2.617 0 0 1-.39 1 8.943 8.943 0 0 0-1.32 3.4 1.1 1.1 0 0 0 1.08 1.1c.9 0 1.38-.8 1.65-1.7.21-.7.24-.8.36-.8.3 0 1.11 2.9 1.17 3.3.3 1.6.42 2.3 1.35 2.3s1.17-.7 1.17-1.7a17.684 17.684 0 0 0-.36-2.8 26.964 26.964 0 0 1-.24-3.9c0-3 .3-4.2 2.31-6.1 1.98-1.9 4.53-4 6.66-4a1.761 1.761 0 0 1 1.859 2.1 49.636 49.636 0 0 1-.809 6.2 12.959 12.959 0 0 0-.36 2.8c0 .9 0 4.4 3.539 4.4 3.18 0 4.83-3.5 4.83-3.9a.184.184 0 0 0-.18-.2 1.784 1.784 0 0 0-.63.5 4 4 0 0 1-3.15 1.5c-2.04 0-2.22-1.6-2.22-2.8a25.761 25.761 0 0 1 .48-4.5 25.522 25.522 0 0 0 .36-3.8c0-2.2-.9-3.6-2.939-3.6-2.79 0-6.42 3.4-7.98 4.9a1.492 1.492 0 0 1-.75.6h-.09a2.926 2.926 0 0 1 .72-1.1 1.652 1.652 0 0 0 .27-.8.621.621 0 0 0-.45-.6.926.926 0 0 1-.63-1.1c0-.7.12-1.9.15-2.1.03-.3.3-1.6.3-1.8 0-.6-1.86-2.1-2.85-2.1zm.48 9.1a4.336 4.336 0 0 1-.54 1.4c-.15.3-1.77 3.4-1.83 3.6a.6.6 0 0 1-.33.3c-.27 0-.99-2.3-.99-3.3 0-1.5 3.12-2.1 3.36-2.1a.37.37 0 0 1 .33.1zm-.54 10a4.822 4.822 0 0 1-1.05-2.2c0-.3.87-2.3 1.17-2.3.15 0 .15.2.15.3 0 0-.06.9-.06 1 0 3 0 3.2-.21 3.2zm42.585-.4c.539-.3 2.1 1 2.969 2 .72.9.81 1.1 1.17 1.1a1.207 1.207 0 0 0 1.08-1.2c0-1.8-3.15-3.2-4.62-3.8-.749-.4-.84-.6-.959-1.7-.091-.8-.3-4.2-.3-4.9 0-1.2 0-1.3 1.11-1.8 1.11-.4 3.12-1.3 3.12-2.7 0-1.3-.99-1.3-2.31-1.4-.18 0-1.739 0-1.739-.9a1.566 1.566 0 0 1 .179-.7 1.013 1.013 0 0 0 .33-.7c0-1.1-2.009-1.6-2.609-1.6a1.119 1.119 0 0 0-1.02.5 4.457 4.457 0 0 0 .93 1.1c.57.7.57 1.5.57 3.4 0 2 0 2-1.65 2a10.366 10.366 0 0 1-3.36-.6 3.559 3.559 0 0 0-.81-.5c-.12 0-.15.2-.15.3 0 .3 1.05 2.6 4.44 2.6a6.014 6.014 0 0 1 1.38.1.952.952 0 0 1 .24.7c.03.8.12 4 .12 4.2 0 1.9 0 2.1-.75 2.1-6.15.1-6.15 3.2-6.15 3.7 0 1.7 1.74 3 3.75 3a4.908 4.908 0 0 0 4.47-2.9 5.142 5.142 0 0 1 .57-1.4zm-.42-13.9a.536.536 0 0 1 .36-.1c.419 0 1.409.4 1.409.9 0 .7-1.139 1.1-1.559 1.1-.21 0-.451 0-.451-1.2a.857.857 0 0 1 .241-.7zm-3.93 13c1.92 0 2.34.3 2.34.8 0 1-1.83 2.4-3.6 2.4-1.05 0-1.98-.5-1.98-1.3s1.53-1.9 3.24-1.9zm-8.55 1.1c0-.8.84-5.1.84-6.1 0-.1 0-.3-.12-.3a14.866 14.866 0 0 0-1.23 3c-.54 1.7-.57 1.8-.84 1.8-.72 0-.72-1.9-.72-2.1a19.358 19.358 0 0 1 1.08-6c.24-.8 1.56-4.5 1.56-4.7 0-.6-1.5-3.6-3.18-3.6a.532.532 0 0 0-.54.3 3.479 3.479 0 0 0 .57 1 4.4 4.4 0 0 1 .69 2.5c0 1-.06 1.1-.9 4.8a23.05 23.05 0 0 0-.78 5.9c0 4.6 1.5 7.6 3 7.6a1.007 1.007 0 0 0 .99-1.2c0-.4-.419-2.4-.419-2.9zm30.318 4.7c0-2.8-5.1-4.4-6.15-4.4-.24 0-.33.1-.33.2a1.806 1.806 0 0 0 .42.4 8.071 8.071 0 0 1 3.15 3.2c.99 1.8 1.11 2 1.74 2a1.413 1.413 0 0 0 1.17-1.4zm30.051-1.6c.6 0 .6.2.63.8a.99.99 0 0 0 .96 1.1 1.526 1.526 0 0 0 1.5-1.7c0-1.5-.21-9.1-.24-10.8-.03-2.7-.06-3.2-.06-6.4 0-1.4.15-1.7.54-2a1.181 1.181 0 0 0 .66-.7c0-.5-2.189-1.9-2.609-1.9-.3 0-.42.2-.871.8a1.073 1.073 0 0 1-1.079.3h-9.18a2.615 2.615 0 0 1-1.5-.4 6.766 6.766 0 0 0-1.41-.7c-.15 0-.18.1-.18.3s.15 1.5.18 1.8c.24 3 .24 10.1.24 13.4 0 1.2-.18 7.2-.18 7.3a.915.915 0 0 0 1.05 1.1c1.32 0 1.38-.9 1.44-1.6a.761.761 0 0 1 .87-.7h9.24zm-9.45-10.9c-.81 0-.84-.5-.84-1.1 0-.5 0-7 .06-7.3a.757.757 0 0 1 .69-.4H661a.733.733 0 0 1 .75.4c.06.1.15 7.1.15 7.5a.736.736 0 0 1-.87.9h-9.21zm.15 10.1c-.81 0-.9-.4-.9-1.3 0-1.1-.09-5.9-.09-6.9 0-.6.09-1.1.87-1.1h9.18c.81 0 .87.5.87 1.2s0 7.3-.03 7.5a.716.716 0 0 1-.87.6h-9.03zm38.094-2.7c1.11 0 1.619 0 1.619-.5a5.423 5.423 0 0 0-2.039-1.9 1.251 1.251 0 0 0-.69.8c-.33.8-.51.8-1.44.8h-.54a.691.691 0 0 1-.84-.8c0-2.7-.03-6.9-.03-9.5 0-.3 0-.7.36-.7.27 0 .33.1.48.5a27.348 27.348 0 0 0 4.529 7.8 21.136 21.136 0 0 0 4.44 3.9c.09 0 .15 0 .39-.3a3.21 3.21 0 0 1 1.26-.7c.33-.1 2.07-.3 2.07-.4a1.208 1.208 0 0 0-.75-.4c-6.39-2.6-11.279-9.1-11.279-10.2 0-.2.21-.2.6-.2h8.609c1.05 0 1.62 0 1.62-.5 0-.4-2.7-2.4-3.06-2.4-.24 0-.42.1-.96 1.4-.33.7-.54.7-1.92.7h-5.609c-.78 0-.78-.6-.78-1.6a17.94 17.94 0 0 1 .33-4.1 9.007 9.007 0 0 0 .69-.9c0-.5-2.91-.9-3-.9a.242.242 0 0 0-.27.3c0 .1.24 1.8.27 2 .06.7.06 1.7.06 4.2a.813.813 0 0 1-.99 1h-5.97c-1.23 0-2.34 0-4.05-.1-.21 0-1.17-.1-1.38-.1h-.12a.359.359 0 0 0 .12.2l.6.7a.345.345 0 0 0 .3.2c.18 0 1.05-.1 1.23-.1h7.2c.33 0 .75 0 .75.4 0 1-3.69 7.4-7.8 11.2a16.634 16.634 0 0 0-1.86 1.6.236.236 0 0 0 .18.2 11.941 11.941 0 0 0 2.19-1.2 27.441 27.441 0 0 0 8.43-9.5c.63-1.1.66-1.2.9-1.2.27 0 .27.3.27.6 0 1.1-.06 6.8-.06 8 0 .6-.06.9-.93.9h-.9c-.54 0-3.21-.2-3.81-.2a.1.1 0 0 0-.12.1.081.081 0 0 0 .09.1l.66.8c.15.2.15.2.27.2s.72-.1.87-.1c.36 0 1.2-.1 1.95-.1h1.05c.39 0 .87 0 .87 1 0 .2-.06 2-.09 3 0 .2-.12 1.6-.12 1.8a.892.892 0 0 0 .75 1.1 1.661 1.661 0 0 0 1.53-1.9c0-.5-.06-3.1-.06-3.7 0-.9.15-1.3.96-1.3h2.97zm21.1-5.3a4.321 4.321 0 0 1-1.68-.3c-.3 0-1.71-.7-2.04-.7a.157.157 0 0 0-.18.2c0 .2.09.8.09 1 .03.6.03 3.7.03 5.2 0 .9 0 1.5-.06 2.9-.03.4-.12 2.2-.12 2.5 0 .8.06 1.4.96 1.4a1.436 1.436 0 0 0 1.59-1.5.784.784 0 0 1 .93-.7h12.06a.751.751 0 0 1 .929.8.827.827 0 0 0 1.02 1 1.515 1.515 0 0 0 1.5-1.7c0-.7-.21-6.3-.21-7.5a1.547 1.547 0 0 1 .27-1 6.088 6.088 0 0 0 .78-.7c0-.4-2.43-2-2.67-2a.83.83 0 0 0-.54.5 1.794 1.794 0 0 1-1.529.6h-3.51a.782.782 0 0 1-.87-.5c-.06-.1-.06-2.7-.06-3.1 0-3.1 0-3.2.93-3.2h10.078c1.02 0 1.62 0 1.62-.4a.9.9 0 0 0-.48-.5 16.23 16.23 0 0 0-2.43-1.8c-.3 0-1.05 1.4-1.32 1.7-.3.3-.45.3-1.71.3h-5.759c-.93 0-.93-.2-.93-2.6a12.455 12.455 0 0 1 .27-3.3 3.265 3.265 0 0 0 .69-.9.472.472 0 0 0-.36-.4c-.57-.1-2.82-.6-3-.6a.288.288 0 0 0-.3.3c0 .1.27.8.3.9a37.241 37.241 0 0 1 .15 5.7.789.789 0 0 1-.9.9h-6.03c-1.41 0-2.64-.1-4.11-.2-.21 0-1.14-.1-1.32-.1-.09 0-.12 0-.12.1s0 .1.12.2l.6.7a.429.429 0 0 0 .24.2c.12 0 .54-.1.66-.1.27 0 1.14-.1 3.78-.1h6.21a.784.784 0 0 1 .87.8c.03.7 0 4.4 0 5.2a.755.755 0 0 1-.93.8h-3.51zm11.7.8a.748.748 0 0 1 .839.5c.061.1.061 6.5.061 7.1a.752.752 0 0 1-.9.8h-12.33a.765.765 0 0 1-.84-.5c-.03-.1-.06-6.4-.06-7.1a.752.752 0 0 1 .9-.8h12.33zm35.564-2.3c.99 0 1.62 0 1.62-.5a8.873 8.873 0 0 0-2.7-2.2c-.27 0-.36.1-1.26 1.4-.39.5-.54.5-1.92.5h-3.449a.325.325 0 0 1-.39-.3 1.766 1.766 0 0 1 .66-.8c.84-.8 2.549-2.3 3.419-3.1a7.449 7.449 0 0 0 1.08-.5c0-.5-2.31-1.9-2.91-1.9-.3 0-.3.3-.3.6 0 1.2-1.29 3.6-2.07 4.7a2.3 2.3 0 0 1-1.74 1.3c-.78 0-.78-.6-.78-1.2 0-.7-.06-4.6-.06-5.5 0-.7.21-1 .84-1h7.409c1.02 0 1.62 0 1.62-.4s-2.37-2-2.55-2c-.33 0-1.32 1.4-1.649 1.5a4.719 4.719 0 0 1-1.47.1h-3.36c-.72 0-.81-.4-.81-1 0-1.1.21-1.3.45-1.5a1.1 1.1 0 0 0 .45-.7c0-.4-2.76-1.1-3.06-1.1-.18 0-.21.1-.21.3a3.437 3.437 0 0 0 .24 1 3.477 3.477 0 0 1 .15 1.1c0 1.4 0 1.9-.78 1.9h-3.15c-1.41 0-2.64 0-4.11-.1-.18 0-1.11-.1-1.32-.1-.06 0-.12 0-.12.1a.46.46 0 0 1 .15.2l.57.7a.285.285 0 0 0 .27.1h.63c.57 0 1.56-.1 3.78-.1h3.3c.81 0 .78.7.78 1.5v5.2c0 .5-.03 1-.81 1h-5.94c-1.41 0-2.67-.1-4.14-.1-.18 0-1.11-.1-1.32-.1h-.09c0 .1 0 .1.12.2l.57.7a.594.594 0 0 0 .27.2c.09 0 .54-.1.63-.1h7.74c.36 0 .72 0 .72.3 0 1.2-3.72 6-9.51 10-.18.1-1.26.9-1.26.9 0 .1.06.2.27.2a8.13 8.13 0 0 0 1.71-.7 26.081 26.081 0 0 0 9.57-7.7c.84-1 .93-1.2 1.14-1.2.36 0 .36.5.36.8 0 .4-.09 6.4-.15 7.8 0 .4-.12 2-.12 2.4a.9.9 0 0 0 .84 1.1c1.53 0 1.53-1.3 1.53-2.1 0-1.5-.15-9.2-.15-10.9 0-.2 0-.6.27-.6a.339.339 0 0 1 .24.3c.3.6.33.6.6 1.2a22.685 22.685 0 0 0 9.029 9.3.786.786 0 0 0 .42-.3 5.528 5.528 0 0 1 1.14-1 9.033 9.033 0 0 0 1.62-.8.6.6 0 0 0-.6-.3 17.058 17.058 0 0 1-2.85-.9c-4.289-1.7-8.549-6.9-8.549-7.5 0-.3.27-.3.45-.3h9zm-15.539-3.2c0-1.4-1.23-2.2-2.82-3.3a14.223 14.223 0 0 0-1.89-1c-.12 0-.18 0-.18.1a12.19 12.19 0 0 0 .69 1.1 20.739 20.739 0 0 1 1.2 2.1c.93 2.1 1.11 2.6 1.89 2.6a1.418 1.418 0 0 0 1.109-1.6zm35.079-5.6c8.189 0 8.309 7.1 8.309 8.3 0 7.4-6.509 10-9.629 11.3-.75.3-.81.3-.81.4 0 .2.18.2.3.2a18.239 18.239 0 0 0 4.98-1.1 11.272 11.272 0 0 0 7.559-10.6 9.4 9.4 0 0 0-5.219-8.7 9.876 9.876 0 0 0-4.83-1 12.412 12.412 0 0 0-9.57 3.9 10.745 10.745 0 0 0-3.33 7.7c0 3.6 1.77 6.7 3.75 6.7 1.2 0 2.73-.7 5.13-4.4 2.64-3.9 3.09-6.7 3.09-8.7a23.352 23.352 0 0 0-.3-3.3c0-.1-.06-.2-.06-.3-.001-.2.029-.4.629-.4zm-1.68.1c.39 0 .51.1.51 1.9a16.87 16.87 0 0 1-2.94 8.7c-2.07 3.2-2.79 3.5-3.66 3.5-1.83 0-2.61-2.7-2.61-4.6-.001-5.7 5.849-9.5 8.699-9.5zm24.462 7.6a.4.4 0 0 0 .27.2c.21 0 1.62-.1 1.89-.1.6 0 .6.3.6 1.3 0 3.4-.12 3.4-.99 3.4h-.99c-1.71 0-3.24-.1-4.11-.1-.21 0-1.14-.1-1.32-.1-.06 0-.12 0-.12.1a.46.46 0 0 1 .15.2l.57.7a.285.285 0 0 0 .27.1c.06 0 .78-.1.87-.1h4.5a.589.589 0 0 1 .75.6 9.643 9.643 0 0 1-3.12 5.8 13.7 13.7 0 0 1-3.42 2.3.886.886 0 0 0-.57.4.24.24 0 0 0 .24.2 16.991 16.991 0 0 0 4.71-1.9c3.15-2 3.69-4.7 4.11-6.8.12-.6.42-.6.99-.6h2.85a.789.789 0 0 1 .84 1c0 .2-.09 2.9-.09 3.5 0 3.7 1.47 4.1 5.129 4.1a19.372 19.372 0 0 0 4.95-.4 2.254 2.254 0 0 0 1.41-1.6c0-.5-.18-.6-.87-1.3a3.892 3.892 0 0 1-.42-1.6c-.06-.4-.06-.6-.21-.6-.12 0-.15.2-.42 1.3-.48 1.8-.66 2.3-3.57 2.3-1.02 0-3.179 0-3.629-.8a12.348 12.348 0 0 1-.33-3.9c0-1.7 0-2 .96-2h5.609c1.32 0 1.47 0 1.47-.4a5.923 5.923 0 0 0-2.31-2.1c-.33 0-1.2 1.3-1.41 1.5-.3.2-.45.2-1.769.2H812.6c-.87 0-.87-.3-.87-1.6 0-.4 0-2.7.06-2.9.09-.3.24-.3 1.44-.3.66 0 1.2 0 1.2-.4a3.928 3.928 0 0 0-2.07-1.9c-.24 0-.3.1-.78.8a1.355 1.355 0 0 1-1.32.8h-4.68c-1.14 0-3.15-.1-4.35-.2-.39 0-.69 0-.69-.2a14.458 14.458 0 0 1 1.62-1.7 29.507 29.507 0 0 0 3.96-6.2 2.289 2.289 0 0 1 1.02-1 .644.644 0 0 0 .51-.6c0-.5-1.98-1.8-2.25-1.8-.24 0-.27.1-.81.9a1.488 1.488 0 0 1-1.41.6l-1.11-.1c-1.71 0-3.24 0-4.11-.1-.21 0-1.14-.1-1.32-.1-.06 0-.12 0-.12.1a.469.469 0 0 0 .15.2l.57.7a.4.4 0 0 0 .27.2c.06 0 .78-.1.87-.1 1.2-.1 2.67-.1 3.54-.1h1.29c.33 0 .75 0 .75.5 0 .8-1.92 4.6-2.25 4.6a2.651 2.651 0 0 1-.42-1c-.69-1.5-3.18-2.1-3.81-2.1-.09 0-.18 0-.18.2.18.2.63.7.84 1a20.394 20.394 0 0 1 2.31 3.5c0 .9-3.03 3.5-4.35 4.6-.27.2-1.8 1.3-1.8 1.3a.184.184 0 0 0 .18.2 12.743 12.743 0 0 0 3.45-1.8c.36-.2 1.95-1.4 2.13-1.4a.29.29 0 0 1 .3.1zm5.43 4.8c-.75 0-.84-.3-.84-.7 0-.5.12-2.7.12-3.2a.771.771 0 0 1 .87-.9h2.52a.75.75 0 0 1 .87.5c.03.2.03 2.1.03 2.4 0 1.6 0 1.9-.84 1.9h-2.73zm14.489-11.1c.27-.6-2.04-2.6-2.4-2.6a.909.909 0 0 0-.54.6c-.6 1.1-3.27 3.9-3.869 3.9-.63 0-2.49-2.4-2.49-2.6 0-.6 4.229-2.7 4.769-2.9.6-.1.93-.2.93-.4 0-.6-2.159-2.1-2.61-2.1-.27 0-.27.1-.659.9-.72 1.5-2.4 3.7-2.85 3.7-.42 0-1.2-1.5-1.5-2a17.247 17.247 0 0 0-1.02-1.9.1.1 0 0 0-.09.1 21.181 21.181 0 0 0 3.3 7.4c2.879 3.8 6.749 5.9 7.2 5.9a3.852 3.852 0 0 0 .99-.6 7.068 7.068 0 0 1 2.19-.8c.09 0 .33 0 .33-.2 0-.1-.12-.1-.51-.2-2.25-.6-7.2-3.1-7.2-3.7s3.929-2.2 4.769-2.2c.959 0 1.109 0 1.259-.3zm17.1-3.1c1.26 0 1.41 0 1.41-.3a.735.735 0 0 0-.36-.6c-1.26-1.2-1.41-1.3-1.68-1.3a4.279 4.279 0 0 0-1.05 1.2c-.27.2-.42.2-1.68.2h-2.67c-1.71 0-3.27 0-4.14-.1-.21 0-1.11-.1-1.32-.1a.081.081 0 0 0-.09.1l.12.2.57.7a.594.594 0 0 0 .27.2c.24 0 2.22-.2 2.61-.2.81 0 .81.2.81 1.8 0 .2 0 2.8-.03 3a.712.712 0 0 1-.57.3 1.639 1.639 0 0 1-.93-.4 6.232 6.232 0 0 0-1.65-.7.267.267 0 0 0-.21.2c0 .3.21 1.4.24 1.6.06.4.12 9.3.12 9.8 0 1.2-.27 6.5-.27 7.6a.719.719 0 0 0 .69.9 1.294 1.294 0 0 0 1.23-1.4.692.692 0 0 1 .81-.7h5.67a.689.689 0 0 1 .81.5c.09.5.15 1 .78 1a1.491 1.491 0 0 0 1.35-1.4c0-.2-.06-1.1-.09-1.3-.03-.6-.09-2.9-.09-3.7 0-1.7 0-10.3.09-10.7a1.117 1.117 0 0 1 .54-.7.364.364 0 0 0 .21-.3c0-.5-1.59-1.5-1.83-1.5a4.656 4.656 0 0 0-.87.9.99.99 0 0 1-.66.3c-1.02 0-1.02-.2-1.02-1.3 0-.5 0-3.1.09-3.3a.823.823 0 0 1 .96-.5h1.83zm-7.65 16.2c-.9 0-.9-.3-.9-1.7a1.36 1.36 0 0 1 .81-1.4c1.5-1.1 2.13-3.6 2.13-6.7 0-.3 0-.6.45-.6.54 0 .75 0 .75.5 0 .6-.03 3.1-.03 3.6 0 1.7.06 2.5 1.77 2.5a2.176 2.176 0 0 0 .78-.1c.06 0 .48-.1.57-.1.27 0 .27.1.27.5s-.03 2.3-.03 2.7a.711.711 0 0 1-.84.8h-5.73zm2.79-16.2a.367.367 0 0 1 .39.2c.06.1.06 3.7.06 4.2 0 .4 0 .7-.42.7-.45 0-.78 0-.78-.4 0-1.5 0-4.4.03-4.4.09-.3.18-.3.72-.3zm-2.88 5.8c.54 0 .54.2.54 1.5 0 2.5 0 4.1-.81 5.3a.756.756 0 0 1-.36.3c-.15 0-.18-.2-.18-.4 0-1 .12-6 .12-6.1 0-.6.21-.6.69-.6zm6.06 0c.66 0 .66.4.66.8 0 1.2 0 2.5-.03 3.7 0 .2 0 .5-.24.5a1.018 1.018 0 0 1-.54-1 .933.933 0 0 0-.18-.6.1.1 0 0 0-.09.1c0 .4-.06 1.3-.48 1.3-.27 0-.27-.4-.27-.5 0-.5-.03-3-.03-3.5 0-.4 0-.8.69-.8h.51zm-6.03 15.4c-.9 0-.9-.5-.9-1.3 0-2.7 0-2.9.93-2.9h5.7c.9 0 .9.5.9 1.1 0 3-.12 3.1-.96 3.1h-5.67zm21.629-14c1.26 0 1.41 0 1.41-.3 0-.5-1.83-2-2.16-2-.3 0-1.02 1.3-1.26 1.4a3.8 3.8 0 0 1-1.26.1c-.15 0-.33 0-.33-.2 0-.5 3.09-4.3 3.54-4.8a4.7 4.7 0 0 0 1.23-1.1c0-.4-2.34-1.8-2.73-1.8-.18 0-.24.3-.39.9-.06.2-.66 2.3-1.11 2.3a1.55 1.55 0 0 1-.75-.6c-.72-.7-.81-.7-1.05-.7a3.457 3.457 0 0 0-.929 1 .86.86 0 0 1-.63.2c-.51 0-.51-.3-.51-.7a6.048 6.048 0 0 1 .12-2.1 3.716 3.716 0 0 0 .6-.9c0-.5-2.25-1-2.61-1-.09 0-.18 0-.18.1a3.923 3.923 0 0 0 .27.8 10.853 10.853 0 0 1 .12 2.8c0 .4 0 .9-.69.9-.45 0-2.34-.1-2.73-.1-.06 0-.12 0-.12.1l.12.2.6.7a.259.259 0 0 0 .24.1c.24 0 1.65-.1 1.92-.1.66 0 .66.5.66 1 0 2.9 0 3-.69 3-.54 0-2.82-.2-3.3-.2a.1.1 0 0 0-.12.1l.15.2.57.7a.53.53 0 0 0 .3.2c.06 0 .75-.1.84-.1 1.2-.1 2.55-.1 4.02-.1.21 0 .3 0 .3.2a11.829 11.829 0 0 1-1.41 1.9c-.48.6-.51.6-.9.6-.45 0-2.46-.1-2.88-.1a.081.081 0 0 0-.09.1l.12.1.57.7a.594.594 0 0 0 .27.2c.15 0 1.11-.1 1.32-.1.06 0 .18 0 .18.1 0 .2-2.94 3.4-2.94 3.4 0 .1.03.1.09.1.48 0 3.24-2.4 4.17-3.3.3-.3.42-.3 1.29-.3h2.879c.24 0 .42 0 .42.2s-1.11 1.9-1.5 1.9c-.27 0-1.679-.7-1.979-.7-.12 0-.18 0-.18.2s.24.8.27 1c.06.5.12 1.9.12 2.1a.759.759 0 0 1-.87.9c-1.2 0-2.58-.1-3.81-.1-.21 0-1.17-.1-1.35-.1h-.12a.389.389 0 0 0 .15.3l.57.6c.12.2.15.2.27.2h.63a29.48 29.48 0 0 1 3.03-.1c1.17 0 1.32 0 1.47.3a23.462 23.462 0 0 1 .12 3c0 1.5-.93 1.6-2.79 1.6a.5.5 0 0 0-.36.1 6.026 6.026 0 0 0 .66.2 4.14 4.14 0 0 1 1.56 1.4.742.742 0 0 0 .63.3 2.46 2.46 0 0 0 1.709-.9 3.081 3.081 0 0 0 .33-1.6c0-.6-.09-3.4 0-3.9a.684.684 0 0 1 .84-.5h3.42c1.26 0 1.41 0 1.41-.4a6.584 6.584 0 0 0-2.16-2c-.27 0-.33.1-.84 1-.36.6-.51.6-2.1.6-.63 0-.63-.4-.63-.9a4.643 4.643 0 0 1 .09-1.5c.03-.1.57-.5.57-.6l-.15-.2a8.219 8.219 0 0 1 3.33-1.6c.84-.1 1.32-.1 1.32-.4 0-.5-2.31-2.2-2.58-2.2a1.259 1.259 0 0 0-.36.6.672.672 0 0 1-.69.4h-2.879c-.39 0-.42 0-.42-.1s1.47-1.8 1.649-2.1a1.462 1.462 0 0 1 1.41-.6h3.66zm-4.02-4.8c.27 0 .57 0 .57.2a20.126 20.126 0 0 1-1.68 2.9c-.57.9-.63.9-1.26.9-.449 0-.539-.1-.539-2.6 0-.8 0-1.4.87-1.4h2.039zm24.814 3.9c-.87 0-.87-.2-.87-2.3 0-2.6 0-2.9.48-3.2a21.44 21.44 0 0 1 4.5-.6c2.37-.2 2.7-.2 2.7-.7 0-.3-.06-.3-1.08-1a12.889 12.889 0 0 0-1.679-1.2.34.34 0 0 0-.3.1 7.148 7.148 0 0 1-1.889.8c-3.39 1.3-9.66 1.9-13.71 2.3a3.883 3.883 0 0 0-1.23.2c0 .3 4.2.4 4.68.4.69 0 4.02-.2 4.35-.2 1.08 0 1.08.1 1.08 4.5a.727.727 0 0 1-.84.9h-8.64c-.18 0-1.11-.2-1.32-.2a.209.209 0 0 0-.12.1.438.438 0 0 0 .15.2l.57.7a.4.4 0 0 0 .27.2c.09 0 .54-.1.63-.1h8.46a.747.747 0 0 1 .87.9c0 .4 0 3.9-.09 4.1a.772.772 0 0 1-.78.4h-6.39c-1.41 0-2.64-.1-4.11-.1-.18 0-1.11-.2-1.32-.2a.209.209 0 0 0-.12.1c0 .1.03.1.15.2l.57.7a.4.4 0 0 0 .27.2 1.391 1.391 0 0 0 .63-.1h10.32a.727.727 0 0 1 .84.9c0 5.7-.06 6-.3 6.4s-.57.4-3.69.4a.215.215 0 0 0-.27.2 1.289 1.289 0 0 1 .27.2c1.05.4 2.13 1 2.25 1.7.12.8.12.9.6.9a3.123 3.123 0 0 0 2.01-.7 3.416 3.416 0 0 0 1.29-3.1c0-.9-.03-5.1-.03-6a.742.742 0 0 1 .87-.9h10.019c.99 0 1.59 0 1.59-.5a7.164 7.164 0 0 0-2.58-2.3c-.36 0-.48.2-1.44 1.5-.36.5-.51.5-1.92.5h-5.671a.772.772 0 0 1-.78-.4c-.09-.2-.09-3.7-.09-4.1a.738.738 0 0 1 .84-.9h7.949c1.02 0 1.59 0 1.59-.5a9.251 9.251 0 0 0-2.43-2.2c-.27 0-.45.2-1.05 1.2-.42.6-.57.6-2.009.6h-4.05zm16.974-7.9a10.4 10.4 0 0 1 2.49 3c.42.8.6 1 1.08 1a1.112 1.112 0 0 0 .99-1.3 2.765 2.765 0 0 0-1.98-2.4 12.828 12.828 0 0 0-2.43-.5c-.09 0-.24 0-.24.1a.271.271 0 0 0 .09.1zm-2.61 6.7c.03.1.45.4.51.5a8.5 8.5 0 0 1 1.95 2.5c.42.9.63 1.2 1.05 1.2a1.263 1.263 0 0 0 1.17-1.3c0-1.7-2.16-3-4.2-3a.664.664 0 0 0-.48.1zm14.67 6.6c.36 0 .9 0 .9.5a32.629 32.629 0 0 1-2.46 5.4c-1.2 2.3-1.35 2.6-2.07 2.6-.69 0-1.26-.1-2.04-.1a6.953 6.953 0 0 0-1.44-.3.1.1 0 0 0-.12.1c0 .2.84 3.2 1.29 3.2a2.462 2.462 0 0 0 .69-.4 14.606 14.606 0 0 1 1.5-.6c1.05-.2 6.3-1 7.5-1.2.75-.1 4.529-.9 4.829-.9.63 0 .78.5.96 1.2.51 2.3.57 2.6 1.2 2.6a1.618 1.618 0 0 0 1.47-1.8c0-3.1-4.56-7.2-5.1-7.2h-.031c.06.4 1.71 3.8 1.71 4.4 0 .3-.27.4-1.02.5-1.349 0-8.669.4-9.479.4-.06 0-.18 0-.18-.1a1.349 1.349 0 0 1 .45-.6 51.015 51.015 0 0 0 3.15-4.2c.75-1.2.84-1.4 1.14-1.4.6-.2.81-.2.81-.5a11.065 11.065 0 0 0-1.14-1.6h8.639c1.02 0 1.62 0 1.62-.5a7.716 7.716 0 0 0-2.28-1.9 12 12 0 0 0-1.26 1.3c-.24.3-.39.3-1.65.3h-2.819a.81.81 0 0 1-.96-.6c-.03-.2-.03-4.4-.03-4.9a.776.776 0 0 1 .96-.8h5.219c1.02 0 1.62 0 1.62-.4a7.589 7.589 0 0 0-2.34-1.9 6.462 6.462 0 0 0-1.14 1.3c-.27.2-.42.2-1.679.2h-1.68a.755.755 0 0 1-.93-.8s.09-2.3.09-2.7a2.348 2.348 0 0 1 .12-1c.03-.2.57-.7.57-.9 0-.5-2.79-.9-2.97-.9-.15 0-.15.1-.15.2l.21 1.4c.09 1 .09 2.8.09 3.8a.762.762 0 0 1-.87.9h-.66c-1.41 0-2.76-.1-4.11-.1-.21 0-1.14-.1-1.35-.1h-.093a.438.438 0 0 0 .12.3l.6.6c.09.2.15.2.24.2h.66c1.05-.1 3.09-.1 3.78-.1h.84a.755.755 0 0 1 .84.9c0 .7 0 4.3-.06 4.7a.754.754 0 0 1-.93.7h-2.22c-1.41 0-2.76-.1-4.11-.1-.21 0-1.14-.1-1.35-.1h-.09c0 .1 0 .1.12.2l.57.7a.594.594 0 0 0 .27.2c.09 0 .54-.1.63-.1h5.4zm-13.53 5.3a2.867 2.867 0 0 0 .9.7c1.11 1.3 1.11 2.2 1.11 4 0 1 .36 2.1 1.44 2.1a1.488 1.488 0 0 0 1.32-1.5 3.306 3.306 0 0 0-.27-1.1c-.81-2.3-.93-2.6-.93-4 0-.9.09-1.2.96-3.4.36-.9 3.27-8.8 3.27-9.1a.205.205 0 0 0-.18-.2c-.18 0-.18.1-.39.6-.27.6-.78 1.5-1.05 2.2-2.46 5.5-3.96 8.8-5.01 9.3a3.572 3.572 0 0 0-1.17.4zm33.969.6c0 4.7 4.35 4.7 5.73 4.7 1.59 0 7.709-.1 7.709-1.7a1.883 1.883 0 0 0-1.979-1.4 10.2 10.2 0 0 0-2.25.4 11.189 11.189 0 0 1-3.6.6c-2.43 0-4.17-.8-4.17-2.8s1.02-4.2 8.16-7c1.08-.5 2.309-.9 2.309-1.8a1.15 1.15 0 0 0-1.139-1.1c-.87 0-2.76 1.2-3.09 1.4-1.62 1-1.8 1.1-2.22 1.1-.78 0-.78-2.4-.78-3.6a27.231 27.231 0 0 1 .27-3.9c.06-.3.42-1.7.42-1.9 0-.9-1.53-2.3-3.24-2.3a1.115 1.115 0 0 0-.81.2l.72.8a2.763 2.763 0 0 1 .9 2.4c0 .8-.15 4.3-.15 5a9.731 9.731 0 0 0 .51 3.5 5.131 5.131 0 0 1 .27.9c0 .4-.39.8-1.29 1.6a7.008 7.008 0 0 0-2.28 4.9zm34.29-17.8a.591.591 0 0 1 .72.6 12.344 12.344 0 0 1-.78 3.1.74.74 0 0 1-.81.6H954.2a2.342 2.342 0 0 1-1.32-.3 18.782 18.782 0 0 0-1.95-.9.345.345 0 0 0-.33.4c0 .1.18 1 .18 1.2.09 1.1.12 3.5.12 4.2 0 .9-.15 4.9-.15 5.8 0 .8.18.9.84.9 1.2 0 1.32-.3 1.5-.8a.633.633 0 0 1 .72-.3h2.97a.749.749 0 0 1 .81.5c.06.2.12 2.3.12 2.6a19.018 19.018 0 0 1-.3 3.8 1.064 1.064 0 0 1-1.05.4c-.24 0-1.35-.1-1.59-.1a.171.171 0 0 0-.18.1 3.416 3.416 0 0 0 .96.8 3.068 3.068 0 0 1 1.05 1.5.666.666 0 0 0 .66.5 3.128 3.128 0 0 0 1.8-.9 2.856 2.856 0 0 0 .84-2.3c0-.5-.06-4.4-.06-5.3 0-1.2 0-1.6.87-1.6h2.069c.66 0 .75.2.81.5a.79.79 0 0 0 .81.8 1.512 1.512 0 0 0 1.71-1.7c0-1-.21-5.5-.21-6.4 0-1.5 0-1.6.36-1.9a1.1 1.1 0 0 0 .57-.7c0-.5-2.31-1.8-2.58-1.8-.24 0-.27.1-.63.6a.686.686 0 0 1-.809.4h-5.07a.406.406 0 0 1-.51-.4 4.4 4.4 0 0 1 1.05-1.6 13.735 13.735 0 0 1 1.59-2.1 1.374 1.374 0 0 1 .99-.2h7.079c1.41 0 1.56 0 1.56-.4a8.768 8.768 0 0 0-2.7-1.9c-.39 0-1.65 1.3-1.98 1.4a5.3 5.3 0 0 1-1.47.1h-14.966a2.5 2.5 0 0 1-1.68-.4c-.21-.1-1.56-.8-1.62-.8-.15 0-.21.1-.21.3 0 .4.27 1.8.3 2.2.24 2 .3 6.2.3 8.4 0 1.9 0 8.2-1.38 11.8-.3.8-1.26 3.2-1.26 3.2 0 .1 0 .2.09.2.3 0 1.68-1.7 2.82-4.1 1.62-3.5 1.95-6.4 1.95-17.7 0-.3-.06-1.4-.03-1.6a.768.768 0 0 1 .96-.7h7.62zm-2.28 8.9c-.57 0-.9-.1-.9-.8 0-2.8.06-3 .96-3h8.759a.718.718 0 0 1 .84.4c.03.2.18 2.4.18 2.5a.763.763 0 0 1-.9.9h-8.939zm.06 4.8c-.9 0-.96-.1-.96-3.1a.807.807 0 0 1 .93-.9h9.059a.812.812 0 0 1 .78 1v2.3c0 .7-.36.7-.9.7h-8.909zm-.9 2.7c-.03 0-.78 1.5-.87 1.7a20.671 20.671 0 0 1-1.89 2.7c-.42.5-2.73 2.8-2.73 3 0 .1.12.1.18.1.66 0 4.02-2.5 5.1-3.3a18.985 18.985 0 0 1 2.1-1.8c.72-.2.87-.3.87-.5 0-.6-2.4-2.1-2.76-1.9zm8.67.5a.3.3 0 0 0-.24.2 1.757 1.757 0 0 0 .6.8 14.556 14.556 0 0 1 3.63 4.4c.6 1 .99 1.3 1.41 1.3a1.605 1.605 0 0 0 1.29-1.7c0-1.7-1.8-2.7-2.7-3.1a20.206 20.206 0 0 0-3.99-1.9zm24.492-9.1c.81 0 1.14 0 1.14-.4s-2.19-2-2.34-2c-.3 0-1.14 1.3-1.32 1.4a1.767 1.767 0 0 1-1.23.3.822.822 0 0 1-1.05-.9c0-.3.27-6.1.27-6.1a2.1 2.1 0 0 1 .66-1.3c.24-.2.3-.2.3-.4 0-.5-2.91-1.1-2.97-1.1a.28.28 0 0 0-.24.3c0 .4.18 1.9.21 2.2.06 1.6.12 4.7.12 6.4a.753.753 0 0 1-.9.9c-.39 0-3.12-.1-3.69-.2-.18 0-.93-.1-1.08-.1-.06 0-.12 0-.12.1s0 .1.15.2l.57.7a.4.4 0 0 0 .27.2h.42a23.986 23.986 0 0 1 2.7-.2.664.664 0 0 1 .69.7c0 .2-.57 3.3-3.87 9.6-.09.2-.51.9-.51 1a.138.138 0 0 0 .09.1c.39 0 3.03-3.6 4.26-5.8.45-.9.51-1 .66-1a.242.242 0 0 1 .27.3c0 .3-.15 5.7-.18 6.1-.03.7-.27 3.9-.27 4.6a.87.87 0 0 0 .84.9 1.553 1.553 0 0 0 1.44-1.6c0-1.2-.09-6.8-.12-7.9 0-.8-.06-4.3-.06-5 0-.6 0-.7.15-.7a8.828 8.828 0 0 1 2.7 4c.36 1.1.48 1.5 1.05 1.5a1.217 1.217 0 0 0 1.08-1.3c0-1.6-2.97-3.8-4.68-4.7a.262.262 0 0 1-.24-.3c0-.4.72-.5.9-.5h3.93zm6.03-5.2c0-1.9-3.63-2.4-3.72-2.4h-.21a.334.334 0 0 0 .18.3 6.47 6.47 0 0 1 1.77 2.1 1.669 1.669 0 0 0 1.14 1.2c.84 0 .84-1.1.84-1.2zm-.12 7.5c0-2.2-3.6-3.7-4.08-3.7-.06 0-.18 0-.18.1a.705.705 0 0 0 .3.4 12.339 12.339 0 0 1 2.04 3.3c.21.7.3 1.1.93 1.1a.986.986 0 0 0 .995-1.2zm1.559 4.8c.87-.2.87.5.87 1.2 0 .9-.09 4.3-.12 5.5 0 .3-.089 1.6-.089 1.8a.9.9 0 0 0 .869 1 1.573 1.573 0 0 0 1.53-1.5c0-.6-.3-6.5-.3-7.8a.973.973 0 0 1 .81-1l3-.6a1.15 1.15 0 0 0 1.05-.7c0-.4-2.486-1.6-2.576-1.6-.3 0-.87 1.5-1.05 1.8a1.193 1.193 0 0 1-.72.3.532.532 0 0 1-.57-.5c-.03-1-.03-5.5-.03-6.8 0-.9.03-5.5.03-5.7a4.194 4.194 0 0 1 .3-1 2.719 2.719 0 0 0 .66-.8c0-.5-2.91-1-3.09-1a.219.219 0 0 0-.24.2c0 .4.24 1.9.27 2.2.15 2 .3 7.5.3 13.1a1.074 1.074 0 0 1-.929 1l-4.68 1a41.151 41.151 0 0 1-4.65.8c-.75.1-.81.1-.81.2s0 .1.15.2l.72.5a.429.429 0 0 0 .24.2c.12 0 .54-.2.66-.2.81-.3 2.4-.6 3.69-.9zm-15.509-11.1c0-1.9-2.97-4-3.48-4a.221.221 0 0 0-.12.4 11.4 11.4 0 0 1 1.44 3.3c.27 1.3.36 1.8.96 1.8a1.438 1.438 0 0 0 1.2-1.5zm7.92-2a3.393 3.393 0 0 1 .93-.6.618.618 0 0 0 .27-.4 7.884 7.884 0 0 0-2.4-1.8c-.15 0-.18.2-.18.3a16.965 16.965 0 0 1-1.35 4.8c-.12.3-.69 1.5-.69 1.6s.03.1.06.1c.36 0 3.27-3.9 3.36-4zm29.015 3.6c-1.02 0-1.62.2-4.14 2.2a11.723 11.723 0 0 1-4.89 2.3c-.51.1-.57.1-.57.2 0 .5 1.77 1.9 2.91 1.9a.746.746 0 0 0 .48-.1c.06 0 2.25-2.1 2.46-2.3 2.46-2.4 2.73-2.7 3.72-2.7a2.828 2.828 0 0 1 1.68 1.1c.66.6 3.87 3.8 4.59 4.5 4.47 4.3 7.17 4.4 7.44 4.4a1.29 1.29 0 0 0 1.11-1.1c0-.9-1.23-1.6-2.64-2.2a26.312 26.312 0 0 1-8.4-5.8c-1.98-2-2.97-2.4-3.75-2.4zm33.2-3.5c8.19 0 8.31 7.1 8.31 8.3 0 7.4-6.51 10-9.63 11.3-.75.3-.81.3-.81.4 0 .2.18.2.3.2a18.239 18.239 0 0 0 4.98-1.1 11.272 11.272 0 0 0 7.56-10.6 9.4 9.4 0 0 0-5.22-8.7 9.876 9.876 0 0 0-4.83-1 12.383 12.383 0 0 0-9.56 3.9 10.745 10.745 0 0 0-3.33 7.7c0 3.6 1.77 6.7 3.75 6.7 1.19 0 2.72-.7 5.12-4.4 2.64-3.9 3.09-6.7 3.09-8.7a23.352 23.352 0 0 0-.3-3.3c0-.1-.06-.2-.06-.3 0-.2.03-.4.63-.4zm-1.68.1c.39 0 .51.1.51 1.9a16.87 16.87 0 0 1-2.94 8.7c-2.07 3.2-2.78 3.5-3.65 3.5-1.83 0-2.61-2.7-2.61-4.6 0-5.7 5.84-9.5 8.69-9.5zm-372.43 39a3.436 3.436 0 0 0-.99-.3c-.06 0-.15 0-.15.1 0 .3 1.38 2.1 5.28 2.9.87.1.96.1.96.3 0 .4-1.65 1.8-1.65 2.1h.09a.384.384 0 0 0 .42-.1 7.984 7.984 0 0 1 3.78-1.5c2.069-.1 2.339-.1 2.339-.7a3.206 3.206 0 0 0-2.939-2.4c-.33 0-2.01.1-2.37.1a17.651 17.651 0 0 1-4.77-.5zm2.85 17.2c-2.13 0-4.92-.9-5.76-3a2.738 2.738 0 0 0-.48-1.1c-.06 0-.39.3-.39 1.5 0 4.7 6.33 5.2 9.3 5.2 1.65 0 6.749-.1 6.749-1.7a1.919 1.919 0 0 0-1.98-1.5c-.15 0-4.709.7-5.609.7-.3 0-1.62-.1-1.83-.1zm18.15 2.2c0 .4.09 1.4.81 1.4.57 0 1.65 0 3.72-6.3a78.2 78.2 0 0 0 2.19-8.5c.12-.5.24-.6 1.26-.8 1.98-.6 4.53-1.5 4.53-3.1a.88.88 0 0 0-.99-1c-.15 0-.81.1-.93.1-.3 0-2.7-.5-2.7-1.1a8.856 8.856 0 0 0 .33-.9 2.816 2.816 0 0 0-2.4-1.6 1.275 1.275 0 0 0-1.35.7 4.121 4.121 0 0 0 .84 1.1 4.161 4.161 0 0 1 .36 1.9 8.272 8.272 0 0 1-.33 2.4 4.772 4.772 0 0 1-2.13.3 14.778 14.778 0 0 1-2.67-.3c-.12 0-.57-.3-.69-.3a.1.1 0 0 0-.12.1 3.016 3.016 0 0 0 1.56 1.7 5.779 5.779 0 0 0 2.67.5c.96 0 1.08 0 1.08.3a40.165 40.165 0 0 1-3.96 11c-.93 1.8-1.08 2.1-1.08 2.4zm7.29-16.5c.15-.7.15-.8.27-1.4.06-.3.15-.3.33-.3.33 0 1.95.6 1.95.9 0 .4-2.28 1.2-2.43 1.2-.18 0-.15-.2-.12-.4zm3.42 4.3a.262.262 0 0 0 .27.1 3.95 3.95 0 0 0 .99-.2 15.838 15.838 0 0 1 2.16-.1c.45 0 2.579 0 2.579.5 0 .3-1.559 1.5-1.559 1.7 0 .1.089.1.149.1.21 0 .511-.2 1.26-.4a4.865 4.865 0 0 1 2.22-.5c.24 0 1.41.1 1.68.1a.717.717 0 0 0 .87-.7c0-1.4-2.16-2.2-5.01-2.2-3.209 0-5.819 1.2-5.609 1.6zm-1.35 8a1.356 1.356 0 0 0-.42 1.3c0 3.8 4.05 5 8.909 5 2.55 0 3.66-.1 3.66-1 0-1-1.38-1.5-2.4-1.5-.48 0-2.76.2-3.269.2-2.28 0-5.52-.5-6.15-3.2a3.013 3.013 0 0 0-.33-.8zm10.949-17.8c-.45 0-1.14 0-1.14.3 0 .1.06.2.36.3a9.412 9.412 0 0 1 2.49 1.9c.48.7.84 1.3 1.5 1.3a.852.852 0 0 0 .78-.9c0-2-2.969-2.9-3.99-2.9zm-3.48 2.1a.583.583 0 0 0-.54.2 1.565 1.565 0 0 0 .42.5 6.934 6.934 0 0 1 2.04 1.8c.87 1.2 1.11 1.4 1.53 1.4a1.1 1.1 0 0 0 .93-1.1c0-1.1-1.71-2.8-4.379-2.8zm19.318 3.5c0-.3.09-1.2.15-1.7.06-.4.45-2.3.45-2.7 0-1-2.04-2.3-2.85-2.3a1.384 1.384 0 0 0-1.02.4 1.87 1.87 0 0 0 .57.8c.51.6 1.2 1.6 1.2 4.2a9.935 9.935 0 0 1-.27 2.6 4.565 4.565 0 0 1-.78.7c-2.01 1.9-2.19 1.9-2.7 2-1.23.2-2.04.3-2.04 1.3 0 .5.09.7 1.05 1.9a4.679 4.679 0 0 1 1.17 2.3 27.409 27.409 0 0 1-1.5 2.9c-.75 1.2-.9 1.5-.9 2a.786.786 0 0 0 .72.9c1.08 0 1.71-1.3 2.16-2.1a4.057 4.057 0 0 1 .78-1.3c.72 0 .9 2.9.96 3.5.12 1.8.21 2.9 1.05 2.9a1.84 1.84 0 0 0 1.32-1.7c0-.2-.12-1.2-.15-1.4-.12-1.6-.15-5.4-.15-6.1 0-2 .18-2.5.57-3a12.056 12.056 0 0 1 7.86-3.1 4.393 4.393 0 0 1 4.529 4.7c0 4.4-4.349 7.7-5.849 8.8-.33.2-2.22 1.3-2.22 1.3 0 .1.06.1.12.1.69 0 10.289-2.3 10.289-9.5 0-3.2-2.13-6.3-6.81-6.3a12.3 12.3 0 0 0-6.059 1.7 3.882 3.882 0 0 1-.87.5.191.191 0 0 1-.12-.2 2.549 2.549 0 0 1 .21-.6 3.137 3.137 0 0 0 .42-1.4 1.333 1.333 0 0 0-.78-1.2.737.737 0 0 1-.51-.9zm-2.01 3.4a.542.542 0 0 1 .12.5c0 1 0 1.1-1.86 3.8a1.191 1.191 0 0 1-.6.7c-.33 0-1.41-2-1.41-2.4s.3-.4 1.26-.5a1.654 1.654 0 0 0 1.29-1 1.808 1.808 0 0 1 1.2-1.1zm-.21 5.3a.182.182 0 0 1 .15.2c0 1.4 0 3-.36 3a1.69 1.69 0 0 1-.87-1.2 4.923 4.923 0 0 1 1.083-2zm35.94-3.7c0 6.2-.9 9.6-5.82 13.4a1.657 1.657 0 0 0-.75.6c0 .1.06.1.12.1a8.775 8.775 0 0 0 2.16-1c5.7-3.4 6.539-8.2 6.539-12.4 0-6.3-2.009-7.3-3.869-7.3-3.15 0-5.19 3.8-5.52 4.4a1.679 1.679 0 0 1-.54.8c-.24 0-.24-.3-.24-.4a28.283 28.283 0 0 1 .66-3.7 21.854 21.854 0 0 0 .63-2.3 2.321 2.321 0 0 0-2.31-2 1.847 1.847 0 0 0-.81.2 5.936 5.936 0 0 0 .51.8 3.469 3.469 0 0 1 .39 1.9 19.92 19.92 0 0 1-.45 3.8 28.218 28.218 0 0 0-.54 4.8c0 2.4.66 4.8 2.04 4.8a.93.93 0 0 0 1.08-1 3.1 3.1 0 0 0-.27-1.2 5.777 5.777 0 0 1-.39-2.2c0-3.2 2.4-7.4 4.95-7.4 1.83 0 2.43 2 2.43 5.3zm13.887 4.6c0-2.7 1.98-7.1 2.31-7.7a2.427 2.427 0 0 0 .57-1.4c0-1.1-1.26-3.8-2.64-3.8a.449.449 0 0 0-.24.1 4.557 4.557 0 0 0 .18.6 7.1 7.1 0 0 1 .3 2.1 9.761 9.761 0 0 1-.51 3.1c-1.02 3.8-1.26 4.7-1.26 6.6 0 2.9 1.38 8 3.24 8a1.08 1.08 0 0 0 .99-1.1 3.032 3.032 0 0 0-.36-1.3 4.515 4.515 0 0 1-.48-1.5c0-.8.69-4.3.69-4.6 0-.1 0-.4-.15-.4a1.183 1.183 0 0 0-.42.8c-.66 1.8-.93 2.3-1.44 2.3-.48 0-.78-.9-.78-1.8zm15.539-11.1a2.588 2.588 0 0 0-1.29.4 15.478 15.478 0 0 1-3.3.4 7.6 7.6 0 0 1-2.04-.2 8.278 8.278 0 0 0-.84-.2.177.177 0 0 0-.21.2c0 .4 1.86 2.2 5.25 2.2.359 0 3.689 0 3.689-1.5a1.507 1.507 0 0 0-1.259-1.3zm1.29 14.9c-.12 0-2.22.2-2.64.2a22.5 22.5 0 0 1-2.609.1 6.716 6.716 0 0 1-3.21-.5c-.12 0-.6-.4-.72-.4-.15 0-.15.2-.15.3a2.675 2.675 0 0 0 .93 1.5c.63.6 1.74 1.4 4.68 1.4 4.2 0 5.1-.4 5.1-1.6a1.153 1.153 0 0 0-1.381-1zm16.549-.1a.783.783 0 0 1 .33.5 1.152 1.152 0 0 0 .93.7c.66 0 .96-.7.96-1.5 0-.3-.09-1.3-.09-1.6a1.726 1.726 0 0 1 .33-1.1 14.727 14.727 0 0 0 2.07-4c.54-1.8.6-2 2.04-2 2.43 0 4.949 2 4.949 5.8 0 3.4-2.22 6.5-8.249 8.6a.85.85 0 0 0-.6.3.264.264 0 0 0 .3.2 7.416 7.416 0 0 0 2.07-.4c2.79-.7 8.759-2.4 8.759-8.9 0-3.8-2.43-6.9-6.809-6.9a14.562 14.562 0 0 0-3.75.6 2.423 2.423 0 0 1-.87.1c-.36 0-.51 0-.51-.7a4.16 4.16 0 0 1 .33-1.5c.18-.2.63-.3 2.4-.8 2.55-.6 3.629-.9 3.629-1.8a1.174 1.174 0 0 0-1.26-1c-.569 0-3.329 1-3.959 1-.36 0-.39-.1-.39-.3a3.807 3.807 0 0 1 .42-1.5c.03 0 .48-1 .48-1 0-.7-2.58-1.2-2.64-1.2-.12 0-.27 0-.27.1s.3 1.6.3 1.9a12.327 12.327 0 0 1-.27 2.3c-.18.4-1.92.4-2.46.4a15.216 15.216 0 0 1-2.04-.1c-.18 0-1.08-.3-1.26-.3a.3.3 0 0 0-.36.3 3.94 3.94 0 0 0 3.84 2.2c.21 0 1.29-.1 1.35-.1.57 0 .66.2.66.6 0 2.2-.3 2.4-1.23 3.1-3.66 2.5-6.54 6-6.54 9.2 0 .6.12 2.1 1.47 2.1 1.44 0 2.97-1 4.5-2.2.51-.4 1.38-1.1 1.438-1.1zm3.66-8.4a.579.579 0 0 1 .09.3c0 .8-1.2 3.1-1.65 3.1-.36 0-.36-1.1-.36-1.4 0-1.1 0-2.1 1.56-2.1a.465.465 0 0 1 .36.1zm-8.49 9.4c-.48.1-.63-.2-.63-.7 0-2.2 4.23-7.2 5.34-7.2.21 0 .21.5.21.6 0 .4-.06 3.5-.18 3.8-.42 1.1-3.72 3.4-4.74 3.5zm38.028-9.3c0 6.2-.9 9.6-5.82 13.4a1.657 1.657 0 0 0-.75.6c0 .1.06.1.12.1a8.775 8.775 0 0 0 2.16-1c5.7-3.4 6.539-8.2 6.539-12.4 0-6.3-2.009-7.3-3.869-7.3-3.15 0-5.19 3.8-5.52 4.4a1.679 1.679 0 0 1-.54.8c-.24 0-.24-.3-.24-.4a28.283 28.283 0 0 1 .66-3.7 21.854 21.854 0 0 0 .63-2.3 2.321 2.321 0 0 0-2.31-2 1.847 1.847 0 0 0-.81.2 5.936 5.936 0 0 0 .51.8 3.469 3.469 0 0 1 .39 1.9 19.92 19.92 0 0 1-.45 3.8 28.218 28.218 0 0 0-.54 4.8c0 2.4.66 4.8 2.04 4.8a.93.93 0 0 0 1.08-1 3.1 3.1 0 0 0-.27-1.2 5.777 5.777 0 0 1-.39-2.2c0-3.2 2.4-7.4 4.95-7.4 1.83 0 2.43 2 2.43 5.3zm21.714-8.5a20.364 20.364 0 0 1-.18 2.6c-.06.3-.36.4-.99.4a5.347 5.347 0 0 1-2.91-.8c-.09 0-.81-.4-.84-.4a.163.163 0 0 0-.12.2c0 1.1 1.89 2.7 4.02 2.8.48 0 .63 0 .63.2 0 0-.24 4-.27 4-.21.6-2.22.6-2.94.6a13.147 13.147 0 0 1-3.63-.5 4.685 4.685 0 0 0-1.14-.4c-.09 0-.09 0-.09.1a4.391 4.391 0 0 0 .87 1.4 6.4 6.4 0 0 0 4.14 1.2c.39 0 2.19-.2 2.61-.2.3 0 .3.2.3.5.03.8.06 2.8.06 3.4 0 1 0 1.1-.33 1.1-.21 0-1.32-.1-1.59-.1-3.57 0-5.4 1.4-5.4 3.2 0 1.2 1.02 3.2 3.84 3.2a5.81 5.81 0 0 0 5.1-3 .645.645 0 0 1 .39-.5 5.265 5.265 0 0 1 2.1 1.7c1.079 1.2 1.2 1.4 1.619 1.4a1.19 1.19 0 0 0 1.02-1.3c0-1.4-1.92-3-4.259-3.9-.63-.3-.63-.4-.75-1.4-.03-.3-.36-3.7-.36-4.3 0-.3.09-.3 1.02-.7 1.38-.4 4.709-1.8 4.709-2.8 0-.7-.78-.8-2.01-.8-.149 0-.779-.2-.929-.2-.06 0-.15 0-.15.1s.12.4.12.5c0 1-2.16 1.6-2.49 1.6-.39 0-.39-.2-.39-.9 0-1.2.12-2.8.15-2.9.03-.4.09-.5.33-.5.84-.3 2.879-.9 2.879-2a.748.748 0 0 0-.869-.6 3.273 3.273 0 0 0-1.08.3 2.912 2.912 0 0 1-.84.2.105.105 0 0 1-.12-.1 6.874 6.874 0 0 1 .45-2 8.417 8.417 0 0 0 .75-1.6c0-.6-1.62-1.4-2.43-1.4a.873.873 0 0 0-.75.2 3.549 3.549 0 0 0 .21.5 5.739 5.739 0 0 1 .54 1.9zm-.72 18.1a1.634 1.634 0 0 1-.69 1.4 4.635 4.635 0 0 1-2.97 1.2c-.84 0-2.4-.4-2.4-1.5 0-1.8 3.15-1.8 3.21-1.8.54 0 2.64.2 2.85.7zm19.386-19.6a.382.382 0 0 0-.42.3c0 .1.3.8.33.9a3.5 3.5 0 0 1 .27 1.4c0 .9-.27 3.3-.39 4.3a68.715 68.715 0 0 0-.69 8.4c0 6 1.86 8.2 5.76 8.2 5.64 0 10.079-4.8 10.079-5.1a.163.163 0 0 0-.15-.2c-.12 0-2.4 1.3-2.85 1.5a14.357 14.357 0 0 1-6.3 1.6c-4.02 0-4.59-2.7-4.59-5.8a73.913 73.913 0 0 1 1.26-10.7 10.681 10.681 0 0 0 .57-1.6c.001-.7-1.319-3.2-2.879-3.2zm22.395 21.2c0 .3.09 1.3.81 1.3.57 0 1.65 0 3.72-6.2a86.626 86.626 0 0 0 2.19-8.5c.12-.6.24-.6 1.26-.9 1.98-.5 4.53-1.4 4.53-3.1a.85.85 0 0 0-.99-.9c-.15 0-.81.1-.93.1-.3 0-2.7-.6-2.7-1.1a8.856 8.856 0 0 1 .33-.9 2.648 2.648 0 0 0-2.4-1.6 1.275 1.275 0 0 0-1.35.7 6.7 6.7 0 0 0 .84 1.1 4 4 0 0 1 .36 1.8 8.488 8.488 0 0 1-.33 2.5 6.8 6.8 0 0 1-2.13.3 8.628 8.628 0 0 1-2.67-.4c-.12 0-.57-.2-.69-.2a.1.1 0 0 0-.12.1 2.931 2.931 0 0 0 1.56 1.6 6.087 6.087 0 0 0 2.67.6c.96 0 1.08 0 1.08.3a41.391 41.391 0 0 1-3.96 11c-.93 1.7-1.08 2-1.08 2.4zm7.29-16.5c.15-.7.15-.8.27-1.4.06-.3.15-.4.33-.4.33 0 1.95.7 1.95 1 0 .4-2.28 1.2-2.43 1.2-.18 0-.15-.2-.12-.4zm3.42 4.3h.27c.12 0 .81-.1.99-.1a15.838 15.838 0 0 1 2.16-.1c.45 0 2.579 0 2.579.5 0 .3-1.56 1.4-1.56 1.6 0 .1.091.1.15.1a4.213 4.213 0 0 0 1.26-.4 5.921 5.921 0 0 1 2.22-.4h1.68a.717.717 0 0 0 .87-.7c0-1.3-2.16-2.1-5.01-2.1-3.209 0-5.819 1.2-5.609 1.6zm-1.35 8a1.356 1.356 0 0 0-.42 1.3c0 3.8 4.05 5 8.909 5 2.55 0 3.66-.2 3.66-1 0-1-1.38-1.5-2.4-1.5-.48 0-2.76.2-3.27.2-2.279 0-5.519-.6-6.149-3.2a2.075 2.075 0 0 0-.33-.8z" transform="translate(-372 -12115.8)"/></svg>