<svg id="pc_topic-title.svg_pc_png_topic-title.png" data-name="pc/topic-title.svg,pc/png/topic-title.png" xmlns="http://www.w3.org/2000/svg" width="738" height="149"><defs><style>.cls-2{fill-rule:evenodd;fill:none;stroke:#423437;stroke-width:1px}</style></defs><g id="グループ_19" data-name="グループ 19"><path id="モデル_美容家の間でも話題_" data-name="モデル・美容家の間でも話題！" d="M476.631 16051.5a.419.419 0 0 0-.162.3c0 .9 2.7 3.2 3.89 3.2.162 0 4.269-.7 4.863-.7 2 0 2.054 3 2.054 6.2 0 1.3-.325 1.6-1.351 1.9-2.7.5-13.185 2-15.616 2-.379 0-2.162-.3-2.432-.3a.371.371 0 0 0-.324.4c0 1.2 4 4.2 5.349 4.2a15.243 15.243 0 0 0 2.756-1 67.5 67.5 0 0 1 10.213-2.3c.864 0 1.134.5 1.134 1.4s-.108 5.6-.108 5.8c0 3.6.6 5.9 3.621 7.1 4 1.7 8.861 1.7 10.32 1.7 1.676 0 6.106 0 6.106-2.1 0-1.4-2.323-2.4-3.458-2.4-.648 0-3.836.5-4.539.5-.594 0-5.457-.2-7.3-2.1-.648-.6-1.459-1.4-1.459-8.4 0-1 .055-1.8.757-2.1a51.812 51.812 0 0 1 10.267-1.1 36.679 36.679 0 0 1 4.593.3c.648.1 3.836.8 4.106.8a1.012 1.012 0 0 0 1.081-1c0-3.1-4.377-4.4-5.35-4.4-.486 0-2.755.6-3.3.7-1.621.3-9.023 1.5-10.482 1.5a.956.956 0 0 1-1.135-1 6.337 6.337 0 0 1 .324-1.2 21.461 21.461 0 0 0 1.027-2.3c0-.5-.27-.7-1.027-1.4a3.1 3.1 0 0 1-1.027-1.5 1.068 1.068 0 0 1 .541-.7c.432-.1 3.512-.4 9.348-.9 2.053-.2 3.458-.5 3.458-1.6 0-1.9-4.053-2.7-4.485-2.7a38.143 38.143 0 0 0-4.215 1.4 78.268 78.268 0 0 1-16.7 2c-.204 0-1.122-.2-1.338-.2zm83.516-7.9c-.378 0-2 0-2 .5 0 .2.108.4.648.6a13.721 13.721 0 0 1 4.539 3.3c.919 1.3 1.621 2.2 2.756 2.2a1.548 1.548 0 0 0 1.4-1.6c.01-3.2-4.425-5-7.343-5zm-5.3 5.2a.962.962 0 0 0-.919.4 2.8 2.8 0 0 0 .757.9 16.429 16.429 0 0 1 3.674 3.3c1.513 2.1 2 2.5 2.756 2.5a1.991 1.991 0 0 0 1.621-2c.005-1.9-3.021-5.1-7.884-5.1zm-10.807 12.5a.628.628 0 0 1 .378-.8 37.742 37.742 0 0 1 5.458-.2c1.188 0 2.7.2 3.836.3.54 0 3.188.5 3.783.5a1.425 1.425 0 0 0 1.567-1.3c0-2.3-6.16-3.4-6.809-3.4-.594 0-3.4.8-4.052.9-3.783.6-17.778 2.1-21.236 2.1a17 17 0 0 1-3.4-.4c-.108 0-.7-.3-.811-.3a.5.5 0 0 0-.378.6c0 1.2 1.567 4.1 4.269 4.1a27.8 27.8 0 0 0 3.89-1 73.846 73.846 0 0 1 8.592-1.6 1.324 1.324 0 0 1 1.3 1.6 36.544 36.544 0 0 1-10.591 20.4 33.863 33.863 0 0 0-2.864 2.7.331.331 0 0 0 .324.3c.7 0 9.132-3.5 14.319-13.9.487-1 2.54-5.9 2.7-6.1.162-.3 1.459-1.3 1.459-1.7 0-.5-1.674-2.7-1.729-2.8zm-13.077-13.5c-.27.1 1.405 3.9 4.053 3.9.162 0 2.269-.5 2.54-.5.81-.2 4.431-.9 7.186-1.2 3.188-.3 4.107-.5 4.107-2 0-1.6-1.945-1.8-3.08-1.8a23.745 23.745 0 0 0-4.323.6c-5.4 1.2-6 1.4-7.673 1.4-.427 0-2.805-.4-2.805-.4zm53.014 9c0-2.8-5.727-4.6-6.106-4.6a.24.24 0 0 0-.27.3 3.477 3.477 0 0 0 .216.9 12.227 12.227 0 0 1 .919 4.7c0 1.8-.594 7.7-6.538 15.8-.432.6-2.162 2.4-2.162 2.9a.279.279 0 0 0 .271.3c1.08 0 6.754-3.3 10-10.3.92-2.1 3.675-9.8 3.675-10zm9.511 19.4c.378 0 .864-.4 1.783-1.4a33.3 33.3 0 0 1 3.728-3.5c9.456-8.3 12.59-15 12.59-15.4a.224.224 0 0 0-.216-.2c-.216 0-4.809 4.8-5.728 5.7-5.187 5.3-10.158 8.8-11.779 8.8-.973 0-1.027-1-1.027-1.7 0-1.8.216-8.4.433-9.8.108-.6.864-3.4.864-4.1 0-2.8-5.674-3.8-5.944-3.8a.334.334 0 0 0-.324.3 14.713 14.713 0 0 0 .7 2c.379 1.3 1.027 3.5 1.027 10.1 0 1.4-.054 5.6-.216 6.7a17.672 17.672 0 0 0-.324 1.9c.007 1.5 2.871 4.7 4.438 4.4zm38.42-8.7a3.561 3.561 0 0 0 3.566-3.6 3.567 3.567 0 0 0-7.133 0 3.591 3.591 0 0 0 3.572 3.6zm51.074-18.7c-.594 0-1.027 0-1.027-.3a1.443 1.443 0 0 1 .487-.7c.324-.3 2.107-1.8 2.539-2.1 2.54-2.2 2.81-2.4 3.837-2.6a.916.916 0 0 0 1.135-.7c0-.9-.811-1.2-1.946-1.7-.54-.2-3.512-1.4-3.782-1.4-.541 0-.541.5-.541 1.7 0 3.3-2.323 7.8-4.268 7.8h-14.909c-2.54 0-4.809-.1-7.457-.2-.324 0-2-.1-2.377-.1-.108 0-.162 0-.162.1a.6.6 0 0 0 .216.4l1.026 1.2a.87.87 0 0 0 .487.4 4.506 4.506 0 0 0 1.134-.2c.541 0 2.108-.1 6.863-.1h9.834c1.459 0 1.459 1.2 1.459 2.9 0 2.3 0 3.1-1.4 3.1h-5.3c-2.54 0-4.755-.1-7.4-.2-.324 0-2-.2-2.377-.2a.2.2 0 0 0-.163.1.6.6 0 0 0 .217.4l1.026 1.3a.582.582 0 0 0 .487.3c.162 0 .972-.1 1.134-.1.541 0 2.108-.1 6.809-.1h5.619c1.4 0 1.4 1.1 1.4 2.1 0 2.3 0 3.2-1.4 3.2H662.67c-2.54 0-4.755 0-7.4-.2-.378 0-2-.2-2.377-.2a.191.191 0 0 0-.217.2.567.567 0 0 1 .217.3l1.08 1.3a.583.583 0 0 0 .487.3c.162 0 .918-.1 1.134-.1.541 0 2.108-.1 6.809-.1h35.987c1.837 0 2.918 0 2.918-.8 0-.7-4.7-3.6-5.079-3.6-.487 0-.649.2-2.162 2-.756.9-1.026.9-3.458.9h-9.942c-1.459 0-1.459-1.1-1.459-3.1 0-1 0-2.2 1.459-2.2h9.833c1.837 0 3.026 0 3.026-1 0-.8-4.215-3.4-4.7-3.4s-2.107 2.1-2.54 2.5c-.486.3-.918.4-3.08.4h-2.539c-1.4 0-1.4-1-1.4-3.2 0-1.8 0-2.8 1.4-2.8h16.7c1.838 0 2.918 0 2.918-.8 0-.7-4.755-3.6-5.079-3.6-.486 0-.648.2-2.161 2-.757.9-1.027.9-3.459.9h-6.592zm-10 25.3c.756 0 1.188 0 1.188.8 0 2.2-4.322 9.3-18.8 10.8-.216 0-2.647.3-2.647.3 0 .2 2.971.8 6.268.8 3.944 0 15.562-1 19.074-10.6.378-1 .378-1.1.648-1.1a1.038 1.038 0 0 1 .649.5 28.989 28.989 0 0 0 3.4 4.2 33.09 33.09 0 0 0 13.833 8.6 1.178 1.178 0 0 0 .7-.7 20.284 20.284 0 0 1 3.783-3.1c.324-.3 2.215-1.1 2.215-1.2s-.216-.1-.324-.1h-1.675c-12.806 0-21.182-8-21.182-8.8 0-.4.324-.4.973-.4h15.346c1.567 0 2.864 0 2.864-.6 0-.4-4.215-3.4-4.972-3.4a3.337 3.337 0 0 0-1.783 1.3c-1.134 1.3-1.189 1.3-3.89 1.3h-8.322c-1.134 0-1.188-.5-1.188-.9 0-.2.216-2.5.27-2.9a16.034 16.034 0 0 0 .7-1.9c0-1.2-4.215-1.6-4.917-1.6-.27 0-.756 0-.756.4a6.814 6.814 0 0 0 .324 1.3 11.229 11.229 0 0 1 .27 3.1c0 1.6 0 2.5-1.4 2.5h-9.618c-2.54 0-4.809-.1-7.457-.2-.324 0-2-.2-2.378-.2a.2.2 0 0 0-.162.1.6.6 0 0 0 .217.4l1.026 1.2a1.079 1.079 0 0 0 .486.4c.163 0 .973-.1 1.135-.1a56.481 56.481 0 0 1 6.863-.2h9.24zm1.026-28.1c0-2.6-1.783-3.4-4.593-4.7a23.513 23.513 0 0 0-4.106-1.3c-.054 0-.216 0-.216.1a1.2 1.2 0 0 0 .324.5 21.312 21.312 0 0 1 3.62 4.2c1.945 3.3 2.216 3.7 3.026 3.7 1.468 0 1.954-1.4 1.954-2.5zm64.593 40.2c.811 0 1.189 0 1.513.8a1.605 1.605 0 0 0 1.784 1.2c1.675 0 2.431-1.7 2.431-3.2 0-.4-.216-5.3-.216-6.3 0-2.7.216-2.8.7-3.2 1.027-.7 1.135-.8 1.135-1.2 0-.9-3.566-3.6-4.107-3.6a3.015 3.015 0 0 0-1.513 1.3 2.051 2.051 0 0 1-2.107.9h-11.174c-1.081 0-1.351-.1-3.134-.9a15.872 15.872 0 0 0-2.54-.9.4.4 0 0 0-.378.4 9.143 9.143 0 0 0 .162 1.2c.162 2.2.324 4.5.324 6.2 0 3-.108 5-.216 6.5a13.5 13.5 0 0 0-.162 1.6c0 1 .594 1.5 2 1.5a2.374 2.374 0 0 0 2.108-1c.7-1.2.81-1.3 1.675-1.3h11.724zm.162-11.9c1.622 0 1.622.7 1.622 1.8v7.2c0 1.1-.379 1.4-1.622 1.4h-12c-1.621 0-1.621-.6-1.621-1.8v-7.1c0-1.1.378-1.5 1.621-1.5h12zm-2.215-28.5c-.973 0-1.837-.1-1.837-2a1.375 1.375 0 0 1 .864-1.6 1.288 1.288 0 0 0 .757-1.1 1.107 1.107 0 0 0-.919-1c-.378-.2-4.647-.9-4.809-.9a.56.56 0 0 0-.594.6c0 .2.432 1.4.486 1.6a15.975 15.975 0 0 1 .216 2.9c0 1.2-.54 1.5-1.837 1.5h-12.149c-.918 0-1.026-.4-1.459-1.5a4.5 4.5 0 0 0-.972-1.4 4.44 4.44 0 0 0-.379 1 10.251 10.251 0 0 1-2.431 4.8c-1.945 2.2-2.216 2.5-2.216 3.2a2.256 2.256 0 0 0 2.216 1.9c1.135 0 3.512-1 4.215-4.6.378-1.9.432-2 1.621-2h30.637c.487 0 1.081 0 1.081.7 0 .4-.756 2.5-.756 2.6a.178.178 0 0 0 .162.2 1.923 1.923 0 0 0 .864-.6c1.838-.9 2.594-1.4 4.485-1.4h2.324a1.4 1.4 0 0 0 .864-1c0-.5-.918-1.1-1.783-1.7-.54-.4-3.026-2.3-3.458-2.6a2.611 2.611 0 0 0-.432-.1c-.325 0-1.243 1.6-1.459 1.9a1.974 1.974 0 0 1-1.621.6h-11.672zm22.371 25c.108-.2-.379-.3-.6-.3a26.893 26.893 0 0 1-5.511-.9c-8.538-2.3-17.129-9.6-17.562-9.9-.432-.4-.432-.5-.432-1.6 0-.8-.378-1-1.351-1.5-.594-.2-2.7-1.3-3.026-1.3a1.291 1.291 0 0 0-.973.8 11.043 11.043 0 0 1-1.621 2.8c-5.673 6.8-14.211 12.2-17.831 14.5-1.243.8-2.216 1.4-2.216 1.7a.2.2 0 0 0 .163.1c.108 0 2.809-.8 3.566-1.1a55.662 55.662 0 0 0 19.615-12.9c1.35-1.4 1.512-1.6 2.107-1.6.648 0 .756.2 1.567 1.2a40.775 40.775 0 0 0 8.862 9.1 48.55 48.55 0 0 0 8.051 5 1.252 1.252 0 0 0 .756-.5 11.184 11.184 0 0 1 4.918-3.1 12.385 12.385 0 0 0 1.527-.5zm-31.557-17.2c1.027-.4 1.3-.5 1.3-.9 0-.7-3.458-2.8-3.783-2.8-.378 0-.54.2-1.134 1.2-.649 1-4.269 4.3-9.727 8.1a22.533 22.533 0 0 0-2.431 1.6c0 .1.054.1.162.1.324 0 5.782-1.2 13.4-5.8a21.116 21.116 0 0 1 2.222-1.5zm19.885 5.7c1.081 1.3 1.513 1.9 2.54 1.9a1.976 1.976 0 0 0 1.945-2c0-1.7-1.729-5.2-9.024-7.3-2-.5-6.052-1.3-6.106-1.3a.19.19 0 0 0-.216.2 4.527 4.527 0 0 0 1.189.9 30.2 30.2 0 0 1 9.681 7.6zm55.218-11.5c.486 0 1.243 0 1.243.8a5.268 5.268 0 0 1-1.027 2.5 4.9 4.9 0 0 0-.7 1.3.387.387 0 0 0 .324.3 9.029 9.029 0 0 0 1.3-.8 9.067 9.067 0 0 1 4.593-2c1.729-.2 2.864-.3 2.864-1.8 0-.8-.379-1.1-1.135-1.8-2.648-2.2-2.972-2.4-3.4-2.4-.217 0-.379 0-1.243 1.2a3.385 3.385 0 0 1-3.188 1.3h-10.645c-1.243 0-1.567-.3-1.567-1.9a4.343 4.343 0 0 1 .378-2.1 8.612 8.612 0 0 0 1.135-1.4c0-1-5.188-1.6-5.3-1.6a.649.649 0 0 0-.7.6 14.359 14.359 0 0 0 .486 1.4 11.776 11.776 0 0 1 .216 3.2c0 1.4-.216 1.8-1.513 1.8h-12.804c-.81 0-1.513 0-1.567-1.1a6.882 6.882 0 0 0-.162-1.8 2.938 2.938 0 0 0-.27.6 11.481 11.481 0 0 1-3.674 5.5c-1.46 1.1-2.162 1.7-2.162 2.9a2.235 2.235 0 0 0 2.324 2.2c2.7 0 3.674-4.3 4-5.6.27-1.2.7-1.3 1.4-1.3h30.8zm-1.459 8c1.4 0 1.945 0 1.945-.8s-4-3.7-4.376-3.7c-.487 0-2.108 2.2-2.54 2.6s-.649.4-2.81.4h-12.743c-2.108 0-4.539-.1-6.7-.2-.378 0-2.053-.2-2.431-.2a.178.178 0 0 0-.162.2 1.432 1.432 0 0 0 .216.3l1.027 1.3a.98.98 0 0 0 .486.3c.162 0 .973-.1 1.135-.1.54-.1 2.431-.1 6.16-.1 1.567 0 1.729 0 1.729.4 0 .8-5.08 6.3-13.887 10.5a7.221 7.221 0 0 0-1.892 1.1c0 .1.109.1.217.1s7.673-1.7 13.022-5.2a14.3 14.3 0 0 1 2.324-1.4 1.909 1.909 0 0 1 1.458 1.6c0 1.7-6.43 7.2-11.779 10.6-.649.4-4.269 2.5-4.269 2.6a.387.387 0 0 0 .216.1c.973 0 9.781-2.8 16.535-8.5 1.351-1.2 1.513-1.3 1.729-1.3.7 0 1.189 1.2 1.189 1.6a3.361 3.361 0 0 1-1.027 1.9c-5.674 6.6-10.429 9.3-17.021 13a9.881 9.881 0 0 0-1.567 1c0 .1.108.1.216.1a40.841 40.841 0 0 0 18.318-9.2c.216-.1 1.621-1.4 1.783-1.4.7 0 1.027 1.5 1.027 3.5a10.677 10.677 0 0 1-.811 4.5c-.918 1.8-1.675 1.8-2.755 1.8a22.03 22.03 0 0 1-3.459-.2c-.432 0-2.485-.3-2.917-.3-.054 0-.325 0-.325.2 0 .1.108.1 1.027.5 2.594 1 4.377 1.7 4.755 2.9.378 1.3.432 1.5 1.243 1.5 4.107 0 7.024-3.8 7.024-10 0-1.2 0-10.5-7.835-16.2-1.134-.8-1.3-.9-1.3-1.2 0-.5 2.216-2 2.648-2.4 1.891-1.8 2.054-1.9 2.432-1.9a1.1 1.1 0 0 1 .756 1.1 39.471 39.471 0 0 0 8.862 17.9 36.4 36.4 0 0 0 9.726 7.9.583.583 0 0 0 .487-.3 13.8 13.8 0 0 1 1.837-2.1 8.808 8.808 0 0 1 2.323-1 5.915 5.915 0 0 0-1.729-.8c-8.375-3.4-13.022-8.9-13.022-9.4a1.16 1.16 0 0 1 .54-.8c.7-.5 4.377-2.8 5.187-3.4 2.054-1.7 2.324-1.8 3.3-2 .7-.1 1.459-.2 1.459-.7 0-.7-4.81-3.9-4.864-3.9-.27 0-.432 1.5-.54 1.8-.216.7-4.431 7.6-6.106 7.6-1.513 0-6.484-9.7-6.484-11.6 0-.6.54-.6.973-.6h10.05zm40.521-8.1c14.751 0 14.968 12.9 14.968 15 0 13.4-11.726 18.1-17.346 20.3-1.351.5-1.459.6-1.459.8 0 .3.325.3.541.3a30.171 30.171 0 0 0 8.97-2 20.1 20.1 0 0 0 13.616-19c0-7.1-3.566-12.8-9.4-15.7-1.513-.8-3.782-1.7-8.7-1.7a22.4 22.4 0 0 0-17.237 7 18.94 18.94 0 0 0-6 13.8c0 6.6 3.188 12.1 6.754 12.1 2.161 0 4.917-1.3 9.24-7.9 4.755-7.2 5.566-12.2 5.566-15.8a40.131 40.131 0 0 0-.541-5.8 3.3 3.3 0 0 0-.108-.6c.009-.4.064-.8 1.145-.8zm-3.026.2c.7 0 .919.2.919 3.5 0 5.3-2.432 11.3-5.3 15.7-3.728 5.6-5.025 6.3-6.592 6.3-3.3 0-4.7-4.8-4.7-8.3.012-10.3 10.549-17.2 15.682-17.2zm38.273-5.1c-.757 0-.919-.1-2.324-.8a7.214 7.214 0 0 0-2.539-1c-.216 0-.216.3-.216.6 0 0 .27 4.5.324 4.9.054.7.054 8.8.054 12.1 0 6 0 9.5-.54 25.6 0 .7-.055 2-.055 2.1 0 .4 0 1.9 1.405 1.9 2.81 0 2.81-2.9 2.81-3.9 0-1.3-.162-7-.216-8.2-.054-2-.054-11.2-.054-13.6a26.877 26.877 0 0 1 .162-3.9c.27-.7 1.135-.7 2-.7h6.7c1.026 0 1.621 0 1.783 1.2.108.8.27 1.8 1.567 1.8.756 0 2.269-.5 2.269-3.5 0-1.5-.27-8.4-.27-9.8 0-1.5 0-1.9.378-2.4a4.853 4.853 0 0 0 1.027-1.3c0-.7-2.7-2.7-3.3-2.7a2.278 2.278 0 0 0-1.459 1 1.673 1.673 0 0 1-1.513.6h-8zm8 1.5c1.081 0 1.567 0 1.567 1v3c0 1.4-.324 1.4-1.567 1.4h-7.727c-1.081 0-1.567 0-1.567-1.2v-2.9c0-1.3.324-1.3 1.567-1.3h7.727zm-.108 6.8c1.189 0 1.621 0 1.621 1.2v3.1c0 1.1-.54 1.1-1.621 1.1h-7.619c-1.189 0-1.621 0-1.621-1.2v-3.2c0-1 .54-1 1.621-1h7.619zm15.832-8.4a2.485 2.485 0 0 1-1.4-.3 7.129 7.129 0 0 0-2.539-.9.786.786 0 0 0-.595.9c0 .9.27 4.9.27 5.7 0 .9 0 11.5.055 11.8a1.184 1.184 0 0 0 1.3 1c.973 0 2.324-.5 2.486-1.7.162-.8.324-1.1 1.567-1.1h7.025c1.35 0 2.107 0 2.107 1.7 0 7.7-.108 21.3-.162 21.8-.162 1.5-.7 1.8-4.215 1.9-.54 0-2.54.1-2.54.4 0 .5 2.27 1.1 2.648 1.3a3.552 3.552 0 0 1 1.513 1.6c.54.9.919 1.4 1.513 1.4a9.5 9.5 0 0 0 2.54-.8c1.891-1 2.161-2.3 2.161-4.5 0-5.5-.108-30.1-.108-35 0-2 0-2.1.865-2.9a1.247 1.247 0 0 0 .594-.9c0-1-3.08-2.7-3.512-2.7-.324 0-.541.2-1.189.9a1.245 1.245 0 0 1-1.135.4H900.5zm.811 6.7c-.757 0-1.351 0-1.459-.8-.054-.2-.054-2.5-.054-3.3 0-1.2.594-1.2 1.513-1.2h7.943c.864 0 1.351 0 1.513.8v3.3c0 1.2-.54 1.2-1.513 1.2h-7.943zm.108 7.3c-1.135 0-1.567 0-1.567-1.2v-3.6c0-1.1.486-1.1 1.567-1.1h7.835c1.081 0 1.513 0 1.513 1.2v3.5c0 1.2-.486 1.2-1.513 1.2h-7.835zm-13.131 7.9c-.648 0-3.4-1.3-4-1.3-.27 0-.487 0-.487.5 0 .2.162 1.4.162 1.6.163 2 .163 7.2.163 7.4 0 2.3-.054 3.9-.216 6.7-.055.5-.109 2-.109 2.4 0 1.6.541 1.9 1.243 1.9 1.351 0 2.27-.9 2.486-2.5.108-1.1.378-1.3 1.621-1.3h6.7c1.081 0 1.783 0 1.783 1.3 0 .8 0 2 1.189 2a3.524 3.524 0 0 0 2.27-1.2c.486-.6.486-1.3.486-2.8 0-1.3-.162-9.8 0-11.2a2.251 2.251 0 0 1 .756-1.6 1.432 1.432 0 0 0 .325-.7c0-1-2.648-2.8-3.188-2.8a2.727 2.727 0 0 0-1.513 1.1 1.253 1.253 0 0 1-1.243.5h-8.43zm8.214 1.4c1.026 0 1.4 0 1.4 1.4v3.1c-.163.7-.595.7-1.4.7h-7.619c-.811 0-1.243 0-1.4-.7v-2.7c0-1.7.108-1.8 1.4-1.8h7.619zm-.108 6.7c1.08 0 1.3 0 1.459.7.054.3.054 3.3.054 3.8 0 1.4-.325 1.4-1.513 1.4H889c-.973 0-1.513 0-1.513-1.1v-3.7c0-1.1.486-1.1 1.513-1.1h7.4zm28.586-12c-.535.6 1.443 3.4 3.5 3.4a3.2 3.2 0 0 0 1.4-.6c1.36-.8 9.892-4.4 12.282-4.4.083 0 .248 0 .248.1s-.866.7-1.031.9c-5.935 5.3-5.976 14-5.976 15.8 0 2 0 8.8 8.408 8.8.247 0 4.781 0 4.781-2.1 0-1-.742-1.6-2.02-1.6-.371 0-3.3.3-3.915.3-2.432 0-5.028-.5-5.028-7.4 0-10.6 5.852-15.5 11.087-15.5.453 0 2.8.5 3.338.5a1.682 1.682 0 0 0 1.69-1.5c0-1.4-1.855-2-3.339-2-2.72 0-12.158 2.7-15.826 3.7-5.647 1.6-6.265 1.8-8 1.8-.232 0-1.428-.4-1.593-.2zm28.4 2.8a3.241 3.241 0 0 0-1.031-.2c-.123 0-.576 0-.576.2a.966.966 0 0 0 .37.6 9.661 9.661 0 0 1 2.721 3.3c.412.9.865 2.1 1.854 2.1a1.286 1.286 0 0 0 1.2-1.5c0-2-2.102-3.7-4.534-4.5zm-5.317 1.7c-.371-.1-.824-.1-.824.1a2.464 2.464 0 0 0 .412.8 10.346 10.346 0 0 1 2.061 3.2c.659 1.6 1.03 2.4 1.772 2.4a1.722 1.722 0 0 0 1.442-1.7c.004-1.3-1.356-3.9-4.859-4.8zm27.827-13.6a.894.894 0 0 0 .082.4 10.655 10.655 0 0 1 .413 2.7c0 .6-.33 4.3-1.484 4.3a6.465 6.465 0 0 1-2.8-1.5 6.355 6.355 0 0 0-1.071-.9c-.289 0-.371.4-.371.7 0 1.7 1.566 3 2.761 3.9.907.7 1.113.9 1.113 1.4 0 .6-.247.8-2.391 2.5-2.6 2.1-3.05 3.4-3.05 4.7s.742 2.4 2.226 3.5a1.357 1.357 0 0 1 .783 1.3c0 .6-.33 3.4-.33 4 0 7.5 7.089 7.5 7.872 7.5 4.823 0 8.779-3.5 8.779-7.4 0-2.9-1.854-6.2-6.594-10-.124-.1-1.03-.9-1.03-.5a.565.565 0 0 0 .164.4c3.71 5.2 4.081 7.6 4.081 9.3 0 4.9-4.2 5.7-5.935 5.7-5.152 0-5.647-4.3-5.688-6.2 0-.9 0-2.8 1.03-2.8.206 0 3.174.5 3.792.5 1.031 0 2.143-.5 2.143-1.2 0-1-1.937-1.6-2.926-1.7-2.885-.3-3.05-.3-3.05-.9a19 19 0 0 1 .866-3.6c.783-2.6.865-2.9 1.978-3.3 2.6-.9 3.05-1.2 3.05-1.9 0-.6-.5-1-1.484-1.7a1.391 1.391 0 0 1-.742-1c0-.7 1.937-4.2 1.937-4.5.001-1.1-2.884-3.9-4.12-3.7zm-2.185 14.8a26.676 26.676 0 0 1-.989 4.4.5.5 0 0 1-.453.3 2.677 2.677 0 0 1-2.1-2.5c0-1.5 2.061-2.9 3.009-2.9.537 0 .537.3.537.7zm35.543 17.4a1.374 1.374 0 0 1 1.51.9c.16 1.1.22 1.5 1.24 1.5a2.443 2.443 0 0 0 2.49-2.3c0-.2-.22-1.9-.27-2.2-.05-.6-.05-1.2-.05-2.4 0-.2 0-5.9.05-6.1a1.189 1.189 0 0 1 .76-.8 1.138 1.138 0 0 0 .54-.8c0-1.1-3.41-2.4-3.68-2.4-.43 0-.54.1-1.3 1a1.961 1.961 0 0 1-1.78.6h-3.89a4.286 4.286 0 0 1-2.54-.7 7.025 7.025 0 0 0-2.11-.7.593.593 0 0 0-.482.7c0 .3.216 1.4.216 1.6a27.109 27.109 0 0 1 .166 4.2c0 1.7-.166 9-.166 10.5a1.53 1.53 0 0 0 1.516 1.8 2.284 2.284 0 0 0 2.32-2.3c0-1.4 0-2.1 1.68-2.1h3.78zm0-11.6a1.339 1.339 0 0 1 1.51 1.6v7.1a1.314 1.314 0 0 1-1.51 1.5h-3.84a1.3 1.3 0 0 1-1.57-1c-.21-1.2-.21-5.9-.21-7.6a1.413 1.413 0 0 1 1.62-1.6h4zm24.64-16.9a1.342 1.342 0 0 1-1.51-.9c-.06-.2-.06-5.1-.06-7.6 0-1.4.22-1.5.76-1.6.43-.1 6.27-1.4 6.59-1.4.11 0 1.57.1 1.73.1a1.1 1.1 0 0 0 1.19-.8c0-.6-.16-.7-2.06-1.7a28.412 28.412 0 0 0-2.75-1.4 4.414 4.414 0 0 0-1.51.7c-.71.4-5.79 2.1-7.03 2.5-1.24.5-10.43 2.4-10.43 2.8a.545.545 0 0 0 .6.3c1.19 0 7.02-.7 8.32-.7.97 0 1.08.4 1.08 1.3v6.9c0 .6 0 1.5-1.57 1.5h-1.13c-2.54 0-4.76-.1-7.41-.2-.32 0-2-.2-2.37-.2-.11 0-.22 0-.22.1a.9.9 0 0 0 .27.4l1.03 1.2a.728.728 0 0 0 .48.4c.17 0 .98-.2 1.14-.2.54 0 2.11-.1 6.81-.1h1.4a1.3 1.3 0 0 1 1.57 1.4v8.3c0 1.6-.16 2-1.84 2h-2.21a3.349 3.349 0 0 1-1.84-.4 9.857 9.857 0 0 0-3.03-1 .665.665 0 0 0-.65.8c0 .2.22 1.3.22 1.5a57.521 57.521 0 0 1 .16 7c0 1.5 0 7-.05 8.2 0 .1-.11 1.5-.11 1.8a1.522 1.522 0 0 0 1.73 1.8c2.27 0 2.27-1.6 2.27-2.6 0-1.3 1.03-1.4 1.73-1.4h10.64a1.5 1.5 0 0 1 1.68 1c.16 1.2.27 1.5 1.35 1.5a2.444 2.444 0 0 0 2.7-2.4c0-.6-.32-3.1-.32-3.7-.11-2-.17-7.6-.17-8.4a2.26 2.26 0 0 1 .27-1.2c.17-.2 1.25-1 1.25-1.4s-2.81-2.6-3.73-2.6c-.49 0-.54.1-1.14.9a2.11 2.11 0 0 1-1.83.6h-1.84c-.86 0-1.78 0-1.78-1.5 0-1 0-8.4.05-9 .06-1 .76-1.2 1.57-1.2h9.08c1.83 0 3.08 0 3.08-.9 0-.8-3.89-3.6-4.6-3.6-.65 0-1.02.6-1.89 2.1-.59 1-1.19 1-3.46 1h-2.21zm1.94 14.6c.71 0 1.73 0 1.73 1.5v10c0 1.3-1.08 1.3-1.78 1.3h-10.59c-.65 0-1.57 0-1.78-.7-.27-.9-.27-8.5-.27-10 0-1.6.16-2.1 1.89-2.1h10.8zm-23.12-25.5c1.19 0 1.89 0 1.89-.7 0-.9-3.03-3.4-3.78-3.4-.38 0-.55.2-1.79 1.9-.65.8-.7.8-2.21.8-1.35 0-4.06-.1-5.46-.2a8.318 8.318 0 0 0-1.35-.2.1.1 0 0 0-.11.1.7.7 0 0 0 .16.4l.7 1.3a.9.9 0 0 0 .33.3c.16 0 .97-.2 1.13-.2 1.25-.1 3.08-.1 4.43-.1h6.06zm-8.7 5.2c-1.35 0-4.056-.1-5.461-.2-.216 0-1.351-.2-1.351-.2a.2.2 0 0 0-.162.1 2.1 2.1 0 0 0 .162.4l.757 1.3a.381.381 0 0 0 .324.3 4.975 4.975 0 0 0 1.135-.2c1.456-.1 3.246-.1 4.376-.1h12.32c1.3 0 2 0 2-.6 0-.9-3.62-3.7-4.43-3.7-.49 0-.6.2-1.95 2.1a1.28 1.28 0 0 1-1.4.8h-6.32zm2.64 6.5c-1.35 0-4.05-.1-5.45-.2a8.677 8.677 0 0 0-1.3-.2.2.2 0 0 0-.162.1.377.377 0 0 0 .162.3l.7 1.3a.6.6 0 0 0 .38.4c.16 0 .92-.2 1.08-.2 1.41-.1 3.46-.1 4.43-.1h6.7c1.52 0 2.33 0 2.33-.7s-2.76-3-3.68-3c-.27 0-.38.2-1.57 1.5a1.518 1.518 0 0 1-1.51.8h-2.11zm.17 7.3a49.461 49.461 0 0 1-5.41-.2c-.21 0-1.35-.1-1.35-.1-.106 0-.16 0-.16.1a.583.583 0 0 0 .16.3l.7 1.2c.17.3.22.4.38.4.11 0 .65-.1.76-.1.16-.1 1.24-.2 4.75-.2h6.7c1.41 0 2.22 0 2.22-.6 0-.5-2.54-3-3.19-3-.43 0-.75.5-1.46 1.4a1.381 1.381 0 0 1-1.51.8h-2.59zm85.73 7.8a1.41 1.41 0 0 1 1.4.6 1.345 1.345 0 0 0 1.25.9 2.513 2.513 0 0 0 2.43-2.7c0-2.2-.38-12.9-.38-15.3 0-.9 0-2.7.38-3.1.81-.8.97-1 .97-1.3 0-1-2.22-3.1-3.13-3.1a11.439 11.439 0 0 0-1.52 1.2 2.949 2.949 0 0 1-1.4.3h-6.7c-.92 0-1.14 0-1.14-.4a13.129 13.129 0 0 1 2.7-3.8 3.767 3.767 0 0 1 2.54-.7h6.81c2.54 0 2.81 0 2.81-.6 0-.7-3.73-3.4-4.32-3.4-.54 0-.65.2-1.73 1.6-.65 1-1.08 1-3.35 1h-6.54c-1.89 0-4.54-.1-6.48-.2a20.066 20.066 0 0 0-2.43-.2c-.11 0-.22 0-.22.1a.58.58 0 0 0 .27.4l1.03 1.2a.728.728 0 0 0 .48.4c.11 0 .65-.1.76-.1a32.26 32.26 0 0 1 4.92-.2c.92 0 1.56 0 1.56 1 0 .8-.37 3.9-1.89 3.9-.54 0-3.29-1.2-3.94-1.2-.38 0-.43.4-.43.8 0 .2.16 1.4.16 1.7.16 3.4.27 7.3.27 8.8 0 1.8-.22 10.8-.22 12.8 0 .8.11 1.8 1.3 1.8a2.687 2.687 0 0 0 2.43-1.6 1.612 1.612 0 0 1 1.62-.6h9.73zm-9.94-8.4c-1.63 0-1.63-.1-1.63-4.3a1.407 1.407 0 0 1 1.63-1.2h9.83c1.46 0 1.46.4 1.46 4.3 0 .2 0 1.2-1.57 1.2h-9.72zm9.83-12.6c1.46 0 1.46.6 1.46 2.7 0 2.3 0 3-1.35 3h-9.94c-1.68 0-1.68-.7-1.68-2.4 0-2.8 0-3.3 1.68-3.3h9.83zm-9.62 19.6c-1.13 0-1.62-.4-1.62-1.7 0-3.5 0-3.9 1.51-3.9h9.62a1.4 1.4 0 0 1 1.51 1.7c0 3.5 0 3.9-1.51 3.9h-9.51zm-22.69-27.3a6.321 6.321 0 0 1-1.73-.2 15.141 15.141 0 0 0-3.35-1c-.16 0-.16.2-.16.4a17.964 17.964 0 0 0 .27 2.7c0 .2.27 6.7.27 7.8s-.17 5.7-.17 6.6c0 .7 0 1.4 1.14 1.4a2.571 2.571 0 0 0 2.21-1.1c.54-1.2.6-1.4 1.84-1.4h6.11c.38 0 1.24 0 1.35.7s.21 1.2 1.13 1.2a2.389 2.389 0 0 0 2.43-2.6c0-1.6-.16-8.6-.16-10a4.069 4.069 0 0 1 .33-2c.65-.8.75-.9.75-1.2 0-1-2.43-2.8-2.97-2.8-.38 0-.49.1-1.62 1a1.919 1.919 0 0 1-1.51.5h-6.16zm6.21 1.4c1.68 0 1.68.8 1.68 2.4 0 2.3 0 2.9-1.62 2.9h-6.06c-1.62 0-1.62-.4-1.62-3.9a1.385 1.385 0 0 1 1.68-1.4h5.94zm.06 6.7a1.389 1.389 0 0 1 1.62 1.6c0 3.6 0 4.1-1.62 4.1h-5.95a1.286 1.286 0 0 1-1.57-1.3 32.417 32.417 0 0 1 .11-3.8 1.636 1.636 0 0 1 1.46-.6h5.95zm5.89 21.6c1.78 0 2.86 0 2.86-.8 0-.6-3.24-3.3-3.78-3.3-.49 0-1.79 1.9-2.11 2.3a4.9 4.9 0 0 1-2.05.3 1.281 1.281 0 0 1-1.36-1.5c0-5.3.17-5.5 1.57-5.5h5.73c2.59 0 2.86 0 2.86-.6 0-.7-3.29-3.3-3.89-3.3-.54 0-.75.3-1.46 1.5-.54.9-1.24.9-3.45.9h-5.95c-3.08 0-5.83-.1-7.4-.1a19.93 19.93 0 0 0-2.38-.2c-.05 0-.21 0-.21.1a.9.9 0 0 0 .27.4l1.02 1.2a.722.722 0 0 0 .49.4c.16 0 2-.2 2.27-.2 2.11-.1 4-.1 5.83-.1 1.46 0 1.46 1.1 1.46 2.2 0 1.8-.16 9.9-.16 11.6 0 1.1 0 1.7-.43 1.7-.54 0-1.95-1.2-2.54-1.7-1.24-1-1.35-1.2-1.35-1.9 0-.5.7-5.6 1.13-5.8.71-.5 1.08-.7 1.08-1.2 0-.7-.75-1-2.48-1.4-.33-.1-2.16-.6-2.27-.6a.446.446 0 0 0-.54.5c0 .4.27 2.5.27 3a34.559 34.559 0 0 1-3.73 15.8 6.025 6.025 0 0 0-.7 1.5.175.175 0 0 0 .16.2c.43 0 3.62-2.6 5.89-8.5.32-.9.38-1 .65-1a8.308 8.308 0 0 1 1.24 1.1c5.03 4.9 9.13 7.9 31.77 7.9 1.25 0 9.35-.1 9.51-.8a7.332 7.332 0 0 1 .87-2.9 6.386 6.386 0 0 0 .97-1.2c0-.2-.22-.2-.32-.2a22.6 22.6 0 0 0-2.76.4 143.787 143.787 0 0 1-14.86.9c-10.27 0-16.05-1.3-17.07-1.7s-1.14-.8-1.14-2.1v-6c0-1 .65-1.3 1.73-1.3h4.76zm12.59 1.2a5.108 5.108 0 0 0-1.9-1.3 3.218 3.218 0 0 0-.64.8 34.807 34.807 0 0 1-5.41 4.7c-.7.5-4.43 3-4.43 3.1a.438.438 0 0 0 .43.1c1.14 0 4.11-1.1 5.62-1.7.81-.4 4.76-2.8 5.73-3.1 1.19-.4 1.89-.5 1.89-.9a3.828 3.828 0 0 0-1.286-1.7zm10.26 1.2a22.3 22.3 0 0 0-5.83-1.9c-.11 0-.44 0-.44.2a6.408 6.408 0 0 0 1.62 1.5c.27.3 2.44 2.1 3.95 3.8 2.05 2.5 2.27 2.7 3.24 2.7a1.785 1.785 0 0 0 1.73-1.8c.004-2.3-2.586-3.8-4.266-4.5zm26.82 10.9a2.95 2.95 0 1 0-2.92-2.9 2.972 2.972 0 0 0 2.924 2.9zm0-41.4a2.845 2.845 0 0 0-2.81 2.9c0 .9.81 6 .92 7.1a175.186 175.186 0 0 1 .92 20.7c0 1.4.05 2.1.97 2.1s.97-.8.97-2.2a186.782 186.782 0 0 1 .87-20.6c.16-1.4.97-5.9.97-7.1a2.885 2.885 0 0 0-2.806-2.9z" transform="translate(-432.5 -16001.5)" fill-rule="evenodd"/><path id="シェイプ_683" data-name="シェイプ 683" class="cls-2" d="M444 16002v78" transform="translate(-432.5 -16001.5)"/><path id="シェイプ_683_のコピー" data-name="シェイプ 683 のコピー" class="cls-2" d="M511 16012h-78" transform="translate(-432.5 -16001.5)"/><path id="シェイプ_683-2" data-name="シェイプ 683" class="cls-2" d="M1159 16129v-78" transform="translate(-432.5 -16001.5)"/><path id="シェイプ_683_のコピー-2" data-name="シェイプ 683 のコピー" class="cls-2" d="M1092 16119h78" transform="translate(-432.5 -16001.5)"/></g><path id="すっぴんでもこの美しさ_" data-name="すっぴんでもこの美しさ！" d="M620.675 16128.1a.31.31 0 0 0-.175.3c0 1.4 2.906 2.9 3.676 2.9a28.473 28.473 0 0 0 3.745-1.4 49.086 49.086 0 0 1 6.2-1.4c.7 0 .7.2.7 2.1 0 1.8 0 2-.98 2.2-3.4.5-3.4 4.3-3.4 4.8 0 2.8 1.681 4.6 3.571 4.6.105 0 .63-.1.735-.1a.42.42 0 0 1 .35.5 10.971 10.971 0 0 1-1.96 5.1c-.245.4-1.681 2.1-1.681 2.1a.22.22 0 0 0 .175.2c1.086 0 6.371-4.4 6.371-11.2a11.309 11.309 0 0 0-1.015-4.7 4.522 4.522 0 0 1-.455-2.3c0-3 .07-3.5.56-3.7a15.252 15.252 0 0 1 3.78-.4c.665 0 3.921.3 4.656.3 1.225 0 1.89-.3 1.89-1.2 0-1.2-1.54-1.4-2-1.4-.28 0-1.75.2-2.1.2a6.939 6.939 0 0 1-3.081-.7c-2.065-.9-3.08-1.4-3.08-2.2 0-.2.14-.9.14-1.1 0-1.1-1.365-1.7-2.9-1.7a.811.811 0 0 0-.735.2c0 .2.56.8.595 1a20.667 20.667 0 0 1 .49 4.8c0 .9-.21.9-2.03 1.2a64.233 64.233 0 0 1-9.521 1.2c-.49 0-2.171-.2-2.521-.2zm16.522-4.1a6.866 6.866 0 0 1 2.66 1.8c0 .5-2.275.6-2.415.6-.49 0-.63-.1-.63-.7 0-.9.14-1.7.388-1.7zm-2.38 11a7.066 7.066 0 0 1 .455 2.5c0 .5-.035 2.6-1.4 2.6a2.51 2.51 0 0 1-2.276-2.8c0-1.7 1.121-3.2 2-3.2a1.555 1.555 0 0 1 1.221.9zm21.437 3.4c.77 0 1.015-.2 3.045-1.6 3.43-2.2 6.335-3.6 8.541-3.6a4.479 4.479 0 0 1 4.375 4.7c0 3-2.03 7.4-8.436 8.3-1.085.1-1.225.2-1.225.5 0 .4.525.4.875.4 5.391 0 11.1-2.7 11.1-8.1a6.957 6.957 0 0 0-7.14-6.9c-2.7 0-6.406 1.5-7.771 2-3.395 1.4-3.781 1.6-4.446 1.6-.245 0-1.435-.4-1.715-.4a.509.509 0 0 0-.49.6c-.004.8 1.606 2.5 3.287 2.5zm51.3-20.1a3.356 3.356 0 0 0-3.43 3.4 3.419 3.419 0 0 0 3.395 3.4 3.48 3.48 0 0 0 3.361-3.4 3.31 3.31 0 0 0-3.322-3.4zm-.07 1.2a2.378 2.378 0 0 1 2.241 2.3 2.227 2.227 0 0 1-4.446 0 2.292 2.292 0 0 1 2.209-2.3zm-20.617 5.6c-.245 0-1.5-.2-1.61-.2q-.21 0-.21.3c0 .1.63 2.4 1.96 2.4.315 0 1.716-.7 2.066-.7.105 0 .245 0 .245.1s-1.786 3.3-1.926 3.5c-1.715 3.1-3.325 6.6-3.325 10.3a7.215 7.215 0 0 0 7.421 7.4 9.944 9.944 0 0 0 9.661-7.7 46.494 46.494 0 0 0 .945-11.5.473.473 0 0 1 .14-.4c.14 0 1.89 3.3 2.24 3.9.91 1.7 2.52 4.4 4.061 4.4a1.444 1.444 0 0 0 1.26-1.5c0-.6-.315-1-2.171-2.3a11.435 11.435 0 0 1-4.41-7.2c-.7-3.4-.8-4.1-1.925-4.1a1.185 1.185 0 0 0-1.155 1.3 7.363 7.363 0 0 0 .49 2.1 13.655 13.655 0 0 1 .455 3.8c0 1.2 0 8.7-2.415 12.7a8.587 8.587 0 0 1-6.966 3.8c-4.621 0-5.461-4.2-5.461-5.7 0-4.4 4.271-13.2 6.651-13.9 1.33-.5 1.96-.7 1.96-1.5a1.112 1.112 0 0 0-1.12-1c-.42 0-.63.1-2.625.8a17.532 17.532 0 0 1-4.232.9zm39.8-3.8a.209.209 0 0 0-.245.2c0 .2.245 1.4.245 1.6a3.367 3.367 0 0 1-.315 1.4c-.28.7-1.751 3.5-1.926 3.8-3.57 5.6-3.99 6.3-5.215 8.9-.245.5-1.365 3.3-1.645 3.9-.875 2-.98 2.2-.98 3.2 0 2.3 1.225 2.7 1.645 2.7a1.3 1.3 0 0 0 1.155-1.2c.105-.3.245-2.2.315-2.6 1.26-9 7.141-9.6 7.736-9.6 2.59 0 3.29 2.7 3.29 4.7 0 .7-.56 4.4-.56 5.2 0 1.9 1.155 3.7 3.115 3.7a9.464 9.464 0 0 0 6.616-3.5 7.438 7.438 0 0 0 1.645-3.2.173.173 0 0 0-.105-.2 4.509 4.509 0 0 0-.7.9c-1.68 1.7-3.5 3.1-5.426 3.1a2.313 2.313 0 0 1-2.555-2.5c0-.5.21-2.8.21-3.3 0-1.4-.245-6.1-4.55-6.1a7.552 7.552 0 0 0-4.481 1.5c-.315.3-.98.6-1.365.9-.105 0-.14 0-.14-.1a7.218 7.218 0 0 1 .7-1.5c.875-1.6 1.715-2.7 4.621-5.8 1.715-1.9 1.925-2.1 1.925-2.7.004-1.1-1.816-3.4-3.006-3.4zm18.429 5.9c-.455.5 1.226 2.9 2.976 2.9a3.537 3.537 0 0 0 1.19-.5c1.155-.7 8.4-3.7 10.431-3.7h.21a4.956 4.956 0 0 1-.875.8c-5.041 4.5-5.076 11.9-5.076 13.4 0 1.7 0 7.5 7.141 7.5.21 0 4.061 0 4.061-1.8 0-.9-.63-1.3-1.716-1.3-.315 0-2.8.2-3.325.2-2.065 0-4.27-.4-4.27-6.3 0-9 4.97-13.1 9.416-13.1.385 0 2.38.4 2.835.4a1.411 1.411 0 0 0 1.435-1.3c0-1.2-1.575-1.7-2.835-1.7-2.31 0-10.326 2.3-13.442 3.2-4.795 1.3-5.32 1.5-6.79 1.5-.206 0-1.222-.4-1.362-.2zm24.118 2.4a2.392 2.392 0 0 0-.875-.2c-.1 0-.49 0-.49.2a.8.8 0 0 0 .315.5 8.059 8.059 0 0 1 2.31 2.8c.35.8.735 1.8 1.575 1.8a1.138 1.138 0 0 0 1.015-1.3c.004-1.7-1.781-3.2-3.846-3.8zm-4.515 1.4a.681.681 0 0 0-.7.1 2.187 2.187 0 0 0 .35.7 8.458 8.458 0 0 1 1.751 2.7c.56 1.4.875 2 1.5 2a1.386 1.386 0 0 0 1.225-1.4c.008-1.1-1.147-3.3-4.125-4.1zm23.855-11.6a.638.638 0 0 0 .07.4 8.894 8.894 0 0 1 .35 2.3c0 .5-.28 3.6-1.26 3.6a4.783 4.783 0 0 1-2.381-1.2 5 5 0 0 0-.91-.8c-.245 0-.315.4-.315.6 0 1.5 1.33 2.5 2.345 3.3.77.6.946.8.946 1.2 0 .5-.211.7-2.031 2.1-2.2 1.8-2.59 3-2.59 4a3.758 3.758 0 0 0 1.89 3 1.235 1.235 0 0 1 .665 1.1c0 .5-.28 2.9-.28 3.4 0 6.4 6.021 6.4 6.686 6.4 4.095 0 7.456-3 7.456-6.3 0-2.5-1.575-5.2-5.6-8.5-.1-.1-.875-.7-.875-.4a.4.4 0 0 0 .14.3c3.15 4.5 3.465 6.4 3.465 8 0 4.1-3.57 4.7-5.04 4.7-4.376 0-4.8-3.6-4.831-5.2 0-.8 0-2.4.876-2.4.175 0 2.7.4 3.22.4.875 0 1.82-.3 1.82-1 0-.9-1.645-1.4-2.485-1.4-2.45-.3-2.591-.3-2.591-.8a21.36 21.36 0 0 1 .736-3.1c.665-2.2.735-2.4 1.68-2.7 2.205-.8 2.59-1.1 2.59-1.6 0-.6-.42-1-1.26-1.5a1.378 1.378 0 0 1-.63-.8c0-.6 1.645-3.6 1.645-3.9.003-.9-2.447-3.3-3.497-3.2zm-1.854 12.6a22.683 22.683 0 0 1-.84 3.8.541.541 0 0 1-.385.2 2.248 2.248 0 0 1-1.785-2.1c0-1.3 1.75-2.5 2.555-2.5.455 0 .455.3.455.6zm28.5-8.9c-.175 0-.945-.4-1.155-.4-.07 0-.175 0-.175.1 0 .4 1.61 2.6 6.16 3.4 1.015.2 1.12.3 1.12.5 0 .4-1.925 2-1.925 2.3a.089.089 0 0 0 .105.1.78.78 0 0 0 .49-.2 10.327 10.327 0 0 1 4.411-1.6c2.415-.2 2.73-.2 2.73-.8a3.669 3.669 0 0 0-3.43-2.9c-.385 0-2.346.1-2.766.1a23.613 23.613 0 0 1-5.565-.6zm3.325 20.1c-2.485 0-5.74-1-6.721-3.5a2.82 2.82 0 0 0-.56-1.3c-.07 0-.455.4-.455 1.7 0 5.5 7.386 6.2 10.851 6.2 1.926 0 7.876-.2 7.876-2.1a2.144 2.144 0 0 0-2.31-1.6c-.175 0-5.5.7-6.546.7-.347 0-1.887-.1-2.132-.1zm33.758-19.1c9.556 0 9.7 8.4 9.7 9.7 0 8.8-7.6 11.8-11.236 13.2-.875.3-.945.4-.945.5 0 .2.21.2.35.2a19.657 19.657 0 0 0 5.81-1.3 12.922 12.922 0 0 0 8.821-12.3 11.024 11.024 0 0 0-6.09-10.2 11.36 11.36 0 0 0-5.636-1.1 14.393 14.393 0 0 0-11.166 4.6 12.17 12.17 0 0 0-3.886 8.9c0 4.3 2.066 7.9 4.376 7.9 1.4 0 3.185-.9 5.985-5.1 3.081-4.7 3.606-8 3.606-10.3a27.441 27.441 0 0 0-.35-3.8c0-.1-.07-.3-.07-.4-.001-.2.034-.5.734-.5zm-1.96.1c.455 0 .6.2.6 2.3a19.845 19.845 0 0 1-3.431 10.2c-2.415 3.6-3.255 4.1-4.27 4.1-2.135 0-3.045-3.1-3.045-5.4-.002-6.6 6.823-11.2 10.149-11.2zm40.611.7c-.385 0-.665 0-.665-.3a1.073 1.073 0 0 1 .315-.4c.21-.2 1.365-1.1 1.645-1.4 1.645-1.4 1.82-1.5 2.485-1.6.315-.1.735-.1.735-.5 0-.6-.525-.8-1.26-1.1-.35-.1-2.275-.9-2.45-.9-.35 0-.35.3-.35 1.1 0 2.1-1.505 5.1-2.766 5.1h-9.661c-1.645 0-3.115-.1-4.83-.2-.21 0-1.295-.1-1.54-.1-.07 0-.105 0-.105.1s0 .1.14.2l.665.8a.441.441 0 0 0 .315.3c.105 0 .63-.1.735-.1.35 0 1.365-.1 4.445-.1h6.371c.945 0 .945.8.945 1.9 0 1.5 0 2-.91 2h-3.43c-1.645 0-3.081 0-4.8-.1-.21 0-1.3-.1-1.54-.1h-.1a.4.4 0 0 0 .14.3l.665.8a.468.468 0 0 0 .315.2 1.869 1.869 0 0 0 .735-.1h8.051c.91 0 .91.7.91 1.3 0 1.5 0 2.1-.91 2.1h-7.456c-1.645 0-3.08 0-4.795-.1-.245 0-1.3-.1-1.54-.1-.105 0-.14 0-.14.1a.379.379 0 0 1 .14.2l.7.8a.468.468 0 0 0 .315.2h.735a31.878 31.878 0 0 1 4.41-.1h23.313c1.19 0 1.89 0 1.89-.5s-3.045-2.4-3.29-2.4c-.316 0-.421.2-1.4 1.3-.49.6-.665.6-2.24.6h-6.441c-.945 0-.945-.7-.945-2 0-.6 0-1.4.945-1.4h6.37c1.19 0 1.96 0 1.96-.7 0-.5-2.73-2.2-3.045-2.2s-1.365 1.4-1.645 1.6c-.315.3-.6.3-2 .3h-1.646c-.91 0-.91-.6-.91-2.1 0-1.1 0-1.8.91-1.8h10.817c1.19 0 1.89 0 1.89-.5s-3.081-2.3-3.291-2.3c-.315 0-.42.1-1.4 1.3-.49.6-.665.6-2.24.6h-4.27zm-6.476 16.4c.49 0 .77 0 .77.5 0 1.4-2.8 6-12.181 6.9a8.24 8.24 0 0 0-1.715.3 13.266 13.266 0 0 0 4.06.5c2.555 0 10.081-.7 12.356-6.9.245-.6.245-.7.42-.7a.75.75 0 0 1 .42.3 15.823 15.823 0 0 0 2.206 2.7 21.866 21.866 0 0 0 8.961 5.6.629.629 0 0 0 .455-.5 14.378 14.378 0 0 1 2.45-2 8.757 8.757 0 0 0 1.435-.8H902.8c-8.3 0-13.722-5.2-13.722-5.7 0-.2.21-.2.631-.2h9.941c1.015 0 1.855 0 1.855-.5a11.534 11.534 0 0 0-3.221-2.2 2.423 2.423 0 0 0-1.155.9c-.735.8-.77.8-2.52.8h-5.391c-.735 0-.77-.3-.77-.6 0-.1.14-1.6.175-1.8s.455-1.1.455-1.3c0-.8-2.73-1-3.185-1-.175 0-.49 0-.49.2a4.111 4.111 0 0 0 .21.9 7.078 7.078 0 0 1 .175 2c0 1 0 1.6-.91 1.6h-6.228c-1.645 0-3.115 0-4.83-.1-.21 0-1.3-.1-1.54-.1h-.105a.4.4 0 0 0 .14.3l.665.8a.7.7 0 0 0 .315.2h.735a32.616 32.616 0 0 1 4.445-.1h5.986zm.665-18.2c0-1.7-1.155-2.3-2.975-3.1a16.95 16.95 0 0 0-2.661-.9.481.481 0 0 0-.14.1 2.2 2.2 0 0 0 .21.4 10.7 10.7 0 0 1 2.346 2.7c1.26 2.1 1.435 2.3 1.96 2.3a1.309 1.309 0 0 0 1.263-1.5zm28.318-2.3a.517.517 0 0 0-.49.4s.35.8.385.9a4.638 4.638 0 0 1 .315 1.8c0 .9-.315 3.8-.455 5-.735 6.8-.8 7.5-.8 9.7 0 7 2.17 9.7 6.721 9.7 6.58 0 11.761-5.7 11.761-6.1a.174.174 0 0 0-.175-.1c-.14 0-2.8 1.4-3.325 1.7a18.277 18.277 0 0 1-7.351 1.8c-4.691 0-5.356-3.2-5.356-6.7a82.514 82.514 0 0 1 1.47-12.4c.07-.3.666-1.7.666-2-.002-.8-1.543-3.7-3.363-3.7zm33.81 9.9c.736-.2 4.236-1.5 4.446-1.5 1.015 0 5.671 5.2 5.671 7.5a1.136 1.136 0 0 1-1.226 1.1 12.6 12.6 0 0 1-2.87-.7 11.042 11.042 0 0 0-3.78-.6c-3.886 0-7.456 2.1-7.456 5.5a5.272 5.272 0 0 0 3.01 4.4 11.665 11.665 0 0 0 5.636 1.1c.63 0 3.99 0 3.99-1.9a1.5 1.5 0 0 0-1.715-1.4c-.07 0-3.045.3-3.64.3-2.976 0-5.181-.8-5.181-3.1a4.675 4.675 0 0 1 4.9-4 13.286 13.286 0 0 1 5.95 1.8c2.1 1.1 2.346 1.3 2.976 1.3a2.2 2.2 0 0 0 2.31-2.4c0-3.5-4.586-7.6-6.406-9.2a1 1 0 0 1-.42-.7c0-.2.1-.3 1.05-.9.49-.3 2.135-1.5 2.135-2.4a1.243 1.243 0 0 0-1.19-1.3h-2.59a5.679 5.679 0 0 1-3.29-.8c-1.61-.9-1.961-1.1-2.7-1.1a1.635 1.635 0 0 0-1.75 1.6c0 1 1.295 2.2 2.24 2.9a5.06 5.06 0 0 1 1.611 1.4c0 .6-2.381 1.2-3.711 1.2a9.735 9.735 0 0 1-3.605-.9 6.723 6.723 0 0 0-1.435-.7.269.269 0 0 0-.28.3c0 .7 1.54 3.4 5.145 3.4a12.33 12.33 0 0 0 2.178-.2zm1.961-5.1c-.28-.2-1.54-1.3-1.54-2.1a.664.664 0 0 1 .665-.6c.385 0 .665.1 2.975 1.5 1.12.7 1.225.8 1.225 1.2a1.529 1.529 0 0 1-1.295 1.2 5.707 5.707 0 0 1-2.027-1.2zm27.16 23a1.9 1.9 0 0 0 0-3.8 1.9 1.9 0 0 0 .003 3.8zm0-26.8a1.867 1.867 0 0 0-1.82 1.8c0 .7.525 4 .6 4.7a113.207 113.207 0 0 1 .6 13.4c0 .9.035 1.4.63 1.4s.63-.5.63-1.5a120.762 120.762 0 0 1 .56-13.3c.1-.9.63-3.8.63-4.7a1.892 1.892 0 0 0-1.827-1.8z" transform="translate(-432.5 -16001.5)" fill="#c9a97a" fill-rule="evenodd"/></svg>